<svg width="21" height="25" viewBox="0 0 21 25" fill="none" xmlns="http://www.w3.org/2000/svg">
<path d="M10.4656 24.5834H10.5C15.8061 24.5834 20.125 20.7893 20.125 16.1251V8.87508C20.125 4.23387 15.8254 0.448165 10.5261 0.416748C10.5179 0.416748 10.5083 0.416748 10.5 0.416748C10.4973 0.416748 10.478 0.416748 10.4753 0.416748C10.4629 0.416748 10.4532 0.416748 10.4436 0.416748C5.16362 0.443331 0.875 4.23146 0.875 8.87508V16.1251C0.875 20.7893 5.17738 24.5834 10.4656 24.5834ZM3.625 8.87508C3.625 5.55096 6.70225 2.84067 10.4794 2.83342C14.2813 2.84067 17.375 5.55096 17.375 8.87508V16.1251C17.375 19.4565 14.2909 22.1668 10.5 22.1668H10.4656C6.63075 22.1668 3.625 19.5133 3.625 16.1251V8.87508Z" fill="white"/>
<path d="M9.125 5.25H11.875V12.5H9.125V5.25Z" fill="white"/>
</svg>
