<svg width="50" height="37" viewBox="0 0 50 37" fill="none" xmlns="http://www.w3.org/2000/svg">
<path d="M45.3125 0C47.9004 0 50 2.07065 50 4.625C50 6.07995 49.3066 7.44818 48.125 8.325L26.875 24.05C25.7617 24.869 24.2383 24.869 23.125 24.05L1.875 8.325C0.694629 7.44818 0 6.07995 0 4.625C0 2.07065 2.09863 0 4.6875 0H45.3125ZM21.25 26.5167C23.4766 28.1643 26.5234 28.1643 28.75 26.5167L50 10.7917V30.8333C50 34.2346 47.1973 37 43.75 37H6.25C2.79785 37 0 34.2346 0 30.8333V10.7917L21.25 26.5167Z" fill="#F4BA27"/>
</svg>
