<svg width="20" height="36" viewBox="0 0 20 36" fill="none" xmlns="http://www.w3.org/2000/svg">
<path d="M2.28386 0.0397453C2.45847 0.0396652 2.63139 0.0739861 2.79274 0.140743C2.95409 0.207504 3.1007 0.305393 3.22421 0.428825L19.6108 16.8163C19.86 17.0656 20 17.4036 20 17.7562C20 18.1087 19.86 18.4468 19.6108 18.6961L3.22421 35.0835C3.10078 35.207 2.95424 35.305 2.79295 35.3718C2.63165 35.4387 2.45877 35.4731 2.28418 35.4731C2.10958 35.4732 1.93668 35.4388 1.77536 35.3721C1.61403 35.3053 1.46744 35.2074 1.34395 35.084C1.22046 34.9605 1.1225 34.814 1.05564 34.6527C0.988792 34.4914 0.954359 34.3185 0.954317 34.1439C0.954277 33.9693 0.988626 33.7964 1.0554 33.6351C1.12218 33.4738 1.22008 33.3272 1.34351 33.2037L16.7906 17.7566L1.34351 2.30952C1.15747 2.1236 1.03075 1.88666 0.979406 1.6287C0.928061 1.37074 0.954388 1.10334 1.05506 0.86034C1.15573 0.617344 1.32622 0.409672 1.54496 0.263603C1.76369 0.117531 2.02084 0.0396271 2.28386 0.0397453Z" fill="#AEAEAE"/>
</svg>
