<svg width="40" height="40" viewBox="0 0 40 40" fill="none" xmlns="http://www.w3.org/2000/svg">
<path d="M38.5376 12.4738C37.5308 9.99089 36.0547 7.76765 34.1458 5.85877C32.2369 3.94989 30.0091 2.4738 27.5308 1.46697C25.1298 0.492027 22.5968 0 20 0C17.4032 0 14.8702 0.492027 12.4738 1.46241C9.99089 2.46925 7.76765 3.94533 5.85877 5.85421C3.94989 7.7631 2.46925 9.99089 1.46697 12.4692C0.492027 14.8702 0 17.4032 0 20C0 22.5968 0.492027 25.1298 1.46241 27.5262C2.46925 30.0091 3.94533 32.2323 5.85421 34.1412C7.7631 36.0501 9.99089 37.5262 12.4692 38.533C14.8702 39.508 17.4032 40 20 40C22.5968 40 25.1298 39.508 27.5262 38.5376C30.0091 37.5308 32.2323 36.0547 34.1412 34.1458C36.0501 32.2369 37.5308 30.0091 38.533 27.5308C39.508 25.1298 40 22.5968 40 20C40 17.4032 39.508 14.8702 38.5376 12.4738ZM17.3713 26.6378L11.2938 20.9431L12.5376 19.6128L17.3257 24.1002L27.4396 13.9863L28.7289 15.2756L17.3713 26.6378Z" fill="#814684"/>
</svg>
