<svg width="26" height="24" viewBox="0 0 26 24" fill="none" xmlns="http://www.w3.org/2000/svg">
<path d="M18.7505 14.625C19.7221 13.15 20.2921 11.4 20.2921 9.51875C20.2921 4.2625 15.8811 0 10.4402 0C4.99281 0 0.581787 4.2625 0.581787 9.51875C0.581787 14.775 4.99281 19.0375 10.4337 19.0375C12.4093 19.0375 14.2488 18.475 15.7904 17.5125L16.2374 17.2125L23.2717 24L25.4545 21.8563L18.4267 15.0688L18.7505 14.625ZM15.9588 4.2C17.4292 5.61875 18.2388 7.50625 18.2388 9.5125C18.2388 11.5187 17.4292 13.4063 15.9588 14.825C14.4885 16.2438 12.5324 17.025 10.4531 17.025C8.37395 17.025 6.41781 16.2438 4.94747 14.825C3.47713 13.4063 2.66747 11.5187 2.66747 9.5125C2.66747 7.50625 3.47713 5.61875 4.94747 4.2C6.41781 2.78125 8.37395 2 10.4531 2C12.5324 2 14.4885 2.78125 15.9588 4.2Z" fill="#814684"/>
</svg>
