<svg width="62" height="67" viewBox="0 0 62 67" fill="none" xmlns="http://www.w3.org/2000/svg">
<g clip-path="url(#clip0)" filter="url(#filter0_d)">
<path d="M4.82244 59.9238C5.77974 55.6577 7.67235 47.6049 10.0058 39.1955C9.23433 39.023 8.52839 38.8661 7.95469 38.7338C7.70467 38.6766 7.47042 38.5647 7.26876 38.4062C7.0671 38.2477 6.90302 38.0465 6.78829 37.8171C6.67356 37.5877 6.61103 37.3357 6.60518 37.0793C6.59934 36.8229 6.65032 36.5684 6.75448 36.334C8.81751 31.5997 14.5129 19.21 20.4958 12.1034C20.5953 11.9777 20.6925 11.8183 20.7928 11.7027C22.6071 9.6115 24.8156 7.89813 27.2921 6.66044C29.7686 5.42274 32.4646 4.68494 35.2262 4.48917C37.9879 4.2934 40.761 4.64349 43.3874 5.51945C46.0137 6.39541 48.4418 7.78009 50.533 9.59442C52.6242 11.4088 54.3375 13.6172 55.5752 16.0937C56.8129 18.5702 57.5507 21.2662 57.7465 24.0279C57.9423 26.7895 57.5922 29.5626 56.7162 32.189C55.8403 34.8153 54.4556 37.2434 52.6412 39.3346C52.541 39.4502 52.3968 39.5688 52.2864 39.6851C46.095 46.6217 34.6435 53.9949 30.2357 56.7035C30.0183 56.8396 29.7735 56.9259 29.5188 56.9562C29.2641 56.9866 29.0059 56.9601 28.7627 56.8788C28.5194 56.7975 28.2972 56.6634 28.1119 56.486C27.9266 56.3087 27.7829 56.0925 27.6911 55.853C27.4802 55.3154 27.2248 54.6283 26.9454 53.8888C18.9596 57.3827 11.2446 60.3914 7.15627 61.9384C6.86093 62.051 6.54061 62.0816 6.22929 62.0269C5.91796 61.9723 5.62724 61.8343 5.38797 61.6278C5.14869 61.4213 4.96978 61.1538 4.87022 60.8538C4.77065 60.5538 4.75414 60.2324 4.82244 59.9238ZM23.1941 26.1671C23.3878 28.8991 24.3873 31.5123 26.0662 33.6764C27.745 35.8404 30.0279 37.458 32.626 38.3246C35.2242 39.1912 38.021 39.268 40.6628 38.5452C43.3046 37.8223 45.6727 36.3324 47.4678 34.2637C49.2628 32.195 50.4041 29.6405 50.7473 26.9232C51.0906 24.2059 50.6203 21.4478 49.3961 18.9977C48.1719 16.5476 46.2487 14.5156 43.8696 13.1585C41.4906 11.8015 38.7625 11.1803 36.0305 11.3736C34.2162 11.502 32.445 11.9864 30.818 12.7993C29.191 13.6122 27.74 14.7377 26.548 16.1114C25.356 17.4852 24.4463 19.0803 23.8708 20.8056C23.2954 22.531 23.0654 24.3528 23.1941 26.1671ZM37.2525 28.6435C37.2043 27.9605 37.3597 27.2785 37.699 26.6838C38.0384 26.0891 38.5464 25.6084 39.159 25.3024C39.7716 24.9964 40.4611 24.879 41.1404 24.9649C41.8197 25.0508 42.4583 25.3362 42.9754 25.785C43.4925 26.2339 43.8649 26.8259 44.0456 27.4864C44.2262 28.1469 44.2069 28.8461 43.9901 29.4956C43.7734 30.1451 43.3689 30.7158 42.8278 31.1354C42.2868 31.555 41.6334 31.8048 40.9504 31.8532C40.4967 31.8858 40.0411 31.8286 39.6096 31.6848C39.178 31.5411 38.7791 31.3137 38.4356 31.0155C38.0921 30.7174 37.8108 30.3544 37.6078 29.9474C37.4048 29.5404 37.284 29.0973 37.2525 28.6435ZM33.188 20.253C33.1639 19.9115 33.2416 19.5705 33.4112 19.2731C33.5809 18.9757 33.835 18.7354 34.1412 18.5824C34.4475 18.4294 34.7923 18.3707 35.1319 18.4136C35.4716 18.4566 35.7909 18.5993 36.0495 18.8237C36.308 19.0481 36.4942 19.3442 36.5845 19.6744C36.6748 20.0046 36.6652 20.3542 36.5568 20.679C36.4484 21.0037 36.2462 21.2891 35.9757 21.4989C35.7051 21.7087 35.3785 21.8336 35.0369 21.8578C34.5793 21.8887 34.128 21.7372 33.7816 21.4366C33.4352 21.1359 33.2218 20.7104 33.188 20.253L33.188 20.253Z" fill="white"/>
</g>
<defs>
<filter id="filter0_d" x="-3" y="-0.999992" width="67.175" height="67.175" filterUnits="userSpaceOnUse" color-interpolation-filters="sRGB">
<feFlood flood-opacity="0" result="BackgroundImageFix"/>
<feColorMatrix in="SourceAlpha" type="matrix" values="0 0 0 0 0 0 0 0 0 0 0 0 0 0 0 0 0 0 127 0" result="hardAlpha"/>
<feOffset/>
<feGaussianBlur stdDeviation="2"/>
<feColorMatrix type="matrix" values="0 0 0 0 1 0 0 0 0 1 0 0 0 0 1 0 0 0 0.38 0"/>
<feBlend mode="normal" in2="BackgroundImageFix" result="effect1_dropShadow"/>
<feBlend mode="normal" in="SourceGraphic" in2="effect1_dropShadow" result="shape"/>
</filter>
<clipPath id="clip0">
<rect width="55.4026" height="55.4026" fill="white" transform="translate(60.175 58.2644) rotate(175.952)"/>
</clipPath>
</defs>
</svg>
