<svg width="61" height="61" viewBox="0 0 61 61" fill="none" xmlns="http://www.w3.org/2000/svg">
<g filter="url(#filter0_d)">
<path d="M38.8948 19.0676C38.1833 19.068 37.4939 19.3151 36.9441 19.7668C36.3943 20.2184 36.0182 20.8468 35.8797 21.5447C35.7412 22.2427 35.8491 22.967 36.1848 23.5944C36.5205 24.2217 37.0634 24.7133 37.7209 24.9852C38.3784 25.2572 39.1098 25.2928 39.7906 25.086C40.4714 24.8791 41.0595 24.4426 41.4545 23.8508C41.8496 23.259 42.0272 22.5486 41.9572 21.8405C41.8872 21.1324 41.5738 20.4705 41.0705 19.9676C40.785 19.6816 40.4459 19.4548 40.0725 19.3004C39.6991 19.1459 39.2989 19.0668 38.8948 19.0676Z" fill="white"/>
<path d="M56.0175 6.76865C56.0169 6.76521 56.0169 6.76171 56.0175 6.75828C55.92 6.33112 55.7051 5.9397 55.3971 5.62817C55.089 5.31664 54.7 5.0974 54.274 4.99519C50.84 4.15744 45.4378 5.0505 39.4514 7.44738C33.4177 9.8673 27.7643 13.4396 23.9431 17.2677C22.7183 18.4859 21.5805 19.7886 20.538 21.166C17.9648 21.0508 15.6981 21.4172 13.7887 22.2504C7.13504 25.1785 5.23483 32.6722 4.72895 35.7489C4.65575 36.1861 4.68441 36.6343 4.81271 37.0586C4.941 37.4828 5.16547 37.8718 5.46865 38.1951C5.77182 38.5185 6.14552 38.7675 6.56067 38.9229C6.97581 39.0782 7.4212 39.1357 7.86217 39.0907H7.87715L15.289 38.2818C15.2982 38.3763 15.3086 38.4627 15.3167 38.5422C15.4119 39.4454 15.8147 40.2884 16.4575 40.9299L20.0747 44.5494C20.7152 45.1931 21.5581 45.5964 22.4612 45.6914L22.709 45.7179L21.9023 53.1205C21.9023 53.1205 21.9023 53.1297 21.9023 53.1355C21.8611 53.5342 21.9035 53.9371 22.0269 54.3185C22.1502 54.6998 22.3518 55.0512 22.6187 55.3502C22.8856 55.6493 23.212 55.8893 23.577 56.055C23.9419 56.2207 24.3375 56.3084 24.7382 56.3125C24.8985 56.3126 25.0584 56.2995 25.2165 56.2733C28.3105 55.7755 35.8007 53.8984 38.7208 47.209C39.547 45.3122 39.9123 43.0548 39.8097 40.4862C41.1934 39.446 42.5008 38.308 43.722 37.0811C47.5742 33.2484 51.158 27.6411 53.5526 21.695C55.9368 15.7765 56.8345 10.334 56.0175 6.76865ZM43.6805 26.9208C42.7336 27.8687 41.5269 28.5144 40.213 28.7763C38.8991 29.0381 37.5371 28.9044 36.2992 28.3921C35.0613 27.8797 34.0032 27.0117 33.2587 25.8978C32.5143 24.784 32.1169 23.4743 32.1169 22.1346C32.1169 20.7948 32.5143 19.4852 33.2587 18.3713C34.0032 17.2575 35.0613 16.3895 36.2992 15.8771C37.5371 15.3647 38.8991 15.231 40.213 15.4929C41.5269 15.7548 42.7336 16.4005 43.6805 17.3483C44.3151 17.9734 44.8191 18.7185 45.1631 19.5402C45.5071 20.3619 45.6842 21.2438 45.6842 22.1346C45.6842 23.0254 45.5071 23.9073 45.1631 24.729C44.8191 25.5507 44.3151 26.2957 43.6805 26.9208Z" fill="white"/>
<path d="M19.6599 45.5312C19.214 45.4758 18.7632 45.5852 18.3923 45.8388C17.656 46.3424 16.9162 46.8402 16.1694 47.3254C14.6587 48.3071 12.8518 46.5832 13.7495 45.0207L15.1496 42.6007C15.3498 42.3079 15.4612 41.9636 15.4706 41.609C15.48 41.2545 15.3869 40.9047 15.2025 40.6017C15.0181 40.2987 14.7502 40.0553 14.431 39.9008C14.1118 39.7462 13.7547 39.687 13.4027 39.7303C11.8487 39.9268 10.4043 40.6346 9.29686 41.7422C8.8751 42.1652 7.59254 43.4489 6.90228 48.3406C6.70581 49.7456 6.58196 51.1599 6.53123 52.5777C6.52492 52.8238 6.56795 53.0686 6.65778 53.2978C6.74761 53.527 6.88242 53.7359 7.05426 53.9121C7.2261 54.0884 7.43149 54.2284 7.65832 54.324C7.88515 54.4196 8.12883 54.4688 8.37498 54.4687H8.42107C9.84 54.4185 11.2554 54.2954 12.6617 54.1C17.5557 53.4086 18.8394 52.1249 19.2612 51.7031C20.374 50.5952 21.0801 49.144 21.2651 47.5846C21.3243 47.0995 21.1885 46.6107 20.8875 46.2256C20.5865 45.8406 20.145 45.5908 19.6599 45.5312Z" fill="white"/>
</g>
<defs>
<filter id="filter0_d" x="-3" y="-3" width="67" height="67" filterUnits="userSpaceOnUse" color-interpolation-filters="sRGB">
<feFlood flood-opacity="0" result="BackgroundImageFix"/>
<feColorMatrix in="SourceAlpha" type="matrix" values="0 0 0 0 0 0 0 0 0 0 0 0 0 0 0 0 0 0 127 0" result="hardAlpha"/>
<feOffset/>
<feGaussianBlur stdDeviation="2"/>
<feColorMatrix type="matrix" values="0 0 0 0 1 0 0 0 0 1 0 0 0 0 1 0 0 0 0.47 0"/>
<feBlend mode="normal" in2="BackgroundImageFix" result="effect1_dropShadow"/>
<feBlend mode="normal" in="SourceGraphic" in2="effect1_dropShadow" result="shape"/>
</filter>
</defs>
</svg>
