<svg width="61" height="61" viewBox="0 0 61 61" fill="none" xmlns="http://www.w3.org/2000/svg">
<g filter="url(#filter0_d)">
<path d="M44.6317 53.375C44.2252 53.3766 43.8243 53.2808 43.4625 53.0954L30.5 46.3092L17.5375 53.0954C17.1166 53.3167 16.642 53.4156 16.1677 53.3806C15.6935 53.3456 15.2385 53.1783 14.8546 52.8977C14.4707 52.617 14.1732 52.2343 13.996 51.793C13.8188 51.3517 13.7689 50.8695 13.8521 50.4012L16.3938 36.0917L5.92209 25.925C5.59538 25.599 5.36361 25.1901 5.25167 24.7423C5.13972 24.2946 5.15183 23.8248 5.28667 23.3833C5.43399 22.9316 5.70497 22.5302 6.06887 22.2247C6.43277 21.9192 6.87502 21.7219 7.34542 21.655L21.8329 19.5454L28.2125 6.50666C28.4206 6.07694 28.7456 5.71453 29.1502 5.46095C29.5547 5.20738 30.0225 5.07288 30.5 5.07288C30.9775 5.07288 31.4453 5.20738 31.8499 5.46095C32.2544 5.71453 32.5794 6.07694 32.7875 6.50666L39.2433 19.52L53.7308 21.6296C54.2012 21.6964 54.6435 21.8938 55.0074 22.1993C55.3713 22.5048 55.6423 22.9062 55.7896 23.3579C55.9244 23.7993 55.9365 24.2691 55.8246 24.7169C55.7126 25.1647 55.4809 25.5735 55.1542 25.8996L44.6825 36.0662L47.2242 50.3758C47.3149 50.8523 47.2674 51.3449 47.0872 51.7952C46.9071 52.2456 46.6018 52.635 46.2075 52.9175C45.7473 53.24 45.1931 53.4009 44.6317 53.375Z" fill="white"/>
</g>
<defs>
<filter id="filter0_d" x="-4" y="-4" width="69" height="69" filterUnits="userSpaceOnUse" color-interpolation-filters="sRGB">
<feFlood flood-opacity="0" result="BackgroundImageFix"/>
<feColorMatrix in="SourceAlpha" type="matrix" values="0 0 0 0 0 0 0 0 0 0 0 0 0 0 0 0 0 0 127 0" result="hardAlpha"/>
<feOffset/>
<feGaussianBlur stdDeviation="2"/>
<feColorMatrix type="matrix" values="0 0 0 0 1 0 0 0 0 1 0 0 0 0 1 0 0 0 0.38 0"/>
<feBlend mode="normal" in2="BackgroundImageFix" result="effect1_dropShadow"/>
<feBlend mode="normal" in="SourceGraphic" in2="effect1_dropShadow" result="shape"/>
</filter>
</defs>
</svg>
