<svg width="55" height="55" viewBox="0 0 55 55" fill="none" xmlns="http://www.w3.org/2000/svg">
<g filter="url(#filter0_d)">
<path d="M27.5 51C24.3177 51 21.2731 50.3804 18.3662 49.1411C15.4593 47.9019 12.9578 46.2342 10.8618 44.1382C8.76579 42.0422 7.09814 39.5407 5.85889 36.6338C4.61963 33.7269 4 30.6823 4 27.5C4 24.3177 4.61963 21.2731 5.85889 18.3662C7.09814 15.4593 8.76579 12.9578 10.8618 10.8618C12.9578 8.76579 15.4593 7.09814 18.3662 5.85889C21.2731 4.61963 24.3177 4 27.5 4C30.6823 4 33.7269 4.61963 36.6338 5.85889C39.5407 7.09814 42.0422 8.76579 44.1382 10.8618C46.2342 12.9578 47.9019 15.4593 49.1411 18.3662C50.3804 21.2731 51 24.3177 51 27.5C51 30.6823 50.3804 33.7269 49.1411 36.6338C47.9019 39.5407 46.2342 42.0422 44.1382 44.1382C42.0422 46.2342 39.5407 47.9019 36.6338 49.1411C33.7269 50.3804 30.6823 51 27.5 51ZM17.4482 17.4482L15.2451 15.5205C14.9085 15.5205 14.5107 15.5588 14.0518 15.6353C13.5928 15.7118 13.1797 15.75 12.8125 15.75C12.7819 15.7194 12.5065 15.1533 11.9863 14.0518C8.62044 17.9378 6.9375 22.4206 6.9375 27.5C6.9375 27.5918 6.94515 27.7142 6.96045 27.8672C6.97575 28.0202 6.9834 28.1273 6.9834 28.1885C7.16699 28.3721 7.61833 28.7163 8.3374 29.2212C9.05648 29.7261 9.56901 30.1315 9.875 30.4375H12.8125C12.9043 30.3763 12.9884 30.3304 13.0649 30.2998C13.1414 30.2692 13.2256 30.2386 13.3174 30.208C13.0114 29.8714 12.5601 29.3742 11.9634 28.7163C11.3667 28.0584 10.9154 27.5765 10.6094 27.2705C10.7318 26.5667 10.9001 25.5034 11.1143 24.0806C11.3285 22.6577 11.4814 21.5944 11.5732 20.8906C14.2048 19.7891 16.1631 18.9782 17.4482 18.458V17.4482ZM26.6738 9.9668C26.2454 9.7832 25.8477 9.61491 25.4805 9.46191C25.3887 9.21712 25.3275 9.03353 25.2969 8.91113C25.1133 9.49251 24.8226 10.3646 24.4248 11.5273C24.5472 11.5579 24.7231 11.5885 24.9526 11.6191C25.1821 11.6497 25.3581 11.6803 25.4805 11.7109H26.6738V9.9668ZM26.4902 31.585C26.3372 31.738 26.2301 31.8604 26.1689 31.9521C25.8018 32.5947 25.2816 33.5739 24.6084 34.8896C23.9352 36.2054 23.4303 37.1846 23.0938 37.8271C23.5221 38.4697 24.1724 39.4489 25.0444 40.7646C25.9165 42.0804 26.5667 43.0596 26.9951 43.7021C30.973 43.9469 33.987 44.1305 36.0371 44.2529C36.0983 45.0179 36.3431 45.5381 36.7715 45.8135C39.556 44.4059 41.9121 42.4552 43.8398 39.9614C45.7676 37.4676 47.0374 34.6755 47.6494 31.585C47.068 31.4626 46.4331 31.2943 45.7446 31.0801C45.0562 30.8659 44.5589 30.7205 44.2529 30.644C43.9469 30.5675 43.3426 30.491 42.4399 30.4146C41.5373 30.3381 40.5964 30.3916 39.6172 30.5752C39.25 30.6058 39.0129 30.3687 38.9058 29.8638C38.7987 29.3589 38.7451 28.8387 38.7451 28.3032C38.7451 27.7677 38.6839 27.4847 38.5615 27.4541C37.8883 27.3317 36.5267 27.4465 34.4766 27.7983C32.4264 28.1502 31.0648 28.265 30.3916 28.1426C29.9938 28.5098 28.6934 29.6572 26.4902 31.585ZM29.1982 8.58984C29.1064 9.20182 28.9458 10.1198 28.7163 11.3438C28.4868 12.5677 28.3109 13.501 28.1885 14.1436C28.3415 14.113 28.5939 14.0747 28.9458 14.0288C29.2977 13.9829 29.5501 13.96 29.7031 13.96C29.6113 13.8988 29.5042 13.8376 29.3818 13.7764C29.8408 13.6234 30.1774 13.501 30.3916 13.4092C29.8714 11.2673 29.4736 9.66081 29.1982 8.58984ZM34.5225 8.17676C34.4613 8.51335 34.4307 8.98763 34.4307 9.59961C34.4307 10.2116 34.2777 11.0225 33.9717 12.0322C34.0023 12.0934 34.0635 12.1546 34.1553 12.2158C34.7673 12.1546 35.7923 12.0475 37.2305 11.8945C37.2305 11.252 37.5518 10.6094 38.1943 9.9668C37.0316 9.26302 35.8076 8.66634 34.5225 8.17676ZM40.2598 11.3896C40.1986 11.512 40.0915 11.6803 39.9385 11.8945C40.5199 11.9863 40.9023 12.0628 41.0859 12.124C40.7188 11.7874 40.4434 11.5426 40.2598 11.3896ZM41.499 12.4912C41.4072 12.6748 41.2619 12.9502 41.063 13.3174C40.8641 13.6846 40.7188 13.96 40.627 14.1436C39.7396 14.1742 38.5462 14.2201 37.0469 14.2812L36.8633 12.7207C36.8021 12.7513 36.695 12.7896 36.542 12.8354C36.389 12.8813 36.2666 12.9043 36.1748 12.9043V15.1533C35.5322 15.2145 34.5454 15.3063 33.2144 15.4287C31.8833 15.5511 30.8965 15.6429 30.2539 15.7041C30.0397 16.0101 29.8102 16.3467 29.5654 16.7139C30.3916 18.4886 31.0189 19.8197 31.4473 20.707C30.8353 20.86 29.5807 21.1966 27.6836 21.7168V23.2773C27.6836 23.3385 27.7065 23.4303 27.7524 23.5527C27.7983 23.6751 27.8366 23.7669 27.8672 23.8281C28.3874 24.0729 29.1982 24.4401 30.2998 24.9297C31.4014 25.4193 32.2275 25.8018 32.7783 26.0771L33.7881 24.8379C33.7575 24.5319 33.681 24.05 33.5586 23.3921C33.4362 22.7342 33.3444 22.237 33.2832 21.9004C33.375 21.8392 33.5203 21.755 33.7192 21.6479C33.9181 21.5409 34.0635 21.4567 34.1553 21.3955C34.9814 21.1507 35.6087 20.9824 36.0371 20.8906C36.4349 21.5332 36.9933 22.4512 37.7124 23.6445C38.4315 24.8379 38.8828 25.5876 39.0664 25.8936C39.3418 25.6488 39.7243 25.2739 40.2139 24.769C40.7034 24.2642 41.0706 23.8893 41.3154 23.6445C39.6631 22.4818 38.5768 21.7321 38.0566 21.3955C38.0872 21.1507 38.1484 20.7988 38.2402 20.3398H39.9385C41.652 21.8086 43.4115 23.3079 45.2168 24.8379C45.2474 24.8379 45.278 24.8149 45.3086 24.769C45.3392 24.7231 45.3698 24.7002 45.4004 24.7002C45.278 24.4554 44.8802 23.7057 44.207 22.4512C44.207 22.4206 44.2529 22.3594 44.3447 22.2676L44.5283 22.084H46.4102C46.4408 22.0534 46.7008 21.9157 47.1904 21.6709C46.1501 18.1214 44.2529 15.0615 41.499 12.4912Z" fill="white"/>
</g>
<defs>
<filter id="filter0_d" x="0" y="0" width="55" height="55" filterUnits="userSpaceOnUse" color-interpolation-filters="sRGB">
<feFlood flood-opacity="0" result="BackgroundImageFix"/>
<feColorMatrix in="SourceAlpha" type="matrix" values="0 0 0 0 0 0 0 0 0 0 0 0 0 0 0 0 0 0 127 0" result="hardAlpha"/>
<feOffset/>
<feGaussianBlur stdDeviation="2"/>
<feColorMatrix type="matrix" values="0 0 0 0 1 0 0 0 0 1 0 0 0 0 1 0 0 0 0.38 0"/>
<feBlend mode="normal" in2="BackgroundImageFix" result="effect1_dropShadow"/>
<feBlend mode="normal" in="SourceGraphic" in2="effect1_dropShadow" result="shape"/>
</filter>
</defs>
</svg>
