<?xml version="1.0" encoding="utf-8"?><svg viewBox="0 0 20 20" xmlns="http://www.w3.org/2000/svg" xmlns:xlink="http://www.w3.org/1999/xlink"><style>:root>svg{display:none}:root>svg:target{display:block}</style><svg viewBox="0 0 20 20" id="copyright" xmlns="http://www.w3.org/2000/svg"><g clip-path="url(#aa)"><path d="M10 20a9.935 9.935 0 01-7.071-2.929A9.935 9.935 0 010 10a9.935 9.935 0 012.929-7.071A9.935 9.935 0 0110 0a9.935 9.935 0 017.071 2.929A9.935 9.935 0 0120 10a9.935 9.935 0 01-2.929 7.071A9.935 9.935 0 0110 20zm0-18.438c-4.652 0-8.438 3.786-8.438 8.438 0 4.652 3.786 8.438 8.438 8.438 4.652 0 8.438-3.785 8.438-8.438 0-4.652-3.785-8.438-8.438-8.438zm3.528 12.029a.781.781 0 00-1.105-1.105 3.52 3.52 0 01-4.972 0A3.493 3.493 0 016.421 10c0-.94.366-1.822 1.03-2.486a3.52 3.52 0 014.972 0 .781.781 0 001.105-1.105 5.084 5.084 0 00-7.182 0A5.045 5.045 0 004.86 10c0 1.356.528 2.632 1.487 3.59.99.99 2.29 1.486 3.591 1.486 1.3 0 2.6-.495 3.59-1.485z" fill-opacity=".65"/></g><defs><clipPath id="aa"><path d="M0 0h20v20H0z"/></clipPath></defs></svg></svg>