<svg width="31" height="29" viewBox="0 0 31 29" fill="none" xmlns="http://www.w3.org/2000/svg">
<path fill-rule="evenodd" clip-rule="evenodd" d="M0 9.25C0 8.28859 0.408258 7.36656 1.13496 6.68674C1.86166 6.00692 2.84729 5.625 3.875 5.625H27.125C28.1527 5.625 29.1383 6.00692 29.865 6.68674C30.5917 7.36656 31 8.28859 31 9.25V23.75C31 24.7114 30.5917 25.6334 29.865 26.3133C29.1383 26.9931 28.1527 27.375 27.125 27.375H3.875C2.84729 27.375 1.86166 26.9931 1.13496 26.3133C0.408258 25.6334 0 24.7114 0 23.75V9.25ZM3.875 7.4375C3.36114 7.4375 2.86833 7.62846 2.50498 7.96837C2.14163 8.30828 1.9375 8.76929 1.9375 9.25V11.0625H29.0625V9.25C29.0625 8.76929 28.8584 8.30828 28.495 7.96837C28.1317 7.62846 27.6389 7.4375 27.125 7.4375H3.875ZM29.0625 14.6875H1.9375V23.75C1.9375 24.2307 2.14163 24.6917 2.50498 25.0316C2.86833 25.3715 3.36114 25.5625 3.875 25.5625H27.125C27.6389 25.5625 28.1317 25.3715 28.495 25.0316C28.8584 24.6917 29.0625 24.2307 29.0625 23.75V14.6875Z" fill="black"/>
<path d="M3.875 20.125C3.875 19.6443 4.07913 19.1833 4.44248 18.8434C4.80583 18.5035 5.29864 18.3125 5.8125 18.3125H7.75C8.26386 18.3125 8.75667 18.5035 9.12002 18.8434C9.48337 19.1833 9.6875 19.6443 9.6875 20.125V21.9375C9.6875 22.4182 9.48337 22.8792 9.12002 23.2191C8.75667 23.559 8.26386 23.75 7.75 23.75H5.8125C5.29864 23.75 4.80583 23.559 4.44248 23.2191C4.07913 22.8792 3.875 22.4182 3.875 21.9375V20.125Z" fill="black"/>
</svg>
