<svg width="41" height="41" viewBox="0 0 41 41" fill="none" xmlns="http://www.w3.org/2000/svg">
<path d="M3.41675 11.9583C3.41675 11.0149 4.1816 10.25 5.12508 10.25H35.8751C36.8186 10.25 37.5834 11.0149 37.5834 11.9583V29.0417C37.5834 29.9852 36.8186 30.75 35.8751 30.75H5.12508C4.1816 30.75 3.41675 29.9852 3.41675 29.0417V11.9583Z" stroke="black" stroke-width="2" stroke-linecap="round" stroke-linejoin="round"/>
<path d="M20.4999 23.9166C22.3869 23.9166 23.9166 22.387 23.9166 20.5C23.9166 18.613 22.3869 17.0833 20.4999 17.0833C18.6129 17.0833 17.0833 18.613 17.0833 20.5C17.0833 22.387 18.6129 23.9166 20.4999 23.9166Z" stroke="black" stroke-width="2" stroke-linecap="round" stroke-linejoin="round"/>
<path d="M10.2775 20.5275L10.25 20.5" stroke="black" stroke-width="2" stroke-linecap="round" stroke-linejoin="round"/>
<path d="M30.7775 20.5275L30.75 20.5" stroke="black" stroke-width="2" stroke-linecap="round" stroke-linejoin="round"/>
</svg>
