<svg width="22" height="22" viewBox="0 0 22 22" fill="none" xmlns="http://www.w3.org/2000/svg">
<g clip-path="url(#clip0_1384_285)">
<path d="M11 22C11 22 19.25 14.1818 19.25 8.25C19.25 6.06196 18.3808 3.96354 16.8336 2.41637C15.2865 0.869194 13.188 0 11 0C8.81196 0 6.71354 0.869194 5.16637 2.41637C3.61919 3.96354 2.75 6.06196 2.75 8.25C2.75 14.1818 11 22 11 22ZM11 12.375C9.90598 12.375 8.85677 11.9404 8.08318 11.1668C7.3096 10.3932 6.875 9.34402 6.875 8.25C6.875 7.15598 7.3096 6.10677 8.08318 5.33318C8.85677 4.5596 9.90598 4.125 11 4.125C12.094 4.125 13.1432 4.5596 13.9168 5.33318C14.6904 6.10677 15.125 7.15598 15.125 8.25C15.125 9.34402 14.6904 10.3932 13.9168 11.1668C13.1432 11.9404 12.094 12.375 11 12.375Z" fill="#FF9100"/>
</g>
<defs>
<clipPath id="clip0_1384_285">
<rect width="22" height="22" fill="white"/>
</clipPath>
</defs>
</svg>
