<svg width="22" height="22" viewBox="0 0 22 22" fill="none" xmlns="http://www.w3.org/2000/svg">
<path d="M4.94922 2.2002C4.21987 2.2002 3.5204 2.48993 3.00467 3.00565C2.48895 3.52138 2.19922 4.22085 2.19922 4.95019V5.50019H15.3992V4.95019C15.3992 4.22085 15.1095 3.52138 14.5938 3.00565C14.078 2.48993 13.3786 2.2002 12.6492 2.2002H4.94922ZM15.3992 6.60019H2.19922V12.6502C2.19922 13.3795 2.48895 14.079 3.00467 14.5947C3.5204 15.1105 4.21987 15.4002 4.94922 15.4002H5.49922V12.1002C5.49922 11.225 5.8469 10.3856 6.46577 9.76674C7.08464 9.14787 7.924 8.80019 8.79922 8.80019H15.3992V6.60019ZM6.67622 11.5227C6.80298 11.0567 7.07951 10.6454 7.46318 10.3522C7.84685 10.059 8.31633 9.90016 8.79922 9.90019H17.5992C18.0821 9.90016 18.5516 10.059 18.9353 10.3522C19.3189 10.6454 19.5955 11.0567 19.7222 11.5227L13.1992 15.3573L6.67622 11.5227ZM13.6172 16.388L19.7992 12.7536V17.6002C19.7992 18.1837 19.5674 18.7432 19.1549 19.1558C18.7423 19.5684 18.1827 19.8002 17.5992 19.8002H8.79922C8.21574 19.8002 7.65616 19.5684 7.24358 19.1558C6.831 18.7432 6.59922 18.1837 6.59922 17.6002V12.7547L12.7812 16.388C12.9079 16.4625 13.0522 16.5017 13.1992 16.5017C13.3462 16.5017 13.4905 16.4625 13.6172 16.388Z" fill="#FF9100"/>
</svg>
