<?xml version="1.0" encoding="utf-8"?>
<!-- Generator: Adobe Illustrator 25.2.0, SVG Export Plug-In . SVG Version: 6.00 Build 0)  -->
<svg version="1.1" id="Слой_1" xmlns="http://www.w3.org/2000/svg" xmlns:xlink="http://www.w3.org/1999/xlink" x="0px" y="0px"
	 viewBox="0 0 28.8 28.8" style="enable-background:new 0 0 28.8 28.8;" xml:space="preserve">
<style type="text/css">
	.st0{fill-rule:evenodd;clip-rule:evenodd;fill:#182263;}
	.st1{fill-rule:evenodd;clip-rule:evenodd;fill:#FFFFFF;}
</style>
<g id="Слой_x0020_1">
	<path class="st0" d="M1.2,0h26.4c0.8,0,1.2,0.4,1.2,1.2v26.4c0,0.8-0.4,1.2-1.2,1.2H1.2c-0.8,0-1.2-0.4-1.2-1.2V1.2
		C0,0.4,0.4,0,1.2,0z"/>
</g>
<g id="Слой_x0020_1_1_">
	<path class="st1" d="M13.6,4.8l-2.1,2.1c1.8,1.3,4.3,1.4,6,0.2l-2-2v0c0.3-0.3,0.5-0.7,0.4-1.1L22,10l0.1-0.1l0.4,0.4l-0.1,0.1
		l0.4,0.4l0.3,1.2L23,12.2l0.5,0.5l0.1,0.3l-0.3-0.1l-0.5-0.5l-0.2-0.2l-0.5-0.5l-0.4-0.4l-0.4-0.4l-0.1-0.1l-2.9-2.9
		c-2.2,1.6-5.2,1.5-7.4-0.2l-5.3,5.3L5.2,13l0.1-0.3l0.5-0.5L5.7,12l0.3-1.2L10,6.8C9.7,6.5,9.5,6.2,9.3,5.9
		C9.1,5.7,9.1,5.3,9.4,5.2C9.6,5,9.9,5,10.1,5.3c0.2,0.3,0.4,0.6,0.6,0.8l2.9-2.9c0.4-0.4,1.1-0.4,1.6,0c0.4,0.4,0.4,1.1,0,1.6
		C14.8,5.2,14,5.2,13.6,4.8z M11.3,7.1l-0.2,0.2c1.3,1,2.8,1.5,4.7,1.2C16.6,8.3,17.3,8,18,7.5l-0.2-0.2c-1.2,0.9-2.8,1.1-4.3,0.8
		C12.6,8,11.9,7.6,11.3,7.1z M10.3,6.5l0.2-0.2c-0.1-0.1-0.2-0.3-0.3-0.4C10,5.7,9.9,6,9.9,6.1C10,6.2,10.2,6.4,10.3,6.5z
		 M20.1,24.2L20.1,24.2l-0.6-0.4L20.1,24.2z M17.1,19.8l0.9-0.3v3.4l0.5,0.3v-3.8l0,0l1-0.4v4.9l0.6,0.4v-5.4c0-0.1,0-0.1,0-0.2
		l1.7-0.6l0,0.1v7.2l0.9,0.6v-7.8c0-2.1-0.8-4.1-2.1-5.5l0.3-0.2c-0.3-0.3-0.5-0.6-0.8-0.8c-0.3-0.3-0.6-0.5-0.9-0.7l-0.2,0.3
		c-1.3-0.8-2.8-1.3-4.5-1.3s-3.2,0.5-4.5,1.3l-0.2-0.3c-0.3,0.2-0.6,0.4-0.9,0.7c-0.3,0.3-0.6,0.5-0.8,0.8l0.3,0.2
		C6.9,14,6.1,16,6.1,18.1v7.7v0.1L7,25.3v-7.2l0-0.1l1.7,0.6c0,0.1,0,0.1,0,0.2v5.3L9,24l0.3-0.2v-4.9l1,0.4l0,0v3.8l0.5-0.3v-3.4
		l0.9,0.3v2.5H12v-2.5c0-0.6,0.2-1.2,0.6-1.6l0.1,0.1c0.1-0.1,0.1-0.2,0.2-0.2c0.1-0.1,0.2-0.1,0.2-0.2l-0.1-0.1
		c0.4-0.2,0.8-0.4,1.3-0.4c0.5,0,0.9,0.1,1.3,0.4l-0.1,0.1c0.1,0.1,0.2,0.1,0.2,0.2c0.1,0.1,0.2,0.1,0.2,0.2l0.1-0.1
		c0.4,0.4,0.6,1,0.6,1.6v2.5h0.3V19.8z M7,17.6c0.1-1.7,0.8-3.2,1.9-4.4l0.3,0.2c0.2-0.2,0.4-0.5,0.7-0.7c0.2-0.2,0.5-0.4,0.8-0.6
		l-0.2-0.3c1.1-0.7,2.4-1.1,3.8-1.2l0,2.4c-1.1,0-2.1,0.4-2.9,0.9c0-0.1-0.1-0.1-0.1-0.2c-0.2,0.1-0.4,0.3-0.6,0.5
		c-0.2,0.2-0.4,0.4-0.6,0.6c0.1,0.1,0.1,0.1,0.2,0.2c-0.8,0.9-1.3,2-1.4,3.2L7,17.6z M14.6,10.7c1.4,0,2.7,0.5,3.8,1.2l-0.2,0.3
		c0.3,0.2,0.5,0.4,0.8,0.6c0.2,0.2,0.5,0.4,0.7,0.7l0.3-0.2c1.1,1.2,1.7,2.7,1.9,4.4l-1.7,0.7c-0.1-1.2-0.6-2.4-1.4-3.2
		c0.1-0.1,0.1-0.1,0.2-0.2c-0.2-0.2-0.4-0.4-0.6-0.6c-0.2-0.2-0.4-0.3-0.6-0.5c0,0.1-0.1,0.1-0.1,0.2c-0.8-0.5-1.8-0.9-2.9-0.9
		L14.6,10.7z M9.4,18.5c0.1-1.2,0.5-2.2,1.3-3.1c0.1,0.1,0.1,0.1,0.2,0.2c0.1-0.2,0.3-0.3,0.5-0.5c0.2-0.1,0.3-0.3,0.5-0.4
		c0-0.1-0.1-0.1-0.1-0.2c0.7-0.5,1.6-0.8,2.6-0.8l0,1.5c-0.7,0-1.4,0.3-2,0.6c0,0-0.1-0.1-0.1-0.1c-0.2,0.1-0.3,0.2-0.5,0.3
		c-0.1,0.1-0.3,0.3-0.4,0.4c0,0,0.1,0.1,0.1,0.1c-0.6,0.6-0.9,1.4-1,2.3L9.4,18.5z M14.6,13.8c0.9,0,1.8,0.3,2.6,0.8
		c0,0.1-0.1,0.1-0.1,0.2c0.2,0.1,0.4,0.2,0.5,0.4c0.2,0.1,0.3,0.3,0.5,0.5c0.1-0.1,0.1-0.1,0.2-0.2c0.7,0.8,1.2,1.9,1.3,3.1l-1,0.4
		c-0.1-0.9-0.4-1.7-1-2.3c0,0,0.1-0.1,0.1-0.1c-0.1-0.1-0.3-0.3-0.4-0.4c-0.1-0.1-0.3-0.2-0.5-0.3c0,0-0.1,0.1-0.1,0.1
		c-0.6-0.4-1.3-0.6-2-0.6L14.6,13.8z M10.8,19.1c0-0.8,0.4-1.6,0.9-2.2c0,0,0.1,0.1,0.1,0.1c0.1-0.1,0.2-0.2,0.3-0.3
		c0.1-0.1,0.2-0.2,0.4-0.3c0,0-0.1-0.1-0.1-0.1c0.5-0.3,1.1-0.5,1.8-0.6l0,1.3c-0.5,0-0.9,0.2-1.3,0.4l-0.1-0.1
		c-0.1,0.1-0.2,0.1-0.3,0.2c-0.1,0.1-0.2,0.2-0.3,0.3l0.1,0.1c-0.4,0.4-0.6,1-0.7,1.6L10.8,19.1z M14.5,15.7c0.7,0,1.3,0.2,1.8,0.6
		c0,0-0.1,0.1-0.1,0.1c0.1,0.1,0.3,0.2,0.4,0.3c0.1,0.1,0.2,0.2,0.3,0.3c0,0,0.1-0.1,0.1-0.1c0.5,0.6,0.9,1.4,0.9,2.2l-0.9,0.4
		c0-0.6-0.3-1.2-0.7-1.6l0.1-0.1c-0.1-0.1-0.2-0.2-0.3-0.3c-0.1-0.1-0.2-0.2-0.3-0.2l-0.1,0.1C15.5,17.2,15,17,14.5,17L14.5,15.7z"
		/>
</g>
</svg>
