<?xml version="1.0" encoding="UTF-8"?>
<!DOCTYPE svg PUBLIC "-//W3C//DTD SVG 1.0//EN" "http://www.w3.org/TR/2001/REC-SVG-20010904/DTD/svg10.dtd">
<!-- Creator: CorelDRAW X7 -->
<svg xmlns="http://www.w3.org/2000/svg" xml:space="preserve" width="154px" height="193px" version="1.0" style="shape-rendering:geometricPrecision; text-rendering:geometricPrecision; image-rendering:optimizeQuality; fill-rule:evenodd; clip-rule:evenodd"
viewBox="0 0 515679 647235"
 xmlns:xlink="http://www.w3.org/1999/xlink">
 <defs>
  <style type="text/css">
   <![CDATA[
    .fil0 {fill:#182263}
   ]]>
  </style>
 </defs>
 <g id="Слой_x0020_1">
  <metadata id="CorelCorpID_0Corel-Layer"/>
  <path class="fil0" d="M235689 53482l-58674 58674c49747,36144 120556,38554 167762,6117l-56716 -56717 0 -4c8752,-8752 12911,-20355 12486,-31822l171414 171417 3322 -3322 11408 11413 -3322 3321 12007 11999 7595 32961 -4931 4927 13771 13771 3868 8411 -8411 -3869 -13771 -13766 -5002 -5007 -15274 -15273 -12002 -12003 -11413 -11408 -1676 -1681 -82597 -82593c-60629,43604 -145220,43370 -208505,-6881l-148616 148612 -8412 3869 3869 -8411 13771 -13771 -4932 -4927 7595 -32961 113861 -113856c-6988,-7699 -13576,-16154 -19677,-25382 -4864,-6548 -3782,-15578 2826,-20485 6414,-4769 15484,-3425 20256,3000 4713,8451 10192,16177 16288,23174l81832 -81832c12233,-12233 32069,-12233 44301,0 12237,12236 12237,32068 4,44305 -12236,12236 -32068,12236 -44305,0zm-65132 65132l-5454 5458c35239,29278 79239,43132 133046,32223 21291,-4317 41447,-12962 59202,-25449l-4372 -4376c-34170,24319 -78808,30864 -119454,22531 -27070,-5549 -45907,-15638 -62968,-30387zm-27847 -16459l5772 -5771c-3207,-3615 -6445,-7397 -9775,-11353 -4131,-4119 -7948,2303 -6208,4650 3298,4316 6703,8475 10211,12474zm274612 496292l0 24 -18072 -12031 18072 12007zm-83925 -124813l24664 -8971 0 94406 12906 8574 0 -106642 -8 -1031 28291 -10286 0 136756 18072 12007 0 -150428c0,-1634 -32,-3263 -80,-4884l47215 -17172 8 1506 0 202301 26285 17465 0 -219766c0,-59467 -22289,-113737 -58972,-154895l7179 -6390c-7214,-8098 -15099,-15808 -23574,-23058 -8387,-7171 -17223,-13767 -26431,-19697l-5185 8074c-36310,-23383 -79537,-36948 -125931,-36948 -46394,0 -89621,13569 -125931,36948l-5185 -8074c-9212,5930 -18048,12526 -26432,19697 -8479,7250 -16363,14960 -23577,23058l7182 6394c-36674,41161 -58972,95424 -58972,154891l0 216770 0 1502 26285 -17219 0 -201053 12 -1506 47211 17172c-47,1621 -75,3250 -75,4884l0 149627 9339 -6116 8732 -5716 0 -136134 28287 10286 -4 1035 0 106285 12903 -8451 0 -94176 24664 8975 0 69048 8764 0 0 -71177c0,-17065 6386,-32627 16906,-44432l2236 1994c1962,-2204 4035,-4238 6196,-6089 2176,-1859 4499,-3587 6949,-5169l-1618 -2513c10410,-6703 22813,-10592 36128,-10592 13307,0 25710,3893 36119,10596l-1609 2509c2450,1582 4773,3310 6949,5169 2160,1851 4233,3885 6195,6089l2232 -1990c10517,11801 16914,27371 16914,44428l0 71177 8761 0 0 -69048zm-281731 -60019c3132,-47313 22194,-90279 51857,-123564l7182 6386c6049,-6786 12447,-13077 19127,-18789 6715,-5744 13881,-11088 21449,-15951l-5177 -8071c30661,-19744 66891,-31605 105810,-32703l943 67689c-29876,916 -57687,10057 -81249,25231 -1174,-1836 -2355,-3671 -3532,-5502 -6303,4059 -12348,8574 -18096,13485 -5799,4967 -11194,10243 -16137,15784 1633,1455 3262,2902 4892,4357 -21909,24584 -36326,56007 -39648,90656l-47421 -19008zm212219 -192688c38874,1122 75057,12970 105683,32699l-5181 8071c7563,4863 14734,10207 21453,15951 6675,5712 13077,12003 19126,18789l7183 -6390c29670,33293 48725,76255 51856,123568l-47421 19008c-3321,-34649 -17730,-66076 -39643,-90664 1625,-1447 3254,-2902 4883,-4349 -4935,-5541 -10334,-10817 -16133,-15784 -5744,-4911 -11793,-9426 -18099,-13485 -1178,1831 -2351,3666 -3524,5498 -23526,-15147 -51298,-24280 -81127,-25219l944 -67693zm-147222 218744c1915,-32830 15024,-62651 35565,-85701 1621,1451 3258,2905 4888,4352 4138,-4646 8522,-8954 13092,-12859 4595,-3940 9502,-7591 14687,-10925 -1181,-1831 -2359,-3662 -3532,-5494 20811,-13402 45364,-21488 71748,-22356l575 41257c-20950,753 -40461,7218 -57010,17877 -829,-1288 -1657,-2577 -2478,-3861 -4475,2878 -8764,6073 -12839,9557 -4111,3516 -7940,7258 -11440,11194 1142,1019 2291,2042 3437,3061 -15757,17679 -26047,40341 -28216,65310l-28477 -11412zm146029 -132983c26332,892 50841,8978 71613,22356 -1178,1828 -2355,3663 -3528,5494 5180,3334 10092,6985 14682,10925 4578,3905 8959,8213 13101,12859 1625,-1447 3254,-2901 4888,-4352 20541,23050 33646,52871 35560,85701l-28473 11412c-2168,-24981 -12459,-47643 -28207,-65318 1141,-1023 2283,-2038 3424,-3053 -3500,-3936 -7329,-7678 -11440,-11194 -4075,-3484 -8364,-6679 -12835,-9557 -824,1280 -1649,2569 -2477,3857 -16514,-10639 -35981,-17093 -56887,-17870l579 -41260zm-104962 149445c1130,-23681 10481,-45209 25254,-61790 1146,1018 2288,2033 3433,3052 2937,-3294 6045,-6346 9288,-9117 3262,-2787 6738,-5383 10409,-7750 -828,-1284 -1657,-2568 -2477,-3857 14579,-9386 31767,-15102 50231,-15824l487 35172c-13719,623 -26495,4912 -37364,11916l-1621 -2517c-2985,1919 -5843,4055 -8562,6382 -2743,2347 -5296,4840 -7635,7468l2244 1998c-10774,12082 -17723,27648 -18948,44785l-24739 -9918zm104201 -95278c18420,741 35552,6453 50100,15820 -824,1289 -1649,2569 -2473,3853 3670,2367 7151,4963 10409,7750 3242,2771 6350,5823 9283,9117 1146,-1015 2288,-2030 3437,-3052 14774,16581 24125,38109 25259,61790l-24739 9918c-1225,-17148 -8166,-32719 -18940,-44801l2231 -1982c-2334,-2628 -4887,-5121 -7634,-7468 -2715,-2327 -5581,-4463 -8562,-6382l-1614 2509c-10837,-6976 -23565,-11257 -37245,-11900l488 -35172z"/>
 </g>
</svg>
