<svg width="69" height="69" viewBox="0 0 69 69" fill="none" xmlns="http://www.w3.org/2000/svg">
<path d="M64.2562 16.8188C62.9625 14.2313 60.8062 12.075 59.0812 9.91876L38.8125 30.1875V34.0688L43.125 38.3813L64.2562 16.8188Z" fill="white"/>
<path d="M38.8125 0V17.6812L52.1813 4.3125C48.3 2.15625 43.5563 0.8625 38.8125 0V0Z" fill="white"/>
<path d="M67.7058 25.4438L49.1621 43.9876L61.2371 56.0626C68.1371 47.8689 70.7246 36.6563 67.7058 25.4438Z" fill="white"/>
<path d="M30.1875 0C13.3687 2.15625 0 16.8188 0 34.5C0 53.475 15.525 69 34.5 69C42.2625 69 49.1625 66.4125 54.7687 62.1L30.1875 37.5187V0Z" fill="white"/>
</svg>
