<svg width="32" height="32" viewBox="0 0 32 32" fill="none" xmlns="http://www.w3.org/2000/svg">
<path d="M20.015 13.1394L18.7584 13.2288C18.697 13.2328 18.6357 13.2354 18.5744 13.2354C18.0665 13.2353 17.5701 13.0846 17.1478 12.8024C16.7256 12.5203 16.3964 12.1193 16.202 11.6501C16.0076 11.1809 15.9566 10.6646 16.0555 10.1665C16.1544 9.66836 16.3988 9.21072 16.7577 8.85142L18.491 7.11808C18.737 6.87184 18.931 6.57859 19.0612 6.2558C19.1915 5.933 19.2554 5.58729 19.2492 5.23927C19.2429 4.89124 19.1667 4.54803 19.025 4.23011C18.8833 3.91218 18.679 3.62604 18.4244 3.38875C17.9667 2.96458 17.3737 2.71612 16.7503 2.68741C16.4983 2.67408 16.2523 2.66675 15.9997 2.66675C7.63834 2.66675 1.33301 8.40008 1.33301 16.0001C1.33301 23.6001 7.63834 29.3334 15.9997 29.3334C17.5388 29.3365 19.0708 29.1254 20.5517 28.7061L20.015 13.1394ZM4.99968 13.6667C4.99968 13.2053 5.13652 12.7541 5.39291 12.3704C5.6493 11.9867 6.01372 11.6876 6.44008 11.511C6.86644 11.3344 7.3356 11.2882 7.78822 11.3783C8.24085 11.4683 8.65661 11.6905 8.98293 12.0168C9.30925 12.3432 9.53148 12.7589 9.62151 13.2115C9.71154 13.6642 9.66534 14.1333 9.48873 14.5597C9.31213 14.986 9.01306 15.3505 8.62934 15.6068C8.24563 15.8632 7.7945 16.0001 7.33301 16.0001C6.71417 16.0001 6.12068 15.7543 5.68309 15.3167C5.24551 14.8791 4.99968 14.2856 4.99968 13.6667ZM8.99968 22.6668C8.53819 22.6668 8.08706 22.5299 7.70335 22.2735C7.31963 22.0171 7.02056 21.6527 6.84396 21.2263C6.66735 20.8 6.62115 20.3308 6.71118 19.8782C6.80121 19.4256 7.02344 19.0098 7.34976 18.6835C7.67608 18.3572 8.09185 18.135 8.54447 18.0449C8.99709 17.9549 9.46625 18.0011 9.89261 18.1777C10.319 18.3543 10.6834 18.6534 10.9398 19.0371C11.1962 19.4208 11.333 19.8719 11.333 20.3334C11.333 20.9523 11.0872 21.5457 10.6496 21.9833C10.212 22.4209 9.61852 22.6668 8.99968 22.6668ZM15.9997 26.0001C15.5382 26.0001 15.0871 25.8632 14.7034 25.6068C14.3196 25.3505 14.0206 24.986 13.844 24.5597C13.6674 24.1333 13.6212 23.6642 13.7112 23.2115C13.8012 22.7589 14.0234 22.3432 14.3498 22.0168C14.6761 21.6905 15.0918 21.4683 15.5445 21.3783C15.9971 21.2882 16.4662 21.3344 16.8926 21.511C17.319 21.6876 17.6834 21.9867 17.9398 22.3704C18.1962 22.7541 18.333 23.2053 18.333 23.6668C18.333 24.2856 18.0872 24.8791 17.6496 25.3167C17.212 25.7543 16.6185 26.0001 15.9997 26.0001Z" fill="url(#paint0_linear_39_653)"/>
<path d="M27.8808 12.8333L27.0381 12.7133C26.9118 12.6966 26.7847 12.6873 26.6574 12.6853C26.6574 12.7173 26.6648 12.752 26.6641 12.7806L26.2188 25.6906C27.6194 24.4909 28.7426 23.0011 29.5106 21.3244C30.2787 19.6478 30.6731 17.8242 30.6668 15.98C30.6549 15.2091 30.3674 14.468 29.8563 13.8908C29.3453 13.3136 28.6445 12.9385 27.8808 12.8333Z" fill="url(#paint1_linear_39_653)"/>
<path d="M23.3331 30.6667C22.963 30.6668 22.6073 30.523 22.3411 30.2658C22.0749 30.0086 21.9191 29.658 21.9065 29.2881L21.3331 12.7334C21.3242 12.4652 21.3693 12.198 21.4658 11.9476C21.5623 11.6972 21.7082 11.4687 21.8948 11.2759C22.0814 11.0831 22.305 10.9298 22.5521 10.8251C22.7992 10.7205 23.0648 10.6666 23.3331 10.6667C23.6015 10.6666 23.8671 10.7205 24.1142 10.8251C24.3613 10.9298 24.5848 11.0831 24.7714 11.2759C24.9581 11.4687 25.104 11.6972 25.2005 11.9476C25.297 12.198 25.3421 12.4652 25.3331 12.7334L24.7625 29.2867C24.7502 29.6574 24.5941 30.0087 24.3273 30.2663C24.0605 30.5238 23.704 30.6675 23.3331 30.6667Z" fill="url(#paint2_linear_39_653)"/>
<path d="M22.667 1.33325C22.667 3.33325 20.667 4.66658 20.667 7.33325C20.667 8.04049 20.9479 8.71877 21.448 9.21887C21.9481 9.71897 22.6264 9.99992 23.3337 9.99992C24.0409 9.99992 24.7192 9.71897 25.2193 9.21887C25.7194 8.71877 26.0003 8.04049 26.0003 7.33325C26.0003 3.99992 22.667 1.33325 22.667 1.33325Z" fill="url(#paint3_linear_39_653)"/>
<defs>
<linearGradient id="paint0_linear_39_653" x1="10.9423" y1="2.66675" x2="10.9423" y2="29.3335" gradientUnits="userSpaceOnUse">
<stop stop-color="white" stop-opacity="0.44"/>
<stop offset="1" stop-color="white" stop-opacity="0"/>
</linearGradient>
<linearGradient id="paint1_linear_39_653" x1="28.4428" y1="12.6853" x2="28.4428" y2="25.6906" gradientUnits="userSpaceOnUse">
<stop stop-color="white" stop-opacity="0.44"/>
<stop offset="1" stop-color="white" stop-opacity="0"/>
</linearGradient>
<linearGradient id="paint2_linear_39_653" x1="23.3331" y1="10.6667" x2="23.3331" y2="30.6667" gradientUnits="userSpaceOnUse">
<stop stop-color="white" stop-opacity="0.44"/>
<stop offset="1" stop-color="white" stop-opacity="0"/>
</linearGradient>
<linearGradient id="paint3_linear_39_653" x1="23.3337" y1="1.33325" x2="23.3337" y2="9.99992" gradientUnits="userSpaceOnUse">
<stop stop-color="white" stop-opacity="0.44"/>
<stop offset="1" stop-color="white" stop-opacity="0"/>
</linearGradient>
</defs>
</svg>
