<svg width="72" height="72" viewBox="0 0 72 72" fill="green" xmlns="http://www.w3.org/2000/svg">
<path d="M36.0017 19.2002C26.7379 19.2002 19.2019 26.736 19.2019 35.9999C19.2019 45.2639 26.7377 52.7997 36.0017 52.7997C45.2656 52.7997 52.8014 45.2639 52.8014 35.9999C52.8014 26.736 45.2655 19.2002 36.0017 19.2002ZM29.6502 39.9514C30.1194 40.4207 30.1194 41.1791 29.6502 41.6482C29.4162 41.8822 29.1089 41.9997 28.8018 41.9997C28.4947 41.9997 28.1874 41.8822 27.9534 41.6482L23.1535 36.8483C22.6843 36.3791 22.6843 35.6207 23.1535 35.1516L27.9534 30.3517C28.4227 29.8824 29.181 29.8824 29.6502 30.3517C30.1194 30.821 30.1194 31.5793 29.6502 32.0485L25.6987 35.9999L29.6502 39.9514ZM39.5476 27.9528L34.7477 43.5525C34.5894 44.0684 34.1141 44.4009 33.6018 44.4009C33.4842 44.4009 33.3654 44.3829 33.249 44.3469C32.6153 44.1525 32.2603 43.4805 32.4546 42.8469L37.2545 27.2472C37.4488 26.6124 38.1245 26.2559 38.7545 26.4528C39.388 26.6484 39.7431 27.3192 39.5476 27.9528ZM44.0499 41.6482C43.8159 41.8822 43.5087 41.9997 43.2015 41.9997C42.8943 41.9997 42.5872 41.8822 42.3532 41.6482C41.884 41.1789 41.884 40.4206 42.3532 39.9514L46.3047 35.9999L42.3532 32.0485C41.8839 31.5792 41.8839 30.8208 42.3532 30.3517C42.8223 29.8824 43.5808 29.8824 44.0499 30.3517L48.8498 35.1516C49.3178 35.6207 49.3178 36.3792 48.8498 36.8483L44.0499 41.6482Z" fill="white"/>
<path d="M70.7999 30.0004H66.6C65.2188 30.0004 63.9948 29.1197 63.624 27.8572C63.0516 25.9119 62.2703 24.0232 61.2984 22.2425C60.6647 21.0786 60.9024 19.5846 61.8767 18.609L64.8491 15.6366C65.3183 15.1674 65.3183 14.409 64.8491 13.9399L58.0608 7.15163C57.5915 6.68237 56.8332 6.68237 56.364 7.15163L53.3917 10.124C52.4149 11.0983 50.921 11.336 49.7582 10.7023C47.9762 9.73036 46.0862 8.94921 44.1435 8.37673C42.8812 8.00479 42.0004 6.78081 42.0004 5.40074V1.20091C42.0004 0.538576 41.4628 0.000976562 40.8005 0.000976562H31.2006C30.5383 0.000976562 30.0007 0.538576 30.0007 1.20091V5.40088C30.0007 6.78207 29.12 8.00605 27.8575 8.37687C25.9135 8.94921 24.0248 9.7305 22.2428 10.7025C21.0789 11.3361 19.5861 11.0985 18.6093 10.1241L15.6369 7.15177C15.1677 6.68251 14.4093 6.68251 13.9402 7.15177L7.15192 13.9398C6.68266 14.409 6.68266 15.1674 7.15192 15.6365L10.1243 18.6088C11.0986 19.5845 11.3374 21.0785 10.7026 22.2424C9.73192 24.0231 8.9495 25.9131 8.37703 27.857C8.00381 29.1194 6.77983 30.0002 5.39991 30.0002H1.19993C0.5376 30.0002 0 30.5378 0 31.2002V40.8001C0 41.4624 0.5376 42 1.19993 42H5.39991C6.7811 42 8.00508 42.8807 8.3759 44.1432C8.94823 46.0872 9.72953 47.9759 10.7015 49.7578C11.3352 50.9218 11.0975 52.4158 10.1231 53.3914L7.15066 56.3639C6.6814 56.8331 6.6814 57.5915 7.15066 58.0606L13.9389 64.8489C14.4082 65.3181 15.1666 65.3181 15.6357 64.8489L18.608 61.8765C19.5837 60.9009 21.0776 60.6634 22.2416 61.2982C24.0235 62.2701 25.9135 63.0513 27.8562 63.6238C29.1186 63.9957 29.9994 65.2197 29.9994 66.5998V70.7997C29.9994 71.4621 30.537 71.9997 31.1994 71.9997H40.7992C41.4616 71.9997 41.9992 71.4621 41.9992 70.7997V66.5998C41.9992 65.2186 42.8799 63.9946 44.1424 63.6238C46.0864 63.0514 47.9751 62.2701 49.757 61.2982C50.921 60.6658 52.4149 60.9009 53.3906 61.8765L56.3642 64.8489C56.8333 65.318 57.5918 65.318 58.0609 64.8489L64.8492 58.0606C65.3183 57.5914 65.3183 56.833 64.8492 56.3639L61.8769 53.3915C60.9025 52.4159 60.6637 50.9219 61.2985 49.758C62.2705 47.976 63.0516 46.0861 63.6241 44.1434C63.9961 42.881 65.22 42.0003 66.6001 42.0003H70.8001C71.4624 42.0003 72 41.4627 72 40.8003V31.2005C72 30.538 71.4624 30.0004 70.7999 30.0004ZM36.0006 55.1999C25.4144 55.1999 16.801 46.5865 16.801 36.0003C16.801 25.4141 25.4144 16.8007 36.0006 16.8007C46.5868 16.8007 55.2003 25.4141 55.2003 36.0003C55.2003 46.5865 46.5868 55.1999 36.0006 55.1999Z" fill="white"/>
</svg>
