<svg width="35" height="29" viewBox="0 0 35 29" fill="none" xmlns="http://www.w3.org/2000/svg">
<path fill-rule="evenodd" clip-rule="evenodd" d="M0.416672 4.25001C0.416672 3.34385 0.776641 2.47481 1.41739 1.83406C2.05814 1.19331 2.92718 0.833344 3.83334 0.833344H31.1667C32.0728 0.833344 32.9419 1.19331 33.5826 1.83406C34.2234 2.47481 34.5833 3.34385 34.5833 4.25001C34.5833 5.15617 34.2234 6.02521 33.5826 6.66596C32.9419 7.30671 32.0728 7.66668 31.1667 7.66668H3.83334C2.92718 7.66668 2.05814 7.30671 1.41739 6.66596C0.776641 6.02521 0.416672 5.15617 0.416672 4.25001ZM0.416672 14.5C0.416672 13.5939 0.776641 12.7248 1.41739 12.0841C2.05814 11.4433 2.92718 11.0833 3.83334 11.0833H31.1667C32.0728 11.0833 32.9419 11.4433 33.5826 12.0841C34.2234 12.7248 34.5833 13.5939 34.5833 14.5C34.5833 15.4062 34.2234 16.2752 33.5826 16.916C32.9419 17.5567 32.0728 17.9167 31.1667 17.9167H3.83334C2.92718 17.9167 2.05814 17.5567 1.41739 16.916C0.776641 16.2752 0.416672 15.4062 0.416672 14.5ZM0.416672 24.75C0.416672 23.8439 0.776641 22.9748 1.41739 22.3341C2.05814 21.6933 2.92718 21.3333 3.83334 21.3333H31.1667C32.0728 21.3333 32.9419 21.6933 33.5826 22.3341C34.2234 22.9748 34.5833 23.8439 34.5833 24.75C34.5833 25.6562 34.2234 26.5252 33.5826 27.166C32.9419 27.8067 32.0728 28.1667 31.1667 28.1667H3.83334C2.92718 28.1667 2.05814 27.8067 1.41739 27.166C0.776641 26.5252 0.416672 25.6562 0.416672 24.75Z" fill="white"/>
</svg>
