<svg width="48" height="48" viewBox="0 0 48 48" fill="none" xmlns="http://www.w3.org/2000/svg">
<g filter="url(#filter0_d)">
<path d="M35.78 25.5675L35.7642 25.5992C35.8275 25.0767 35.8909 24.5384 35.8909 24C35.8909 23.4617 35.8434 22.955 35.78 22.4325L35.7959 22.4642L39.6592 19.4242L35.8117 12.7425L31.2675 14.5792L31.2834 14.595C30.46 13.9617 29.5575 13.4234 28.5759 13.0117H28.5917L27.8634 8.16669H20.1525L19.4559 13.0275H19.4717C18.49 13.4392 17.5875 13.9775 16.7642 14.6109L16.78 14.595L12.22 12.7425L8.35669 19.4242L12.22 22.4642L12.2359 22.4325C12.1725 22.955 12.125 23.4617 12.125 24C12.125 24.5384 12.1725 25.0767 12.2517 25.5992L12.2359 25.5675L8.91086 28.18L8.38836 28.5917L12.2359 35.2417L16.7959 33.4209L16.7642 33.3575C17.6034 34.0067 18.5059 34.545 19.5034 34.9567H19.4559L20.1684 39.8334H27.8475C27.8475 39.8334 27.895 39.5484 27.9425 39.1684L28.5442 34.9725H28.5284C29.51 34.5609 30.4284 34.0225 31.2675 33.3734L31.2359 33.4367L35.7959 35.2575L39.6434 28.6075C39.6434 28.6075 39.4217 28.4175 39.1209 28.1959L35.78 25.5675ZM24 29.5417C20.9442 29.5417 18.4584 27.0559 18.4584 24C18.4584 20.9442 20.9442 18.4584 24 18.4584C27.0559 18.4584 29.5417 20.9442 29.5417 24C29.5417 27.0559 27.0559 29.5417 24 29.5417Z" fill="white"/>
</g>
<defs>
<filter id="filter0_d" x="0.356689" y="0.166687" width="47.3025" height="47.6667" filterUnits="userSpaceOnUse" color-interpolation-filters="sRGB">
<feFlood flood-opacity="0" result="BackgroundImageFix"/>
<feColorMatrix in="SourceAlpha" type="matrix" values="0 0 0 0 0 0 0 0 0 0 0 0 0 0 0 0 0 0 127 0" result="hardAlpha"/>
<feOffset/>
<feGaussianBlur stdDeviation="4"/>
<feComposite in2="hardAlpha" operator="out"/>
<feColorMatrix type="matrix" values="0 0 0 0 0.898039 0 0 0 0 0.898039 0 0 0 0 0.898039 0 0 0 0.29 0"/>
<feBlend mode="normal" in2="BackgroundImageFix" result="effect1_dropShadow"/>
<feBlend mode="normal" in="SourceGraphic" in2="effect1_dropShadow" result="shape"/>
</filter>
</defs>
</svg>
