<svg width="39" height="39" viewBox="0 0 39 39" fill="none" xmlns="http://www.w3.org/2000/svg">
<path d="M25.0491 11.943C24.5788 11.9433 24.1231 12.1066 23.7597 12.4052C23.3963 12.7037 23.1476 13.1191 23.0561 13.5804C22.9646 14.0418 23.0358 14.5206 23.2577 14.9353C23.4797 15.35 23.8385 15.6749 24.2731 15.8547C24.7077 16.0344 25.1912 16.058 25.6413 15.9212C26.0913 15.7845 26.48 15.496 26.7411 15.1048C27.0023 14.7136 27.1197 14.244 27.0734 13.7759C27.0271 13.3079 26.82 12.8704 26.4873 12.5379C26.2986 12.3488 26.0744 12.199 25.8276 12.0969C25.5808 11.9948 25.3162 11.9425 25.0491 11.943Z" fill="white"/>
<path d="M36.3675 3.81317C36.3671 3.8109 36.3671 3.80859 36.3675 3.80632C36.3031 3.52396 36.161 3.26522 35.9574 3.0593C35.7538 2.85337 35.4966 2.70845 35.215 2.64089C32.9451 2.08712 29.3741 2.67745 25.417 4.26183C21.4287 5.86144 17.6917 8.22276 15.1658 10.7532C14.3562 11.5585 13.6041 12.4196 12.9149 13.3301C11.214 13.2539 9.71571 13.4961 8.45354 14.0469C4.05538 15.9824 2.7993 20.9359 2.46491 22.9696C2.41652 23.2586 2.43547 23.5549 2.52027 23.8353C2.60508 24.1158 2.75346 24.3729 2.95386 24.5866C3.15426 24.8004 3.40129 24.965 3.6757 25.0677C3.95012 25.1703 4.24453 25.2083 4.53602 25.1786H4.54592L9.4453 24.6439C9.45139 24.7064 9.45825 24.7635 9.46358 24.816C9.5265 25.4131 9.79275 25.9703 10.2177 26.3943L12.6087 28.7869C13.0321 29.2124 13.5892 29.479 14.1862 29.5417L14.35 29.5593L13.8168 34.4525C13.8168 34.4525 13.8168 34.4586 13.8168 34.4625C13.7896 34.726 13.8176 34.9923 13.8991 35.2444C13.9807 35.4965 14.1139 35.7288 14.2904 35.9264C14.4668 36.1241 14.6825 36.2827 14.9238 36.3923C15.165 36.5018 15.4265 36.5598 15.6914 36.5625C15.7973 36.5626 15.903 36.5539 16.0075 36.5366C18.0527 36.2076 23.0039 34.9667 24.9341 30.5449C25.4802 29.2911 25.7217 27.7989 25.6539 26.1011C26.5685 25.4134 27.4327 24.6612 28.2399 23.8502C30.7864 21.3167 33.1553 17.6102 34.7382 13.6797C36.3142 9.76753 36.9075 6.16993 36.3675 3.81317ZM28.2125 17.1341C27.5866 17.7606 26.789 18.1875 25.9205 18.3606C25.052 18.5337 24.1516 18.4453 23.3334 18.1066C22.5151 17.7679 21.8157 17.1942 21.3236 16.4579C20.8315 15.7216 20.5688 14.8559 20.5688 13.9703C20.5688 13.0847 20.8315 12.219 21.3236 11.4828C21.8157 10.7465 22.5151 10.1727 23.3334 9.83401C24.1516 9.49532 25.052 9.40694 25.9205 9.58005C26.789 9.75316 27.5866 10.18 28.2125 10.8065C28.632 11.2197 28.9652 11.7122 29.1926 12.2554C29.42 12.7985 29.5371 13.3815 29.5371 13.9703C29.5371 14.5591 29.42 15.1421 29.1926 15.6852C28.9652 16.2284 28.632 16.7209 28.2125 17.1341Z" fill="white"/>
<path d="M12.3345 29.4358C12.0398 29.3993 11.7418 29.4716 11.4966 29.6392C11.0099 29.9721 10.5208 30.3012 10.0273 30.6218C9.02864 31.2708 7.83427 30.1313 8.42765 29.0984L9.35313 27.4988C9.48545 27.3052 9.55912 27.0776 9.56533 26.8432C9.57153 26.6089 9.51 26.3777 9.38811 26.1774C9.26622 25.9771 9.08914 25.8162 8.87812 25.7141C8.66709 25.6119 8.43108 25.5728 8.19837 25.6014C7.17119 25.7313 6.2164 26.1991 5.48436 26.9313C5.20557 27.2109 4.35778 28.0594 3.90151 31.2929C3.77164 32.2217 3.68977 33.1565 3.65624 34.0938C3.65207 34.2564 3.68051 34.4183 3.73989 34.5697C3.79927 34.7212 3.88838 34.8593 4.00197 34.9758C4.11556 35.0923 4.25133 35.1849 4.40127 35.2481C4.5512 35.3113 4.71228 35.3438 4.87499 35.3437H4.90546C5.84339 35.3105 6.779 35.2292 7.70858 35.1C10.9436 34.643 11.7922 33.7944 12.0709 33.5156C12.8065 32.7833 13.2733 31.824 13.3956 30.7932C13.4347 30.4725 13.345 30.1494 13.146 29.8949C12.947 29.6404 12.6552 29.4753 12.3345 29.4358Z" fill="white"/>
</svg>
