<svg width="73" height="73" viewBox="0 0 73 73" fill="none" xmlns="http://www.w3.org/2000/svg">
<g clip-path="url(#clip0_2_7575)">
<path d="M45.644 17.7124C42.7679 16.2275 39.7638 15.532 36.239 15.532C24.5331 15.532 15.0097 25.0555 15.0097 36.7612C15.0097 48.4671 24.5331 57.9906 36.239 57.9906C47.9449 57.9906 57.4682 48.4671 57.4682 36.7612C57.4682 33.4061 56.8405 30.5444 55.5007 27.8001L49.95 26.3105L47.1289 29.1131C48.6543 31.2785 49.5514 33.917 49.5514 36.7612C49.5514 44.1017 43.5795 50.0735 36.2391 50.0735C28.8987 50.0735 22.9267 44.1017 22.9267 36.7612C22.9267 29.4208 28.8986 23.4489 36.239 23.4489C39.1089 23.4489 41.7695 24.3618 43.946 25.9125L46.8079 23.0694L45.644 17.7124Z" fill="white"/>
<path d="M40.6713 29.1655C39.3687 28.4023 37.8545 27.9626 36.2389 27.9626C31.3875 27.9626 27.4404 31.9096 27.4404 36.7611C27.4404 41.6126 31.3875 45.5596 36.2389 45.5596C41.0904 45.5596 45.0375 41.6126 45.0375 36.7611C45.0375 35.1603 44.6056 33.6594 43.8555 32.3648L37.7508 38.4293C37.3105 38.8666 36.7352 39.085 36.1602 39.085C35.5801 39.085 35.0002 38.8628 34.5591 38.4187C33.6806 37.5344 33.6854 36.1054 34.5695 35.227L40.6713 29.1655Z" fill="white"/>
<path d="M68.0167 13.3592L64.5191 11.838L54.1818 22.1074C53.9481 22.3395 54.0539 22.7377 54.3722 22.8232L58.0809 23.8185C58.2284 23.8582 58.3858 23.816 58.4938 23.708L68.1485 14.0533C68.3614 13.8401 68.293 13.4794 68.0167 13.3592Z" fill="white"/>
<path d="M60.5881 27.9961C60.5653 28.0189 60.5404 28.0389 60.5168 28.0607C61.5098 30.7558 61.982 33.5829 61.982 36.7612C61.982 50.9559 50.4337 62.5042 36.2389 62.5042C22.0442 62.5042 10.4958 50.9559 10.4958 36.7612C10.4958 22.5664 22.0442 11.0181 36.2389 11.0181C39.6189 11.0181 42.7069 11.5843 45.6025 12.7386C45.6084 12.7326 45.6138 12.7261 45.6197 12.7202L53.4558 4.88405C48.3466 2.17236 42.3611 0.522217 36.2389 0.522217C16.2247 0.522217 0 16.7469 0 36.7612C0 56.7754 16.2247 73.0001 36.2389 73.0001C56.2532 73.0001 72.4779 56.7754 72.4779 36.7612C72.4779 30.7696 71.0205 25.1177 68.4452 20.1389L60.5881 27.9961Z" fill="white"/>
<path d="M51.1602 18.7456L61.4171 8.55611L60.2901 5.30154C60.1869 5.00342 59.8073 4.91622 59.5842 5.13918L49.8477 14.8757C49.7449 14.9785 49.7014 15.1265 49.7323 15.2685L50.4416 18.533C50.5131 18.863 50.9207 18.9834 51.1602 18.7456Z" fill="white"/>
</g>
<defs>
<clipPath id="clip0_2_7575">
<rect width="72.4779" height="72.4779" fill="white" transform="translate(0 0.522217)"/>
</clipPath>
</defs>
</svg>
