<svg width="83" height="83" viewBox="0 0 83 83" fill="none" xmlns="http://www.w3.org/2000/svg">
<path d="M51.8941 34.0673L48.6359 34.299C48.4768 34.3093 48.3178 34.3162 48.1588 34.3162C46.842 34.3159 45.5549 33.9253 44.4601 33.1937C43.3653 32.462 42.5119 31.4223 42.0079 30.2059C41.5038 28.9894 41.3716 27.6508 41.628 26.3593C41.8845 25.0677 42.518 23.8812 43.4486 22.9496L47.9427 18.4555C48.5806 17.817 49.0834 17.0567 49.4211 16.2198C49.7588 15.3829 49.9245 14.4865 49.9084 13.5842C49.8923 12.6818 49.6946 11.792 49.3272 10.9677C48.9598 10.1433 48.4302 9.40145 47.7699 8.78622C46.5833 7.68645 45.0457 7.04226 43.4296 6.96783C42.7762 6.93326 42.1384 6.91425 41.4833 6.91425C19.8044 6.91425 3.45616 21.7794 3.45616 41.4844C3.45616 61.1893 19.8044 76.0545 41.4833 76.0545C45.4738 76.0626 49.446 75.5151 53.2855 74.428L51.8941 34.0673ZM12.9629 35.4346C12.9629 34.2381 13.3178 33.0684 13.9825 32.0735C14.6473 31.0786 15.5921 30.3032 16.6976 29.8453C17.803 29.3874 19.0194 29.2676 20.193 29.5011C21.3665 29.7345 22.4445 30.3107 23.2906 31.1568C24.1366 32.0028 24.7128 33.0808 24.9462 34.2543C25.1797 35.4279 25.0599 36.6443 24.602 37.7497C24.1441 38.8552 23.3687 39.8 22.3738 40.4648C21.3789 41.1295 20.2093 41.4844 19.0127 41.4844C17.4082 41.4844 15.8694 40.847 14.7349 39.7124C13.6003 38.5779 12.9629 37.0391 12.9629 35.4346ZM23.334 58.7694C22.1375 58.7694 20.9678 58.4146 19.9729 57.7499C18.978 57.0851 18.2026 56.1402 17.7447 55.0348C17.2868 53.9293 17.167 52.7129 17.4005 51.5394C17.6339 50.3659 18.2101 49.2879 19.0562 48.4418C19.9022 47.5957 20.9802 47.0196 22.1537 46.7861C23.3273 46.5527 24.5437 46.6725 25.6491 47.1304C26.7546 47.5883 27.6994 48.3637 28.3642 49.3586C29.0289 50.3535 29.3838 51.5231 29.3838 52.7197C29.3838 54.3242 28.7464 55.8629 27.6118 56.9975C26.4773 58.132 24.9385 58.7694 23.334 58.7694ZM41.4833 67.4119C40.2868 67.4119 39.1171 67.0571 38.1222 66.3924C37.1273 65.7276 36.3519 64.7828 35.894 63.6773C35.4361 62.5719 35.3163 61.3555 35.5498 60.1819C35.7832 59.0084 36.3594 57.9304 37.2055 57.0843C38.0515 56.2383 39.1295 55.6621 40.3031 55.4287C41.4766 55.1952 42.693 55.315 43.7985 55.7729C44.9039 56.2308 45.8487 57.0062 46.5135 58.0011C47.1783 58.996 47.5331 60.1656 47.5331 61.3622C47.5331 62.9667 46.8957 64.5055 45.7611 65.64C44.6266 66.7746 43.0878 67.4119 41.4833 67.4119Z" fill="white"/>
<path d="M72.2878 33.2737L70.103 32.9626C69.7757 32.9193 69.4461 32.8951 69.116 32.89C69.116 32.973 69.135 33.0629 69.1333 33.1372L67.9787 66.6097C71.6102 63.4991 74.5224 59.6365 76.5137 55.2892C78.505 50.942 79.5278 46.2139 79.5113 41.4323C79.4804 39.4337 78.735 37.5122 77.41 36.0157C76.085 34.5192 74.2679 33.5465 72.2878 33.2737Z" fill="white"/>
<path d="M60.4972 79.5115C59.5375 79.5116 58.6152 79.1389 57.9251 78.4719C57.235 77.805 56.8309 76.8961 56.7982 75.9369L55.3117 33.0147C55.2885 32.3193 55.4055 31.6264 55.6557 30.9771C55.9059 30.3279 56.2841 29.7357 56.768 29.2357C57.2518 28.7357 57.8314 28.3382 58.472 28.0669C59.1127 27.7956 59.8014 27.6559 60.4972 27.6563C61.1929 27.6559 61.8817 27.7956 62.5223 28.0669C63.163 28.3382 63.7425 28.7357 64.2264 29.2357C64.7102 29.7357 65.0885 30.3279 65.3387 30.9771C65.5889 31.6264 65.7059 32.3193 65.6827 33.0147L64.2031 75.9335C64.1712 76.8944 63.7666 77.8053 63.0749 78.4731C62.3831 79.1409 61.4587 79.5133 60.4972 79.5115Z" fill="white"/>
<path d="M58.77 3.45679C58.77 8.6423 53.5845 12.0993 53.5845 19.0133C53.5845 20.847 54.313 22.6057 55.6096 23.9023C56.9062 25.1989 58.6648 25.9274 60.4985 25.9274C62.3322 25.9274 64.0908 25.1989 65.3875 23.9023C66.6841 22.6057 67.4125 20.847 67.4125 19.0133C67.4125 10.3708 58.77 3.45679 58.77 3.45679Z" fill="white"/>
</svg>
