<svg width="172" height="29" viewBox="0 0 172 29" fill="none" xmlns="http://www.w3.org/2000/svg">
<g clip-path="url(#clip0_106:1411)">
<path d="M33.4729 21.6156C33.0752 21.6156 32.7942 21.5333 32.6296 21.3687C32.4787 21.2042 32.4033 20.9436 32.4033 20.5871V8.677C32.4033 8.32046 32.4855 8.05991 32.6501 7.89534C32.8147 7.71707 33.0889 7.62793 33.4729 7.62793H38.5126C40.4324 7.62793 41.8449 8.03247 42.75 8.84156C43.6551 9.65065 44.1076 10.8574 44.1076 12.4619C44.1076 14.0526 43.6551 15.2525 42.75 16.0617C41.8587 16.857 40.4462 17.2547 38.5126 17.2547H36.5584V20.5871C36.5584 20.9436 36.4761 21.2042 36.3116 21.3687C36.147 21.5333 35.8659 21.6156 35.4682 21.6156H33.4729ZM38.1834 14.2721C38.7457 14.2721 39.1777 14.1212 39.4794 13.8196C39.7948 13.5178 39.9524 13.0652 39.9524 12.4619C39.9524 11.8448 39.7948 11.3854 39.4794 11.0837C39.1777 10.782 38.7457 10.6312 38.1834 10.6312H36.5584V14.2721H38.1834Z" fill="#041734"/>
<path d="M48.966 21.9236C47.677 21.9236 46.6416 21.5122 45.8599 20.6894C45.092 19.8529 44.708 18.6804 44.708 17.1719C44.708 16.02 44.9686 15.0121 45.4897 14.1481C46.0245 13.2841 46.7719 12.6191 47.7318 12.1529C48.7055 11.6729 49.823 11.4329 51.0847 11.4329C52.127 11.4329 53.0458 11.5495 53.8411 11.7826C54.6502 12.002 55.3907 12.3243 56.0626 12.7493V20.9773C56.0626 21.2379 56.0146 21.4093 55.9187 21.4916C55.8227 21.5739 55.6307 21.6151 55.3427 21.6151H53.2445C53.0937 21.6151 52.9771 21.5944 52.8949 21.5534C52.8126 21.4985 52.744 21.4162 52.6892 21.3065L52.4218 20.6894C52.024 21.1146 51.5442 21.4231 50.9819 21.6151C50.4333 21.8208 49.7614 21.9236 48.966 21.9236ZM50.5088 19.126C51.0436 19.126 51.4619 18.9958 51.7636 18.7352C52.0652 18.4747 52.2161 18.1044 52.2161 17.6245V14.4155C51.9555 14.2921 51.6263 14.2304 51.2287 14.2304C50.5019 14.2304 49.9191 14.4841 49.4803 14.9915C49.0552 15.4989 48.8426 16.212 48.8426 17.1308C48.8426 18.461 49.398 19.126 50.5088 19.126Z" fill="#041734"/>
<path d="M58.9257 21.6151C58.528 21.6151 58.2469 21.5328 58.0823 21.3682C57.9177 21.2037 57.8354 20.9431 57.8354 20.5866V12.3791C57.8354 12.1323 57.8766 11.9677 57.9589 11.8855C58.0549 11.7894 58.2468 11.7414 58.5348 11.7414H60.6535C60.8181 11.7414 60.9416 11.7689 61.0239 11.8237C61.1198 11.8648 61.1747 11.9471 61.1883 12.0706L61.2913 12.6877C61.6753 12.3037 62.1758 12.002 62.7928 11.7826C63.4236 11.5495 64.123 11.4329 64.891 11.4329C66.0018 11.4329 66.9 11.7482 67.5857 12.3791C68.2714 12.9962 68.6141 13.915 68.6141 15.1355V20.5866C68.6141 20.9431 68.5318 21.2037 68.3673 21.3682C68.2164 21.5328 67.9422 21.6151 67.5445 21.6151H65.5493C65.1516 21.6151 64.8636 21.5328 64.6853 21.3682C64.5207 21.2037 64.4384 20.9431 64.4384 20.5866V15.4029C64.4384 14.9915 64.3493 14.6967 64.171 14.5183C63.9927 14.3401 63.7117 14.2509 63.3277 14.2509C62.9163 14.2509 62.5871 14.3607 62.3403 14.5801C62.1071 14.7995 61.9906 15.1012 61.9906 15.4851V20.5866C61.9906 20.9431 61.9083 21.2037 61.7438 21.3682C61.593 21.5328 61.3186 21.6151 60.9209 21.6151H58.9257Z" fill="#041734"/>
<path d="M75.8844 21.9236C73.9645 21.9236 72.4834 21.4779 71.4413 20.5866C70.3991 19.6952 69.8779 18.3993 69.8779 16.6988C69.8779 15.6566 70.118 14.7378 70.5978 13.9424C71.0778 13.147 71.7704 12.5299 72.6755 12.0911C73.5943 11.6523 74.6776 11.4329 75.9256 11.4329C76.8717 11.4329 77.6671 11.522 78.3116 11.7003C78.9699 11.8785 79.5527 12.1529 80.0601 12.5231C80.2109 12.6191 80.2864 12.7425 80.2864 12.8934C80.2864 13.0031 80.2315 13.147 80.1218 13.3253L79.2784 14.7859C79.1825 14.9778 79.0659 15.0738 78.9287 15.0738C78.8464 15.0738 78.7162 15.0189 78.5379 14.9092C78.1677 14.6761 77.818 14.5047 77.4888 14.395C77.1734 14.2852 76.7757 14.2304 76.2958 14.2304C75.6101 14.2304 75.0547 14.4498 74.6296 14.8887C74.2182 15.3275 74.0125 15.9309 74.0125 16.6988C74.0125 17.4805 74.2251 18.0839 74.6502 18.5089C75.0753 18.9204 75.6582 19.126 76.3986 19.126C76.8374 19.126 77.2351 19.0644 77.5917 18.9409C77.9483 18.8175 78.3116 18.6461 78.6819 18.4267C78.8739 18.317 79.011 18.2622 79.0933 18.2622C79.2168 18.2622 79.3264 18.3581 79.4224 18.5501L80.348 20.134C80.4166 20.2711 80.451 20.3809 80.451 20.4632C80.451 20.5866 80.3687 20.7031 80.2041 20.8129C79.6281 21.1831 78.9974 21.4573 78.3116 21.6356C77.6397 21.8276 76.8306 21.9236 75.8844 21.9236Z" fill="#041734"/>
<path d="M85.6662 21.9236C84.3772 21.9236 83.3418 21.5122 82.5602 20.6894C81.7922 19.8529 81.4082 18.6804 81.4082 17.1719C81.4082 16.02 81.6688 15.0121 82.1899 14.1481C82.7247 13.2841 83.4721 12.6191 84.432 12.1529C85.4056 11.6729 86.5233 11.4329 87.7849 11.4329C88.8271 11.4329 89.746 11.5495 90.5413 11.7826C91.3505 12.002 92.0909 12.3243 92.7629 12.7493V20.9773C92.7629 21.2379 92.7149 21.4093 92.6189 21.4916C92.5229 21.5739 92.3309 21.6151 92.0429 21.6151H89.9448C89.7939 21.6151 89.6773 21.5944 89.5952 21.5534C89.5129 21.4985 89.4442 21.4162 89.3894 21.3065L89.122 20.6894C88.7243 21.1146 88.2444 21.4231 87.6821 21.6151C87.1336 21.8208 86.4616 21.9236 85.6662 21.9236ZM87.2089 19.126C87.7438 19.126 88.1621 18.9958 88.4638 18.7352C88.7655 18.4747 88.9163 18.1044 88.9163 17.6245V14.4155C88.6557 14.2921 88.3266 14.2304 87.929 14.2304C87.2021 14.2304 86.6193 14.4841 86.1805 14.9915C85.7553 15.4989 85.5428 16.212 85.5428 17.1308C85.5428 18.461 86.0982 19.126 87.2089 19.126Z" fill="#041734"/>
<path d="M105.685 20.8339C105.781 20.9436 105.829 21.067 105.829 21.2042C105.829 21.3275 105.787 21.4304 105.705 21.5127C105.623 21.5812 105.513 21.6156 105.376 21.6156H102.188C101.996 21.6156 101.852 21.6019 101.756 21.5744C101.673 21.5333 101.584 21.4578 101.488 21.3481L98.6908 17.5426V20.5871C98.6908 20.9436 98.6085 21.2042 98.4439 21.3687C98.2795 21.5333 97.9983 21.6156 97.6006 21.6156H95.6054C95.2077 21.6156 94.9265 21.5333 94.762 21.3687C94.6111 21.2042 94.5356 20.9436 94.5356 20.5871V8.677C94.5356 8.32046 94.6179 8.05991 94.7825 7.89534C94.9471 7.71707 95.2214 7.62793 95.6054 7.62793H97.6006C97.9983 7.62793 98.2795 7.71707 98.4439 7.89534C98.6085 8.05991 98.6908 8.32046 98.6908 8.677V15.5679L101.406 12.0299C101.488 11.9202 101.578 11.8448 101.673 11.8037C101.769 11.7625 101.913 11.7419 102.105 11.7419H105.294C105.431 11.7419 105.534 11.783 105.602 11.8653C105.685 11.934 105.726 12.0299 105.726 12.1534C105.726 12.2905 105.678 12.4139 105.582 12.5236L102.064 16.5553L105.685 20.8339Z" fill="#041734"/>
<path d="M112.364 21.9236C111.212 21.9236 110.184 21.7317 109.278 21.3477C108.387 20.9637 107.681 20.3877 107.16 19.6198C106.638 18.8518 106.378 17.9125 106.378 16.8016C106.378 15.0601 106.872 13.7299 107.859 12.8111C108.847 11.8923 110.266 11.4329 112.117 11.4329C113.927 11.4329 115.299 11.8855 116.231 12.7905C117.178 13.6818 117.65 14.923 117.65 16.5137C117.65 17.1993 117.349 17.5422 116.745 17.5422H110.286C110.286 18.1319 110.505 18.5844 110.945 18.8998C111.397 19.2152 112.075 19.3729 112.981 19.3729C113.543 19.3729 114.01 19.3249 114.38 19.229C114.763 19.1192 115.148 18.9616 115.532 18.7558C115.696 18.6872 115.806 18.653 115.861 18.653C115.984 18.653 116.087 18.7352 116.17 18.8998L116.869 20.2163C116.937 20.3534 116.971 20.4563 116.971 20.5248C116.971 20.6483 116.889 20.7649 116.724 20.8745C116.162 21.2448 115.525 21.5122 114.811 21.6767C114.098 21.8413 113.283 21.9236 112.364 21.9236ZM113.948 15.5058C113.948 14.9846 113.797 14.5801 113.495 14.2921C113.193 14.0042 112.741 13.8602 112.137 13.8602C111.535 13.8602 111.075 14.011 110.76 14.3127C110.444 14.6006 110.286 14.9983 110.286 15.5058H113.948Z" fill="#041734"/>
<path d="M124.7 21.9236C123.548 21.9236 122.458 21.807 121.43 21.5739C120.402 21.327 119.571 20.9842 118.941 20.5454C118.708 20.3945 118.591 20.2369 118.591 20.0723C118.591 19.9625 118.632 19.846 118.714 19.7226L119.722 18.1181C119.832 17.9536 119.942 17.8713 120.051 17.8713C120.121 17.8713 120.237 17.9193 120.402 18.0153C120.908 18.3033 121.484 18.5364 122.129 18.7146C122.773 18.8929 123.411 18.982 124.042 18.982C124.686 18.982 125.16 18.8861 125.461 18.694C125.776 18.5021 125.935 18.1935 125.935 17.7684C125.935 17.357 125.764 17.0348 125.421 16.8016C125.091 16.5685 124.467 16.2736 123.548 15.9171C122.163 15.396 121.08 14.8132 120.298 14.1687C119.531 13.5105 119.147 12.619 119.147 11.4946C119.147 10.1369 119.633 9.10159 120.607 8.3885C121.581 7.67539 122.877 7.31885 124.495 7.31885C125.619 7.31885 126.579 7.4217 127.374 7.6274C128.183 7.81939 128.869 8.12108 129.432 8.53248C129.665 8.71076 129.781 8.87531 129.781 9.02617C129.781 9.12215 129.74 9.23186 129.658 9.35528L128.65 10.9597C128.526 11.1243 128.416 11.2066 128.321 11.2066C128.252 11.2066 128.135 11.1586 127.971 11.0626C127.175 10.5415 126.23 10.2809 125.132 10.2809C124.543 10.2809 124.09 10.3769 123.775 10.5689C123.459 10.7609 123.301 11.0763 123.301 11.5151C123.301 11.8168 123.384 12.0637 123.548 12.2557C123.713 12.4476 123.933 12.619 124.207 12.7699C124.495 12.9071 124.933 13.0853 125.523 13.3047L125.914 13.4487C126.929 13.8464 127.724 14.2304 128.3 14.6006C128.89 14.9571 129.335 15.4029 129.637 15.9377C129.939 16.4588 130.09 17.1171 130.09 17.9124C130.09 19.1328 129.63 20.1066 128.711 20.8333C127.806 21.5602 126.469 21.9236 124.7 21.9236Z" fill="#041734"/>
<path d="M134.46 21.6149C134.255 21.6149 134.097 21.5806 133.987 21.512C133.878 21.4434 133.795 21.3063 133.741 21.1006L131.087 12.2143C131.059 12.1321 131.045 12.0704 131.045 12.0292C131.045 11.8373 131.183 11.7412 131.457 11.7412H134.173C134.351 11.7412 134.48 11.7755 134.563 11.8441C134.645 11.899 134.701 11.9949 134.727 12.1321L135.839 16.8014L137.237 13.0372C137.306 12.8726 137.375 12.7629 137.443 12.708C137.525 12.6395 137.662 12.6052 137.854 12.6052H139.15C139.342 12.6052 139.473 12.6395 139.541 12.708C139.623 12.7629 139.699 12.8726 139.767 13.0372L141.145 16.8014L142.277 12.1321C142.318 11.9949 142.373 11.899 142.442 11.8441C142.51 11.7755 142.634 11.7412 142.811 11.7412H145.547C145.822 11.7412 145.959 11.8373 145.959 12.0292C145.959 12.0704 145.945 12.1321 145.918 12.2143L143.244 21.1006C143.189 21.3063 143.106 21.4434 142.997 21.512C142.901 21.5806 142.75 21.6149 142.544 21.6149H140.528C140.336 21.6149 140.193 21.5806 140.097 21.512C140 21.4298 139.918 21.2926 139.85 21.1006L138.492 17.3775L137.134 21.1006C137.08 21.2926 136.997 21.4298 136.887 21.512C136.791 21.5806 136.648 21.6149 136.455 21.6149H134.46Z" fill="#041734"/>
<path d="M151.173 21.9236C149.885 21.9236 148.849 21.5122 148.068 20.6894C147.299 19.8529 146.916 18.6804 146.916 17.1719C146.916 16.02 147.176 15.0121 147.697 14.1481C148.232 13.2841 148.979 12.6191 149.939 12.1529C150.913 11.6729 152.031 11.4329 153.292 11.4329C154.334 11.4329 155.253 11.5495 156.048 11.7826C156.857 12.002 157.598 12.3243 158.27 12.7493V20.9773C158.27 21.2379 158.222 21.4093 158.126 21.4916C158.029 21.5739 157.838 21.6151 157.55 21.6151H155.452C155.301 21.6151 155.184 21.5944 155.102 21.5534C155.02 21.4985 154.951 21.4162 154.897 21.3065L154.629 20.6894C154.231 21.1146 153.751 21.4231 153.189 21.6151C152.641 21.8208 151.969 21.9236 151.173 21.9236ZM152.716 19.126C153.251 19.126 153.669 18.9958 153.97 18.7352C154.273 18.4747 154.423 18.1044 154.423 17.6245V14.4155C154.163 14.2921 153.834 14.2304 153.436 14.2304C152.709 14.2304 152.127 14.4841 151.688 14.9915C151.262 15.4989 151.049 16.212 151.049 17.1308C151.049 18.461 151.605 19.126 152.716 19.126Z" fill="#041734"/>
<path d="M161.112 25.7701C160.714 25.7701 160.433 25.688 160.269 25.5234C160.118 25.3588 160.042 25.0982 160.042 24.7417V12.9551C160.66 12.5163 161.435 12.1529 162.367 11.8648C163.3 11.5769 164.273 11.4329 165.287 11.4329C169.429 11.4329 171.5 13.1882 171.5 16.6988C171.5 18.2895 171.061 19.558 170.183 20.5043C169.306 21.4505 168.065 21.9236 166.46 21.9236C166.008 21.9236 165.568 21.8688 165.144 21.759C164.733 21.6494 164.39 21.4985 164.115 21.3065V24.7417C164.115 25.0982 164.033 25.3588 163.868 25.5234C163.704 25.688 163.422 25.7701 163.025 25.7701H161.112ZM165.576 19.1467C166.166 19.1467 166.604 18.9273 166.893 18.4884C167.194 18.0359 167.345 17.4325 167.345 16.6783C167.345 15.7868 167.166 15.1629 166.81 14.8064C166.467 14.4362 165.932 14.2509 165.205 14.2509C164.739 14.2509 164.369 14.3127 164.095 14.4362V17.7067C164.095 18.173 164.225 18.5296 164.486 18.7763C164.747 19.0232 165.11 19.1467 165.576 19.1467Z" fill="#041734"/>
<path fill-rule="evenodd" clip-rule="evenodd" d="M5.19179 5.30954C4.79077 3.16214 6.4385 1.17822 8.62302 1.17822C10.5508 1.17822 12.1136 2.741 12.1136 4.66878V8.9721C12.5958 8.93807 13.0857 8.92062 13.5819 8.92062C14.0587 8.92062 14.5297 8.93672 14.9935 8.96816V4.66878C14.9935 2.741 16.5563 1.17822 18.4841 1.17822C20.6686 1.17822 22.3163 3.16214 21.9153 5.30954L20.9707 10.3679C24.2126 11.7833 26.664 14.2415 26.664 17.3305V19.1993C26.664 21.7395 24.9835 23.8663 22.634 25.3021C20.2663 26.749 17.0633 27.6091 13.5819 27.6091C10.1006 27.6091 6.89758 26.749 4.52988 25.3021C2.18052 23.8663 0.5 21.7395 0.5 19.1993V17.3305C0.5 14.2578 2.92617 11.809 6.1407 10.3909L5.19179 5.30954ZM19.7602 11.0324L20.8656 5.1135C21.1439 3.62309 20.0003 2.24614 18.4841 2.24614C17.1461 2.24614 16.0614 3.33079 16.0614 4.66878V10.1451C15.7109 10.1001 15.3547 10.0645 14.9935 10.0387C14.5306 10.0056 14.0596 9.98853 13.5819 9.98853C13.0849 9.98853 12.5948 10.007 12.1136 10.0428C11.7524 10.0697 11.3962 10.1064 11.0457 10.1524V4.66878C11.0457 3.33079 9.96101 2.24614 8.62302 2.24614C7.10684 2.24614 5.96323 3.62308 6.24156 5.1135L7.35056 11.0521C3.88365 12.3399 1.56792 14.6699 1.56792 17.3305V19.1993C1.56792 23.2541 6.94679 26.5412 13.5819 26.5412C20.2172 26.5412 25.5961 23.2541 25.5961 19.1993V17.3305C25.5961 14.6563 23.2566 12.3161 19.7602 11.0324Z" fill="#293C59"/>
<path d="M25.596 19.1992C25.596 23.2541 20.2171 26.5411 13.5819 26.5411C6.94675 26.5411 1.56787 23.2541 1.56787 19.1992V17.3303H25.596V19.1992Z" fill="#CEE0FE"/>
<path fill-rule="evenodd" clip-rule="evenodd" d="M6.24151 5.11346C5.96319 3.62304 7.10679 2.24609 8.62299 2.24609C9.96098 2.24609 11.0456 3.33075 11.0456 4.66874V10.1524C11.8632 10.045 12.7118 9.98848 13.5819 9.98848C14.432 9.98848 15.2613 10.0424 16.0614 10.145V4.66874C16.0614 3.33075 17.1461 2.24609 18.484 2.24609C20.0003 2.24609 21.1438 3.62304 20.8655 5.11346L19.7601 11.0324C23.2565 12.3161 25.596 14.6563 25.596 17.3304C25.596 21.3853 20.2171 24.6723 13.5819 24.6723C6.94675 24.6723 1.56787 21.3853 1.56787 17.3304C1.56787 14.6699 3.8836 12.3398 7.35051 11.052L6.24151 5.11346Z" fill="#879AB7"/>
<path d="M10.245 16.797C10.245 17.9029 9.64733 18.7994 8.91009 18.7994C8.17284 18.7994 7.5752 17.9029 7.5752 16.797C7.5752 15.6911 8.17284 14.7947 8.91009 14.7947C9.64733 14.7947 10.245 15.6911 10.245 16.797Z" fill="#293C59"/>
<path d="M19.4559 16.797C19.4559 17.9029 18.8582 18.7994 18.121 18.7994C17.3838 18.7994 16.7861 17.9029 16.7861 16.797C16.7861 15.6911 17.3838 14.7947 18.121 14.7947C18.8582 14.7947 19.4559 15.6911 19.4559 16.797Z" fill="#293C59"/>
</g>
<defs>
<clipPath id="clip0_106:1411">
<rect width="171" height="27.7875" fill="white" transform="translate(0.5 0.5)"/>
</clipPath>
</defs>
</svg>
