<svg width="198" height="35" viewBox="0 0 198 35" fill="none" xmlns="http://www.w3.org/2000/svg">
<path fill-rule="evenodd" clip-rule="evenodd" d="M29.1654 20.8171C28.5731 21.1919 27.8755 21.2383 27.3453 20.939C26.6718 20.5583 26.3015 19.6669 26.3015 18.4271V14.7178C26.3015 12.9266 25.594 11.652 24.411 11.3079C22.4061 10.7232 20.8983 13.1787 20.3317 14.1008L16.7958 19.8394V12.8254C16.7561 11.2117 16.2325 10.2464 15.2383 9.95532C14.5805 9.76293 13.5963 9.84005 12.6403 11.3045L4.71865 24.0371C3.65813 22.0218 3.10528 19.7778 3.10814 17.5C3.10814 9.8301 9.24863 3.59068 16.7958 3.59068C24.343 3.59068 30.4827 9.8301 30.4827 17.5C30.4827 17.5133 30.486 17.5249 30.4868 17.5373C30.4868 17.5506 30.4843 17.5622 30.4852 17.5755C30.5564 19.0607 30.0759 20.2424 29.1654 20.8179V20.8171ZM33.5239 17.5008V17.5V17.4619L33.5231 17.4237C33.4808 8.08283 25.9941 0.5 16.795 0.5C7.57184 0.5 0.0668945 8.12595 0.0668945 17.5C0.0668945 26.8732 7.57184 34.5 16.7958 34.5C21.0284 34.5 25.0679 32.8896 28.1688 29.9664C28.7852 29.3859 28.8216 28.4082 28.25 27.7829C28.1155 27.6344 27.9527 27.5143 27.7711 27.4295C27.5896 27.3448 27.393 27.2972 27.1929 27.2895C26.9928 27.2817 26.7931 27.3141 26.6056 27.3846C26.4181 27.4551 26.2466 27.5623 26.101 27.7C23.5875 30.0825 20.2574 31.41 16.7958 31.4093C12.7546 31.4093 9.11856 29.6189 6.61084 26.7795L13.7546 15.2975V20.5907C13.7546 23.1332 14.7396 23.955 15.5656 24.1955C16.3924 24.436 17.6558 24.2718 18.9821 22.1157L22.9115 15.7395C23.0374 15.5338 23.1534 15.3563 23.2594 15.2029V18.4271C23.2594 20.8038 24.2105 22.7045 25.8682 23.6407C27.3627 24.4849 29.2417 24.4086 30.7726 23.4417C32.6284 22.2683 33.6283 20.1064 33.5239 17.5008V17.5008ZM56.8142 11.6926C57.216 11.9373 57.5639 12.4813 57.5639 12.9714C57.5639 13.76 56.8946 14.4126 56.1448 14.4126C55.9576 14.4126 55.7703 14.3587 55.6096 14.304C54.7257 13.6514 53.6015 13.216 52.4234 13.216C49.6398 13.216 47.712 15.5006 47.712 18.3293C47.712 21.1587 49.6398 23.416 52.4234 23.416C53.8152 23.416 55.0471 22.8446 55.9841 21.9747C56.2262 21.8006 56.5161 21.7056 56.8142 21.7027C57.5639 21.7027 58.153 22.3006 58.153 23.0627C58.153 23.552 57.858 23.9874 57.4836 24.232C56.1448 25.3747 54.3247 26.136 52.4507 26.136C48.1676 26.136 44.6865 22.6 44.6865 18.248C44.6865 13.896 48.1668 10.36 52.4507 10.36C54.0571 10.36 55.5823 10.8493 56.8142 11.6926V11.6926ZM64.6464 14.984C67.5642 14.984 70.0272 17.4594 70.0272 20.5053C70.0272 23.552 67.5642 26.136 64.6464 26.136C61.5944 26.136 59.051 23.552 59.051 20.5053C59.051 17.4594 61.5944 14.984 64.6464 14.984ZM64.619 23.416C65.9048 23.416 67.0017 22.192 67.0017 20.5326C67.0017 18.8741 65.9048 17.84 64.619 17.84C63.2272 17.84 62.0757 18.8467 62.0757 20.5326C62.0757 22.192 63.2272 23.416 64.619 23.416ZM71.8622 24.4493V16.6707C71.8622 15.8274 72.5316 15.12 73.3617 15.12C74.1918 15.12 74.8877 15.8274 74.8877 16.6707V24.4493C74.8877 25.2926 74.1918 26 73.3617 26C72.5316 26 71.8622 25.2926 71.8622 24.4493V24.4493ZM71.6219 12.1827C71.6219 11.176 72.3974 10.36 73.3617 10.36C74.3517 10.36 75.1553 11.176 75.1553 12.1827C75.1553 13.1613 74.3517 13.9507 73.3617 13.9507C72.3974 13.9507 71.6219 13.1613 71.6219 12.1827ZM80.6852 20.2333V24.4493C80.6852 25.2926 79.9893 26 79.1584 26C78.3291 26 77.6589 25.2926 77.6589 24.4493V16.3166C77.6589 15.664 78.1949 15.12 78.8378 15.12C79.4798 15.12 79.9893 15.664 79.9893 16.3166C81.2204 15.1747 82.2907 14.984 83.3081 14.984C86.3336 14.984 87.6724 17.2686 87.6724 19.8526V24.4493C87.6724 25.2926 86.9765 26 86.1464 26C85.3162 26 84.6469 25.2926 84.6469 24.4493V20.2333C84.6469 18.9006 84.4861 17.7853 82.5857 17.7853C81.2469 17.7853 80.6844 18.9006 80.6844 20.2333H80.6852ZM97.5119 21.8387C97.1639 21.8387 96.9237 21.6754 96.7356 21.4573L93.2015 17.6227V24.4493C93.2015 25.2926 92.5056 26 91.6754 26C90.8453 26 90.1759 25.2926 90.1759 24.4493V10.9322C90.2192 10.8183 90.2966 10.7206 90.3974 10.6523C90.4982 10.584 90.6176 10.5486 90.7393 10.5507C91.0061 10.5507 91.2198 10.7688 91.3813 10.9322L97.0032 17.2695C97.1639 17.4602 97.3777 17.5688 97.4854 17.5688C97.5923 17.5688 97.806 17.4602 97.9667 17.2703L103.589 10.9322C103.75 10.7688 103.964 10.5507 104.231 10.5507C104.499 10.5507 104.714 10.7141 104.794 10.9322V24.4493C104.794 25.2926 104.125 26 103.294 26C102.464 26 101.768 25.2926 101.768 24.4493V17.6227L98.2351 21.4573C98.0471 21.6754 97.806 21.8387 97.5119 21.8387V21.8387ZM112.064 23.416C113.429 23.416 114.58 22.192 114.58 20.5326C114.58 18.8741 113.402 17.7853 112.064 17.7853C110.725 17.7853 109.654 18.9006 109.654 20.5326C109.654 22.1373 110.725 23.416 112.064 23.416ZM115.276 24.8034L115.222 24.4493C114.634 25.6185 112.759 26.136 111.554 26.136C108.716 26.136 106.628 23.552 106.628 20.5053C106.628 17.4594 108.77 14.984 111.715 14.984C112.224 14.984 113.91 15.12 115.222 16.6707L115.276 16.3166C115.276 15.664 115.784 15.12 116.427 15.12C117.069 15.12 117.604 15.664 117.604 16.3166V24.8034C117.604 25.456 117.069 26 116.426 26C115.784 26 115.275 25.456 115.275 24.8034H115.276ZM125.999 17.7853H125.678C123.777 17.8947 123.403 18.9827 123.403 20.2333V24.4493C123.403 25.2926 122.707 26 121.877 26C121.047 26 120.377 25.2926 120.377 24.4493V16.3166C120.377 15.664 120.912 15.12 121.555 15.12C122.198 15.12 122.707 15.664 122.707 16.3166C123.831 15.256 124.741 15.0387 125.678 14.984H125.973C126.696 14.984 127.364 15.6093 127.364 16.3987C127.364 17.1326 126.722 17.7853 125.999 17.7853V17.7853ZM137.659 23.7427C137.794 23.96 137.874 24.2046 137.874 24.4766C137.874 25.2653 137.151 26 136.375 26C135.839 26 135.384 25.592 135.036 25.1566L131.556 21.104V24.4493C131.556 25.2926 130.86 26 130.029 26C129.199 26 128.53 25.2926 128.53 24.4493V12.1015C128.53 11.2573 129.199 10.5507 130.029 10.5507C130.86 10.5507 131.555 11.2573 131.555 12.1015V19.7987L135.036 15.936C135.384 15.528 135.812 15.12 136.348 15.12C137.098 15.12 137.794 15.8274 137.794 16.616C137.794 16.8606 137.74 17.1053 137.606 17.3234L134.849 20.3419L137.659 23.7419V23.7427ZM143.591 17.84C142.761 17.84 141.422 18.2754 141.422 19.5533H145.786C145.786 18.248 144.394 17.84 143.59 17.84H143.591ZM147.553 21.4846H141.422C141.422 23.3074 143.162 23.5794 143.938 23.5794C144.502 23.5794 145.304 23.4707 145.92 23.1979C146.107 23.0627 146.429 22.9533 146.696 22.9533C147.366 22.9533 147.927 23.5255 147.927 24.2055C147.927 24.6674 147.633 25.0754 147.259 25.2926C146.322 25.9726 145.116 26.136 143.966 26.136C140.914 26.136 138.37 24.4775 138.37 20.6413C138.37 17.6227 139.923 14.984 143.537 14.984C146.455 14.984 148.677 16.888 148.731 20.288C148.731 20.9406 148.196 21.4846 147.553 21.4846V21.4846ZM155.974 26.136H155.144C152.841 26.136 151.503 25.1293 151.503 21.512V17.7853H150.727C150.003 17.7853 149.361 17.1326 149.361 16.3987C149.361 15.6093 150.003 14.984 150.727 14.984H151.503V12.1006C151.503 11.2573 152.172 10.5499 153.002 10.5499C153.832 10.5499 154.528 11.2573 154.528 12.1006V14.984H155.786C156.509 14.984 157.152 15.6093 157.152 16.3987C157.152 17.1326 156.509 17.7853 155.786 17.7853H154.528V20.9133C154.528 22.9806 154.635 23.416 155.546 23.416H155.974C156.696 23.416 157.312 24.0147 157.312 24.776C157.312 25.5107 156.696 26.136 155.974 26.136ZM170.633 11.6926C171.034 11.9373 171.382 12.4813 171.382 12.9714C171.382 13.76 170.713 14.4126 169.963 14.4126C169.776 14.4126 169.588 14.3587 169.428 14.304C168.544 13.6514 167.42 13.216 166.242 13.216C163.458 13.216 161.53 15.5006 161.53 18.3293C161.53 21.1587 163.457 23.416 166.242 23.416C167.634 23.416 168.866 22.8446 169.803 21.9747C170.045 21.8006 170.335 21.7056 170.633 21.7027C171.382 21.7027 171.971 22.3006 171.971 23.0627C171.971 23.552 171.677 23.9874 171.302 24.232C169.963 25.3747 168.142 26.136 166.268 26.136C161.985 26.136 158.505 22.6 158.505 18.248C158.505 13.896 161.985 10.36 166.268 10.36C167.876 10.36 169.401 10.8493 170.633 11.6926V11.6926ZM178.304 23.416C179.669 23.416 180.82 22.192 180.82 20.5326C180.82 18.8741 179.642 17.7853 178.303 17.7853C176.965 17.7853 175.894 18.9006 175.894 20.5326C175.894 22.1373 176.965 23.416 178.303 23.416H178.304ZM181.516 24.8034L181.463 24.4493C180.874 25.6185 179 26.136 177.795 26.136C174.957 26.136 172.869 23.552 172.869 20.5053C172.869 17.4594 175.011 14.984 177.955 14.984C178.464 14.984 180.151 15.12 181.463 16.6707L181.516 16.3166C181.516 15.664 182.025 15.12 182.668 15.12C183.31 15.12 183.846 15.664 183.846 16.3166V24.8034C183.846 25.456 183.31 26 182.668 26C182.025 26 181.516 25.456 181.516 24.8034ZM192.159 23.416C193.498 23.416 194.568 22.1373 194.568 20.5326C194.568 18.9006 193.498 17.7853 192.159 17.7853C190.82 17.7853 189.642 18.8733 189.642 20.5326C189.642 22.192 190.794 23.416 192.159 23.416ZM189.642 25.2387V29.1006C189.642 29.944 188.946 30.6514 188.116 30.6514C187.287 30.6514 186.617 29.944 186.617 29.1006V16.3166C186.617 15.664 187.153 15.12 187.796 15.12C188.438 15.12 188.947 15.664 188.947 16.4253C190.071 15.256 191.463 14.984 192.507 14.984C195.452 14.984 197.594 17.4594 197.594 20.5053C197.594 23.552 195.506 26.136 192.668 26.136C191.785 26.136 190.472 25.864 189.642 25.2387V25.2387Z" fill="#041734"/>
</svg>
