<svg width="166" height="45" viewBox="0 0 166 45" fill="none" xmlns="http://www.w3.org/2000/svg">
<g clip-path="url(#clip0_106:1428)">
<path d="M68.704 17.6257C68.2552 15.8766 67.1239 14.5968 64.9119 14.5968C61.6475 14.5968 60.2824 17.4756 60.2824 20.3971C60.2824 23.3186 61.6475 26.199 64.9119 26.199C67.2819 26.199 68.5807 24.4294 68.7924 22.211H71.3948C71.1815 25.8577 68.6013 28.3731 64.9166 28.3731C60.3519 28.3731 57.6216 24.747 57.6216 20.3955C57.6216 16.0441 60.3424 12.4116 64.9071 12.4116C68.3405 12.4322 71.0487 14.3314 71.3695 17.6163L68.704 17.6257Z" fill="#041734"/>
<path d="M72.9702 22.48C72.9702 19.1098 74.9958 16.6797 78.5367 16.6797C82.0775 16.6797 84.1031 19.1098 84.1031 22.48C84.1031 25.8502 82.0775 28.304 78.5367 28.304C74.9958 28.304 72.9702 25.8723 72.9702 22.48ZM81.6714 22.48C81.6714 20.584 80.7124 18.5994 78.5367 18.5994C76.361 18.5994 75.4019 20.5824 75.4019 22.48C75.4019 24.3776 76.361 26.3843 78.5367 26.3843C80.7124 26.3843 81.6714 24.3997 81.6714 22.48Z" fill="#041734"/>
<path d="M86.1934 12.7749H88.625V15.0786H86.1934V12.7749ZM86.1934 16.9778H88.625V28.0049H86.1934V16.9778Z" fill="#041734"/>
<path d="M91.2695 16.978H93.5732V18.5991L93.6159 18.6418C93.9652 18.0413 94.4667 17.5435 95.0697 17.1987C95.6728 16.8539 96.3562 16.6742 97.0509 16.6778C99.4399 16.6778 100.954 17.9576 100.954 20.4304V28.0035H98.5219V21.0719C98.4792 19.3449 97.7967 18.5991 96.3683 18.5991C94.7472 18.5991 93.7012 19.8774 93.7012 21.4985V28.0051H91.2695V16.978Z" fill="#041734"/>
<path d="M117.143 28.005H115.437L115.032 26.2132C113.61 27.8344 112.302 28.3668 110.45 28.3668C105.888 28.37 103.152 24.7359 103.152 20.3892C103.152 16.0425 105.888 12.4116 110.447 12.4116C113.765 12.4116 116.568 14.1813 116.973 17.6163H114.37C114.114 15.6112 112.367 14.5873 110.447 14.5873C107.183 14.5873 105.817 17.4662 105.817 20.3876C105.817 23.3091 107.183 26.1895 110.447 26.1895C113.176 26.2322 114.669 24.5905 114.713 22.0088H110.66V19.9847H117.138L117.143 28.005Z" fill="#041734"/>
<path d="M121.602 23.1199C121.602 24.8485 122.54 26.3843 124.566 26.3843C125.974 26.3843 126.827 25.7649 127.252 24.5498H129.557C129.025 26.9594 126.977 28.304 124.566 28.304C121.112 28.304 119.17 25.8929 119.17 22.5021C119.17 19.3657 121.224 16.6797 124.503 16.6797C127.979 16.6797 130.112 19.8145 129.707 23.1199H121.602ZM127.275 21.5209C127.19 19.9851 126.144 18.5994 124.503 18.5994C122.817 18.5994 121.666 19.8777 121.602 21.5209H127.275Z" fill="#041734"/>
<path d="M139.008 20.6677C138.815 19.3231 137.834 18.5994 136.491 18.5994C135.227 18.5994 133.462 19.2599 133.462 22.608C133.462 24.4424 134.272 26.3843 136.383 26.3843C137.791 26.3843 138.772 25.4457 139.008 23.8673H141.439C140.991 26.7255 139.227 28.304 136.383 28.304C132.928 28.304 131.03 25.8502 131.03 22.608C131.03 19.2804 132.844 16.6797 136.469 16.6797C139.028 16.6797 141.209 17.9595 141.439 20.6677H139.008Z" fill="#041734"/>
<path d="M143.494 12.7749H145.925V21.4351L150.319 16.9778H153.306L149.082 21.029L153.71 28.0049H150.74L147.369 22.6501L145.919 24.0579V28.008H143.494V12.7749Z" fill="#041734"/>
<path d="M154.366 22.48C154.366 19.1098 156.391 16.6797 159.932 16.6797C163.473 16.6797 165.5 19.1098 165.5 22.48C165.5 25.8502 163.473 28.304 159.932 28.304C156.391 28.304 154.366 25.8723 154.366 22.48ZM163.069 22.48C163.069 20.584 162.108 18.5994 159.932 18.5994C157.757 18.5994 156.797 20.5824 156.797 22.48C156.797 24.3776 157.757 26.3843 159.932 26.3843C162.108 26.3843 163.069 24.3997 163.069 22.48V22.48Z" fill="#041734"/>
<g style="mix-blend-mode:screen">
<path d="M44.1088 22.2083C44.1278 26.5209 42.8676 30.7422 40.4875 34.3385C38.1073 37.9348 34.7142 40.7445 30.7372 42.4123C26.7602 44.0802 22.378 44.5313 18.1446 43.7085C13.9112 42.8857 10.0169 40.8261 6.95414 37.7901C3.89135 34.754 1.79765 30.8779 0.937803 26.6519C0.0779541 22.4259 0.49058 18.0399 2.1235 14.0484C3.75642 10.0569 6.53629 6.63932 10.1116 4.22776C13.6869 1.8162 17.897 0.519 22.2095 0.500207C27.9921 0.475009 33.548 2.74791 37.6549 6.81894C41.7618 10.89 44.0833 16.4257 44.1088 22.2083Z" fill="#95A8C5"/>
<path d="M42.4734 22.2162C42.4915 26.2046 41.3265 30.1089 39.1256 33.4352C36.9247 36.7615 33.7869 39.3605 30.109 40.9035C26.431 42.4464 22.3781 42.8641 18.4627 42.1037C14.5474 41.3432 10.9455 39.4388 8.11249 36.6312C5.27951 33.8236 3.3427 30.239 2.54699 26.3307C1.75128 22.4224 2.13241 18.3659 3.64219 14.6741C5.15196 10.9824 7.72256 7.82132 11.0289 5.59058C14.3353 3.35984 18.2289 2.15965 22.2174 2.1418C27.5653 2.11828 32.7037 4.2199 36.5023 7.98444C40.3009 11.749 42.4488 16.8682 42.4734 22.2162V22.2162Z" fill="#D4E5FF"/>
<path d="M22.6754 3.44848C23.9573 3.22095 25.2693 3.22095 26.5512 3.44848C27.8456 3.65343 29.0967 4.07262 30.2533 4.68881C31.4035 5.32083 32.3974 6.17879 33.3865 6.98303C34.3756 7.78726 35.3599 8.61046 36.2969 9.51108C37.2534 10.3977 38.088 11.4072 38.7791 12.5132C39.4907 13.6104 40.0739 14.7857 40.5172 16.0161C41.3593 18.4904 41.6516 21.1559 41.2314 23.6982H41.1065C40.6847 21.1781 40.1127 18.7764 39.2105 16.4917C38.787 15.3412 38.2888 14.2196 37.7189 13.1341C37.1244 12.0485 36.4692 10.9971 35.7565 9.98509C35.0317 8.96198 34.1435 8.06517 33.1273 7.33063C32.1035 6.60066 30.9264 6.12823 29.7872 5.6795C28.6479 5.23077 27.5182 4.76623 26.33 4.42495C25.1418 4.08366 23.9347 3.82769 22.6738 3.57963L22.6754 3.44848Z" fill="#041734"/>
<path d="M32.5337 15.0983C31.0706 14.6749 29.5537 14.0744 28.0179 13.4677C27.9294 13.0822 27.5882 12.6018 26.8977 12.0157C25.8944 11.1451 24.0094 11.1672 22.3804 11.5527C20.5823 11.1292 18.8063 10.9791 17.1015 11.3947C3.15764 15.2358 11.0641 24.607 5.94482 34.0271C6.67322 35.5724 14.5244 44.5881 25.8849 42.1691C25.8849 42.1691 21.9996 32.8326 30.7672 28.3516C37.8789 24.7033 43.0172 17.9534 32.5337 15.0983Z" fill="#94A7C4"/>
<path d="M34.2561 21.2302C34.257 21.3974 34.2083 21.5611 34.1162 21.7007C34.0241 21.8402 33.8927 21.9493 33.7386 22.0141C33.5845 22.079 33.4146 22.0966 33.2505 22.0649C33.0863 22.0332 32.9353 21.9536 32.8164 21.836C32.6975 21.7185 32.6161 21.5683 32.5826 21.4045C32.5491 21.2407 32.5649 21.0707 32.628 20.9159C32.6911 20.761 32.7987 20.6284 32.9372 20.5348C33.0757 20.4411 33.2388 20.3906 33.406 20.3897C33.6301 20.3888 33.8453 20.4768 34.0047 20.6344C34.164 20.7919 34.2544 21.0062 34.2561 21.2302V21.2302Z" fill="#041734"/>
<path d="M22.3804 11.546C23.3963 11.6187 27.0699 12.81 28.0179 13.461C27.2279 11.17 24.5687 10.865 22.3804 11.546Z" fill="#8192AE"/>
<path d="M23.3474 17.3403C23.3477 18.1117 23.1193 18.8657 22.691 19.5072C22.2627 20.1487 21.6538 20.6488 20.9413 20.9442C20.2287 21.2395 19.4446 21.317 18.6881 21.1667C17.9315 21.0164 17.2366 20.6452 16.691 20.0999C16.1455 19.5546 15.774 18.8597 15.6234 18.1033C15.4728 17.3468 15.5499 16.5626 15.845 15.85C16.1401 15.1374 16.6399 14.5282 17.2812 14.0997C17.9226 13.6711 18.6766 13.4424 19.4479 13.4424C19.9599 13.4422 20.4669 13.5428 20.94 13.7386C21.4131 13.9344 21.843 14.2215 22.2052 14.5835C22.5673 14.9455 22.8545 15.3753 23.0505 15.8483C23.2465 16.3213 23.3474 16.8283 23.3474 17.3403Z" fill="#041734"/>
<path d="M22.1909 17.375C22.1909 17.9175 22.0301 18.4478 21.7287 18.8989C21.4273 19.35 20.9989 19.7016 20.4977 19.9092C19.9965 20.1168 19.445 20.1711 18.9129 20.0653C18.3808 19.9594 17.8921 19.6982 17.5085 19.3146C17.1249 18.931 16.8636 18.4422 16.7578 17.9101C16.6519 17.3781 16.7063 16.8266 16.9139 16.3253C17.1215 15.8241 17.473 15.3957 17.9241 15.0944C18.3752 14.793 18.9055 14.6321 19.448 14.6321C20.1755 14.6321 20.8732 14.9211 21.3876 15.4355C21.902 15.9499 22.1909 16.6476 22.1909 17.375V17.375Z" fill="#485B78"/>
<path d="M37.4137 22.9492C34.2536 25.1755 30.6606 26.8645 25.5634 26.8645C23.1775 26.8645 22.6941 24.3365 21.1172 25.5721C20.3035 26.2136 17.4341 27.6482 15.1573 27.5392C12.8804 27.4302 9.18948 26.095 8.16088 21.2349C7.75323 26.095 7.54467 29.6754 5.71973 33.7788C9.35381 39.598 18.0187 44.0869 25.8841 42.1529C25.0388 36.2515 30.1961 30.4717 33.1017 27.5139C34.2078 26.3937 36.3092 24.5656 37.4137 22.946V22.9492Z" fill="#94A7C4"/>
<path d="M37.2905 23.0949C36.3093 23.9892 35.1416 24.6512 33.9534 25.2358C32.7508 25.8069 31.497 26.2634 30.2088 26.5994C28.9194 26.9328 27.5748 27.184 26.2128 27.0608C24.8509 26.9375 23.4588 26.4746 22.5566 25.4539L22.5993 25.4049C23.7053 26.1222 24.982 26.375 26.2523 26.4114C27.54 26.4505 28.8279 26.3445 30.0918 26.0954C31.3686 25.8281 32.6175 25.4419 33.8223 24.9419C35.0279 24.4442 36.2208 23.8675 37.2478 23.0459L37.2905 23.0949Z" fill="#58595B"/>
</g>
</g>
<defs>
<clipPath id="clip0_106:1428">
<rect width="165" height="43.6153" fill="white" transform="translate(0.5 0.5)"/>
</clipPath>
</defs>
</svg>
