<svg width="112" height="28" viewBox="0 0 112 28" fill="none" xmlns="http://www.w3.org/2000/svg">
<mask id="mask0_106:1459" style="mask-type:alpha" maskUnits="userSpaceOnUse" x="0" y="0" width="22" height="15">
<path d="M0.955566 11.7906L15.1651 11.9053C15.1651 11.9053 18.3013 12.3037 20.9802 14.6566C21.1327 14.7894 21.7288 14.6566 21.7288 14.6566L21.6564 0.545166L0.955566 0.569314V11.7906Z" fill="white"/>
</mask>
<g mask="url(#mask0_106:1459)">
<path fill-rule="evenodd" clip-rule="evenodd" d="M18.7105 3.72356C17.0202 2.33204 14.6944 1.63477 11.7333 1.63477C7.77454 1.63477 6.01929 1.63477 4.3561 1.63477V2.66558C4.3561 2.66558 8.36013 2.66558 11.5975 2.66558C14.1149 2.66558 16.3938 3.18476 17.7854 4.38612C19.1769 5.58899 20.2319 7.37895 20.2319 9.58849C20.2319 11.7211 19.3188 13.3012 17.8714 14.4966C16.424 15.6919 13.8432 16.2186 11.2594 16.2186C8.176 16.2186 2.94043 16.2186 2.94043 16.2186V17.2494C2.94043 17.2494 10.0233 17.2479 11.3167 17.2479C14.4333 17.2479 16.8677 16.5703 18.62 15.218C20.3722 13.8642 21.2476 11.961 21.2476 9.50548C21.2476 7.0439 20.4024 5.1166 18.7105 3.72356Z" fill="#041734"/>
<path fill-rule="evenodd" clip-rule="evenodd" d="M18.0855 5.2177C17.0336 4.41931 15.8247 3.77637 12.4047 3.77637C8.7161 3.77788 8.26484 3.77637 6.71484 3.77637V4.78152C6.71484 4.78152 9.26094 4.74832 12.2779 4.78152C15.1938 4.81171 16.2638 5.14072 17.2449 5.86667C18.5005 6.79486 19.2793 7.94037 19.2793 9.54319C19.2793 11.0887 18.4885 12.1829 17.2267 13.111C15.9363 14.0619 13.9637 14.0724 13.1608 14.0905C12.8575 14.0981 8.93645 14.0905 8.93645 14.0905V15.0957C8.93645 15.0957 10.8879 15.1229 12.0938 15.0942C14.8618 15.0323 16.5038 14.8678 18.0327 13.7313C19.468 12.6673 20.2271 11.2622 20.2271 9.48282C20.2271 7.13595 19.0529 5.9527 18.0855 5.2177Z" fill="#041734"/>
<path fill-rule="evenodd" clip-rule="evenodd" d="M17.5768 6.5444C16.7875 6.04936 16.0948 5.71582 12.8273 5.71582C9.50691 5.71582 10.1333 5.71582 8.7372 5.71582V6.37687C8.7372 6.37687 9.99893 6.37687 12.7141 6.37687C15.6088 6.37687 16.706 6.89152 17.038 7.09527C17.6885 7.49371 18.5458 8.14269 18.5458 9.46479C18.5458 10.31 18.0462 11.371 17.3082 11.7875C16.6351 12.1663 15.405 12.5059 13.2378 12.5059C12.9646 12.5059 -0.12207 12.5059 -0.12207 12.5059V13.167C-0.12207 13.167 12.2009 13.167 13.2876 13.167C15.9001 13.167 16.7966 12.8772 17.7172 12.3686C18.6409 11.86 19.2566 10.8141 19.2566 9.47082C19.2566 7.97063 18.419 7.07112 17.5768 6.5444Z" fill="#041734"/>
</g>
<path fill-rule="evenodd" clip-rule="evenodd" d="M20.1773 13.8371C18.487 12.4441 16.1597 11.7483 13.2001 11.7483C9.23983 11.7483 9.92956 11.7468 8.26486 11.7468V12.7776C8.26486 12.7776 9.82542 12.7776 13.0627 12.7776C15.5802 12.7776 17.8606 13.2968 19.2522 14.4982C20.6437 15.7011 21.6971 17.491 21.6971 19.7021C21.6971 21.8331 20.7856 23.4133 19.3382 24.6086C17.8908 25.8039 15.3085 26.3307 12.7247 26.3307C9.6428 26.3307 4.40723 26.3307 4.40723 26.3307V27.3615C4.40723 27.3615 11.4886 27.36 12.7835 27.36C15.9001 27.36 18.333 26.6838 20.0853 25.33C21.8375 23.9778 22.7144 22.0731 22.7144 19.6191C22.7144 17.156 21.8692 15.2287 20.1773 13.8371Z" fill="#041734"/>
<path fill-rule="evenodd" clip-rule="evenodd" d="M19.5524 15.3298C18.5005 14.5329 17.2916 13.8884 13.8716 13.8884C10.1815 13.8899 7.68671 13.8884 6.13672 13.8884V14.8936C6.13672 14.8936 10.7263 14.8604 13.7448 14.8936C16.6607 14.9238 17.7292 15.2528 18.7102 15.9787C19.9674 16.9084 20.7462 18.0524 20.7462 19.6553C20.7462 21.2007 19.9554 22.2949 18.6936 23.2246C17.4032 24.1739 15.4307 24.186 14.6262 24.2041C14.3229 24.2102 10.4018 24.2041 10.4018 24.2041V25.2078C10.4018 25.2078 12.3533 25.2349 13.5607 25.2078C16.3271 25.1444 17.9707 24.9799 19.4996 23.8449C20.9334 22.7794 21.6925 21.3743 21.6925 19.5949C21.6925 17.2495 20.5198 16.0648 19.5524 15.3298Z" fill="#041734"/>
<path fill-rule="evenodd" clip-rule="evenodd" d="M7.79248 18.7407H15.0414V18.1792H7.79248V18.7407Z" fill="#041734"/>
<path fill-rule="evenodd" clip-rule="evenodd" d="M10.7822 20.7042H14.9991V20.2212H10.7822V20.7042Z" fill="#041734"/>
<path fill-rule="evenodd" clip-rule="evenodd" d="M4.40723 18.7407H6.55488V18.1792H4.40723V18.7407Z" fill="#041734"/>
<path fill-rule="evenodd" clip-rule="evenodd" d="M3.06836 20.7433H9.59132V20.1819H3.06836V20.7433Z" fill="#041734"/>
<path fill-rule="evenodd" clip-rule="evenodd" d="M4.67578 6.33321H7.21735V5.86987H4.67578V6.33321Z" fill="#041734"/>
<path fill-rule="evenodd" clip-rule="evenodd" d="M2.90576 10.091H8.72692V9.55225H2.90576V10.091Z" fill="#041734"/>
<path fill-rule="evenodd" clip-rule="evenodd" d="M3.06836 25.1382H9.20646V24.4651H3.06836V25.1382Z" fill="#041734"/>
<path fill-rule="evenodd" clip-rule="evenodd" d="M1.53809 27.3207H3.07299V26.3457H1.53809V27.3207Z" fill="#041734"/>
<path fill-rule="evenodd" clip-rule="evenodd" d="M5.37451 8.44603H15.0125V7.90723H5.37451V8.44603Z" fill="#041734"/>
<path fill-rule="evenodd" clip-rule="evenodd" d="M10.1938 10.091H14.8303V9.55225H10.1938V10.091Z" fill="#041734"/>
<path fill-rule="evenodd" clip-rule="evenodd" d="M19.0436 16.7574C18.2528 16.279 17.5601 15.9575 14.294 15.9575C10.9737 15.9575 10.4772 15.9575 9.08263 15.9575V16.5959C9.08263 16.5959 11.4642 16.5959 14.1793 16.5959C17.0741 16.5959 18.1728 17.0925 18.5048 17.2902C19.1538 17.675 20.0126 18.2999 20.0126 19.5767C20.0126 20.3932 19.513 21.4165 18.7735 21.8179C18.1004 22.1847 16.8703 22.5122 14.7031 22.5122C14.4299 22.5122 1.34473 22.5122 1.34473 22.5122V23.1506C1.34473 23.1506 13.6677 23.1491 14.7529 23.1491C17.3669 23.1491 18.2634 22.8699 19.184 22.3794C20.1062 21.8874 20.7219 20.8777 20.7219 19.5812C20.7219 18.1339 19.8858 17.266 19.0436 16.7574Z" fill="#041734"/>
<path fill-rule="evenodd" clip-rule="evenodd" d="M32.7702 15.3147V21.1887H35.9789C37.3659 21.1887 38.442 20.9231 39.2072 20.3918C39.9709 19.8606 40.3527 19.1316 40.3527 18.2064C40.3527 16.2776 38.7302 15.3147 35.4854 15.3147H32.7702ZM32.7702 8.32237V13.5942H35.1911C36.4845 13.5942 37.5017 13.3421 38.2428 12.838C38.9838 12.3324 39.3551 11.6216 39.3551 10.7024C39.3551 9.11623 38.0647 8.32237 35.4854 8.32237H32.7702ZM30.4067 22.9198V6.59277H36.1479C37.8911 6.59277 39.2751 6.93839 40.2968 7.62812C41.3186 8.31935 41.8302 9.21886 41.8302 10.3266C41.8302 11.2533 41.5208 12.0578 40.9021 12.7414C40.2833 13.4236 39.429 13.9096 38.3424 14.1979V14.2431C39.7022 14.3729 40.7889 14.788 41.6054 15.4898C42.4219 16.1931 42.8294 17.1062 42.8294 18.2291C42.8294 19.6251 42.2106 20.757 40.973 21.6218C39.7339 22.4866 38.1733 22.9198 36.2883 22.9198H30.4067Z" fill="#041734"/>
<path fill-rule="evenodd" clip-rule="evenodd" d="M45.4617 22.9197H47.7679V11.2608H45.4617V22.9197ZM46.6435 8.29963C46.2299 8.29963 45.8783 8.18643 45.5885 7.95854C45.2972 7.73064 45.1523 7.44237 45.1523 7.09374C45.1523 6.74359 45.2972 6.45382 45.5885 6.22139C45.8783 5.99048 46.2299 5.87427 46.6435 5.87427C47.0646 5.87427 47.4238 5.99048 47.7196 6.22139C48.0154 6.45382 48.1618 6.74359 48.1618 7.09374C48.1618 7.42728 48.0154 7.71253 47.7196 7.94646C47.4238 8.1819 47.0646 8.29963 46.6435 8.29963Z" fill="#041734"/>
<path fill-rule="evenodd" clip-rule="evenodd" d="M57.9687 22.8064C57.4238 23.0494 56.7069 23.1701 55.8165 23.1701C53.293 23.1701 52.0313 22.0322 52.0313 19.7547V12.8544H49.5562V11.2607H52.0313V8.41425L54.3389 7.81055V11.2607H57.9687V12.8544H54.3389V19.4242C54.3389 20.206 54.5034 20.7644 54.831 21.0979C55.16 21.4315 55.7033 21.599 56.464 21.599C57.045 21.599 57.5461 21.4707 57.9687 21.2111V22.8064Z" fill="#041734"/>
<path fill-rule="evenodd" clip-rule="evenodd" d="M78.9156 22.9197H76.7543V12.8439C76.7543 12.0471 76.8147 11.0736 76.9354 9.92054H76.8841C76.6774 10.5982 76.4902 11.0827 76.3272 11.377L69.9854 22.9197H68.9244L62.5961 11.46C62.415 11.1249 62.2293 10.6118 62.0392 9.92054H61.9879C62.0573 10.5212 62.092 11.5022 62.092 12.8636V22.9197H59.9941V7.89966H62.8677L68.5621 18.3738C69.0028 19.1767 69.2866 19.7774 69.4164 20.1759H69.4933C69.8646 19.3518 70.1619 18.7376 70.3868 18.3316L76.1974 7.89966H78.9156V22.9197Z" fill="#041734"/>
<path fill-rule="evenodd" clip-rule="evenodd" d="M90.641 17.0218L87.1667 17.4096C86.0966 17.5304 85.2907 17.7447 84.7459 18.0526C84.2025 18.3605 83.9309 18.9053 83.9309 19.6856C83.9309 20.2561 84.1814 20.7209 84.684 21.0816C85.185 21.4423 85.8536 21.6219 86.6883 21.6219C87.8323 21.6219 88.777 21.2975 89.5226 20.6485C90.2682 19.9995 90.641 19.1785 90.641 18.1839V17.0218ZM92.9486 22.9199H90.641V21.0982H90.5851C89.5815 22.4943 88.1039 23.1931 86.154 23.1931C84.7187 23.1931 83.5958 22.8852 82.7838 22.2709C81.9734 21.6567 81.5674 20.8402 81.5674 19.8229C81.5674 17.6451 83.1521 16.3773 86.323 16.0196L90.641 15.5306C90.641 13.549 89.6509 12.5589 87.6723 12.5589C85.9382 12.5589 84.3716 13.0374 82.974 13.9927V12.0805C84.3897 11.3515 86.0227 10.9878 87.87 10.9878C91.2552 10.9878 92.9486 12.4367 92.9486 15.3374V22.9199Z" fill="#041734"/>
<path fill-rule="evenodd" clip-rule="evenodd" d="M103.655 13.1503C103.252 12.8997 102.67 12.7745 101.91 12.7745C100.926 12.7745 100.102 13.1503 99.4413 13.9019C98.7803 14.6535 98.4497 15.6782 98.4497 16.9762V22.9196H96.1421V11.2607H98.4497V13.6634H98.5056C98.8346 12.8424 99.3356 12.204 100.012 11.7436C100.686 11.2848 101.441 11.0554 102.276 11.0554C102.876 11.0554 103.335 11.1082 103.655 11.2154V13.1503Z" fill="#041734"/>
<path fill-rule="evenodd" clip-rule="evenodd" d="M111.689 22.8064C111.144 23.0494 110.427 23.1701 109.537 23.1701C107.013 23.1701 105.752 22.0322 105.752 19.7547V12.8544H103.276V11.2607H105.752V8.41425L108.059 7.81055V11.2607H111.689V12.8544H108.059V19.4242C108.059 20.206 108.224 20.7644 108.551 21.0979C108.88 21.4315 109.424 21.599 110.184 21.599C110.765 21.599 111.266 21.4707 111.689 21.2111V22.8064Z" fill="#041734"/>
</svg>
