<svg width="148" height="38" viewBox="0 0 148 38" fill="none" xmlns="http://www.w3.org/2000/svg">
<g clip-path="url(#clip0_106:1450)">
<path d="M8.42727 18.1062C8.42731 17.8978 8.46852 17.6914 8.54853 17.4989C8.62855 17.3065 8.74579 17.1317 8.89354 16.9847C9.04128 16.8376 9.21661 16.7212 9.40946 16.6422C9.6023 16.5631 9.80887 16.5229 10.0173 16.5239L12.6534 16.5325C13.0737 16.5325 13.4768 16.6994 13.774 16.9966C14.0713 17.2938 14.2382 17.6969 14.2382 18.1173V28.0858C14.5351 27.9978 14.9151 27.9039 15.3332 27.8055C15.6229 27.7373 15.8811 27.5733 16.0659 27.34C16.2506 27.1068 16.3512 26.8179 16.3513 26.5203V14.156C16.3513 13.7357 16.5183 13.3325 16.8155 13.0353C17.1127 12.738 17.5158 12.571 17.9361 12.5709H20.5802C21.0006 12.571 21.4037 12.738 21.7009 13.0353C21.9981 13.3325 22.165 13.7357 22.165 14.156V25.6321C22.165 25.6321 22.8265 25.3644 23.4705 25.0924C23.7097 24.9912 23.9139 24.8218 24.0576 24.6053C24.2012 24.3888 24.2779 24.1348 24.2781 23.875V10.1939C24.2781 9.77359 24.445 9.37054 24.7422 9.07334C25.0393 8.77614 25.4423 8.60913 25.8626 8.60905H28.5039C28.924 8.60946 29.3267 8.77661 29.6236 9.07378C29.9204 9.37094 30.0872 9.77381 30.0872 10.1939V21.4598C32.3772 19.8002 34.6979 17.8041 36.5396 15.4039C36.8068 15.0555 36.9837 14.6464 37.0543 14.2131C37.125 13.7797 37.0872 13.3356 36.9445 12.9204C36.092 10.4677 34.7369 8.22 32.9658 6.32108C31.1947 4.42217 29.0468 2.91389 26.6593 1.89275C24.2719 0.871609 21.6976 0.360104 19.1011 0.390966C16.5046 0.421829 13.9432 0.994378 11.5807 2.07198C9.21825 3.14957 7.10673 4.70849 5.3813 6.64896C3.65587 8.58944 2.35452 10.8687 1.56054 13.341C0.766547 15.8133 0.497405 18.4241 0.770329 21.0064C1.04325 23.5886 1.85223 26.0855 3.14551 28.3371C3.37082 28.7256 3.70232 29.0416 4.10104 29.2482C4.49976 29.4547 4.94915 29.5432 5.39641 29.5032C5.89607 29.4592 6.51818 29.397 7.25782 29.3103C7.57972 29.2737 7.87692 29.1199 8.09279 28.8783C8.30867 28.6368 8.42816 28.3242 8.4285 28.0002V18.1062" fill="#041734"/>
<path d="M8.37061 34.093C11.1548 36.1184 14.445 37.3342 17.8772 37.6057C21.3095 37.8773 24.7499 37.1941 27.8179 35.6317C30.886 34.0692 33.462 31.6886 35.261 28.753C37.06 25.8174 38.0118 22.4414 38.0112 18.9984C38.0112 18.5677 37.9912 18.1437 37.9626 17.7209C31.1437 27.891 18.5532 32.6454 8.37061 34.093" fill="#041734"/>
<path d="M54.0729 18.6537C55.0729 18.8373 55.9754 19.3693 56.6204 20.1551C57.2635 20.9283 57.6084 21.9063 57.5927 22.9119C57.5927 24.3559 57.1086 25.5004 56.1405 26.3455C55.1723 27.1905 53.7694 27.613 51.9315 27.613H45.0151V10.2359H51.8085C53.5478 10.2359 54.8811 10.6256 55.8082 11.405C56.7353 12.1845 57.1988 13.2551 57.1988 14.6171C57.2434 15.5821 56.9374 16.5306 56.3374 17.2877C55.7505 17.9764 54.9558 18.4558 54.0729 18.6537ZM47.8211 17.7184H51.2916C52.2761 17.7184 53.0269 17.4887 53.5437 17.0292C53.8061 16.7858 54.0116 16.4876 54.1456 16.1558C54.2796 15.824 54.3388 15.4667 54.3191 15.1094C54.3372 14.7559 54.2772 14.4027 54.1431 14.0751C54.0091 13.7475 53.8045 13.4535 53.5437 13.2141C53.0269 12.7547 52.2433 12.5249 51.1931 12.5249H47.8211V17.7184ZM51.3654 25.2994C52.432 25.2994 53.2566 25.0573 53.8391 24.5733C54.131 24.3247 54.3617 24.0122 54.5132 23.66C54.6647 23.3079 54.7331 22.9255 54.7129 22.5427C54.7319 22.157 54.6619 21.7721 54.5083 21.4178C54.3546 21.0635 54.1214 20.7494 53.8268 20.4997C53.2361 20.0075 52.4074 19.7613 51.3408 19.7613H47.8211V25.2994H51.3654ZM64.6814 13.8787C66.2731 13.8787 67.5489 14.2848 68.5088 15.0971C69.4794 15.9284 70.1066 17.0907 70.2687 18.3584H67.6104C67.5213 17.6683 67.1846 17.0341 66.6628 16.5739C66.0851 16.1016 65.3528 15.8604 64.6075 15.897C64.0186 15.8593 63.4362 16.0388 62.9707 16.4016C62.7785 16.5717 62.6268 16.7827 62.5267 17.019C62.4266 17.2554 62.3807 17.5112 62.3923 17.7676C62.3846 17.9598 62.418 18.1514 62.4901 18.3296C62.5623 18.5079 62.6716 18.6687 62.8107 18.8014C63.1125 19.0775 63.4689 19.2871 63.8568 19.4167C64.4428 19.6113 65.0384 19.7756 65.6413 19.909C66.482 20.087 67.3087 20.3256 68.115 20.6228C68.7466 20.8689 69.3056 21.2711 69.7395 21.7919C70.2196 22.4131 70.4599 23.1864 70.4163 23.9702C70.4304 24.4986 70.3209 25.023 70.0966 25.5016C69.8722 25.9802 69.5393 26.3998 69.1241 26.727C68.2626 27.4325 67.1017 27.7853 65.6413 27.7853C63.9512 27.7853 62.5851 27.3915 61.5431 26.6039C61.0241 26.2086 60.5899 25.7128 60.2664 25.1462C59.9429 24.5796 59.7368 23.9536 59.6602 23.3057H62.3923C62.425 23.6565 62.5292 23.997 62.6985 24.306C62.8678 24.6151 63.0987 24.8861 63.3769 25.1025C64.0293 25.587 64.8295 25.8305 65.6413 25.7916C66.2187 25.8246 66.7867 25.6352 67.2289 25.2625C67.4168 25.0942 67.5659 24.8871 67.6658 24.6554C67.7657 24.4238 67.8139 24.1732 67.8073 23.921C67.8176 23.7117 67.7835 23.5026 67.7071 23.3074C67.6308 23.1123 67.5139 22.9355 67.3643 22.7888C67.0452 22.4957 66.6677 22.2734 66.2566 22.1365C65.6599 21.9395 65.0516 21.7792 64.4352 21.6566C63.6218 21.4766 62.8204 21.2464 62.0354 20.9674C61.4213 20.7385 60.8781 20.3523 60.4601 19.8475C59.9978 19.2467 59.7663 18.5 59.8079 17.743C59.7927 17.2092 59.9015 16.6791 60.1257 16.1943C60.3499 15.7096 60.6835 15.2835 61.1001 14.9494C61.9616 14.2356 63.1553 13.8787 64.6814 13.8787ZM79.2526 13.8787C81.0084 13.8787 82.4606 14.3422 83.6092 15.2694C84.7699 16.217 85.5338 17.5649 85.7506 19.0475H82.7723C82.6427 18.2519 82.2161 17.535 81.5786 17.0415C80.8908 16.5397 80.0542 16.2839 79.2034 16.3154C78.6967 16.3033 78.1933 16.399 77.7265 16.5964C77.2597 16.7937 76.8402 17.0881 76.4959 17.46C75.7739 18.223 75.4129 19.3429 75.4129 20.8197C75.4129 22.2965 75.7739 23.4205 76.4959 24.1918C76.8383 24.5668 77.2572 24.8641 77.7242 25.0637C78.1913 25.2632 78.6956 25.3604 79.2034 25.3486C80.0561 25.38 80.894 25.1195 81.5786 24.6102C82.2149 24.1104 82.6409 23.3903 82.7723 22.5919H85.7506C85.532 24.0774 84.7687 25.4284 83.6092 26.3824C82.4606 27.3177 81.0084 27.7853 79.2526 27.7853C78.0391 27.8096 76.8398 27.5214 75.7698 26.9485C74.7613 26.3913 73.9362 25.5533 73.3946 24.5364C72.7973 23.3904 72.5009 22.1116 72.5331 20.8197C72.5028 19.5359 72.7992 18.2655 73.3946 17.1277C73.9362 16.1107 74.7613 15.2727 75.7698 14.7155C76.8398 14.1427 78.0391 13.8545 79.2526 13.8787ZM99.8788 22.9857C99.8843 23.8176 99.6722 24.6364 99.2634 25.3609C98.8253 26.1178 98.1749 26.7296 97.3928 27.1208C96.437 27.5906 95.3806 27.8188 94.3161 27.7853C93.2252 27.8036 92.1429 27.5896 91.141 27.1577C90.2534 26.7769 89.4811 26.1701 88.9011 25.3978C88.3408 24.6365 88.0079 23.7318 87.9412 22.7888H90.944C91.021 23.5336 91.3667 24.2248 91.9163 24.7333C92.2238 25.0116 92.5832 25.2266 92.9738 25.366C93.3645 25.5053 93.7788 25.5664 94.193 25.5455C94.5525 25.5682 94.913 25.519 95.2532 25.4006C95.5934 25.2823 95.9066 25.0972 96.1744 24.8563C96.4073 24.6253 96.5899 24.3486 96.7106 24.0436C96.8313 23.7387 96.8876 23.412 96.8759 23.0842C96.8981 22.5253 96.7141 21.9778 96.359 21.5458C96.0079 21.1389 95.5707 20.8153 95.0791 20.5982C94.5704 20.3685 93.8731 20.1059 92.987 19.8106C92.0794 19.5353 91.1948 19.1897 90.341 18.7768C89.65 18.4236 89.0546 17.9084 88.6058 17.2754C88.0987 16.5119 87.8486 15.6064 87.892 14.6909C87.8736 13.8204 88.1134 12.964 88.5811 12.2296C89.0643 11.504 89.7486 10.9352 90.5502 10.5928C91.4822 10.1913 92.4893 9.9941 93.5039 10.0144C95.276 10.0144 96.6831 10.441 97.7251 11.2943C98.2333 11.7026 98.6535 12.2098 98.9602 12.7852C99.267 13.3605 99.4538 13.9921 99.5096 14.6417H96.4821C96.371 13.9925 96.0461 13.3991 95.5591 12.9557C94.9911 12.4638 94.254 12.2122 93.5039 12.2542C92.8201 12.2201 92.147 12.4343 91.6086 12.8572C91.3659 13.0735 91.1756 13.3421 91.0519 13.6427C90.9283 13.9433 90.8745 14.2681 90.8948 14.5925C90.8747 15.1244 91.0498 15.6452 91.3871 16.057C91.7268 16.4511 92.1519 16.7626 92.6301 16.9677C93.1305 17.1892 93.8156 17.4476 94.6853 17.743C95.6102 18.0191 96.5115 18.3689 97.3805 18.7891C98.0875 19.1502 98.6958 19.6782 99.1527 20.3274C99.6697 21.1145 99.9239 22.0451 99.8788 22.9857ZM108.715 13.8787C110.471 13.8787 111.923 14.3422 113.072 15.2694C114.232 16.217 114.996 17.5649 115.213 19.0475H112.235C112.105 18.2519 111.679 17.535 111.041 17.0415C110.353 16.5397 109.517 16.2839 108.666 16.3154C108.159 16.3033 107.656 16.399 107.189 16.5964C106.722 16.7937 106.303 17.0881 105.958 17.46C105.236 18.223 104.875 19.3429 104.875 20.8197C104.875 22.2965 105.236 23.4205 105.958 24.1918C106.301 24.5668 106.72 24.8641 107.187 25.0637C107.654 25.2632 108.158 25.3604 108.666 25.3486C109.519 25.38 110.356 25.1195 111.041 24.6102C111.677 24.1104 112.103 23.3903 112.235 22.5919H115.213C114.994 24.0774 114.231 25.4284 113.072 26.3824C111.923 27.3177 110.471 27.7853 108.715 27.7853C107.502 27.8096 106.302 27.5214 105.232 26.9485C104.224 26.3913 103.399 25.5533 102.857 24.5364C102.26 23.3904 101.963 22.1116 101.996 20.8197C101.965 19.5359 102.262 18.2655 102.857 17.1277C103.399 16.1107 104.224 15.2727 105.232 14.7155C106.302 14.1427 107.502 13.8545 108.715 13.8787ZM123.36 13.8787C124.48 13.846 125.581 14.1644 126.511 14.7894C127.366 15.3777 128.012 16.2223 128.357 17.2015V14.051H131.163V27.613H128.357V24.4625C128.012 25.4418 127.366 26.2864 126.511 26.8746C125.581 27.4996 124.48 27.8181 123.36 27.7853C122.249 27.8041 121.154 27.5144 120.197 26.9485C119.253 26.372 118.497 25.5341 118.019 24.5364C117.47 23.376 117.2 22.1031 117.231 20.8197C117.202 19.5444 117.471 18.2799 118.019 17.1277C118.497 16.1299 119.253 15.292 120.197 14.7155C121.154 14.1496 122.249 13.86 123.36 13.8787V13.8787ZM124.222 16.34C123.667 16.3151 123.113 16.4087 122.598 16.6145C122.082 16.8204 121.616 17.1338 121.231 17.5338C120.484 18.3296 120.111 19.4249 120.111 20.8197C120.111 22.2145 120.484 23.3098 121.231 24.1056C121.616 24.5056 122.082 24.819 122.598 25.0249C123.113 25.2307 123.667 25.3243 124.222 25.2994C124.964 25.3112 125.696 25.1197 126.338 24.7456C126.966 24.3718 127.478 23.8306 127.815 23.1826C128.19 22.4524 128.376 21.6402 128.357 20.8197C128.373 20.0035 128.187 19.1959 127.815 18.4691C127.48 17.816 126.969 17.2701 126.338 16.8938C125.696 16.5197 124.964 16.3282 124.222 16.34V16.34ZM142.116 13.8295C143.691 13.8295 144.954 14.3381 145.906 15.3555C146.858 16.3729 147.334 17.8251 147.334 19.7121V27.613H144.528V20.0075C144.528 18.7932 144.216 17.8538 143.592 17.1892C143.261 16.8511 142.861 16.5873 142.42 16.4154C141.978 16.2436 141.506 16.1675 141.033 16.1924C140.535 16.1705 140.039 16.2546 139.576 16.4392C139.114 16.6238 138.696 16.9046 138.35 17.263C137.677 17.9768 137.341 19.0229 137.341 20.4013V27.613H134.535V14.051H137.341V17.0292C137.665 16.0593 138.307 15.2269 139.162 14.6663C140.042 14.1007 141.07 13.8094 142.116 13.8295Z" fill="#041734"/>
</g>
<defs>
<clipPath id="clip0_106:1450">
<rect width="146.667" height="37.3305" fill="white" transform="translate(0.666992 0.333252)"/>
</clipPath>
</defs>
</svg>
