<svg width="37" height="41" viewBox="0 0 37 41" fill="none" xmlns="http://www.w3.org/2000/svg">
<path d="M22.3889 2H14.6111C7.07265 2 1 7.77769 1 14.95V20.5C1 25.5092 4.02137 30.0631 8.77778 32.1977V38.4023C8.77778 38.7154 9.07692 39 9.46581 39C9.61539 39 9.79487 38.9431 9.91453 38.8292L15.5385 33.45H22.3889C29.9274 33.45 36 27.6723 36 20.5V14.95C36 7.77769 29.9274 2 22.3889 2ZM27.5043 26.2777L25.5598 28.1277C23.4658 30.0631 18.0812 27.8431 13.3248 23.2323C8.56838 18.6215 6.44445 13.4131 8.44872 11.4777L10.3932 9.62769C11.1709 8.94462 12.3974 8.97308 13.1752 9.68462L15.9872 12.4738C16.7051 13.2138 16.7051 14.3238 15.9274 15.0638C15.7179 15.2631 15.4786 15.3769 15.2094 15.4908C14.2222 15.7754 13.7137 16.6862 13.953 17.6254C14.4316 19.6746 17.1538 22.2362 19.218 22.7485C20.1752 22.9762 21.1624 22.4638 21.4915 21.5815C21.8205 20.6708 22.8974 20.1585 23.9145 20.4715C24.2137 20.5569 24.453 20.7562 24.6923 20.9269L27.5043 23.7162C28.2222 24.3992 28.2222 25.5377 27.5043 26.2777ZM20.235 10.7946C20.0256 10.7946 19.8462 10.7946 19.6667 10.8515C19.3376 10.9085 18.9786 10.6523 18.9487 10.2823C18.9188 9.91231 19.1581 9.62769 19.5171 9.59923C19.7564 9.54231 19.9957 9.54231 20.235 9.54231C23.8248 9.54231 26.6966 12.3315 26.7564 15.69C26.7564 15.9177 26.7564 16.1454 26.6966 16.3731C26.6368 16.6862 26.3675 16.9708 25.9786 16.9138C25.5897 16.8569 25.3504 16.6008 25.4103 16.2308C25.4103 16.0315 25.4701 15.8608 25.4701 15.69C25.4402 13.0146 23.1068 10.7946 20.235 10.7946ZM24.1239 15.7469C24.0641 16.06 23.7949 16.3446 23.406 16.2877C23.1068 16.2308 22.8376 16.0031 22.8376 15.7469C22.8376 14.4092 21.6709 13.2992 20.265 13.2992C19.9359 13.3562 19.5769 13.0715 19.547 12.73C19.4872 12.4169 19.7863 12.0754 20.1154 12.0469H20.2051C22.4487 12.0469 24.1239 13.6977 24.1239 15.7469ZM29.0897 17.7108C29.0299 18.0238 28.7009 18.2515 28.3718 18.2231C28.0427 18.1946 27.8034 17.8531 27.8333 17.54C27.8333 17.4831 27.8333 17.4831 27.8333 17.4546C27.9829 16.9138 28.0427 16.3446 28.0427 15.7469C28.0427 11.6769 24.5427 8.34692 20.265 8.34692C20.0556 8.34692 19.8761 8.34692 19.6966 8.34692C19.3675 8.40385 19.0085 8.11923 19.0085 7.77769C18.9487 7.46462 19.2479 7.12308 19.5769 7.12308C19.8162 7.12308 20.0556 7.06615 20.265 7.06615C25.2607 7.06615 29.359 10.9369 29.359 15.7185C29.3291 16.3731 29.2393 17.0846 29.0897 17.7108Z" fill="url(#paint0_linear_2_7287)"/>
<defs>
<linearGradient id="paint0_linear_2_7287" x1="18.5" y1="2" x2="18.5" y2="39" gradientUnits="userSpaceOnUse">
<stop stop-color="#AFFDFF" stop-opacity="0.38"/>
<stop offset="1" stop-color="#AFFDFF" stop-opacity="0.08"/>
</linearGradient>
</defs>
</svg>
