<svg width="49" height="48" viewBox="0 0 49 48" fill="none" xmlns="http://www.w3.org/2000/svg">
<g clip-path="url(#clip0)">
<path d="M48.2097 25.8028L48.2132 25.8116L48.2171 25.8202C48.3081 26.0251 48.1975 26.3444 47.928 26.4646C45.2622 27.6375 43.1021 28.0528 41.3349 28.0528C38.8911 28.0528 37.0172 27.2767 35.224 26.5159L35.2236 26.5157L35.1971 26.5045C33.8024 25.9144 32.421 25.33 30.7983 25.187C29.1512 25.0419 27.2973 25.3524 24.9275 26.4667C22.2639 27.6379 20.1053 28.0528 18.3391 28.0528C15.8953 28.0528 14.0214 27.2767 12.2282 26.5159L12.2278 26.5157L12.2013 26.5045C10.8066 25.9144 9.42521 25.33 7.80252 25.187C6.15538 25.0419 4.30154 25.3524 1.93169 26.4667C1.68558 26.5734 1.39135 26.4553 1.29099 26.2295C1.18125 25.9826 1.29938 25.6857 1.52643 25.5848L1.52647 25.5849L1.53604 25.5804C4.1868 24.3345 6.23214 24.0448 7.95884 24.1988C9.69894 24.3541 11.1534 24.961 12.6555 25.5892L12.7047 25.6097C14.177 26.2255 15.6881 26.8575 17.552 27.0058C19.4464 27.1565 21.6632 26.8067 24.5741 25.5315L24.5742 25.5316L24.5824 25.5277C27.2339 24.3081 29.2661 24.0314 30.9796 24.1918C32.6939 24.3524 34.1261 24.9513 35.6175 25.575L35.6513 25.5892L35.7005 25.6097C37.1728 26.2255 38.6839 26.8575 40.5478 27.0058C42.4422 27.1565 44.659 26.8067 47.5699 25.5315L47.5723 25.5304C47.8074 25.4259 48.0996 25.5274 48.2097 25.8028Z" fill="#006AF2" stroke="#006AF2"/>
<path d="M48.1453 34.4188L48.16 34.4629L48.1825 34.5035C48.2847 34.6874 48.2018 34.9861 47.928 35.1082C45.2622 36.281 43.1021 36.6963 41.3349 36.6963C38.8911 36.6963 37.0172 35.9202 35.224 35.1595L35.2236 35.1593L35.1971 35.1481C33.8024 34.558 32.421 33.9735 30.7983 33.8306C29.1512 33.6855 27.2974 33.996 24.9275 35.1103C22.2639 36.2815 20.1053 36.6963 18.3391 36.6963C15.8953 36.6963 14.0214 35.9202 12.2282 35.1595L12.2278 35.1593L12.2013 35.1481C10.8066 34.558 9.42521 33.9735 7.80252 33.8306C6.15538 33.6855 4.30154 33.996 1.93169 35.1103C1.68558 35.217 1.39135 35.0989 1.29099 34.8731C1.18125 34.6262 1.29938 34.3292 1.52643 34.2283L1.52647 34.2284L1.53604 34.2239C4.1868 32.9781 6.23214 32.6883 7.95884 32.8424C9.69893 32.9976 11.1534 33.6045 12.6555 34.2327L12.7048 34.2533C14.177 34.8691 15.6881 35.5011 17.552 35.6493C19.4464 35.8 21.6632 35.4503 24.5741 34.175L24.5742 34.1751L24.5824 34.1713C27.2339 32.9517 29.2661 32.675 30.9796 32.8354C32.6939 32.9959 34.1262 33.5949 35.6176 34.2186L35.6513 34.2327L35.7005 34.2533C37.1728 34.8691 38.6839 35.5011 40.5478 35.6493C42.4422 35.8 44.659 35.4503 47.5699 34.175L47.5723 34.174C47.7918 34.0764 48.0755 34.2095 48.1453 34.4188ZM48.6196 34.2607C48.4565 33.7714 47.8585 33.4996 47.3693 33.7171C41.6772 36.2107 38.8501 35.0285 35.8694 33.782L35.8442 33.7714L35.7855 33.7469C32.8143 32.5042 29.7743 31.2327 24.3735 33.7171L48.6196 34.2607Z" fill="#006AF2" stroke="#006AF2"/>
<path d="M48.1407 43.1026L48.1563 43.1544L48.1825 43.2017C48.2847 43.3856 48.2019 43.6841 47.9282 43.8063C45.2623 44.9792 43.1022 45.3945 41.3349 45.3945C38.8911 45.3945 37.0172 44.6184 35.224 43.8577L35.2236 43.8575L35.1971 43.8463C33.8024 43.2562 32.421 42.6718 30.7983 42.5288C29.1512 42.3837 27.2973 42.6942 24.9275 43.8085C22.2639 44.9797 20.1053 45.3945 18.3391 45.3945C15.8953 45.3945 14.0214 44.6184 12.2282 43.8577L12.2278 43.8575L12.2013 43.8463C10.8066 43.2562 9.42521 42.6718 7.80252 42.5288C6.15538 42.3837 4.30155 42.6942 1.9317 43.8085C1.68559 43.9152 1.39135 43.7971 1.29099 43.5713C1.18125 43.3244 1.29938 43.0275 1.52643 42.9266L1.52647 42.9267L1.53604 42.9222C4.1868 41.6763 6.23214 41.3866 7.95884 41.5406C9.69894 41.6959 11.1534 42.3028 12.6555 42.9309L12.7047 42.9515C14.177 43.5673 15.6881 44.1993 17.552 44.3476C19.4464 44.4982 21.6632 44.1485 24.5741 42.8733L24.5742 42.8733L24.5824 42.8695C27.2339 41.6499 29.2661 41.3732 30.9796 41.5336C32.6939 41.6942 34.1261 42.2931 35.6175 42.9168L35.6513 42.9309L35.7005 42.9515C37.1728 43.5673 38.6839 44.1993 40.5478 44.3476C42.4422 44.4982 44.659 44.1485 47.5699 42.8733L47.5723 42.8722C47.8238 42.7604 48.0756 42.8854 48.1407 43.1026ZM48.6196 42.9589C48.4565 42.4153 47.8585 42.1978 47.3693 42.4153C41.6772 44.909 38.8501 43.7267 35.8694 42.4802L35.8442 42.4697L35.7855 42.4451C32.8143 41.2024 29.7743 39.9309 24.3735 42.4153L48.6196 42.9589Z" fill="#006AF2" stroke="#006AF2"/>
<path d="M15.1865 11.7275L9.75012 17.1639C9.64139 17.2726 9.53266 17.327 9.42394 17.3813C9.20648 17.4901 8.8803 17.4901 8.66285 17.3813C8.55412 17.327 8.44539 17.2726 8.33667 17.1639L2.90031 11.7275C2.51977 11.347 2.51977 10.6946 2.90031 10.3141C3.11777 10.0966 3.33522 10.0423 3.60704 10.0423C3.87886 10.0423 4.09631 10.151 4.31377 10.3141L8.06485 14.0652V3.1381C8.06485 2.59447 8.49976 2.15956 9.04339 2.15956C9.58703 2.15956 10.0219 2.59447 10.0219 3.1381V14.0652L13.773 10.3141C13.9905 10.0966 14.2079 10.0423 14.4797 10.0423C14.7516 10.0423 14.969 10.151 15.1865 10.3141C15.567 10.6946 15.567 11.347 15.1865 11.7275Z" fill="#006AF2"/>
<path d="M30.897 11.7275L25.4607 17.1639C25.3519 17.2726 25.2432 17.327 25.1345 17.3813C24.917 17.4901 24.5908 17.4901 24.3734 17.3813C24.2647 17.327 24.1559 17.2726 24.0472 17.1639L18.6109 11.7275C18.2303 11.347 18.2303 10.6946 18.6109 10.3141C18.8283 10.0966 19.0458 10.0423 19.3176 10.0423C19.5894 10.0423 19.8069 10.151 20.0243 10.3141L23.7754 14.0652V3.1381C23.7754 2.5401 24.2103 2.1052 24.7539 2.1052C25.2976 2.1052 25.7325 2.5401 25.7325 3.08374V14.0652L29.4836 10.3141C29.701 10.0966 29.9185 10.0423 30.1903 10.0423C30.4621 10.0423 30.6796 10.151 30.897 10.3141C31.2776 10.6946 31.2776 11.347 30.897 11.7275Z" fill="#006AF2"/>
<path d="M46.6084 11.7275L41.1721 17.1639C41.0633 17.2726 40.9546 17.327 40.8459 17.3813C40.6284 17.4901 40.3023 17.4901 40.0848 17.3813C39.9761 17.327 39.8673 17.2726 39.7586 17.1639L34.3223 11.7275C33.9417 11.347 33.9417 10.6946 34.3223 10.3141C34.5397 10.0966 34.7572 10.0423 35.029 10.0423C35.3008 10.0423 35.5183 10.151 35.7357 10.3141L39.4868 14.0652V3.1381C39.4868 2.5401 39.9217 2.1052 40.4653 2.1052C41.009 2.1052 41.4439 2.5401 41.4439 3.08374V14.0652L45.195 10.3141C45.4124 10.0966 45.6299 10.0423 45.9017 10.0423C46.1735 10.0423 46.391 10.151 46.6084 10.3141C46.989 10.6946 46.989 11.347 46.6084 11.7275Z" fill="#006AF2"/>
</g>
<defs>
<clipPath id="clip0">
<rect width="48" height="48" fill="white" transform="translate(0.75)"/>
</clipPath>
</defs>
</svg>
