<svg width="49" height="48" viewBox="0 0 49 48" fill="none" xmlns="http://www.w3.org/2000/svg">
<g clip-path="url(#clip0)">
<path d="M7.14328 46.1576H7.14404H46.9972C47.1661 46.1576 47.3282 46.2248 47.4477 46.3444C47.5673 46.4641 47.6346 46.6266 47.6346 46.7961C47.6346 46.9655 47.5673 47.128 47.4477 47.2477C47.3282 47.3674 47.1661 47.4345 46.9972 47.4345H7.14471C5.48016 47.4323 3.88433 46.7694 2.70717 45.5911C1.53007 44.4129 0.867673 42.8154 0.865356 41.149V1.2576C0.865356 1.08812 0.932624 0.925668 1.05221 0.805971C1.17177 0.686289 1.33384 0.619141 1.50272 0.619141C1.6716 0.619141 1.83367 0.686289 1.95323 0.805971C2.07281 0.925669 2.14008 1.08812 2.14008 1.2576L2.14008 41.1493L2.14008 41.15C2.14209 42.4774 2.66974 43.7498 3.60753 44.6885C4.54534 45.6273 5.81681 46.1556 7.14328 46.1576Z" fill="#006AF2" stroke="#006AF2"/>
<path d="M12.8769 36.0496L12.8751 36.0496C12.749 36.0499 12.6256 36.0126 12.5206 35.9425C12.4156 35.8724 12.3337 35.7727 12.2853 35.6558C12.2369 35.539 12.2242 35.4103 12.249 35.2862C12.2737 35.1621 12.3347 35.0482 12.4241 34.959L12.4245 34.9585L35.5061 11.8569L36.3588 11.0035H35.1524H27.4729C27.3041 11.0035 27.142 10.9363 27.0224 10.8167C26.9028 10.697 26.8356 10.5345 26.8356 10.365C26.8356 10.1955 26.9028 10.0331 27.0224 9.91339C27.142 9.79371 27.3041 9.72656 27.4729 9.72656H37.898C38.0669 9.72656 38.2289 9.79371 38.3485 9.91339C38.4681 10.0331 38.5354 10.1955 38.5354 10.365V20.8002C38.5354 20.9697 38.4681 21.1321 38.3485 21.2518C38.2289 21.3715 38.0669 21.4386 37.898 21.4386C37.7291 21.4386 37.5671 21.3715 37.4475 21.2518C37.3279 21.1321 37.2606 20.9697 37.2606 20.8002V13.1133V11.9053L36.4069 12.7599L13.328 35.8634C13.2687 35.9226 13.1983 35.9695 13.1209 36.0015C13.0435 36.0334 12.9606 36.0498 12.8769 36.0496Z" fill="#006AF2" stroke="#006AF2"/>
</g>
<defs>
<clipPath id="clip0">
<rect width="48" height="48" fill="white" transform="translate(0.25)"/>
</clipPath>
</defs>
</svg>
