<svg width="48" height="48" viewBox="0 0 48 48" fill="none" xmlns="http://www.w3.org/2000/svg">
<path d="M20.1234 47.1811L20.122 47.1809C18.2523 46.8655 15.6199 45.908 13.4445 44.8693C12.3594 44.3512 11.4083 43.8225 10.7358 43.357C10.3978 43.123 10.1468 42.9163 9.98587 42.7459C9.85073 42.6027 9.82471 42.5328 9.8205 42.5276C9.82299 42.3444 9.85903 42.2816 9.86648 42.2704C9.88086 42.2637 9.92314 42.2519 10.0201 42.2597C10.1908 42.2734 10.4523 42.3451 10.8266 42.5126C11.1946 42.6773 11.6431 42.9214 12.1802 43.2528L12.1807 43.2531C15.904 45.5444 19.2126 46.403 24 46.403C26.5709 46.403 28.6495 46.1672 30.6208 45.5782C32.592 44.9893 34.4305 44.0547 36.5293 42.687L36.5294 42.6871L36.5389 42.6805C37.7819 41.8289 38.5655 41.2551 39.0249 40.717C39.2664 40.4341 39.429 40.1504 39.5262 39.8321C39.6213 39.5207 39.6456 39.2022 39.6456 38.8661C39.6456 38.0753 39.8623 37.5099 40.0891 37.2473C40.1989 37.1202 40.2776 37.0994 40.3064 37.097C40.3244 37.0956 40.3945 37.094 40.5163 37.2158C40.7323 37.4317 41.0204 37.6617 41.3891 37.6886C41.7859 37.7175 42.1046 37.5043 42.3549 37.2434C42.6061 36.9816 42.8624 36.5964 43.1455 36.1012C43.4323 35.5994 43.7641 34.9531 44.1611 34.1473L44.1628 34.144C47.6364 26.9588 47.3061 18.8569 43.2084 12.1375C42.5909 11.1081 42.2738 10.2961 42.2109 9.77865C42.179 9.51623 42.2222 9.40785 42.239 9.38142C42.2434 9.37458 42.2449 9.37368 42.2501 9.37118C42.2556 9.36852 42.2701 9.36269 42.2972 9.35868C42.3149 9.37153 42.3388 9.39047 42.3691 9.41748C42.4752 9.51227 42.6142 9.66537 42.7814 9.87912C43.1135 10.3035 43.5146 10.9119 43.9342 11.6247C44.7732 13.05 45.6552 14.8388 46.178 16.2935L46.1779 16.2935L46.1808 16.3011C46.9422 18.3165 47.174 20.0649 47.2204 23.7729C47.2662 29.1947 46.3046 32.8651 43.8558 36.5383C43.5525 36.9933 43.3112 37.3667 43.1323 37.6791C42.9557 37.9876 42.8225 38.266 42.7561 38.5276C42.6856 38.8057 42.6889 39.0715 42.7889 39.3335C42.8811 39.575 43.0415 39.7741 43.2038 39.9492C43.3776 40.1419 43.4269 40.2839 43.4349 40.3652C43.4415 40.4318 43.4257 40.4965 43.3554 40.5732C43.184 40.7605 42.7099 40.9758 41.8485 40.9758C41.3343 40.9758 40.7019 41.1932 40.0713 41.5055C39.4257 41.8252 38.7224 42.2747 38.0481 42.8041C33.1709 46.4945 26.2288 48.2291 20.1234 47.1811ZM9.86037 42.2743C9.86014 42.2741 9.8616 42.2727 9.86543 42.2709C9.86252 42.2736 9.8606 42.2745 9.86037 42.2743ZM42.2619 9.33626C42.2619 9.3362 42.263 9.33668 42.2653 9.33791C42.2631 9.33694 42.262 9.33632 42.2619 9.33626Z" fill="#006AF2" stroke="#006AF2"/>
<path d="M7.64364 40.6441L7.64368 40.6441L7.64121 40.6379C7.58325 40.493 7.56715 40.3269 7.58988 40.1754C7.61052 40.0378 7.65785 39.9429 7.70012 39.891C7.7114 39.9169 7.72322 39.9458 7.73554 39.9778L7.7355 39.9778L7.73797 39.984C7.79593 40.1289 7.81203 40.2949 7.7893 40.4465C7.76866 40.584 7.72132 40.6789 7.67906 40.7309C7.66777 40.705 7.65596 40.6761 7.64364 40.6441ZM7.76985 40.8959C7.76985 40.8959 7.76944 40.8955 7.76864 40.8946L7.76985 40.8959ZM7.60933 39.726C7.60933 39.726 7.60974 39.7264 7.61053 39.7273L7.60933 39.726Z" fill="#006AF2" stroke="#006AF2"/>
<path d="M22.5976 12.4547C22.6009 12.4514 22.6011 12.4508 22.5981 12.4541L22.567 12.4257C22.5701 12.4406 22.5732 12.4561 22.5762 12.472C22.5869 12.4643 22.594 12.4581 22.5976 12.4547ZM22.5976 12.4547C22.5979 12.4543 22.5983 12.4539 22.5986 12.4535L22.5668 12.4245L22.5976 12.4547ZM12.9344 22.5506L12.9355 22.5484C13.3007 21.8291 14.1444 20.55 15.2402 19.0114C16.3289 17.4827 17.6468 15.7249 18.9425 14.0603C20.2386 12.3951 21.5086 10.8281 22.5014 9.67994C22.9988 9.10472 23.4207 8.64147 23.7387 8.32497C23.857 8.2072 23.9559 8.11488 24.0352 8.04661C24.1179 8.12122 24.2216 8.22203 24.3461 8.34996C24.6743 8.68726 25.1139 9.17851 25.6326 9.78382C26.6682 10.9924 27.9988 12.632 29.3449 14.3473C30.6907 16.0622 32.0484 17.8483 33.1382 19.3493C34.2406 20.8675 35.0373 22.0517 35.2933 22.585L35.2933 22.585L35.2951 22.5888C35.8352 23.6906 36.1663 25.3378 36.2347 27.0892C36.303 28.8359 36.1076 30.6238 35.6433 31.9947L35.6418 31.9991C35.1601 33.4663 34.0932 35.0568 32.7603 36.4123C31.4277 37.7676 29.8735 38.843 28.4561 39.3234C27.2355 39.7224 25.5997 39.9509 24.0089 39.9794C22.4084 40.0081 20.9228 39.833 19.9864 39.4712C12.7792 36.6781 9.635 28.9711 12.9344 22.5506ZM24.1901 7.92784C24.1978 7.92359 24.1967 7.92507 24.1881 7.929C24.1888 7.92855 24.1895 7.92816 24.1901 7.92784ZM23.8817 7.9211C23.869 7.91484 23.8673 7.91227 23.8789 7.91932C23.8797 7.91981 23.8806 7.9204 23.8817 7.9211ZM21.8609 11.7784L21.8604 11.779C20.6064 13.1512 18.7293 15.5576 17.0726 17.8209C16.2426 18.955 15.4637 20.0588 14.8415 20.9862C14.2261 21.9035 13.7452 22.6756 13.5288 23.1338L13.5288 23.1338L13.5252 23.1416C11.0369 28.6549 13.5196 35.4688 18.9811 38.1035C19.1919 38.2076 19.4034 38.3153 19.605 38.4179C19.8385 38.5368 20.0588 38.6489 20.2495 38.7411C20.6154 38.9179 20.9721 39.0724 21.299 39.1399C21.6376 39.2098 22.0132 39.1997 22.3438 38.96C22.6529 38.7358 22.8308 38.3746 22.9486 37.968C23.183 37.1589 23.2729 35.817 23.3112 33.7839C23.3411 32.198 23.3392 30.1488 23.3368 27.5349C23.3361 26.7638 23.3353 25.9436 23.3353 25.0716C23.3353 19.4136 23.3121 16.0219 23.2241 14.1146C23.1808 13.1754 23.1204 12.5471 23.0236 12.1835C22.9983 12.0887 22.9653 11.9902 22.9181 11.9007C22.8745 11.8178 22.7926 11.692 22.6443 11.6102C22.468 11.5128 22.2795 11.5213 22.1299 11.583C22.0035 11.6353 21.9144 11.72 21.8609 11.7784ZM24.6654 38.8192V39.4404L25.2723 39.3076L26.7635 38.9814L26.7651 38.981C27.6687 38.7802 29.1692 38.1486 30.1949 37.4652C34.9105 34.3533 36.771 28.2218 34.4757 23.1886C34.2653 22.7167 33.6289 21.732 32.8284 20.5679C32.0131 19.3824 30.9931 17.962 29.983 16.5957C28.9731 15.2297 27.9699 13.9135 27.1883 12.9368C26.7983 12.4495 26.459 12.0411 26.1996 11.7521C26.0711 11.6088 25.9544 11.4862 25.8567 11.3961C25.8089 11.352 25.7548 11.3056 25.6987 11.267C25.6707 11.2478 25.6321 11.2235 25.5859 11.2025C25.5462 11.1844 25.4617 11.1502 25.3518 11.1502C25.1676 11.1502 25.0462 11.2466 24.9925 11.3014C24.9392 11.3558 24.9107 11.4097 24.8987 11.4342C24.8734 11.4857 24.8618 11.5314 24.8577 11.5481C24.8475 11.5893 24.8417 11.6306 24.8382 11.6587C24.8305 11.7209 24.8239 11.8024 24.818 11.8956C24.8061 12.0851 24.7946 12.359 24.7836 12.7048C24.7616 13.3979 24.7412 14.3974 24.7237 15.6276C24.6887 18.0887 24.6654 21.4814 24.6654 25.2114V38.8192Z" fill="#006AF2" stroke="#006AF2"/>
<path d="M26.5631 35.2308C26.5631 34.858 27.3087 34.159 28.1942 33.5998C29.6388 32.7609 30.6175 31.2697 31.4097 28.7998C31.5495 28.3338 31.9689 27.9609 32.3884 27.9609C33.2738 27.9609 33.3204 29.9182 32.435 31.6425C30.9437 34.4386 26.5631 37.1415 26.5631 35.2308Z" fill="#006AF2"/>
<path d="M31.6893 25.9106C31.6893 24.932 32.668 24.4659 33.0874 25.2116C33.3204 25.5378 33.367 26.0038 33.2738 26.1902C32.8544 26.8426 31.6893 26.6096 31.6893 25.9106Z" fill="#006AF2"/>
<path d="M3.68176 36.6757C1.11865 32.5282 0.326418 29.5456 0.279816 24C0.279816 18.3146 1.02545 15.6116 3.63516 11.4175C4.94001 9.32039 4.98661 9.04078 4.38079 8.29514C3.72836 7.59612 3.72836 7.50291 4.6138 7.03689C5.12642 6.75728 5.96525 6.52427 6.47787 6.52427C7.0371 6.52427 8.38855 5.82524 9.507 4.93981C17.3827 -1.07185 28.008 -1.53786 36.6759 3.68155C37.841 4.38058 38.6798 5.21942 38.6798 5.68544C38.6798 6.80388 38.074 6.75728 35.9769 5.45243C29.2196 1.16505 19.7128 0.932038 13.0487 4.8C10.6254 6.19806 8.85457 7.96893 8.85457 8.99417C8.85457 9.46019 8.62156 10.2524 8.34195 10.765C7.96914 11.5573 7.73613 11.6039 7.1769 11.1379C6.33807 10.4388 6.05846 10.7184 4.47399 13.7476C0.885641 20.7845 1.21185 29.3126 5.31283 35.8369C6.52448 37.7476 6.57108 38.6796 5.45263 38.6796C5.12642 38.6796 4.33418 37.7942 3.68176 36.6757Z" fill="#006AF2"/>
<path d="M39.9378 8.52863C39.7514 8.38882 39.6116 7.9694 39.6116 7.59659C39.6116 6.89756 40.8233 6.75775 41.1961 7.41018C41.5223 7.9228 40.3573 8.94805 39.9378 8.52863Z" fill="#006AF2"/>
</svg>
