<svg width="49" height="48" viewBox="0 0 49 48" fill="none" xmlns="http://www.w3.org/2000/svg">
<path d="M34.5 42V38C34.5 35.8783 33.6571 33.8434 32.1569 32.3431C30.6566 30.8429 28.6217 30 26.5 30H10.5C8.37827 30 6.34344 30.8429 4.84315 32.3431C3.34285 33.8434 2.5 35.8783 2.5 38V42" stroke="#006AF2" stroke-width="2" stroke-linecap="round" stroke-linejoin="round"/>
<path d="M18.5 22C22.9183 22 26.5 18.4183 26.5 14C26.5 9.58172 22.9183 6 18.5 6C14.0817 6 10.5 9.58172 10.5 14C10.5 18.4183 14.0817 22 18.5 22Z" stroke="#006AF2" stroke-width="2" stroke-linecap="round" stroke-linejoin="round"/>
<path d="M46.5 41.9998V37.9998C46.4987 36.2272 45.9087 34.5053 44.8227 33.1044C43.7368 31.7035 42.2163 30.7029 40.5 30.2598" stroke="#006AF2" stroke-width="2" stroke-linecap="round" stroke-linejoin="round"/>
<path d="M32.5 6.25977C34.2208 6.70037 35.7461 7.70117 36.8353 9.10439C37.9245 10.5076 38.5157 12.2334 38.5157 14.0098C38.5157 15.7861 37.9245 17.5119 36.8353 18.9151C35.7461 20.3184 34.2208 21.3192 32.5 21.7598" stroke="#006AF2" stroke-width="2" stroke-linecap="round" stroke-linejoin="round"/>
</svg>
