<?xml version="1.0" encoding="UTF-8"?>
<!DOCTYPE svg PUBLIC "-//W3C//DTD SVG 1.1//EN" "http://www.w3.org/Graphics/SVG/1.1/DTD/svg11.dtd">
<!-- Creator: CorelDRAW X7 -->
<svg xmlns="http://www.w3.org/2000/svg" xml:space="preserve" width="63.4002mm" height="47.027mm" version="1.1" style="shape-rendering:geometricPrecision; text-rendering:geometricPrecision; image-rendering:optimizeQuality; fill-rule:evenodd; clip-rule:evenodd"
viewBox="0 0 6091 4518"
 xmlns:xlink="http://www.w3.org/1999/xlink">
 <defs>
  <style type="text/css">
   <![CDATA[
    .fil0 {fill:#FEFEFE}
   ]]>
  </style>
 </defs>
 <g id="Layer_x0020_1">
  <metadata id="CorelCorpID_0Corel-Layer"/>
  <g id="_521029440">
   <path class="fil0" d="M1142 1162c0,111 82,191 202,191l344 -133c855,-309 2037,-282 2879,63 119,48 215,124 326,14 83,-81 62,-204 -6,-263 -45,-39 -374,-165 -445,-185 -113,-33 -218,-62 -328,-89 -88,-22 -258,-62 -355,-62 20,-83 132,-222 155,-321 212,0 563,166 736,240l216 116c97,56 134,57 182,140 355,607 568,1564 649,2302 31,285 51,265 -37,352 -185,183 -423,322 -655,439 -156,79 -472,182 -698,182 -35,-52 -274,-337 -286,-380 81,0 290,-63 364,-88l342 -123c114,-46 209,-93 310,-153 101,-60 233,-112 233,-243 0,-53 -19,-92 -45,-121 -122,-136 -276,-4 -348,37 -228,130 -392,196 -655,273 -883,259 -1954,200 -2798,-162 -158,-67 -326,-206 -413,-206 -208,0 -250,231 -105,332 46,32 93,57 140,86 169,101 455,223 650,278 94,26 277,88 374,90 -10,37 -43,69 -68,99l-217 281c-221,0 -541,-104 -691,-178 -289,-143 -365,-204 -599,-388 -91,-70 -137,-101 -124,-191 62,-427 65,-661 179,-1144 55,-235 114,-463 186,-682 73,-220 164,-426 263,-617 94,-180 120,-154 357,-286 185,-103 634,-285 821,-285 23,99 135,238 155,321 -218,0 -954,217 -1114,326 -32,22 -76,95 -76,138zm4949 2247l0 140c-16,101 -79,156 -235,293 -127,112 -306,236 -450,323 -298,181 -607,293 -960,337 -211,27 -292,34 -391,-90l-450 -573c-184,15 -366,36 -559,36 -112,0 -187,-13 -286,-12 -102,1 -186,-22 -274,-24l-229 294c-294,360 -246,424 -633,366 -318,-48 -507,-108 -787,-247l-608 -416c-89,-83 -229,-183 -229,-294 0,-148 19,-278 34,-407 39,-357 109,-771 192,-1104 135,-540 257,-915 543,-1408 67,-115 261,-195 378,-265 49,-29 101,-52 150,-76 241,-119 544,-224 815,-267 159,-26 241,-28 317,74 25,33 52,99 73,141 28,55 48,88 76,139l146 282c107,0 166,-12 274,-12l369 12 151 -290c171,-306 136,-402 481,-343 419,72 872,273 1221,504 69,46 63,35 106,109 155,265 316,604 401,907 17,60 33,101 51,164 33,116 60,219 90,338 93,374 142,715 191,1106 14,112 26,196 32,263z"/>
   <path class="fil0" d="M4164 2304c0,416 -396,500 -531,163 -96,-239 108,-575 359,-455 89,43 172,166 172,292zm-916 12c0,676 715,947 1097,515 381,-431 149,-1205 -478,-1205 -340,0 -619,342 -619,690z"/>
   <path class="fil0" d="M2213 2673c-423,0 -353,-778 54,-673 304,78 271,673 -54,673zm-654 -333c0,197 74,342 183,483 191,247 607,319 908,14 404,-409 131,-1211 -425,-1211 -406,0 -666,335 -666,714z"/>
  </g>
 </g>
</svg>
