<svg width="25" height="24" viewBox="0 0 25 24" fill="none" xmlns="http://www.w3.org/2000/svg">
<path d="M23.0401 6.42C22.9213 5.94541 22.6794 5.51057 22.3387 5.15941C21.9981 4.80824 21.5708 4.55318 21.1001 4.42C19.3801 4 12.5001 4 12.5001 4C12.5001 4 5.62008 4 3.90008 4.46C3.42933 4.59318 3.00206 4.84824 2.66143 5.19941C2.3208 5.55057 2.07887 5.98541 1.96008 6.46C1.6453 8.20556 1.49132 9.97631 1.50008 11.75C1.48886 13.537 1.64285 15.3213 1.96008 17.08C2.09104 17.5398 2.33839 17.9581 2.67823 18.2945C3.01806 18.6308 3.4389 18.8738 3.90008 19C5.62008 19.46 12.5001 19.46 12.5001 19.46C12.5001 19.46 19.3801 19.46 21.1001 19C21.5708 18.8668 21.9981 18.6118 22.3387 18.2606C22.6794 17.9094 22.9213 17.4746 23.0401 17C23.3524 15.2676 23.5064 13.5103 23.5001 11.75C23.5113 9.96295 23.3573 8.1787 23.0401 6.42V6.42Z" stroke="white" stroke-linecap="round" stroke-linejoin="round"/>
<path d="M10.25 15.0205L16 11.7505L10.25 8.48047V15.0205Z" stroke="white" stroke-linecap="round" stroke-linejoin="round"/>
</svg>
