<svg xmlns="http://www.w3.org/2000/svg" fill="#041734" data-name="Layer 1" viewBox="0 0 32 32"><path d="M30.165,25.411A15.959,15.959,0,0,0,29.037,8.72.459.459,0,0,0,29,8.674l0,0-.01-.012a15.189,15.189,0,0,0-1.67-1.971,16,16,0,0,0-22.627,0,14.436,14.436,0,0,0-1.22,1.38.5.5,0,0,0-.129.155c0,.007,0,.014-.006.021a15.927,15.927,0,0,0-1.5,17.168A5.482,5.482,0,0,0,0,29.5v2a.5.5,0,0,0,.5.5h31a.5.5,0,0,0,.5-.5v-2A5.482,5.482,0,0,0,30.165,25.411Zm-.826-.613A5.452,5.452,0,0,0,27,24.025c0-.009,0-.017,0-.025V22.5a.473.473,0,0,0-.01-.051A3.812,3.812,0,0,0,28.955,18.5h2.029A14.887,14.887,0,0,1,29.339,24.8ZM25,22a3,3,0,0,1-3-3,.5.5,0,0,0,.187-.036l1.844-.744A1.486,1.486,0,0,1,25,18.169l2.861.813a.49.49,0,0,0,.136.01V19A3,3,0,0,1,25,22Zm1,.858V24a1,1,0,0,1-2,0V22.858a3.591,3.591,0,0,0,2,0Zm-3,1.188a5.433,5.433,0,0,0-1.075.208A5.494,5.494,0,0,0,18,22.025c0-.009,0-.017,0-.025V20.5a.473.473,0,0,0-.01-.051A4,4,0,0,0,19.7,18.5h1.348A3.928,3.928,0,0,0,21,19a3.986,3.986,0,0,0,2.01,3.449A.473.473,0,0,0,23,22.5V24C23,24.016,23,24.03,23,24.045ZM16,20a3,3,0,0,1-3-3,.5.5,0,0,0,.187-.036l1.844-.744A1.487,1.487,0,0,1,16,16.169l2.861.813a.493.493,0,0,0,.136.01V17A3,3,0,0,1,16,20Zm1,.858V22a1,1,0,0,1-2,0V20.858a3.591,3.591,0,0,0,2,0Zm-3,1.167a5.494,5.494,0,0,0-3.932,2.229A5.433,5.433,0,0,0,9,24.045c0-.016,0-.03,0-.045V22.5a.473.473,0,0,0-.01-.051A3.986,3.986,0,0,0,11,19a3.928,3.928,0,0,0-.051-.5H12.3a4,4,0,0,0,1.713,1.949A.473.473,0,0,0,14,20.5V22C14,22.009,14,22.017,14,22.025ZM7,22a2.994,2.994,0,0,1-2.961-2.617,9.788,9.788,0,0,0,3.46-.724A8.207,8.207,0,0,0,9.97,19.3,2.994,2.994,0,0,1,7,22Zm1,.858V24a1,1,0,0,1-2,0V22.858A3.954,3.954,0,0,0,7,23,3.954,3.954,0,0,0,8,22.858ZM12.051,17.5H10.7a4.014,4.014,0,0,0-2.078-2.148,25.049,25.049,0,0,1,.864-4.741,46.185,46.185,0,0,0,6.011.522v1.917A3.992,3.992,0,0,0,12,17,3.928,3.928,0,0,0,12.051,17.5ZM9.9,18.278a6.112,6.112,0,0,1-2.14-.614.5.5,0,0,0-.523,0,7.826,7.826,0,0,1-3.175.724A2.994,2.994,0,0,1,9.9,18.278ZM3.9,16.5A1.49,1.49,0,0,1,5,14a1.486,1.486,0,0,1,1.417,1.059A3.975,3.975,0,0,0,3.9,16.5ZM22.225,17.87a2.991,2.991,0,0,1,5.566.051l-2.515-.713a2.509,2.509,0,0,0-1.619.085Zm8.756-.37H28.7a4.008,4.008,0,0,0-2.949-2.424A.486.486,0,0,0,25.5,15h-.26a.471.471,0,0,0-.08.016c-.054,0-.105-.016-.16-.016a3.965,3.965,0,0,0-.649.066,25.963,25.963,0,0,0-.792-4.373c.459-.066.919-.132,1.354-.212a24.18,24.18,0,0,0,3.51-.877A14.88,14.88,0,0,1,30.981,17.5ZM26.606,7.394A14.489,14.489,0,0,1,27.8,8.759a23.873,23.873,0,0,1-3.061.738c-.468.086-.962.158-1.459.228a13.647,13.647,0,0,0-3.767-6.3A14.89,14.89,0,0,1,26.606,7.394ZM16.5,3.036c2.321.321,4.472,2.859,5.768,6.814a48.23,48.23,0,0,1-5.452.307c-.106,0-.21-.005-.316-.006Zm0,8.116c.106,0,.21.006.316.006a49.1,49.1,0,0,0,5.745-.333,24.924,24.924,0,0,1,.814,4.527A4.014,4.014,0,0,0,21.3,17.5H19.949A3.928,3.928,0,0,0,20,17a4,4,0,0,0-3.251-3.924A.486.486,0,0,0,16.5,13Zm2.291,4.768-2.515-.713a2.515,2.515,0,0,0-1.619.085l-1.432.578a2.991,2.991,0,0,1,5.566.051ZM15.5,3.037v7.1a45.337,45.337,0,0,1-5.71-.489C11.089,5.812,13.218,3.353,15.5,3.037ZM5.394,7.394a14.89,14.89,0,0,1,7.09-3.964,13.378,13.378,0,0,0-3.69,6.046c-.544-.1-1.073-.21-1.569-.332a15.9,15.9,0,0,1-2.643-.861C4.83,7.988,5.093,7.694,5.394,7.394Zm-1.441,1.7a16.212,16.212,0,0,0,3.035,1.025c.479.118.99.224,1.514.323a26.062,26.062,0,0,0-.854,4.627c-.074-.012-.15-.015-.225-.023a.491.491,0,0,0-.009-.167A2.5,2.5,0,0,0,2.5,15.5a2.526,2.526,0,0,0,.859,1.864c-.021.046-.042.09-.061.136H1.021A15.008,15.008,0,0,1,3.952,9.091ZM1.016,18.5H3.051A3.928,3.928,0,0,0,3,19a3.986,3.986,0,0,0,2.01,3.449A.473.473,0,0,0,5,22.5V24c0,.009,0,.017,0,.025a5.452,5.452,0,0,0-2.342.773A14.887,14.887,0,0,1,1.016,18.5ZM9,27.5V31H1V29.5a4.5,4.5,0,0,1,4.29-4.479,1.983,1.983,0,0,0,3.421,0,4.436,4.436,0,0,1,.829.119A5.456,5.456,0,0,0,9,27.5ZM22,31H10V27.5a4.5,4.5,0,0,1,4.29-4.479,1.984,1.984,0,0,0,3.42,0A4.5,4.5,0,0,1,22,27.5Zm9,0H23V27.5a5.456,5.456,0,0,0-.54-2.361,4.436,4.436,0,0,1,.829-.119,1.983,1.983,0,0,0,3.421,0A4.5,4.5,0,0,1,31,29.5Z"/></svg>