<svg xmlns="http://www.w3.org/2000/svg" fill="#041734" viewBox="0 0 100 100"><path d="M94.74,90.54a1.48,1.48,0,0,1,0,.21h0a1.1,1.1,0,0,1-.31.69h0l-3,3a1.09,1.09,0,1,1-1.54-1.54L91,91.77H9.32a1.09,1.09,0,0,1-1.09-1.09V9L7.11,10.09A1.09,1.09,0,1,1,5.57,8.55l3-3,.06-.06a1.11,1.11,0,0,1,.58-.25h.21a1.1,1.1,0,0,1,.7.31h0l3,3a1.09,1.09,0,0,1,0,1.54,1.08,1.08,0,0,1-1.54,0L10.41,9V89.59H91l-1.12-1.12a1.09,1.09,0,0,1,1.54-1.54l3,3,0,.06a1,1,0,0,1,.26.58Zm-.07-69.63a.54.54,0,0,0,0-.11,1.07,1.07,0,0,0-.15-.22l-.1-.09a.8.8,0,0,0-.21-.15L94,20.28l-.05,0a1.47,1.47,0,0,0-.29-.05H86.28a1.09,1.09,0,0,0,0,2.18h5.27L78.23,41.27,63.86,31.69h0l0,0-.18-.07a1.89,1.89,0,0,0-.21-.09,1.61,1.61,0,0,0-.22,0,1.33,1.33,0,0,0-.2,0,.9.9,0,0,0-.21.08l-.18.07a1.06,1.06,0,0,0-.15.15,1,1,0,0,0-.15.14L47.91,52.4,33.75,43a1.09,1.09,0,0,0-1.5.27l-15,21.32a1.09,1.09,0,0,0,.27,1.52,1.12,1.12,0,0,0,.63.2,1.1,1.1,0,0,0,.89-.46L33.42,45.36l14.14,9.42h0l.05,0a1.2,1.2,0,0,0,.31.13h.11l.13,0s.06,0,.1,0a1,1,0,0,0,.29-.07l.15-.06a1,1,0,0,0,.29-.25s.05,0,.07-.06L63.51,34.08l14.16,9.44a1.13,1.13,0,0,0,.6.18l.19,0,.16,0a1.09,1.09,0,0,0,.89-.46l13.06-18.5v3.74a1.09,1.09,0,0,0,2.18,0V21.3A1,1,0,0,0,94.67,20.91ZM21.1,76.35,35.53,55.9l14.13,9.43h0l.05,0a.85.85,0,0,0,.31.13l.11,0,.13,0,.09,0a1.46,1.46,0,0,0,.3-.07l.15-.07a1,1,0,0,0,.29-.25l.07-.05L65.62,44.62l14.16,9.44a1.08,1.08,0,0,0,.6.18l.19,0,.15,0a1.1,1.1,0,0,0,.9-.46L94.55,35.46a1.09,1.09,0,0,0-1.78-1.26L80.34,51.81,66,42.23h0a1,1,0,0,0-.18-.08.84.84,0,0,0-.2-.08,1,1,0,0,0-.25,0h-.17a2.18,2.18,0,0,0-.23.09.56.56,0,0,0-.16.07,1,1,0,0,0-.16.14s-.1.09-.14.14L50,62.94,35.85,53.5a1.08,1.08,0,0,0-1.49.28l-15,21.31a1.09,1.09,0,0,0,.27,1.52,1,1,0,0,0,.62.2A1.1,1.1,0,0,0,21.1,76.35Z" data-name="ICONS 25"/></svg>