<svg xmlns="http://www.w3.org/2000/svg" fill="#041734" viewBox="0 0 24 24"><path d="M14.5 24h-2a.5.5 0 0 1-.5-.5V21h-2v2.5a.5.5 0 0 1-.5.5h-2a.5.5 0 0 1-.5-.5V21H2.5a.496.496 0 0 1-.405-.208.497.497 0 0 1-.069-.451l1-3A.5.5 0 0 1 3.5 17h2V7h-2a.5.5 0 0 1-.5-.5v-3a.5.5 0 0 1 .5-.5H7V.5a.5.5 0 0 1 .5-.5h2a.5.5 0 0 1 .5.5v2.497L12 3V.5a.5.5 0 0 1 .5-.5h2a.5.5 0 0 1 .5.499l.004 2.569c.844.035 2.51.255 3.695 1.367C19.562 5.246 20 6.361 20 7.75c0 2.062-.813 3.13-1.587 3.679 1.235.596 2.543 1.839 2.543 4.071 0 1.904-.788 5.089-5.956 5.458V23.5a.5.5 0 0 1-.5.5zM13 23h1v-2.516a.5.5 0 0 1 .482-.5c3.632-.13 5.474-1.639 5.474-4.485 0-3.014-2.905-3.487-3.029-3.505a.5.5 0 0 1 .023-.992c.08-.009 2.05-.275 2.05-3.252 0-1.102-.332-1.972-.985-2.585-1.301-1.221-3.456-1.101-3.479-1.098a.497.497 0 0 1-.531-.498L14.001 1H13v2.5c0 .133-.053.26-.146.354A.504.504 0 0 1 12.5 4h-.001l-3-.004a.5.5 0 0 1-.499-.5V1H8v2.5a.5.5 0 0 1-.5.5H4v2h2a.5.5 0 0 1 .5.5v11a.5.5 0 0 1-.5.5H3.86l-.667 2H7.5a.5.5 0 0 1 .5.5V23h1v-2.5a.5.5 0 0 1 .5-.5h3a.5.5 0 0 1 .5.5V23z"/><path d="M12.5 11h-3a.5.5 0 0 1-.5-.5v-4a.5.5 0 0 1 .5-.5h3C13.879 6 15 7.122 15 8.5S13.879 11 12.5 11zM10 10h2.5c.827 0 1.5-.673 1.5-1.5S13.327 7 12.5 7H10v3zm3.5 8h-4a.5.5 0 0 1-.5-.5v-4a.5.5 0 0 1 .5-.5h4c1.379 0 2.5 1.122 2.5 2.5S14.879 18 13.5 18zM10 17h3.5c.827 0 1.5-.673 1.5-1.5s-.673-1.5-1.5-1.5H10v3z"/></svg>