<svg width="47" height="51" viewBox="0 0 47 51" fill="none" xmlns="http://www.w3.org/2000/svg">
<path d="M28.5463 0.269531H18.4542C8.67257 0.269531 0.792969 8.14914 0.792969 17.9307V25.4998C0.792969 32.3314 4.71336 38.5419 10.8851 41.4531V49.9149C10.8851 50.3419 11.2732 50.7301 11.7778 50.7301C11.9719 50.7301 12.2048 50.6524 12.3601 50.4972L19.6574 43.161H28.5463C38.3278 43.161 46.2074 35.2814 46.2074 25.4998V17.9307C46.2074 8.14914 38.3278 0.269531 28.5463 0.269531ZM35.1838 33.3794L32.6607 35.9024C29.9436 38.5419 22.9568 35.5143 16.7851 29.2261C10.6134 22.938 7.85744 15.8347 10.4581 13.1952L12.9811 10.6722C13.9903 9.74058 15.5818 9.7794 16.591 10.7498L20.2397 14.5537C21.1713 15.563 21.1713 17.0768 20.162 18.086C19.8903 18.3577 19.5798 18.513 19.2305 18.6682C17.9495 19.0564 17.2897 20.2985 17.6002 21.5794C18.2213 24.3741 21.7535 27.8676 24.4318 28.5662C25.6739 28.8768 26.9548 28.1781 27.3818 26.9748C27.8088 25.7327 29.2061 25.034 30.5259 25.461C30.914 25.5774 31.2245 25.8491 31.5351 26.082L35.1838 29.886C36.1153 30.8176 36.1153 32.3702 35.1838 33.3794ZM25.7515 12.2636C25.4798 12.2636 25.2469 12.2636 25.014 12.3412C24.587 12.4189 24.1213 12.0695 24.0824 11.5649C24.0436 11.0603 24.3542 10.6722 24.8199 10.6333C25.1305 10.5557 25.441 10.5557 25.7515 10.5557C30.4094 10.5557 34.1357 14.3597 34.2134 18.9399C34.2134 19.2505 34.2134 19.561 34.1357 19.8715C34.0581 20.2985 33.7088 20.6866 33.2042 20.609C32.6995 20.5314 32.389 20.182 32.4667 19.6774C32.4667 19.4057 32.5443 19.1728 32.5443 18.9399C32.5055 15.2912 29.4778 12.2636 25.7515 12.2636ZM30.7976 19.0176C30.7199 19.4445 30.3706 19.8327 29.866 19.7551C29.4778 19.6774 29.1285 19.3669 29.1285 19.0176C29.1285 17.1932 27.6147 15.6794 25.7903 15.6794C25.3634 15.757 24.8976 15.3689 24.8588 14.9031C24.7811 14.4761 25.1693 14.0103 25.5963 13.9715H25.7127C28.6239 13.9715 30.7976 16.2228 30.7976 19.0176ZM37.241 21.6958C37.1634 22.1228 36.7364 22.4333 36.3094 22.3945C35.8824 22.3557 35.5719 21.8899 35.6107 21.463C35.6107 21.3853 35.6107 21.3853 35.6107 21.3465C35.8048 20.609 35.8824 19.8327 35.8824 19.0176C35.8824 13.4669 31.341 8.92545 25.7903 8.92545C25.5186 8.92545 25.2857 8.92545 25.0528 8.92545C24.6259 9.00308 24.1601 8.61493 24.1601 8.14914C24.0824 7.72216 24.4706 7.25637 24.8976 7.25637C25.2081 7.25637 25.5186 7.17874 25.7903 7.17874C32.2726 7.17874 37.5903 12.4577 37.5903 18.9787C37.5515 19.8715 37.4351 20.8419 37.241 21.6958Z" fill="#C9A8FF"/>
</svg>
