<svg width="31" height="31" viewBox="0 0 31 31" fill="none" xmlns="http://www.w3.org/2000/svg">
<path d="M25.8339 14.2073H28.4172C28.4172 7.58101 23.4146 2.58356 16.7793 2.58356V5.16689C22.0261 5.16689 25.8339 8.96826 25.8339 14.2073Z" fill="#FF9100"/>
<path d="M16.792 10.3334C19.5084 10.3334 20.667 11.492 20.667 14.2084H23.2504C23.2504 10.0428 20.9577 7.75008 16.792 7.75008V10.3334ZM21.2121 17.364C20.9639 17.1384 20.6378 17.0181 20.3025 17.0284C19.9673 17.0388 19.6492 17.179 19.4154 17.4195L16.3244 20.5983C15.5804 20.4562 14.0847 19.9899 12.545 18.4541C11.0054 16.9132 10.5391 15.4135 10.4009 14.6747L13.5771 11.5825C13.8179 11.3488 13.9583 11.0307 13.9687 10.6954C13.979 10.36 13.8585 10.0338 13.6326 9.78575L8.85991 4.53771C8.63392 4.28888 8.31983 4.13794 7.98435 4.11696C7.64887 4.09598 7.31843 4.2066 7.0632 4.42534L4.26028 6.82913C4.03697 7.05325 3.90368 7.35154 3.8857 7.66742C3.86632 7.99033 3.49691 15.6396 9.42824 21.5735C14.6027 26.7466 21.0842 27.1251 22.8693 27.1251C23.1302 27.1251 23.2904 27.1173 23.333 27.1148C23.6489 27.0971 23.947 26.9632 24.17 26.7389L26.5725 23.9347C26.7914 23.6796 26.9023 23.3493 26.8815 23.0138C26.8608 22.6783 26.7101 22.3641 26.4614 22.138L21.2121 17.364Z" fill="#FF9100"/>
</svg>
