<svg width="25" height="25" viewBox="0 0 25 25" fill="none" xmlns="http://www.w3.org/2000/svg">
<path d="M12.5031 0H12.4969C5.60469 0 0 5.60625 0 12.5C0 15.2344 0.88125 17.7687 2.37969 19.8266L0.821875 24.4703L5.62656 22.9344C7.60313 24.2438 9.96094 25 12.5031 25C19.3953 25 25 19.3922 25 12.5C25 5.60781 19.3953 0 12.5031 0Z" fill="#4CAF50"/>
<path d="M19.7773 17.6515C19.4758 18.5031 18.2789 19.2094 17.3242 19.4156C16.6711 19.5547 15.818 19.6656 12.9461 18.475C9.27266 16.9531 6.90703 13.2203 6.72266 12.9781C6.54609 12.7359 5.23828 11.0015 5.23828 9.20779C5.23828 7.41404 6.14922 6.5406 6.51641 6.1656C6.81797 5.85779 7.31641 5.71716 7.79453 5.71716C7.94922 5.71716 8.08828 5.72498 8.21328 5.73123C8.58047 5.74685 8.76484 5.76873 9.00703 6.34841C9.30859 7.07498 10.043 8.86873 10.1305 9.0531C10.2195 9.23748 10.3086 9.48748 10.1836 9.72966C10.0664 9.97966 9.96328 10.0906 9.77891 10.3031C9.59453 10.5156 9.41953 10.6781 9.23516 10.9062C9.06641 11.1047 8.87578 11.3172 9.08828 11.6844C9.30078 12.0437 10.0352 13.2422 11.1164 14.2047C12.5117 15.4469 13.643 15.8437 14.0477 16.0125C14.3492 16.1375 14.7086 16.1078 14.9289 15.8734C15.2086 15.5719 15.5539 15.0719 15.9055 14.5797C16.1555 14.2265 16.4711 14.1828 16.8023 14.3078C17.1398 14.425 18.9258 15.3078 19.293 15.4906C19.6602 15.675 19.9023 15.7625 19.9914 15.9172C20.0789 16.0719 20.0789 16.7984 19.7773 17.6515Z" fill="#FAFAFA"/>
</svg>
