<svg width="32" height="32" viewBox="0 0 32 32" fill="none" xmlns="http://www.w3.org/2000/svg">
<path d="M20.1524 7.58964C18.8826 6.93402 17.5562 6.62695 16 6.62695C10.8316 6.62695 6.62695 10.8317 6.62695 16C6.62695 21.1683 10.8316 25.373 16 25.373C21.1683 25.373 25.373 21.1683 25.373 16C25.373 14.5186 25.0958 13.2551 24.5043 12.0435L22.0536 11.3858L20.808 12.6232C21.4815 13.5793 21.8776 14.7442 21.8776 16C21.8776 19.2409 19.2409 21.8775 16 21.8775C12.7591 21.8775 10.1224 19.2409 10.1224 16C10.1224 12.7591 12.7591 10.1224 16 10.1224C17.2671 10.1224 18.4418 10.5255 19.4027 11.2101L20.6663 9.95483L20.1524 7.58964Z" fill="url(#paint0_linear_39_696)"/>
<path d="M17.9569 12.6464C17.3817 12.3095 16.7132 12.1154 15.9999 12.1154C13.8579 12.1154 12.1152 13.858 12.1152 16C12.1152 18.142 13.8579 19.8847 15.9999 19.8847C18.1419 19.8847 19.8846 18.142 19.8846 16C19.8846 15.2932 19.6939 14.6305 19.3627 14.059L16.6674 16.7365C16.473 16.9296 16.219 17.026 15.9652 17.026C15.709 17.026 15.453 16.9279 15.2582 16.7319C14.8704 16.3414 14.8725 15.7105 15.2629 15.3227L17.9569 12.6464Z" fill="url(#paint1_linear_39_696)"/>
<path d="M30.0303 5.66772L28.4861 4.99609L23.922 9.53016C23.8188 9.63266 23.8656 9.80847 24.0061 9.84622L25.6435 10.2857C25.7086 10.3032 25.7781 10.2845 25.8258 10.2368L30.0885 5.97416C30.1825 5.88003 30.1523 5.72078 30.0303 5.66772Z" fill="url(#paint2_linear_39_696)"/>
<path d="M26.7505 12.1301C26.7404 12.1402 26.7294 12.149 26.719 12.1586C27.1574 13.3486 27.3659 14.5968 27.3659 16C27.3659 22.2672 22.2672 27.3659 16 27.3659C9.73281 27.3659 4.63406 22.2672 4.63406 16C4.63406 9.73281 9.73281 4.63406 16 4.63406C17.4923 4.63406 18.8557 4.88406 20.1341 5.39369C20.1367 5.39106 20.1391 5.38819 20.1418 5.38556L23.6015 1.92581C21.3457 0.728562 18.703 0 16 0C7.16344 0 0 7.16344 0 16C0 24.8366 7.16344 32 16 32C24.8366 32 32 24.8366 32 16C32 13.3546 31.3566 10.8593 30.2195 8.66106L26.7505 12.1301Z" fill="url(#paint3_linear_39_696)"/>
<path d="M22.5879 8.0459L27.1164 3.54708L26.6189 2.11015C26.5733 1.97852 26.4057 1.94002 26.3072 2.03846L22.0084 6.33727C21.963 6.38265 21.9438 6.44802 21.9574 6.51071L22.2706 7.95202C22.3022 8.09771 22.4821 8.1509 22.5879 8.0459Z" fill="url(#paint4_linear_39_696)"/>
<defs>
<linearGradient id="paint0_linear_39_696" x1="16" y1="6.62695" x2="16" y2="25.373" gradientUnits="userSpaceOnUse">
<stop stop-color="white" stop-opacity="0.44"/>
<stop offset="1" stop-color="white" stop-opacity="0"/>
</linearGradient>
<linearGradient id="paint1_linear_39_696" x1="15.9999" y1="12.1154" x2="15.9999" y2="19.8847" gradientUnits="userSpaceOnUse">
<stop stop-color="white" stop-opacity="0.44"/>
<stop offset="1" stop-color="white" stop-opacity="0"/>
</linearGradient>
<linearGradient id="paint2_linear_39_696" x1="27.005" y1="4.99609" x2="27.005" y2="10.2921" gradientUnits="userSpaceOnUse">
<stop stop-color="white" stop-opacity="0.44"/>
<stop offset="1" stop-color="white" stop-opacity="0"/>
</linearGradient>
<linearGradient id="paint3_linear_39_696" x1="16" y1="0" x2="16" y2="32" gradientUnits="userSpaceOnUse">
<stop stop-color="white" stop-opacity="0.44"/>
<stop offset="1" stop-color="white" stop-opacity="0"/>
</linearGradient>
<linearGradient id="paint4_linear_39_696" x1="24.5348" y1="1.98315" x2="24.5348" y2="8.10086" gradientUnits="userSpaceOnUse">
<stop stop-color="white" stop-opacity="0.44"/>
<stop offset="1" stop-color="white" stop-opacity="0"/>
</linearGradient>
</defs>
</svg>
