<svg width="32" height="32" viewBox="0 0 32 32" fill="none" xmlns="http://www.w3.org/2000/svg">
<path d="M16.0007 8.53345C11.8835 8.53345 8.53418 11.8827 8.53418 16C8.53418 20.1173 11.8834 23.4666 16.0007 23.4666C20.118 23.4666 23.4673 20.1173 23.4673 16C23.4673 11.8827 20.118 8.53345 16.0007 8.53345ZM13.1778 17.7562C13.3864 17.9648 13.3864 18.3018 13.1778 18.5103C13.0738 18.6143 12.9373 18.6666 12.8008 18.6666C12.6643 18.6666 12.5277 18.6143 12.4237 18.5103L10.2905 16.3771C10.0819 16.1685 10.0819 15.8314 10.2905 15.6229L12.4237 13.4897C12.6323 13.2811 12.9694 13.2811 13.1778 13.4897C13.3864 13.6982 13.3864 14.0353 13.1778 14.2438L11.4216 16L13.1778 17.7562ZM17.5767 12.4235L15.4434 19.3567C15.3731 19.586 15.1618 19.7337 14.9341 19.7337C14.8819 19.7337 14.8291 19.7257 14.7773 19.7097C14.4957 19.6234 14.3379 19.3247 14.4243 19.0431L16.5575 12.1099C16.6439 11.8278 16.9442 11.6693 17.2242 11.7568C17.5058 11.8438 17.6636 12.1419 17.5767 12.4235ZM19.5777 18.5103C19.4737 18.6143 19.3372 18.6666 19.2007 18.6666C19.0641 18.6666 18.9276 18.6143 18.8236 18.5103C18.6151 18.3018 18.6151 17.9647 18.8236 17.7562L20.5798 16L18.8236 14.2438C18.6151 14.0352 18.6151 13.6982 18.8236 13.4897C19.0321 13.2811 19.3692 13.2811 19.5777 13.4897L21.711 15.6229C21.919 15.8314 21.919 16.1686 21.711 16.3771L19.5777 18.5103Z" fill="white"/>
<path d="M31.4666 13.3334H29.6C28.9861 13.3334 28.4421 12.942 28.2773 12.3809C28.0229 11.5163 27.6757 10.6769 27.2437 9.8855C26.9621 9.3682 27.0677 8.70421 27.5008 8.27059L28.8218 6.94955C29.0304 6.74099 29.0304 6.40394 28.8218 6.19544L25.8048 3.17843C25.5962 2.96987 25.2592 2.96987 25.0507 3.17843L23.7296 4.49947C23.2955 4.93253 22.6315 5.03815 22.1147 4.75653C21.3228 4.32454 20.4828 3.97736 19.6193 3.72292C19.0583 3.55761 18.6669 3.01362 18.6669 2.40026V0.533669C18.6669 0.239299 18.4279 0.000366211 18.1336 0.000366211H13.8669C13.5726 0.000366211 13.3336 0.239299 13.3336 0.533669V2.40032C13.3336 3.01419 12.9422 3.55818 12.3811 3.72299C11.5171 3.97736 10.6777 4.3246 9.8857 4.75659C9.3684 5.03821 8.70491 4.93259 8.27079 4.49953L6.94975 3.1785C6.74119 2.96994 6.40414 2.96994 6.19564 3.1785L3.17863 6.19538C2.97007 6.40394 2.97007 6.74099 3.17863 6.94949L4.49967 8.27053C4.93273 8.70415 5.03885 9.36813 4.75673 9.88544C4.3253 10.6769 3.97756 11.5168 3.72312 12.3808C3.55725 12.9419 3.01326 13.3334 2.39996 13.3334H0.533303C0.238933 13.3334 0 13.5723 0 13.8667V18.1333C0 18.4277 0.238933 18.6666 0.533303 18.6666H2.39996C3.01382 18.6666 3.55781 19.058 3.72262 19.6191C3.97699 20.4831 4.32424 21.3225 4.75623 22.1145C5.03785 22.6318 4.93223 23.2958 4.49917 23.7294L3.17807 25.0505C2.96951 25.2591 2.96951 25.5962 3.17807 25.8046L6.19508 28.8217C6.40364 29.0302 6.74069 29.0302 6.94919 28.8217L8.27023 27.5006C8.70385 27.067 9.36784 26.9614 9.88514 27.2436C10.6771 27.6756 11.5171 28.0227 12.3805 28.2772C12.9416 28.4425 13.3331 28.9865 13.3331 29.5998V31.4665C13.3331 31.7609 13.572 31.9998 13.8664 31.9998H18.133C18.4274 31.9998 18.6663 31.7609 18.6663 31.4665V29.5998C18.6663 28.986 19.0577 28.442 19.6188 28.2772C20.4828 28.0228 21.3223 27.6756 22.1142 27.2436C22.6315 26.9625 23.2955 27.067 23.7291 27.5006L25.0507 28.8217C25.2592 29.0302 25.5964 29.0302 25.8049 28.8217L28.8219 25.8046C29.0304 25.5961 29.0304 25.259 28.8219 25.0505L27.5008 23.7295C27.0678 23.2959 26.9617 22.6319 27.2438 22.1146C27.6758 21.3226 28.0229 20.4826 28.2774 19.6192C28.4427 19.0581 28.9867 18.6667 29.6 18.6667H31.4667C31.7611 18.6667 32 18.4278 32 18.1334V13.8668C32 13.5724 31.7611 13.3334 31.4666 13.3334ZM16.0003 24.5332C11.2953 24.5332 7.46712 20.7051 7.46712 16.0001C7.46712 11.2951 11.2953 7.46692 16.0003 7.46692C20.7053 7.46692 24.5334 11.2951 24.5334 16.0001C24.5334 20.7051 20.7053 24.5332 16.0003 24.5332Z" fill="white"/>
</svg>
