<svg width="48" height="47" viewBox="0 0 48 47" fill="none" xmlns="http://www.w3.org/2000/svg">
<path d="M23.8334 0C19.1855 0 14.642 1.37825 10.7775 3.96046C6.9129 6.54268 3.90084 10.2129 2.12218 14.5069C0.343518 18.801 -0.121861 23.5261 0.784893 28.0846C1.69165 32.6432 3.92981 36.8305 7.21634 40.117C10.5029 43.4035 14.6902 45.6417 19.2487 46.5485C23.8073 47.4552 28.5324 46.9898 32.8264 45.2112C37.1205 43.4325 40.7907 40.4205 43.3729 36.5559C45.9551 32.6913 47.3334 28.1479 47.3334 23.5C47.3334 17.2674 44.8575 11.2901 40.4504 6.88299C36.0433 2.47589 30.066 0 23.8334 0V0ZM37.3779 32.697C36.6943 32.7932 33.3509 32.697 33.1773 32.697C32.313 32.7084 31.479 32.3783 30.8567 31.7784C30.1517 31.0974 29.5214 30.3497 28.8325 29.642C28.6294 29.4248 28.4088 29.2248 28.1729 29.0439C27.6227 28.6219 27.078 28.7154 26.8189 29.367C26.6167 30.0683 26.4755 30.7857 26.397 31.5114C26.3516 32.1683 25.935 32.5795 25.198 32.6249C24.7413 32.649 24.2847 32.6597 23.8334 32.6463C22.1884 32.6373 20.5692 32.2373 19.1093 31.4793C17.5293 30.5998 16.1525 29.3968 15.0689 27.949C13.2877 25.6738 11.8644 23.1742 10.5932 20.5972C10.5265 20.4664 9.2233 17.6944 9.19125 17.5636C9.07375 17.1283 9.19125 16.709 9.55176 16.5622C9.78142 16.474 14.0755 16.5622 14.1476 16.5622C14.4671 16.56 14.779 16.6595 15.0382 16.8462C15.2974 17.0329 15.4905 17.2973 15.5897 17.601C16.3842 19.6332 17.4709 21.5386 18.8156 23.257C19.0039 23.4859 19.2243 23.6864 19.4698 23.8525C19.8197 24.0928 20.1508 24.0101 20.295 23.6041C20.4661 23.0447 20.5666 22.4661 20.5941 21.8817C20.6181 20.7227 20.5941 19.9616 20.53 18.8027C20.4873 18.0603 20.2256 17.4114 19.1307 17.2004C18.7942 17.139 18.7648 16.8612 18.9811 16.5835C19.4325 16.0094 20.0493 15.9159 20.741 15.8812C21.7718 15.8224 22.8026 15.8625 23.8334 15.8812H24.0577C24.5063 15.8796 24.9539 15.9252 25.3929 16.0174C25.6527 16.0704 25.8884 16.2059 26.065 16.4036C26.2415 16.6014 26.3496 16.8509 26.373 17.1149C26.426 17.4073 26.4484 17.7045 26.4397 18.0015C26.413 19.2647 26.3516 20.5305 26.3383 21.7936C26.3258 22.2948 26.3715 22.7957 26.4744 23.2864C26.6213 23.9593 27.0833 24.1276 27.5426 23.6415C28.1379 23.0146 28.6834 22.3423 29.1743 21.6307C30.0443 20.3336 30.7612 18.9401 31.3106 17.4781C31.6097 16.7277 31.8447 16.5622 32.6459 16.5622H37.2017C37.4726 16.5574 37.7426 16.5934 38.0028 16.669C38.0949 16.6932 38.181 16.7361 38.2557 16.7952C38.3304 16.8542 38.3922 16.928 38.437 17.012C38.4819 17.0959 38.509 17.1883 38.5165 17.2832C38.524 17.3781 38.5119 17.4736 38.4808 17.5636C38.2565 18.5623 37.7171 19.4142 37.1456 20.234C36.2189 21.5452 35.2416 22.8244 34.2935 24.1195C34.1795 24.287 34.0752 24.4609 33.9811 24.6403C33.6233 25.2865 33.65 25.647 34.168 26.1811C34.9959 27.033 35.8798 27.8288 36.6783 28.7047C37.2639 29.342 37.7929 30.0291 38.2592 30.7583C38.828 31.6769 38.4675 32.5422 37.3779 32.697Z" fill="white" fill-opacity="0.34"/>
</svg>
