<svg width="47" height="47" viewBox="0 0 47 47" fill="none" xmlns="http://www.w3.org/2000/svg">
<path d="M27.998 23.5C27.998 25.9843 25.9843 27.998 23.5 27.998C21.0157 27.998 19.002 25.9843 19.002 23.5C19.002 21.0157 21.0157 19.002 23.5 19.002C25.9843 19.002 27.998 21.0157 27.998 23.5Z" fill="white" fill-opacity="0.34"/>
<path d="M34.0189 15.5417C33.8026 14.9558 33.4577 14.4255 33.0095 13.9902C32.5741 13.5419 32.0442 13.197 31.4579 12.9808C30.9824 12.7961 30.2681 12.5763 28.9525 12.5164C27.5293 12.4515 27.1026 12.4375 23.4995 12.4375C19.8961 12.4375 19.4694 12.4511 18.0466 12.516C16.7309 12.5763 16.0163 12.7961 15.5412 12.9808C14.9549 13.197 14.4245 13.5419 13.9896 13.9902C13.5414 14.4255 13.1964 14.9555 12.9798 15.5417C12.7952 16.0172 12.5753 16.7319 12.5155 18.0475C12.4506 19.4704 12.4366 19.8971 12.4366 23.5005C12.4366 27.1035 12.4506 27.5302 12.5155 28.9534C12.5753 30.269 12.7952 30.9833 12.9798 31.4588C13.1964 32.0451 13.541 32.5751 13.9892 33.0104C14.4245 33.4586 14.9545 33.8036 15.5408 34.0198C16.0163 34.2048 16.7309 34.4246 18.0466 34.4845C19.4694 34.5494 19.8958 34.5631 23.4992 34.5631C27.1029 34.5631 27.5296 34.5494 28.9521 34.4845C30.2677 34.4246 30.9824 34.2048 31.4579 34.0198C32.6347 33.5658 33.5649 32.6357 34.0189 31.4588C34.2035 30.9833 34.4234 30.269 34.4836 28.9534C34.5485 27.5302 34.5621 27.1035 34.5621 23.5005C34.5621 19.8971 34.5485 19.4704 34.4836 18.0475C34.4237 16.7319 34.2039 16.0172 34.0189 15.5417ZM23.4995 30.4293C19.6724 30.4293 16.5699 27.3272 16.5699 23.5001C16.5699 19.673 19.6724 16.5709 23.4995 16.5709C27.3263 16.5709 30.4288 19.673 30.4288 23.5001C30.4288 27.3272 27.3263 30.4293 23.4995 30.4293ZM30.7027 17.9163C29.8084 17.9163 29.0834 17.1912 29.0834 16.2969C29.0834 15.4026 29.8084 14.6776 30.7027 14.6776C31.597 14.6776 32.3221 15.4026 32.3221 16.2969C32.3217 17.1912 31.597 17.9163 30.7027 17.9163Z" fill="white" fill-opacity="0.34"/>
<path d="M23.5 0C10.5233 0 0 10.5233 0 23.5C0 36.4767 10.5233 47 23.5 47C36.4767 47 47 36.4767 47 23.5C47 10.5233 36.4767 0 23.5 0ZM36.9127 29.0634C36.8475 30.4999 36.6191 31.4806 36.2856 32.339C35.5846 34.1517 34.1517 35.5846 32.339 36.2856C31.4809 36.6191 30.4999 36.8471 29.0638 36.9127C27.6248 36.9784 27.1651 36.9941 23.5004 36.9941C19.8353 36.9941 19.376 36.9784 17.9366 36.9127C16.5005 36.8471 15.5194 36.6191 14.6613 36.2856C13.7606 35.9467 12.9452 35.4157 12.271 34.729C11.5847 34.0552 11.0536 33.2394 10.7148 32.339C10.3813 31.4809 10.1529 30.4999 10.0876 29.0638C10.0213 27.6244 10.0059 27.1647 10.0059 23.5C10.0059 19.8353 10.0213 19.3756 10.0873 17.9366C10.1525 16.5001 10.3806 15.5194 10.7141 14.661C11.0529 13.7606 11.5843 12.9448 12.271 12.271C12.9448 11.5843 13.7606 11.0533 14.661 10.7144C15.5194 10.3809 16.5001 10.1529 17.9366 10.0873C19.3756 10.0216 19.8353 10.0059 23.5 10.0059C27.1647 10.0059 27.6244 10.0216 29.0634 10.0876C30.4999 10.1529 31.4806 10.3809 32.339 10.7141C33.2394 11.0529 34.0552 11.5843 34.7293 12.271C35.4157 12.9452 35.9471 13.7606 36.2856 14.661C36.6194 15.5194 36.8475 16.5001 36.9131 17.9366C36.9787 19.3756 36.9941 19.8353 36.9941 23.5C36.9941 27.1647 36.9787 27.6244 36.9127 29.0634Z" fill="white" fill-opacity="0.34"/>
</svg>
