<svg width="47" height="47" viewBox="0 0 47 47" fill="none" xmlns="http://www.w3.org/2000/svg">
<path d="M23.5 0C18.8521 0 14.3086 1.37825 10.4441 3.96046C6.57952 6.54268 3.56747 10.2129 1.7888 14.5069C0.0101441 18.801 -0.455235 23.5261 0.451519 28.0846C1.35827 32.6432 3.59643 36.8305 6.88297 40.117C10.1695 43.4035 14.3568 45.6417 18.9154 46.5485C23.4739 47.4552 28.199 46.9898 32.4931 45.2112C36.7871 43.4325 40.4573 40.4205 43.0395 36.5559C45.6218 32.6913 47 28.1479 47 23.5C47 17.2674 44.5241 11.2901 40.117 6.88299C35.7099 2.47589 29.7326 0 23.5 0V0ZM23.5294 8.8125C24.9995 8.81726 26.4353 9.2578 27.6551 10.0784C28.875 10.8991 29.8241 12.0629 30.3826 13.4229C30.9411 14.7829 31.0838 16.2779 30.7927 17.719C30.5016 19.1601 29.7898 20.4825 28.7472 21.5191C27.7046 22.5557 26.3782 23.2599 24.9354 23.5427C23.4927 23.8255 21.9985 23.6742 20.6418 23.108C19.285 22.5417 18.1266 21.5859 17.313 20.3613C16.4994 19.1368 16.0671 17.6985 16.0708 16.2284C16.0736 15.2517 16.2687 14.2851 16.6451 13.3839C17.0214 12.4826 17.5716 11.6643 18.2642 10.9757C18.9568 10.2871 19.7782 9.7416 20.6816 9.37044C21.585 8.99928 22.5527 8.80969 23.5294 8.8125ZM31.8558 26.6004C30.9464 27.5186 29.8485 28.2283 28.6379 28.6807C27.4589 29.1043 26.2318 29.3797 24.9848 29.5005C25.1717 29.7035 25.2518 29.8049 25.38 29.9224C27.0704 31.6209 28.7688 33.3139 30.4539 35.0203C30.7223 35.2644 30.9044 35.5889 30.9728 35.9452C31.0411 36.3015 30.9921 36.6704 30.8331 36.9965C30.6702 37.3533 30.4064 37.6545 30.0741 37.8628C29.7419 38.0712 29.3558 38.1776 28.9637 38.1688C28.5052 38.1223 28.081 37.905 27.7754 37.5599C26.4989 36.2755 25.1984 35.015 23.9486 33.7065C23.5854 33.3246 23.4145 33.3967 23.0887 33.7278C21.8042 35.0631 20.4984 36.3502 19.1872 37.6454C18.9439 37.9156 18.6175 38.0969 18.2596 38.1608C17.9017 38.2246 17.5327 38.1673 17.2111 37.9979C16.862 37.8356 16.5674 37.5758 16.3627 37.2498C16.158 36.9238 16.052 36.5455 16.0574 36.1606C16.0967 35.684 16.3187 35.241 16.677 34.9242C18.3522 33.2525 20.0231 31.579 21.6894 29.9038C21.8016 29.7916 21.9031 29.6741 22.066 29.5032C19.7881 29.2655 17.7345 28.702 15.9773 27.3294C15.7538 27.1625 15.539 26.9843 15.3337 26.7953C14.5646 26.0583 14.4872 25.2118 15.0961 24.3385C15.6168 23.5935 16.49 23.3932 17.4007 23.8205C17.5724 23.9085 17.7367 24.0103 17.892 24.1249C19.5206 25.2309 21.4399 25.8307 23.4085 25.8487C25.3771 25.8668 27.3071 25.3023 28.9557 24.2264C29.2699 23.9693 29.6335 23.7794 30.0239 23.6682C30.3868 23.5623 30.7746 23.581 31.1256 23.7214C31.4766 23.8617 31.7703 24.1157 31.96 24.4427C32.454 25.2251 32.4487 25.9915 31.8558 26.6004ZM23.5187 19.8842C24.2397 19.8804 24.9433 19.6626 25.5404 19.2584C26.1374 18.8542 26.6009 18.2817 26.8722 17.6137C27.1434 16.9456 27.2101 16.2121 27.0639 15.506C26.9176 14.8 26.5649 14.1533 26.0506 13.648C25.5363 13.1427 24.8835 12.8016 24.175 12.6678C23.4665 12.534 22.7342 12.6137 22.0711 12.8967C21.4079 13.1797 20.8438 13.6533 20.4501 14.2573C20.0565 14.8614 19.8512 15.5688 19.8602 16.2898C19.8629 16.7664 19.9599 17.2378 20.1456 17.6768C20.3312 18.1159 20.6018 18.5139 20.9418 18.8479C21.2818 19.182 21.6845 19.4455 22.1268 19.6233C22.569 19.8012 23.0421 19.8898 23.5187 19.8842Z" fill="white" fill-opacity="0.34"/>
</svg>
