<svg width="26" height="13" viewBox="0 0 26 13" fill="none" xmlns="http://www.w3.org/2000/svg">
<path fill-rule="evenodd" clip-rule="evenodd" d="M3.85714 1.24368H19.0952C20.7784 1.24368 22.1429 2.59812 22.1429 4.26889V8.80671C22.1429 10.4775 20.7784 11.8319 19.0952 11.8319H3.85714C2.17399 11.8319 0.809525 10.4775 0.809525 8.80671V4.26889C0.809525 2.59812 2.17399 1.24368 3.85714 1.24368Z" stroke="#727272" stroke-opacity="0.54" stroke-linecap="round" stroke-linejoin="round"/>
<path fill-rule="evenodd" clip-rule="evenodd" d="M4.61905 3.5126H18.3333C19.1749 3.5126 19.8572 4.18982 19.8572 5.02521V8.05042C19.8572 8.88581 19.1749 9.56303 18.3333 9.56303H4.61905C3.77748 9.56303 3.09525 8.88581 3.09525 8.05042V5.02521C3.09525 4.18982 3.77748 3.5126 4.61905 3.5126Z" fill="black" fill-opacity="0.75"/>
<path d="M25.1905 4.26889V8.80671" stroke="#727272" stroke-opacity="0.54" stroke-linecap="round" stroke-linejoin="round"/>
</svg>
