<svg width="51" height="51" viewBox="0 0 51 51" fill="none" xmlns="http://www.w3.org/2000/svg">
<path d="M31.375 3L25.125 2.625H22.125C22.025 2.625 18 4.375 16 5.25L12.5 8.875L10.125 14.375L9.625 20.125L7.5 21.875V25.375L9.625 28.75L12.75 30.75V36.75L14.75 39.125L15.75 41.25L18.375 43.875L21.125 44.875L22.625 46.75L24.25 47.625L25.75 48.75L29.5 49.5L33 48L35.125 46.625L36 44.75L37 44L38.5 40.125L39.875 36.375L39.75 33.5L40.5 30L39.75 27L40.5 24.875L41.375 19.125L39.75 11.5L37.875 6.75L31.375 3Z" fill="white"/>
<path d="M40.8814 41.1315C30.3352 51.6777 15.0748 53.119 6.77197 44.8162C-1.53082 36.5134 -0.0895156 21.253 10.4567 10.7068C21.0029 0.160608 36.2633 -1.2807 44.5661 7.02209C52.8689 15.3249 51.4276 30.5853 40.8814 41.1315Z" stroke="white" stroke-width="1.5"/>
<path d="M9.72231 20.2651C8.5109 20.3439 7.24328 21.4642 7.37923 24.0582C7.63017 28.8464 12.996 30.6363 12.996 30.6363C11.2501 37.4912 15.5001 39.7412 15.5001 39.7412C15.5001 44.4912 21.5001 44.7412 21.5001 44.7412C21.5001 47.8792 25.291 47.8792 25.291 47.8792C28.3183 51.0344 31.1972 49.2015 32.2582 47.8906C32.2582 47.8906 36.0001 48.1162 36.0001 44.4912C36.0001 44.4912 38.5 42.875 38.5 39.7412C38.5 39.7412 40.875 37.25 39.5001 33.4912C41.3751 30.1162 39.8656 26.6052 39.8656 26.6052C39.8656 26.6052 41.0808 24.0582 41.0808 20.9312M9.72231 20.2651C10.7469 20.1983 11.9227 21.0613 11.9835 22.2229M9.72231 20.2651C9.54614 16.9035 10.176 12.3849 12.8264 8.70982C15.2844 5.30135 19.471 2.25658 26.3833 2.25658C43.2501 2.25658 41.0808 20.9312 41.0808 20.9312M41.0808 20.9312C41.0808 20.9312 37.0207 20.2177 31.8688 21.342L33.7305 31.146C33.948 32.2913 33.1656 33.4709 32.0001 33.4912L28.7501 33.4912C26.7501 33.4912 27.0001 31.396 27.0001 31.396M28.2028 21.406C23.2934 20.2693 18.9912 21.3168 18.9912 21.3168M26.25 38L33.25 38" stroke="#6531A2" stroke-width="1.5" stroke-linecap="round" stroke-linejoin="round"/>
<path d="M12.8264 8.71857C16.3705 10.604 15.0437 14.6275 13.7503 16.2958C15.071 17.5445 17.228 20.8583 15.2903 24.1231C16.4381 25.0671 18.4598 27.4779 17.3644 29.5688C21.125 30.625 20.0352 35.431 20.0352 35.431C22.625 33.5 24.375 35.5 24.375 35.5C24.375 35.5 26.25 33.75 30.0625 33.75C33.875 33.75 35.25 35.5 35.25 35.5C35.25 35.5 36.5 33.125 39.5 33.5M21.0036 15.997C24.0084 14.0508 28.0053 16.6656 30.3524 16.5426C32.6996 16.4196 35.0422 14.414 38.3179 15.8427M23.3369 11.9916C25.4918 10.6715 28.3547 12.4396 30.0371 12.3547C31.7194 12.2698 33.3998 10.9099 35.7466 11.8752M9.75 23.25C9.75 25.15 10.625 27.5 12.25 27.5C14 27.5 14 25.25 12.25 25.25M23.25 41.25C23.25 41.25 21.75 42.25 21.75 44.75M15.75 39.75C15.75 37.875 17 36.375 17 36.375M35.75 44.75C35.75 42.95 34.9167 41.6666 34.5 41.25" stroke="#6531A2" stroke-linecap="round" stroke-linejoin="round"/>
<path d="M23.0841 23.3846C22.9008 23.7021 22.7957 24.0947 22.8031 24.5179C22.8213 25.5562 23.5093 26.3861 24.34 26.3716C25.1706 26.3571 25.8293 25.5037 25.8111 24.4654C25.8037 24.0422 25.6851 23.6535 25.4908 23.3426L23.0841 23.3846Z" fill="#6531A2"/>
<path d="M34.7401 23.1812C34.5568 23.4987 34.4517 23.8912 34.4591 24.3144C34.4773 25.3527 35.1653 26.1827 35.996 26.1682C36.8266 26.1537 37.4853 25.3002 37.4671 24.2619C37.4597 23.8387 37.341 23.4501 37.1468 23.1392L34.7401 23.1812Z" fill="#6531A2"/>
</svg>
