<svg width="42" height="56" viewBox="0 0 42 56" fill="none" xmlns="http://www.w3.org/2000/svg">
<path d="M11 2.5H2C0.895431 2.5 0 3.39543 0 4.5L0 54C0 55.1046 0.89543 56 2 56H40C41.1046 56 42 55.1046 42 54V4.5C42 3.39543 41.1046 2.5 40 2.5H31V3.5H40C40.5523 3.5 41 3.94772 41 4.5V54C41 54.5523 40.5523 55 40 55H2C1.44772 55 1 54.5523 1 54V4.5C1 3.94772 1.44771 3.5 2 3.5H11V2.5Z" fill="#6531A2"/>
<path d="M5 34H28V33H5V34Z" fill="#6531A2"/>
<path d="M5 38H28V37H5V38Z" fill="#6531A2"/>
<path d="M5 42H28V41H5V42Z" fill="#6531A2"/>
<path d="M18 46H5V45H18V46Z" fill="#6531A2"/>
<path fill-rule="evenodd" clip-rule="evenodd" d="M37 50.5L37 27.5L34 22.5L31 27.5L31 50.5C31 51.6046 31.8954 52.5 33 52.5H35C36.1046 52.5 37 51.6046 37 50.5ZM32.4662 27L34 24.4437L35.5338 27H32.4662ZM36 49V28H32V49H36ZM32 50.5V50H36V50.5C36 51.0523 35.5523 51.5 35 51.5H33C32.4477 51.5 32 51.0523 32 50.5Z" fill="#6531A2"/>
<path d="M13.5 19.75V12.75H14.5V19.25L18.8 22.475L18.2 23.275L13.5 19.75Z" fill="#6531A2"/>
<path fill-rule="evenodd" clip-rule="evenodd" d="M14 28.5C18.9706 28.5 23 24.4706 23 19.5C23 14.5294 18.9706 10.5 14 10.5C9.02944 10.5 5 14.5294 5 19.5C5 24.4706 9.02944 28.5 14 28.5ZM14 27.5C18.4183 27.5 22 23.9183 22 19.5C22 15.0817 18.4183 11.5 14 11.5C9.58172 11.5 6 15.0817 6 19.5C6 23.9183 9.58172 27.5 14 27.5Z" fill="#6531A2"/>
<path fill-rule="evenodd" clip-rule="evenodd" d="M36 10.5H32V12.5H30V16.5H32V18.5H36V16.5H38V12.5H36V10.5ZM31 15.5V13.5H33V11.5H35V13.5H37V15.5H35V17.5H33V15.5H31Z" fill="#6531A2"/>
<path fill-rule="evenodd" clip-rule="evenodd" d="M29 1H13C12.4477 1 12 1.44772 12 2V4C12 4.55228 12.4477 5 13 5H29C29.5523 5 30 4.55228 30 4V2C30 1.44772 29.5523 1 29 1ZM13 0C11.8954 0 11 0.89543 11 2V4C11 5.10457 11.8954 6 13 6H29C30.1046 6 31 5.10457 31 4V2C31 0.895431 30.1046 0 29 0H13Z" fill="#6531A2"/>
</svg>
