<svg width="324" height="362" viewBox="0 0 324 362" fill="none" xmlns="http://www.w3.org/2000/svg">
<g opacity="0.1">
<path d="M173.447 108.455C158.732 108.455 158.236 69.6938 158.236 45.8408" stroke="white" stroke-width="2" stroke-miterlimit="10" stroke-linecap="round" stroke-linejoin="round"/>
<path d="M155.259 144.897L112.437 171.401" stroke="white" stroke-width="2" stroke-miterlimit="10" stroke-linecap="round" stroke-linejoin="round"/>
<path d="M136.576 319.82L138.395 330.421L134.923 360.734M308.362 360.734L292.655 157.818L228.669 136.118" stroke="white" stroke-width="2" stroke-miterlimit="10" stroke-linecap="round" stroke-linejoin="round"/>
<path d="M166.337 128.001L155.26 144.897L168.487 181.008L194.775 178.192L184.69 190.781L240.739 218.444L252.478 173.223L238.59 167.094L257.769 162.787L243.881 141.253L228.67 136.118L227.182 187.634L166.337 128.001Z" stroke="white" stroke-width="2" stroke-miterlimit="10" stroke-linecap="round" stroke-linejoin="round"/>
<path d="M225.693 125.683L228.669 136.118" stroke="white" stroke-width="2" stroke-miterlimit="10" stroke-linecap="round" stroke-linejoin="round"/>
<path d="M247.683 49.1538V77.8106" stroke="white" stroke-width="2" stroke-miterlimit="10" stroke-linecap="round" stroke-linejoin="round"/>
<path d="M173.447 134.959V84.9335C166.337 84.9335 158.732 62.4056 172.62 62.4056C181.714 62.4056 181.549 76.4855 181.549 76.4855H188.989C188.989 76.4855 188.162 61.2461 191.138 50.9761" stroke="white" stroke-width="2" stroke-miterlimit="10" stroke-linecap="round" stroke-linejoin="round"/>
<path d="M247.683 49.1538C191.138 46.6691 158.401 56.9391 158.401 56.9391V10.227C158.401 10.227 177.415 -3.85294 247.683 2.7729V49.1538Z" stroke="white" stroke-width="2" stroke-miterlimit="10" stroke-linecap="round" stroke-linejoin="round"/>
<path d="M45.9716 232.192C45.1449 259.358 83.5032 332.077 120.539 332.077C159.062 332.077 162.865 157.486 112.437 171.235C83.3379 195.75 100.698 259.193 100.698 259.193C100.698 259.193 85.9833 236.831 69.6149 226.726" stroke="white" stroke-width="2" stroke-miterlimit="10" stroke-linecap="round" stroke-linejoin="round"/>
<path d="M178.737 65.5527L212.301 77.8105H247.683C247.683 77.8105 255.619 125.848 229.496 125.848C214.615 125.848 204.034 114.087 204.034 114.087L173.446 84.7677L209.986 108.289V83.1112L178.737 65.5527Z" stroke="white" stroke-width="2" stroke-miterlimit="10" stroke-linecap="round" stroke-linejoin="round"/>
<path d="M51.9239 238.818C56.0573 244.119 68.623 245.113 68.623 236.665C68.4576 228.217 75.4018 213.309 58.3721 206.352C53.5773 204.364 54.404 192.934 48.1211 192.934C41.673 192.934 46.7984 207.18 46.7984 207.18C28.1153 208.505 13.8963 185.315 12.0776 188.959C7.44816 179.351 1 183.327 1 183.327C7.77883 199.726 9.76288 207.346 16.3764 211.818C22.9899 216.29 41.673 225.401 51.9239 238.818Z" stroke="white" stroke-width="2" stroke-miterlimit="10" stroke-linecap="round" stroke-linejoin="round"/>
<path d="M292.655 157.818C316.133 169.082 322.911 360.569 322.911 360.569" stroke="white" stroke-width="2" stroke-miterlimit="10" stroke-linecap="round" stroke-linejoin="round"/>
</g>
</svg>
