<svg width="18" height="22" viewBox="0 0 18 22" fill="none" xmlns="http://www.w3.org/2000/svg">
<path d="M9 1C6.87916 1.0029 4.84601 1.84669 3.34635 3.34635C1.84669 4.84601 1.0029 6.87916 1 9C1 16.9506 9 21.1481 9 21.1481C9 21.1481 16.989 16.9561 17 9.01646C17.0015 6.89277 16.1596 4.8554 14.6595 3.35218C13.1593 1.84896 11.1237 1.00291 9 1ZM9 13.4664C8.11663 13.4664 7.2531 13.2044 6.5186 12.7137C5.78411 12.2229 5.21164 11.5253 4.87359 10.7092C4.53554 9.89309 4.44709 8.99504 4.61943 8.12865C4.79176 7.26225 5.21715 6.46642 5.84178 5.84178C6.46642 5.21715 7.26225 4.79176 8.12865 4.61943C8.99504 4.44709 9.89309 4.53554 10.7092 4.87359C11.5253 5.21164 12.2229 5.78411 12.7137 6.5186C13.2044 7.2531 13.4664 8.11663 13.4664 9C13.4649 10.1841 12.9939 11.3193 12.1566 12.1566C11.3193 12.9939 10.1841 13.4649 9 13.4664V13.4664Z" stroke="#6531A2"/>
</svg>
