<svg width="32" height="32" viewBox="0 0 32 32" fill="none" xmlns="http://www.w3.org/2000/svg">
<g opacity="0.12">
<path d="M22.465 0H9.535C7.00697 0.00264715 4.58325 1.00807 2.79566 2.79566C1.00807 4.58325 0.00264715 7.00697 0 9.535L0 22.465C0.00264715 24.993 1.00807 27.4168 2.79566 29.2043C4.58325 30.9919 7.00697 31.9974 9.535 32H22.465C24.993 31.9974 27.4168 30.9919 29.2043 29.2043C30.9919 27.4168 31.9974 24.993 32 22.465V9.535C31.9974 7.00697 30.9919 4.58325 29.2043 2.79566C27.4168 1.00807 24.993 0.00264715 22.465 0ZM28.78 22.465C28.78 24.1398 28.1147 25.7461 26.9304 26.9304C25.7461 28.1147 24.1398 28.78 22.465 28.78H9.535C7.86016 28.78 6.25391 28.1147 5.06962 26.9304C3.88533 25.7461 3.22 24.1398 3.22 22.465V9.535C3.22 7.86016 3.88533 6.25391 5.06962 5.06962C6.25391 3.88533 7.86016 3.22 9.535 3.22H22.465C24.1398 3.22 25.7461 3.88533 26.9304 5.06962C28.1147 6.25391 28.78 7.86016 28.78 9.535V22.465Z" fill="#6531A2"/>
<path d="M16.0001 7.72498C14.3635 7.72498 12.7636 8.2103 11.4028 9.11956C10.0419 10.0288 8.98131 11.3212 8.355 12.8333C7.72868 14.3453 7.56481 16.0092 7.8841 17.6143C8.2034 19.2195 8.99151 20.694 10.1488 21.8513C11.3061 23.0086 12.7805 23.7967 14.3857 24.116C15.9909 24.4353 17.6547 24.2714 19.1668 23.6451C20.6789 23.0188 21.9712 21.9581 22.8805 20.5973C23.7898 19.2365 24.2751 17.6366 24.2751 16C24.2725 13.8061 23.3998 11.7029 21.8485 10.1516C20.2972 8.6003 18.194 7.72762 16.0001 7.72498ZM16.0001 21.06C15.0005 21.06 14.0234 20.7636 13.1922 20.2084C12.361 19.6532 11.7131 18.864 11.3304 17.9406C10.9476 17.0172 10.8472 16.0011 11.0419 15.0206C11.2365 14.0402 11.7175 13.1395 12.4239 12.4323C13.1304 11.7252 14.0306 11.2433 15.0109 11.0477C15.9911 10.8521 17.0073 10.9515 17.9311 11.3333C18.8549 11.7152 19.6447 12.3623 20.2007 13.1929C20.7568 14.0236 21.0541 15.0004 21.0551 16C21.0551 16.6638 20.9243 17.3211 20.6703 17.9344C20.4163 18.5477 20.0439 19.105 19.5745 19.5744C19.1051 20.0438 18.5479 20.4161 17.9346 20.6702C17.3213 20.9242 16.6639 21.055 16.0001 21.055V21.06Z" fill="#6531A2"/>
<path d="M24.2899 9.77005C25.3862 9.77005 26.2749 8.88133 26.2749 7.78505C26.2749 6.68876 25.3862 5.80005 24.2899 5.80005C23.1936 5.80005 22.3049 6.68876 22.3049 7.78505C22.3049 8.88133 23.1936 9.77005 24.2899 9.77005Z" fill="#6531A2"/>
</g>
</svg>
