<svg width="62" height="56" viewBox="0 0 62 56" fill="none" xmlns="http://www.w3.org/2000/svg">
<path d="M57 37V3C57 1.89543 56.1046 1 55 1H7C5.89543 1 5 1.89543 5 3V37M57 37H5M57 37L61 51M5 37L1 51M1 51H56M1 51V53C1 54.1046 1.89543 55 3 55H56M61 51H6M61 51V53C61 54.1046 60.1046 55 59 55H6M32 51H22L23.3657 48.1385C23.6977 47.4429 24.3999 47 25.1707 47H32M30 51H40L38.6343 48.1385C38.3023 47.4429 37.6001 47 36.8293 47H30M26 25L31 30M36 25L31 30M31 30V20M8 4H54V34H8V4Z" stroke="#6531A2" stroke-linejoin="round"/>
<path d="M27.7405 15.25H24.0205L23.2505 17H22.2205L25.3905 10H26.3805L29.5605 17H28.5105L27.7405 15.25ZM27.3905 14.45L25.8805 11.02L24.3705 14.45H27.3905ZM33.3347 10C34.2414 10 34.9547 10.2167 35.4747 10.65C35.9947 11.0833 36.2547 11.68 36.2547 12.44C36.2547 13.2 35.9947 13.7967 35.4747 14.23C34.9547 14.6633 34.2414 14.88 33.3347 14.88H31.6047V17H30.6047V10H33.3347ZM33.3047 14.01C33.938 14.01 34.4214 13.8767 34.7547 13.61C35.088 13.3367 35.2547 12.9467 35.2547 12.44C35.2547 11.9333 35.088 11.5467 34.7547 11.28C34.4214 11.0067 33.938 10.87 33.3047 10.87H31.6047V14.01H33.3047ZM37.7238 10H38.7238V17H37.7238V10Z" fill="#6531A2"/>
</svg>
