<svg width="16" height="23" viewBox="0 0 16 23" fill="none" xmlns="http://www.w3.org/2000/svg">
<path fill-rule="evenodd" clip-rule="evenodd" d="M4.64645 17.6464C4.84171 17.4512 5.15829 17.4512 5.35355 17.6464L6.95854 19.2514L10.6096 14.6877C10.7821 14.472 11.0967 14.4371 11.3123 14.6096C11.528 14.7821 11.5629 15.0967 11.3904 15.3123L7.04146 20.7486L4.64645 18.3536C4.45118 18.1583 4.45118 17.8417 4.64645 17.6464ZM5.42812 10.4224C2.27153 11.4934 0 14.4814 0 18V23H16V18C16 14.4814 13.7285 11.4934 10.5719 10.4224C9.76473 10.1485 8.89971 10 8 10C8.90083 10 9.74602 9.76177 10.476 9.34488C11.9837 8.48382 13 6.86059 13 5C13 2.23858 10.7614 0 8 0C5.23858 0 3 2.23858 3 5C3 6.86059 4.01627 8.48382 5.52399 9.34488C6.25398 9.76177 7.09917 10 8 10C7.10029 10 6.23527 10.1485 5.42812 10.4224ZM15 22V18C15 14.134 11.866 11 8 11C4.13401 11 1 14.134 1 18V22H15ZM8 9C10.2091 9 12 7.20914 12 5C12 2.79086 10.2091 1 8 1C5.79086 1 4 2.79086 4 5C4 7.20914 5.79086 9 8 9Z" fill="#6531A2"/>
</svg>
