<svg width="34" height="34" viewBox="0 0 34 34" fill="none" xmlns="http://www.w3.org/2000/svg">
<path d="M0 17C0 7.61116 7.61116 0 17 0C26.3888 0 34 7.61116 34 17C34 26.3888 26.3888 34 17 34C7.61116 34 0 26.3888 0 17Z" fill="url(#paint0_linear)"/>
<path d="M16.2379 19.127C16.2379 18.7803 16.2943 18.477 16.4069 18.217C16.5283 17.9483 16.6713 17.723 16.8359 17.541C17.0093 17.359 17.2346 17.1423 17.5119 16.891C17.8586 16.5877 18.1143 16.3277 18.2789 16.111C18.4436 15.8857 18.5259 15.617 18.5259 15.305C18.5259 14.8803 18.3613 14.5423 18.0319 14.291C17.7026 14.031 17.2476 13.901 16.6669 13.901C15.6529 13.901 14.8773 14.2433 14.3399 14.928L13.3909 14.252C13.7549 13.784 14.2186 13.4243 14.7819 13.173C15.3539 12.9217 16.0126 12.796 16.7579 12.796C17.7026 12.796 18.4523 13.004 19.0069 13.42C19.5616 13.8273 19.8389 14.3907 19.8389 15.11C19.8389 15.4653 19.7783 15.7817 19.6569 16.059C19.5443 16.3277 19.4056 16.553 19.2409 16.735C19.0763 16.917 18.8553 17.1337 18.5779 17.385C18.2226 17.7057 17.9583 17.9873 17.7849 18.23C17.6203 18.4727 17.5379 18.7717 17.5379 19.127H16.2379ZM16.9009 22.078C16.6583 22.078 16.4546 22 16.2899 21.844C16.1339 21.6793 16.0559 21.48 16.0559 21.246C16.0559 21.012 16.1339 20.817 16.2899 20.661C16.4546 20.4963 16.6583 20.414 16.9009 20.414C17.1436 20.414 17.3429 20.4963 17.4989 20.661C17.6549 20.817 17.7329 21.012 17.7329 21.246C17.7329 21.48 17.6506 21.6793 17.4859 21.844C17.3299 22 17.1349 22.078 16.9009 22.078Z" fill="white"/>
<defs>
<linearGradient id="paint0_linear" x1="17" y1="0" x2="17" y2="34" gradientUnits="userSpaceOnUse">
<stop stop-color="#A160ED"/>
<stop offset="1" stop-color="#6531A2"/>
</linearGradient>
</defs>
</svg>
