<svg width="51" height="59" viewBox="0 0 51 59" fill="none" xmlns="http://www.w3.org/2000/svg">
<path fill-rule="evenodd" clip-rule="evenodd" d="M15 2.47415C15 1.10771 16.1193 0 17.5 0H33.5C34.8807 0 36 1.10771 36 2.47415C36 3.84058 34.8807 4.9483 33.5 4.9483H17.5C16.1193 4.9483 15 3.84059 15 2.47415ZM17.5 0.98966C16.6716 0.98966 16 1.65429 16 2.47415C16 3.29401 16.6716 3.95864 17.5 3.95864H33.5C34.3284 3.95864 35 3.29401 35 2.47415C35 1.65429 34.3284 0.98966 33.5 0.98966H17.5Z" fill="white"/>
<path d="M6.64537 5.85802C7.77639 5.07426 9.33525 5.34629 10.1272 6.46561L13.1041 10.6731C12.8137 10.8375 12.527 11.0075 12.2441 11.183L9.30804 7.03325C8.83288 6.36166 7.89756 6.19845 7.21895 6.6687C6.54034 7.13895 6.37542 8.0646 6.85059 8.73619L9.80175 12.9073C9.54132 13.1155 9.2852 13.3288 9.03354 13.547L6.03144 9.30384C5.23949 8.18452 5.51436 6.64177 6.64537 5.85802Z" fill="white"/>
<path d="M9.06977 50.8123L6.03149 55.1065C5.23955 56.2258 5.51442 57.7686 6.64543 58.5523C7.77645 59.3361 9.33531 59.0641 10.1273 57.9448L13.1459 53.6783C12.8551 53.5145 12.568 53.345 12.2847 53.17L9.3081 57.3771C8.83294 58.0487 7.89762 58.2119 7.21901 57.7417C6.5404 57.2714 6.37548 56.3458 6.85065 55.6742L9.83908 51.4504C9.57829 51.2427 9.3218 51.03 9.06977 50.8123Z" fill="white"/>
<path d="M37.5477 53.8483L40.446 57.9448C41.238 59.0641 42.7968 59.3361 43.9278 58.5523C45.0589 57.7686 45.3337 56.2258 44.5418 55.1065L41.6639 51.039C41.4092 51.253 41.15 51.4619 40.8866 51.6657L43.7226 55.6742C44.1978 56.3458 44.0329 57.2714 43.3543 57.7417C42.6757 58.2119 41.7403 58.0487 41.2652 57.3771L38.4169 53.3514C38.1309 53.5226 37.8411 53.6883 37.5477 53.8483Z" fill="white"/>
<path d="M41.7006 13.3197L44.5418 9.30384C45.3338 8.18452 45.0589 6.64177 43.9279 5.85802C42.7969 5.07426 41.238 5.34629 40.4461 6.46561L37.5898 10.5027C37.8828 10.6632 38.1722 10.8294 38.4579 11.0011L41.2652 7.03325C41.7404 6.36166 42.6757 6.19845 43.3543 6.6687C44.0329 7.13895 44.1979 8.0646 43.7227 8.73619L40.9243 12.6914C41.1873 12.8958 41.4461 13.1052 41.7006 13.3197Z" fill="white"/>
<path fill-rule="evenodd" clip-rule="evenodd" d="M25.5 7.91728C11.969 7.91728 1 18.7729 1 32.1639C1 45.555 11.969 56.4106 25.5 56.4106C39.031 56.4106 50 45.555 50 32.1639C50 18.7729 39.031 7.91728 25.5 7.91728ZM0 32.1639C0 18.2263 11.4167 6.92762 25.5 6.92762C39.5833 6.92762 51 18.2263 51 32.1639C51 46.1016 39.5833 57.4003 25.5 57.4003C11.4167 57.4003 0 46.1016 0 32.1639Z" fill="white"/>
<path d="M25 15.3469C25.1661 15.3421 25.3328 15.3397 25.5 15.3397C25.6672 15.3397 25.8339 15.3421 26 15.3469V12.3707H25V15.3469Z" fill="white"/>
<path d="M37.4602 20.2077C37.6971 20.4398 37.9271 20.6788 38.15 20.9243L40.6941 18.5264L40.0044 17.8097L37.4602 20.2077Z" fill="white"/>
<path d="M42.4928 31.6691C42.4976 31.8335 42.5 31.9984 42.5 32.1639C42.5 32.3295 42.4976 32.4944 42.4928 32.6588H45.5V31.6691H42.4928Z" fill="white"/>
<path d="M38.15 43.4036C37.9271 43.6491 37.6971 43.8881 37.4602 44.1202L40.0044 46.5182L40.6941 45.8015L38.15 43.4036Z" fill="white"/>
<path d="M26 48.981C25.8339 48.9858 25.6672 48.9882 25.5 48.9882C25.3328 48.9882 25.1661 48.9858 25 48.981V51.9571H26V48.981Z" fill="white"/>
<path d="M13.5398 44.1202C13.3029 43.8881 13.0729 43.6491 12.85 43.4036L10.3059 45.8015L10.9956 46.5182L13.5398 44.1202Z" fill="white"/>
<path d="M8.50721 32.6588C8.50241 32.4944 8.5 32.3295 8.5 32.1639C8.5 31.9984 8.50241 31.8335 8.50721 31.6691H5.5V32.6588H8.50721Z" fill="white"/>
<path d="M13.5398 20.2077C13.3029 20.4398 13.0729 20.6788 12.85 20.9243L10.3059 18.5264L10.9956 17.8097L13.5398 20.2077Z" fill="white"/>
<path fill-rule="evenodd" clip-rule="evenodd" d="M25.4705 25.5852C22.9715 23.6142 20.3794 23.0642 18.1816 23.5878C15.8934 24.1329 14.1069 25.8268 13.3691 28.1169C11.8814 32.7348 14.66 39.4933 25.2556 44.4867L25.4705 44.588L25.6855 44.4867C36.2811 39.4933 39.0597 32.7348 37.5719 28.1169C36.8341 25.8268 35.0476 24.1329 32.7595 23.5878C30.5616 23.0642 27.9695 23.6142 25.4705 25.5852ZM25.4705 43.4911C35.6905 38.602 37.8727 32.3083 36.6192 28.4175C35.982 26.4397 34.456 25.0099 32.5254 24.55C30.5996 24.0911 28.1966 24.5823 25.7944 26.6031L25.4705 26.8755L25.1467 26.6031C22.7444 24.5823 20.3415 24.0911 18.4157 24.55C16.4851 25.0099 14.9591 26.4397 14.3219 28.4175C13.0684 32.3083 15.2505 38.602 25.4705 43.4911Z" fill="white"/>
<path fill-rule="evenodd" clip-rule="evenodd" d="M25.5 12.8656C14.7304 12.8656 6 21.5058 6 32.1639C6 42.8221 14.7304 51.4623 25.5 51.4623C36.2696 51.4623 45 42.8221 45 32.1639C45 21.5058 36.2696 12.8656 25.5 12.8656ZM5 32.1639C5 20.9592 14.1782 11.8759 25.5 11.8759C36.8218 11.8759 46 20.9592 46 32.1639C46 43.3687 36.8218 52.452 25.5 52.452C14.1782 52.452 5 43.3687 5 32.1639Z" fill="white"/>
<path d="M30 3.95864H21V7.73744C21.3312 7.68473 21.6646 7.63846 22 7.59876V4.9483H29V7.73744C29.3356 7.79085 29.669 7.85087 30 7.91737V3.95864Z" fill="white"/>
</svg>
