<svg width="64" height="64" viewBox="0 0 64 64" fill="none" xmlns="http://www.w3.org/2000/svg">
<rect width="64" height="64" fill="#F7FAFF"/>
<path d="M0 32C0 14.3269 14.3269 0 32 0C49.6731 0 64 14.3269 64 32C64 49.6731 49.6731 64 32 64C14.3269 64 0 49.6731 0 32Z" fill="url(#paint0_linear)"/>
<path d="M32 50H20C18.8954 50 18 49.1046 18 48V43.942C18 42.1262 18.9845 40.4531 20.5718 39.5712L28 36M32 50V41M32 50H44C45.1046 50 46 49.1046 46 48V43.942C46 42.1262 45.0155 40.4531 43.4282 39.5712L36 36M28 36L32 41M28 36L28.0313 32.5M32 41L36 36M21 39.3654V22C21 16.4772 25.4772 12 31 12H33C38.5228 12 43 16.4772 43 22V39.3654M36 36L35.9687 32.5M28.0313 32.5C29.089 33.4335 30.4783 34 32 34C33.5217 34 34.911 33.4335 35.9687 32.5M28.0313 32.5C26.7856 31.4006 26 29.792 26 28V22H29C30.6569 22 32 20.6569 32 19C32 20.6569 33.3431 22 35 22H38V28C38 29.792 37.2144 31.4006 35.9687 32.5M32 31H28V31C25.7909 31 24 29.2091 24 27V26V24" stroke="white"/>
<defs>
<linearGradient id="paint0_linear" x1="32" y1="0" x2="32" y2="64" gradientUnits="userSpaceOnUse">
<stop stop-color="#A160ED"/>
<stop offset="1" stop-color="#6531A2"/>
</linearGradient>
</defs>
</svg>
