<svg width="64" height="64" viewBox="0 0 64 64" fill="none" xmlns="http://www.w3.org/2000/svg">
<rect width="64" height="64" fill="#F7FAFF"/>
<path d="M0 32C0 14.3269 14.3269 0 32 0C49.6731 0 64 14.3269 64 32C64 49.6731 49.6731 64 32 64C14.3269 64 0 49.6731 0 32Z" fill="url(#paint0_linear)"/>
<path d="M44 41V17C44 15.8954 43.1046 15 42 15H22C20.8954 15 20 15.8954 20 17V47C20 48.1046 20.8954 49 22 49H36M44 41H36V49M44 41L36 49" stroke="#F7FAFF"/>
<path d="M35.5 20C35.5 19.1716 36.1716 18.5 37 18.5H39C39.8284 18.5 40.5 19.1716 40.5 20V21V32.8615L38 37.0282L35.5 32.8615V21V20Z" stroke="#F7FAFF"/>
<path d="M28.6213 23.6213C27.4497 24.7929 25.5503 24.7929 24.3787 23.6213C23.2071 22.4497 23.2071 20.5503 24.3787 19.3787C25.5503 18.2071 27.4497 18.2071 28.6213 19.3787C29.7929 20.5503 29.7929 22.4497 28.6213 23.6213Z" stroke="#F7FAFF"/>
<circle cx="26.5" cy="31.5" r="3" stroke="#F7FAFF"/>
<circle cx="26.5" cy="41.5" r="3" stroke="#F7FAFF"/>
<defs>
<linearGradient id="paint0_linear" x1="32" y1="0" x2="32" y2="64" gradientUnits="userSpaceOnUse">
<stop stop-color="#A160ED"/>
<stop offset="1" stop-color="#6531A2"/>
</linearGradient>
</defs>
</svg>
