<?xml version="1.0" encoding="utf-8"?>
<!-- Generator: Adobe Illustrator 24.3.0, SVG Export Plug-In . SVG Version: 6.00 Build 0)  -->
<svg version="1.1" id="Layer_1" xmlns="http://www.w3.org/2000/svg" xmlns:xlink="http://www.w3.org/1999/xlink" x="0px" y="0px"
	 viewBox="0 0 98.2 20" style="enable-background:new 0 0 98.2 20;" xml:space="preserve">
<style type="text/css">
	.st0{fill:#EB9A11;}
</style>
<g>
	<g>
		<g>
			<path class="st0" d="M58.2,7.1c-0.2-0.3-0.5-0.4-0.8-0.5l0,0l-5-0.6l-2-4.6c-0.3-0.7-1-0.9-1.7-0.7C48.3,0.8,48,1.1,48,1.4
				l-2,4.7l-5,0.7c-0.7,0.2-1.3,0.8-1.2,1.6c0,0.3,0.2,0.6,0.5,0.8l3.7,3.3l-0.7,5.2c-0.1,0.6,0.2,1,0.7,1.3s1,0.3,1.5-0.1l3.8-2.6
				l3.8,2.5c0.7,0.4,1.5,0.3,1.9-0.4c0.2-0.3,0.3-0.7,0.2-0.9l-0.7-5.2l3.7-3.4C58.6,8.5,58.7,7.7,58.2,7.1z"/>
		</g>
	</g>
</g>
<g>
	<g>
		<g>
			<path class="st0" d="M38.5,7.1c-0.2-0.3-0.5-0.4-0.8-0.5l0,0l-5-0.6l-2-4.6c-0.3-0.7-1-0.9-1.7-0.7c-0.4,0.1-0.7,0.4-0.7,0.7
				l-2,4.7l-5,0.7C20.6,7,20,7.6,20.1,8.4c0,0.3,0.2,0.6,0.5,0.8l3.7,3.3l-0.7,5.2c-0.1,0.6,0.2,1,0.7,1.3s1,0.3,1.5-0.1l3.8-2.6
				l3.8,2.5c0.7,0.4,1.5,0.3,1.9-0.4c0.2-0.3,0.3-0.7,0.2-0.9l-0.7-5.2l3.7-3.4C39,8.5,39.1,7.7,38.5,7.1z"/>
		</g>
	</g>
</g>
<g>
	<g>
		<g>
			<path class="st0" d="M18.8,7.1c-0.2-0.3-0.5-0.4-0.8-0.5l0,0L13,6l-2-4.6c-0.3-0.7-1-0.9-1.7-0.7C9,0.9,8.7,1.2,8.6,1.5l-2,4.7
				l-5,0.7C1,7.1,0.4,7.8,0.5,8.5c0,0.3,0.2,0.6,0.5,0.8l3.7,3.3L4,17.8c-0.1,0.6,0.2,1,0.7,1.3s1,0.3,1.5-0.1l3.8-2.6l3.8,2.5
				c0.7,0.4,1.5,0.3,1.9-0.4c0.2-0.3,0.3-0.7,0.2-0.9l-0.7-5.2L18.9,9C19.3,8.5,19.4,7.7,18.8,7.1z M9.9,2.1L9.9,2.1"/>
		</g>
	</g>
</g>
<g>
	<g>
		<g>
			<path class="st0" d="M77.8,7.1c-0.2-0.3-0.5-0.4-0.8-0.5l0,0L72,6l-2-4.6c-0.3-0.7-1-0.9-1.7-0.7c-0.4,0.1-0.7,0.4-0.7,0.7
				l-2,4.7l-5,0.7c-0.7,0.2-1.3,0.8-1.2,1.6c0,0.3,0.2,0.6,0.5,0.8l3.7,3.3l-0.7,5.2c-0.1,0.6,0.2,1,0.7,1.3s1,0.3,1.5-0.1l3.8-2.6
				l3.8,2.5c0.7,0.4,1.5,0.3,1.9-0.4c0.2-0.3,0.3-0.7,0.2-0.9l-0.8-5l3.7-3.4C78.2,8.5,78.3,7.7,77.8,7.1z"/>
		</g>
	</g>
</g>
<g>
	<g>
		<g>
			<path class="st0" d="M97.4,7.1c-0.2-0.3-0.5-0.4-0.8-0.5l0,0l-5-0.6l-2-4.6c-0.3-0.7-1-0.9-1.7-0.7c-0.4,0.1-0.7,0.4-0.7,0.7
				l-2,4.7l-5,0.7C79.5,7,78.9,7.6,79,8.4c0,0.3,0.2,0.6,0.5,0.8l3.7,3.3l-0.7,5.2c-0.1,0.6,0.2,1,0.7,1.3s1,0.3,1.5-0.1l3.8-2.6
				l3.8,2.5c0.7,0.4,1.5,0.3,1.9-0.4c0.2-0.3,0.3-0.7,0.2-0.9l-0.7-5.2l3.7-3.4C97.9,8.5,97.9,7.7,97.4,7.1z M88.5,2"/>
		</g>
	</g>
</g>
</svg>
