<svg width="274" height="58" viewBox="0 0 274 58" fill="none" xmlns="http://www.w3.org/2000/svg">
<g clip-path="url(#clip0_1563:62180)">
<path d="M53.1419 40.7865C52.507 40.7865 52.0583 40.6556 51.7955 40.3939C51.5546 40.1323 51.4343 39.7179 51.4343 39.151V20.2103C51.4343 19.6433 51.5655 19.229 51.8283 18.9673C52.091 18.6838 52.5289 18.542 53.1419 18.542H61.1877C64.2527 18.542 66.5077 19.1853 67.9527 20.472C69.3977 21.7587 70.1201 23.6779 70.1201 26.2295C70.1201 28.7592 69.3977 30.6674 67.9527 31.9542C66.5297 33.2191 64.2747 33.8515 61.1877 33.8515H58.0679V39.151C58.0679 39.7179 57.9365 40.1323 57.6739 40.3939C57.4111 40.6556 56.9622 40.7865 56.3273 40.7865H53.1419ZM60.6622 29.1082C61.5599 29.1082 62.2495 28.8682 62.7312 28.3885C63.2347 27.9087 63.4864 27.1889 63.4864 26.2295C63.4864 25.2481 63.2347 24.5174 62.7312 24.0377C62.2495 23.5579 61.5599 23.318 60.6622 23.318H58.0679V29.1082H60.6622Z" fill="#ffffff"/>
<path d="M77.8756 41.2762C75.8177 41.2762 74.1647 40.622 72.9168 39.3135C71.6908 37.9832 71.0778 36.1185 71.0778 33.7196C71.0778 31.8878 71.4937 30.2848 72.3257 28.9109C73.1795 27.5369 74.3727 26.4792 75.9053 25.7378C77.4597 24.9745 79.2439 24.5928 81.2581 24.5928C82.922 24.5928 84.3889 24.7782 85.6587 25.1489C86.9503 25.4978 88.1326 26.0104 89.2053 26.6864V39.7713C89.2053 40.1857 89.1287 40.4583 88.9755 40.5892C88.8223 40.7201 88.5158 40.7855 88.056 40.7855H84.7063C84.4655 40.7855 84.2794 40.7527 84.148 40.6875C84.0166 40.6001 83.9072 40.4692 83.8197 40.2948L83.3928 39.3135C82.7577 39.9896 81.9916 40.4803 81.094 40.7855C80.2182 41.1127 79.1454 41.2762 77.8756 41.2762ZM80.3386 36.8272C81.1924 36.8272 81.8602 36.6201 82.3419 36.2057C82.8234 35.7915 83.0644 35.2026 83.0644 34.4393V29.3361C82.6484 29.1398 82.1228 29.0417 81.4879 29.0417C80.3277 29.0417 79.3973 29.4452 78.6967 30.252C78.0179 31.059 77.6786 32.193 77.6786 33.6542C77.6786 35.7696 78.5653 36.8272 80.3386 36.8272Z" fill="#ffffff"/>
<path d="M93.7756 40.7855C93.1407 40.7855 92.6919 40.6546 92.4292 40.3929C92.1664 40.1313 92.035 39.717 92.035 39.15V26.0976C92.035 25.705 92.1007 25.4433 92.2321 25.3126C92.3853 25.1598 92.6917 25.0835 93.1516 25.0835H96.5341C96.7968 25.0835 96.9939 25.1271 97.1253 25.2143C97.2785 25.2798 97.366 25.4106 97.3879 25.6069L97.5522 26.5883C98.1652 25.9776 98.9643 25.4978 99.9495 25.1489C100.956 24.7782 102.073 24.5928 103.299 24.5928C105.072 24.5928 106.506 25.0943 107.601 26.0976C108.696 27.079 109.243 28.5402 109.243 30.4812V39.15C109.243 39.717 109.112 40.1313 108.849 40.3929C108.608 40.6546 108.17 40.7855 107.535 40.7855H104.35C103.715 40.7855 103.255 40.6546 102.971 40.3929C102.708 40.1313 102.577 39.717 102.577 39.15V30.9064C102.577 30.252 102.434 29.7833 102.15 29.4996C101.865 29.2161 101.416 29.0744 100.803 29.0744C100.147 29.0744 99.621 29.2489 99.227 29.5979C98.8547 29.9468 98.6687 30.4266 98.6687 31.0371V39.15C98.6687 39.717 98.5374 40.1313 98.2746 40.3929C98.0338 40.6546 97.5959 40.7855 96.961 40.7855H93.7756Z" fill="#ffffff"/>
<path d="M120.851 41.2762C117.786 41.2762 115.421 40.5675 113.758 39.15C112.094 37.7323 111.262 35.6715 111.262 32.9672C111.262 31.3097 111.645 29.8485 112.411 28.5837C113.177 27.3188 114.283 26.3374 115.728 25.6396C117.195 24.9417 118.924 24.5928 120.917 24.5928C122.427 24.5928 123.697 24.7345 124.726 25.018C125.777 25.3015 126.707 25.7378 127.518 26.3266C127.758 26.4792 127.879 26.6755 127.879 26.9155C127.879 27.0899 127.791 27.3188 127.616 27.6023L126.27 29.925C126.116 30.2303 125.93 30.3829 125.711 30.3829C125.58 30.3829 125.372 30.2957 125.087 30.1212C124.496 29.7505 123.938 29.4779 123.412 29.3035C122.909 29.1289 122.274 29.0417 121.508 29.0417C120.413 29.0417 119.526 29.3907 118.848 30.0885C118.191 30.7864 117.863 31.746 117.863 32.9672C117.863 34.2103 118.202 35.1699 118.881 35.8459C119.559 36.5002 120.49 36.8272 121.672 36.8272C122.373 36.8272 123.007 36.7292 123.577 36.5329C124.146 36.3366 124.726 36.0639 125.317 35.715C125.624 35.5406 125.843 35.4534 125.974 35.4534C126.171 35.4534 126.346 35.6061 126.499 35.9113L127.977 38.4302C128.087 38.6482 128.142 38.8228 128.142 38.9537C128.142 39.15 128.01 39.3352 127.747 39.5098C126.828 40.0985 125.821 40.5347 124.726 40.8182C123.653 41.1236 122.362 41.2762 120.851 41.2762Z" fill="#ffffff"/>
<path d="M136.468 41.2762C134.41 41.2762 132.757 40.622 131.509 39.3135C130.283 37.9832 129.67 36.1185 129.67 33.7196C129.67 31.8878 130.086 30.2848 130.918 28.9109C131.772 27.5369 132.965 26.4792 134.497 25.7378C136.052 24.9745 137.836 24.5928 139.85 24.5928C141.514 24.5928 142.981 24.7782 144.251 25.1489C145.543 25.4978 146.725 26.0104 147.798 26.6864V39.7713C147.798 40.1857 147.721 40.4583 147.568 40.5892C147.414 40.7201 147.108 40.7855 146.648 40.7855H143.299C143.058 40.7855 142.872 40.7527 142.74 40.6875C142.609 40.6001 142.499 40.4692 142.412 40.2948L141.985 39.3135C141.35 39.9896 140.584 40.4803 139.686 40.7855C138.81 41.1127 137.738 41.2762 136.468 41.2762ZM138.931 36.8272C139.785 36.8272 140.452 36.6201 140.934 36.2057C141.416 35.7915 141.657 35.2026 141.657 34.4393V29.3361C141.241 29.1398 140.715 29.0417 140.08 29.0417C138.92 29.0417 137.989 29.4452 137.289 30.252C136.61 31.059 136.271 32.193 136.271 33.6542C136.271 35.7696 137.157 36.8272 138.931 36.8272Z" fill="#ffffff"/>
<path d="M168.426 39.5434C168.58 39.7179 168.656 39.9141 168.656 40.1323C168.656 40.3285 168.59 40.4921 168.459 40.623C168.328 40.732 168.153 40.7865 167.934 40.7865H162.844C162.537 40.7865 162.307 40.7648 162.154 40.7211C162.023 40.6556 161.88 40.5356 161.727 40.3613L157.261 34.3094V39.151C157.261 39.7179 157.129 40.1323 156.867 40.3939C156.604 40.6556 156.155 40.7865 155.52 40.7865H152.335C151.7 40.7865 151.251 40.6556 150.988 40.3939C150.748 40.1323 150.627 39.7179 150.627 39.151V20.2103C150.627 19.6433 150.758 19.229 151.021 18.9673C151.284 18.6838 151.722 18.542 152.335 18.542H155.52C156.155 18.542 156.604 18.6838 156.867 18.9673C157.129 19.229 157.261 19.6433 157.261 20.2103V31.169L161.596 25.5425C161.727 25.3679 161.869 25.2481 162.023 25.1827C162.176 25.1172 162.406 25.0844 162.712 25.0844H167.802C168.021 25.0844 168.186 25.1499 168.295 25.2808C168.426 25.3899 168.492 25.5425 168.492 25.7388C168.492 25.9569 168.415 26.1532 168.262 26.3276L162.647 32.7393L168.426 39.5434Z" fill="#ffffff"/>
<path d="M179.09 41.2762C177.25 41.2762 175.609 40.9709 174.164 40.3603C172.741 39.7496 171.613 38.8337 170.781 37.6125C169.949 36.3911 169.533 34.8973 169.533 33.1307C169.533 30.3612 170.321 28.2458 171.898 26.7846C173.475 25.3234 175.74 24.5928 178.696 24.5928C181.586 24.5928 183.775 25.3126 185.263 26.7518C186.775 28.1693 187.529 30.1431 187.529 32.6728C187.529 33.7631 187.048 34.3084 186.084 34.3084H175.773C175.773 35.2462 176.123 35.9659 176.824 36.4674C177.546 36.969 178.629 37.2199 180.074 37.2199C180.972 37.2199 181.717 37.1435 182.308 36.9909C182.92 36.8164 183.535 36.5657 184.147 36.2385C184.41 36.1294 184.586 36.075 184.673 36.075C184.869 36.075 185.034 36.2057 185.166 36.4674L186.282 38.561C186.391 38.7791 186.445 38.9428 186.445 39.0517C186.445 39.248 186.314 39.4335 186.051 39.6078C185.154 40.1968 184.137 40.622 182.997 40.8836C181.859 41.1453 180.557 41.2762 179.09 41.2762ZM181.618 31.0699C181.618 30.2412 181.378 29.5979 180.895 29.1398C180.414 28.6819 179.692 28.453 178.728 28.453C177.766 28.453 177.032 28.6928 176.529 29.1726C176.025 29.6305 175.773 30.2629 175.773 31.0699H181.618Z" fill="#ffffff"/>
<path d="M198.785 41.2767C196.946 41.2767 195.205 41.0912 193.564 40.7206C191.923 40.3279 190.597 39.7829 189.59 39.085C189.218 38.845 189.032 38.5943 189.032 38.3326C189.032 38.158 189.097 37.9728 189.228 37.7764L190.837 35.2248C191.013 34.9632 191.189 34.8323 191.363 34.8323C191.474 34.8323 191.66 34.9087 191.923 35.0613C192.731 35.5193 193.651 35.89 194.68 36.1735C195.709 36.457 196.727 36.5988 197.734 36.5988C198.763 36.5988 199.519 36.4461 200 36.1407C200.503 35.8355 200.756 35.3448 200.756 34.6687C200.756 34.0145 200.483 33.502 199.935 33.1312C199.41 32.7605 198.413 32.2916 196.946 31.7246C194.734 30.8958 193.006 29.969 191.757 28.9441C190.532 27.8973 189.919 26.4797 189.919 24.6915C189.919 22.5324 190.696 20.8859 192.25 19.7518C193.805 18.6178 195.874 18.0508 198.457 18.0508C200.252 18.0508 201.785 18.2144 203.054 18.5415C204.346 18.8468 205.441 19.3266 206.339 19.9808C206.711 20.2643 206.897 20.526 206.897 20.7659C206.897 20.9186 206.832 21.093 206.7 21.2893L205.091 23.8409C204.893 24.1026 204.718 24.2334 204.566 24.2334C204.455 24.2334 204.269 24.1571 204.006 24.0045C202.737 23.1757 201.227 22.7614 199.474 22.7614C198.534 22.7614 197.811 22.914 197.307 23.2194C196.804 23.5247 196.552 24.0263 196.552 24.7241C196.552 25.2039 196.683 25.5965 196.946 25.9018C197.208 26.207 197.56 26.4797 197.997 26.7196C198.457 26.9377 199.157 27.2212 200.099 27.5701L200.723 27.7991C202.343 28.4315 203.612 29.0422 204.532 29.6309C205.474 30.1979 206.185 30.9069 206.666 31.7574C207.149 32.5861 207.39 33.6329 207.39 34.8978C207.39 36.8386 206.656 38.3871 205.189 39.5429C203.743 40.6988 201.609 41.2767 198.785 41.2767Z" fill="#ffffff"/>
<path d="M214.366 40.7861C214.039 40.7861 213.786 40.7315 213.611 40.6225C213.437 40.5134 213.305 40.2954 213.218 39.9682L208.982 25.8364C208.937 25.7055 208.915 25.6075 208.915 25.542C208.915 25.2368 209.135 25.084 209.572 25.084H213.907C214.192 25.084 214.399 25.1385 214.53 25.2477C214.662 25.3349 214.75 25.4875 214.793 25.7055L216.568 33.1312L218.799 27.145C218.91 26.8832 219.019 26.7088 219.129 26.6215C219.26 26.5125 219.478 26.458 219.786 26.458H221.854C222.161 26.458 222.369 26.5125 222.478 26.6215C222.609 26.7088 222.731 26.8832 222.84 27.145L225.039 33.1312L226.846 25.7055C226.911 25.4875 227 25.3349 227.109 25.2477C227.218 25.1385 227.416 25.084 227.699 25.084H232.067C232.506 25.084 232.724 25.2368 232.724 25.542C232.724 25.6075 232.702 25.7055 232.659 25.8364L228.39 39.9682C228.301 40.2954 228.17 40.5134 227.996 40.6225C227.842 40.7315 227.602 40.7861 227.273 40.7861H224.055C223.747 40.7861 223.519 40.7315 223.365 40.6225C223.212 40.4917 223.08 40.2736 222.971 39.9682L220.804 34.0473L218.636 39.9682C218.548 40.2736 218.417 40.4917 218.241 40.6225C218.088 40.7315 217.859 40.7861 217.552 40.7861H214.366Z" fill="#ffffff"/>
<path d="M241.049 41.2762C238.991 41.2762 237.338 40.622 236.091 39.3135C234.864 37.9832 234.251 36.1185 234.251 33.7196C234.251 31.8878 234.668 30.2848 235.498 28.9109C236.353 27.5369 237.546 26.4792 239.078 25.7378C240.633 24.9745 242.417 24.5928 244.431 24.5928C246.094 24.5928 247.562 24.7782 248.831 25.1489C250.123 25.4978 251.305 26.0104 252.378 26.6864V39.7713C252.378 40.1857 252.302 40.4583 252.148 40.5892C251.994 40.7201 251.689 40.7855 251.228 40.7855H247.879C247.638 40.7855 247.452 40.7527 247.321 40.6875C247.19 40.6001 247.08 40.4692 246.993 40.2948L246.565 39.3135C245.93 39.9896 245.164 40.4803 244.267 40.7855C243.392 41.1127 242.318 41.2762 241.049 41.2762ZM243.511 36.8272C244.366 36.8272 245.033 36.6201 245.514 36.2057C245.997 35.7915 246.238 35.2026 246.238 34.4393V29.3361C245.821 29.1398 245.296 29.0417 244.661 29.0417C243.501 29.0417 242.571 29.4452 241.87 30.252C241.191 31.059 240.851 32.193 240.851 33.6542C240.851 35.7696 241.738 36.8272 243.511 36.8272Z" fill="#ffffff"/>
<path d="M256.915 47.3934C256.281 47.3934 255.832 47.2627 255.569 47.0009C255.328 46.7392 255.207 46.3248 255.207 45.7578V27.0136C256.194 26.3157 257.431 25.7378 258.918 25.2798C260.408 24.8219 261.962 24.5928 263.582 24.5928C270.193 24.5928 273.5 27.3843 273.5 32.9672C273.5 35.4969 272.799 37.5142 271.398 39.0191C269.997 40.5238 268.016 41.2762 265.453 41.2762C264.732 41.2762 264.03 41.189 263.353 41.0145C262.696 40.8401 262.148 40.6001 261.71 40.2948V45.7578C261.71 46.3248 261.578 46.7392 261.316 47.0009C261.053 47.2627 260.604 47.3934 259.97 47.3934H256.915ZM264.042 36.86C264.984 36.86 265.684 36.5111 266.144 35.8132C266.626 35.0936 266.866 34.134 266.866 32.9346C266.866 31.5169 266.581 30.5247 266.013 29.9577C265.465 29.3689 264.61 29.0744 263.45 29.0744C262.706 29.0744 262.116 29.1726 261.677 29.3689V34.5701C261.677 35.3117 261.886 35.8787 262.302 36.2711C262.718 36.6637 263.298 36.86 264.042 36.86Z" fill="#ffffff"/>
<path fill-rule="evenodd" clip-rule="evenodd" d="M7.9904 14.8562C7.35019 11.4412 9.98076 8.28613 13.4683 8.28613C16.546 8.28613 19.041 10.7714 19.041 13.8372V20.6807C19.8108 20.6266 20.593 20.5989 21.3852 20.5989C22.1463 20.5989 22.8983 20.6245 23.6388 20.6745V13.8372C23.6388 10.7714 26.1337 8.28613 29.2114 8.28613C32.699 8.28613 35.3295 11.4412 34.6893 14.8562L33.1813 22.9004C38.3569 25.1513 42.2705 29.0606 42.2705 33.9731V36.9451C42.2705 40.9848 39.5876 44.367 35.8368 46.6503C32.0568 48.9513 26.9431 50.3191 21.3852 50.3191C15.8273 50.3191 10.7137 48.9513 6.93367 46.6503C3.18294 44.367 0.5 40.9848 0.5 36.9451V33.9731C0.5 29.0866 4.37336 25.1923 9.50533 22.937L7.9904 14.8562ZM31.2487 23.9573L33.0135 14.5444C33.4578 12.1742 31.6321 9.98445 29.2114 9.98445C27.0754 9.98445 25.3437 11.7094 25.3437 13.8372V22.5461C24.784 22.4746 24.2153 22.418 23.6388 22.3769C22.8997 22.3242 22.1477 22.2972 21.3852 22.2972C20.5916 22.2972 19.8093 22.3265 19.041 22.3835C18.4644 22.4263 17.8957 22.4846 17.3361 22.5578V13.8372C17.3361 11.7094 15.6044 9.98445 13.4683 9.98445C11.0478 9.98445 9.22199 12.1742 9.66635 14.5444L11.4369 23.9885C5.90197 26.0365 2.20492 29.742 2.20492 33.9731V36.9451C2.20492 43.3935 10.7922 48.6209 21.3852 48.6209C31.9783 48.6209 40.5657 43.3935 40.5657 36.9451V33.9731C40.5657 29.7203 36.8307 25.9988 31.2487 23.9573Z" fill="#633001"/>
<path d="M40.5653 36.9448C40.5653 43.3932 31.978 48.6206 21.3849 48.6206C10.7919 48.6206 2.20461 43.3932 2.20461 36.9448V33.9727H40.5653V36.9448Z" fill="#FEDC90"/>
<path fill-rule="evenodd" clip-rule="evenodd" d="M9.66603 14.5424C9.22169 12.1722 11.0474 9.98242 13.468 9.98242C15.6041 9.98242 17.3358 11.7073 17.3358 13.8352V22.5558C18.641 22.385 19.9958 22.2951 21.3849 22.2951C22.742 22.2951 24.0661 22.3809 25.3434 22.5441V13.8352C25.3434 11.7073 27.075 9.98242 29.2111 9.98242C31.6318 9.98242 33.4574 12.1722 33.0131 14.5424L31.2484 23.9553C36.8304 25.9967 40.5653 29.7184 40.5653 33.9711C40.5653 40.4195 31.978 45.6469 21.3849 45.6469C10.7919 45.6469 2.20461 40.4195 2.20461 33.9711C2.20461 29.74 5.90165 26.0345 11.4365 23.9865L9.66603 14.5424Z" fill="#D1884F"/>
<path d="M16.0579 33.1247C16.0579 34.8835 15.1037 36.3091 13.9267 36.3091C12.7497 36.3091 11.7956 34.8835 11.7956 33.1247C11.7956 31.3661 12.7497 29.9404 13.9267 29.9404C15.1037 29.9404 16.0579 31.3661 16.0579 33.1247Z" fill="#633001"/>
<path d="M30.7625 33.1247C30.7625 34.8835 29.8084 36.3091 28.6314 36.3091C27.4545 36.3091 26.5003 34.8835 26.5003 33.1247C26.5003 31.3661 27.4545 29.9404 28.6314 29.9404C29.8084 29.9404 30.7625 31.3661 30.7625 33.1247Z" fill="#633001"/>
</g>
<defs>
<clipPath id="clip0_1563:62180">
<rect width="273" height="58" fill="white" transform="translate(0.5)"/>
</clipPath>
</defs>
</svg>
