<svg width="20" height="36" viewBox="0 0 20 36" fill="none" xmlns="http://www.w3.org/2000/svg">
<path d="M17.7475 35.4732C17.5729 35.4733 17.4 35.439 17.2387 35.3722C17.0773 35.3054 16.9307 35.2075 16.8072 35.0841L0.420642 18.6967C0.171412 18.4474 0.0314026 18.1093 0.0314026 17.7568C0.0314026 17.4043 0.171412 17.0662 0.420642 16.8169L16.8072 0.42943C16.9306 0.305942 17.0772 0.207974 17.2385 0.14112C17.3997 0.0742665 17.5726 0.0398361 17.7472 0.039795C17.9218 0.0397538 18.0947 0.0741028 18.256 0.140881C18.4174 0.207658 18.564 0.305557 18.6874 0.428988C18.8109 0.552418 18.9089 0.698962 18.9758 0.860254C19.0426 1.02155 19.077 1.19443 19.0771 1.36902C19.0771 1.54362 19.0428 1.71652 18.976 1.87784C18.9092 2.03917 18.8113 2.18576 18.6879 2.30924L3.24081 17.7563L18.6879 33.2034C18.8739 33.3893 19.0006 33.6263 19.052 33.8842C19.1033 34.1422 19.077 34.4096 18.9763 34.6526C18.8757 34.8956 18.7052 35.1033 18.4864 35.2493C18.2677 35.3954 18.0106 35.4733 17.7475 35.4732Z" fill="#AEAEAE"/>
</svg>
