<svg width="15" height="15" viewBox="0 0 15 15" fill="none" xmlns="http://www.w3.org/2000/svg">
<path d="M14.3151 10.8835C13.6931 10.2443 11.9248 9.04688 10.7659 9.04688C10.4975 9.04688 10.2631 9.10653 10.0714 9.23011C9.50469 9.59233 9.05304 9.87358 8.83574 9.87358C8.71644 9.87358 8.58862 9.76705 8.3074 9.52415L8.26054 9.48153C7.48081 8.80398 7.31464 8.62926 7.01212 8.31392L6.93543 8.23295C6.88004 8.17756 6.83317 8.12642 6.7863 8.07955C6.52213 7.80682 6.33039 7.6108 5.65292 6.84375L5.6231 6.80966C5.29928 6.44318 5.08624 6.20455 5.07345 6.02983C5.06067 5.85938 5.2098 5.58239 5.58901 5.06676C6.04918 4.4446 6.06622 3.67756 5.6444 2.78693C5.3078 2.08381 4.75816 1.41051 4.27242 0.818182L4.22982 0.767045C3.81226 0.255682 3.32653 0 2.7854 0C2.18463 0 1.68612 0.323864 1.42195 0.494318C1.40064 0.507102 1.37934 0.524148 1.35803 0.536932C0.765783 0.911932 0.335442 1.42756 0.173532 1.9517C-0.0693341 2.74006 -0.231244 3.76278 0.931955 5.8892C1.9375 7.73011 2.84932 8.96591 4.29799 10.4531C5.66145 11.8509 6.26648 12.3026 7.62141 13.2827C9.12974 14.3736 10.5784 15 11.5925 15C12.5341 15 13.2755 15 14.3322 13.7259C15.44 12.3878 14.9798 11.5696 14.3151 10.8835Z" fill="#814684"/>
</svg>
