<svg width="188" height="145" viewBox="0 0 188 145" fill="none" xmlns="http://www.w3.org/2000/svg">
<path d="M51.3826 129.458V132.411H50.0686V130.539H45.3401V124.114H46.7024V129.405H49.0667V124.114H50.4246V129.458H51.3826ZM56.9715 130.539H53.2713V124.114H56.9715V125.23H54.6336V126.641H56.8089V127.757H54.6336V129.414H56.9715V130.539ZM64.4809 130.539H63.123V127.766H60.5786V130.539H59.2163V124.114H60.5786V126.632H63.123V124.114H64.4809V130.539ZM69.4854 130.539H68.1231V125.248H66.3785V124.114H71.23V125.248H69.4854V130.539ZM75.171 124.114C76.0001 124.114 76.6051 124.293 76.986 124.65C77.3668 125.005 77.5573 125.494 77.5573 126.118C77.5573 126.399 77.5148 126.669 77.4298 126.927C77.3449 127.182 77.2057 127.409 77.0124 127.608C76.8219 127.807 76.567 127.965 76.2477 128.082C75.9284 128.197 75.5343 128.254 75.0656 128.254H74.4811V130.539H73.1188V124.114H75.171ZM75.1007 125.23H74.4811V127.138H74.9293C75.1842 127.138 75.4054 127.104 75.5929 127.037C75.7804 126.969 75.9254 126.864 76.028 126.72C76.1305 126.577 76.1818 126.392 76.1818 126.166C76.1818 125.85 76.0939 125.616 75.9181 125.463C75.7423 125.308 75.4699 125.23 75.1007 125.23ZM87.993 130.539H86.635V125.248H85.061C85.026 125.523 84.988 125.824 84.947 126.149C84.906 126.474 84.864 126.802 84.82 127.133C84.776 127.464 84.729 127.779 84.679 128.078C84.632 128.377 84.585 128.639 84.538 128.865C84.462 129.24 84.3583 129.559 84.2264 129.823C84.0975 130.083 83.9203 130.283 83.6947 130.42C83.472 130.558 83.1805 130.627 82.8202 130.627C82.7001 130.627 82.5843 130.618 82.473 130.601C82.3646 130.583 82.2635 130.56 82.1698 130.53V129.414C82.246 129.44 82.3221 129.462 82.3983 129.48C82.4745 129.495 82.558 129.502 82.6488 129.502C82.766 129.502 82.8627 129.464 82.9388 129.388C83.0179 129.309 83.0882 129.175 83.1498 128.988C83.2113 128.797 83.2728 128.535 83.3343 128.201C83.3607 128.055 83.3959 127.848 83.4398 127.581C83.4837 127.312 83.5335 126.997 83.5892 126.637C83.6449 126.273 83.702 125.878 83.7606 125.45C83.8221 125.022 83.8807 124.577 83.9364 124.114H87.993V130.539ZM94.447 130.539L93.981 129.01H91.639L91.173 130.539H89.706L91.973 124.088H93.639L95.915 130.539H94.447ZM93.656 127.867L93.19 126.373C93.161 126.273 93.122 126.146 93.072 125.991C93.025 125.832 92.977 125.673 92.927 125.512C92.88 125.348 92.842 125.206 92.812 125.085C92.783 125.206 92.742 125.355 92.689 125.534C92.64 125.709 92.591 125.876 92.544 126.035C92.498 126.193 92.464 126.306 92.443 126.373L91.982 127.867H93.656ZM102.066 125.617C102.066 126.048 101.913 126.395 101.605 126.659C101.297 126.922 100.908 127.088 100.436 127.155V127.182C101.022 127.24 101.473 127.403 101.79 127.669C102.106 127.936 102.264 128.283 102.264 128.711C102.264 129.086 102.162 129.418 101.957 129.708C101.752 129.996 101.448 130.221 101.047 130.385C100.646 130.546 100.149 130.627 99.557 130.627C99.071 130.627 98.639 130.598 98.261 130.539C97.886 130.477 97.561 130.391 97.285 130.28V129.137C97.473 129.225 97.682 129.301 97.914 129.366C98.148 129.427 98.385 129.476 98.626 129.511C98.866 129.543 99.088 129.559 99.294 129.559C99.862 129.559 100.273 129.477 100.528 129.313C100.786 129.149 100.915 128.916 100.915 128.614C100.915 128.307 100.729 128.082 100.357 127.942C99.985 127.801 99.484 127.731 98.854 127.731H98.252V126.667H98.793C99.302 126.667 99.698 126.635 99.979 126.571C100.263 126.503 100.461 126.408 100.572 126.285C100.687 126.159 100.744 126.008 100.744 125.832C100.744 125.613 100.646 125.438 100.449 125.31C100.253 125.178 99.961 125.112 99.575 125.112C99.241 125.112 98.929 125.16 98.639 125.257C98.349 125.351 98.078 125.477 97.826 125.635L97.232 124.725C97.452 124.581 97.687 124.457 97.936 124.351C98.188 124.246 98.463 124.165 98.762 124.11C99.061 124.051 99.395 124.022 99.764 124.022C100.247 124.022 100.66 124.091 101.003 124.228C101.346 124.366 101.608 124.555 101.79 124.795C101.974 125.033 102.066 125.307 102.066 125.617ZM108.064 130.539H104.364V124.114H108.064V125.23H105.726V126.641H107.902V127.757H105.726V129.414H108.064V130.539ZM112.361 124.114C113.19 124.114 113.795 124.293 114.176 124.65C114.557 125.005 114.747 125.494 114.747 126.118C114.747 126.399 114.705 126.669 114.62 126.927C114.535 127.182 114.396 127.409 114.202 127.608C114.012 127.807 113.757 127.965 113.438 128.082C113.118 128.197 112.724 128.254 112.256 128.254H111.671V130.539H110.309V124.114H112.361ZM112.291 125.23H111.671V127.138H112.119C112.374 127.138 112.595 127.104 112.783 127.037C112.97 126.969 113.115 126.864 113.218 126.72C113.321 126.577 113.372 126.392 113.372 126.166C113.372 125.85 113.284 125.616 113.108 125.463C112.932 125.308 112.66 125.23 112.291 125.23ZM122.125 130.539H120.767V127.766H118.223V130.539H116.86V124.114H118.223V126.632H120.767V124.114H122.125V130.539ZM130.482 127.318C130.482 127.813 130.421 128.264 130.298 128.671C130.175 129.076 129.987 129.424 129.735 129.717C129.486 130.01 129.17 130.236 128.786 130.394C128.402 130.549 127.948 130.627 127.424 130.627C126.899 130.627 126.445 130.549 126.061 130.394C125.678 130.236 125.36 130.01 125.108 129.717C124.859 129.424 124.673 129.074 124.55 128.667C124.427 128.26 124.365 127.807 124.365 127.309C124.365 126.644 124.474 126.065 124.69 125.573C124.91 125.078 125.247 124.694 125.701 124.422C126.155 124.149 126.732 124.013 127.433 124.013C128.13 124.013 128.703 124.149 129.151 124.422C129.602 124.694 129.936 125.078 130.153 125.573C130.373 126.068 130.482 126.65 130.482 127.318ZM125.793 127.318C125.793 127.766 125.849 128.153 125.96 128.478C126.075 128.8 126.252 129.049 126.492 129.225C126.732 129.398 127.043 129.484 127.424 129.484C127.811 129.484 128.124 129.398 128.364 129.225C128.604 129.049 128.779 128.8 128.887 128.478C128.999 128.153 129.054 127.766 129.054 127.318C129.054 126.644 128.928 126.114 128.676 125.727C128.424 125.34 128.01 125.147 127.433 125.147C127.049 125.147 126.735 125.235 126.492 125.411C126.252 125.583 126.075 125.832 125.96 126.158C125.849 126.48 125.793 126.867 125.793 127.318ZM132.714 124.114H133.94V127.217C133.94 127.369 133.937 127.538 133.931 127.722C133.928 127.907 133.922 128.088 133.914 128.267C133.908 128.443 133.902 128.597 133.896 128.728C133.89 128.86 133.884 128.948 133.878 128.992H133.905L136.871 124.114H138.502V130.539H137.289V127.454C137.289 127.29 137.292 127.111 137.297 126.918C137.303 126.725 137.311 126.537 137.319 126.355C137.331 126.174 137.341 126.017 137.35 125.885C137.359 125.75 137.365 125.661 137.368 125.617H137.333L134.353 130.539H132.714V124.114ZM137.891 122C137.858 122.311 137.771 122.585 137.627 122.822C137.483 123.06 137.259 123.244 136.955 123.376C136.65 123.508 136.24 123.574 135.724 123.574C135.194 123.574 134.781 123.511 134.485 123.385C134.189 123.256 133.978 123.074 133.852 122.84C133.726 122.602 133.65 122.323 133.624 122H134.823C134.85 122.331 134.933 122.551 135.074 122.66C135.214 122.765 135.44 122.818 135.751 122.818C136.008 122.818 136.219 122.759 136.383 122.642C136.547 122.525 136.646 122.311 136.678 122H137.891ZM0 136.114H1.226V139.217C1.226 139.369 1.2231 139.538 1.2172 139.722C1.2143 139.907 1.2085 140.088 1.1997 140.267C1.1938 140.443 1.1879 140.597 1.1821 140.728C1.1762 140.86 1.1704 140.948 1.1645 140.992H1.1909L4.1572 136.114H5.7876V142.539H4.5747V139.454C4.5747 139.29 4.5776 139.111 4.5835 138.918C4.5893 138.725 4.5966 138.537 4.6054 138.355C4.6171 138.174 4.6274 138.017 4.6362 137.885C4.645 137.75 4.6508 137.661 4.6538 137.617H4.6186L1.6391 142.539H0V136.114ZM14.2672 142.539L12.7204 137.498H12.6808C12.6867 137.619 12.6955 137.8 12.7072 138.043C12.7218 138.284 12.735 138.54 12.7467 138.812C12.7585 139.085 12.7643 139.331 12.7643 139.551V142.539H11.547V136.114H13.4015L14.922 141.027H14.9484L16.5612 136.114H18.4157V142.539H17.1457V139.498C17.1457 139.296 17.1486 139.063 17.1544 138.799C17.1632 138.536 17.1735 138.285 17.1852 138.048C17.1969 137.808 17.2057 137.627 17.2116 137.507H17.172L15.5153 142.539H14.2672ZM24.6375 142.539H20.9373V136.114H24.6375V137.23H22.2996V138.641H24.4749V139.757H22.2996V141.414H24.6375V142.539ZM31.9139 136.114V141.405H32.7709V144.411H31.4569V142.539H27.4315V144.411H26.1175V141.405H26.6141C26.7811 141.071 26.9422 140.718 27.0975 140.346C27.2528 139.974 27.3978 139.574 27.5326 139.146C27.6673 138.719 27.7889 138.254 27.8973 137.753C28.0057 137.252 28.0965 136.706 28.1698 136.114H31.9139ZM30.556 137.248H29.2508C29.2069 137.559 29.1468 137.89 29.0707 138.241C28.9945 138.593 28.9037 138.952 28.7982 139.318C28.6957 139.681 28.5799 140.04 28.451 140.394C28.3251 140.749 28.1903 141.086 28.0467 141.405H30.556V137.248ZM34.664 136.114H35.8901V139.217C35.8901 139.369 35.8872 139.538 35.8813 139.722C35.8784 139.907 35.8725 140.088 35.8637 140.267C35.8579 140.443 35.852 140.597 35.8461 140.728C35.8403 140.86 35.8344 140.948 35.8286 140.992H35.8549L38.8212 136.114H40.4516V142.539H39.2387V139.454C39.2387 139.29 39.2417 139.111 39.2475 138.918C39.2534 138.725 39.2607 138.537 39.2695 138.355C39.2812 138.174 39.2915 138.017 39.3003 137.885C39.309 137.75 39.3149 137.661 39.3178 137.617H39.2827L36.3032 142.539H34.664V136.114ZM49.0157 141.458V144.411H47.7017V142.539H42.9732V136.114H44.3355V141.405H46.6998V136.114H48.0577V141.458H49.0157ZM50.9044 136.114H52.1305V139.217C52.1305 139.369 52.1276 139.538 52.1217 139.722C52.1188 139.907 52.1129 140.088 52.1042 140.267C52.0983 140.443 52.0924 140.597 52.0866 140.728C52.0807 140.86 52.0749 140.948 52.069 140.992H52.0954L55.0617 136.114H56.692V142.539H55.4792V139.454C55.4792 139.29 55.4821 139.111 55.4879 138.918C55.4938 138.725 55.5011 138.537 55.5099 138.355C55.5216 138.174 55.5319 138.017 55.5407 137.885C55.5495 137.75 55.5553 137.661 55.5583 137.617H55.5231L52.5436 142.539H50.9044V136.114ZM64.4783 142.539H63.1204V139.766H60.5759V142.539H59.2136V136.114H60.5759V138.632H63.1204V136.114H64.4783V142.539ZM69.7333 137.156C69.4725 137.156 69.2411 137.207 69.0389 137.31C68.8397 137.409 68.6712 137.554 68.5335 137.745C68.3988 137.935 68.2962 138.165 68.2259 138.435C68.1556 138.704 68.1205 139.007 68.1205 139.344C68.1205 139.798 68.1761 140.186 68.2875 140.509C68.4017 140.828 68.5775 141.073 68.8148 141.243C69.0521 141.41 69.3583 141.493 69.7333 141.493C69.994 141.493 70.2547 141.464 70.5155 141.405C70.7792 141.347 71.0648 141.263 71.3724 141.155V142.297C71.0882 142.414 70.8085 142.498 70.5331 142.548C70.2577 142.601 69.9486 142.627 69.6058 142.627C68.9437 142.627 68.3988 142.491 67.971 142.218C67.5462 141.943 67.2313 141.559 67.0262 141.067C66.8211 140.572 66.7186 139.995 66.7186 139.335C66.7186 138.849 66.7845 138.404 66.9164 137.999C67.0482 137.595 67.2416 137.245 67.4964 136.949C67.7513 136.653 68.0663 136.425 68.4413 136.264C68.8163 136.102 69.2469 136.022 69.7333 136.022C70.0526 136.022 70.3719 136.063 70.6913 136.145C71.0135 136.224 71.3211 136.334 71.6141 136.475L71.1747 137.582C70.9344 137.468 70.6927 137.368 70.4496 137.283C70.2064 137.198 69.9676 137.156 69.7333 137.156ZM78.8818 142.539H77.3349L75.0058 139.283V142.539H73.6435V136.114H75.0058V139.226L77.3086 136.114H78.7587L76.4165 139.199L78.8818 142.539ZM86.422 139.318C86.422 139.813 86.36 140.264 86.237 140.671C86.114 141.076 85.927 141.424 85.675 141.717C85.426 142.01 85.109 142.236 84.726 142.394C84.3419 142.549 83.8878 142.627 83.3633 142.627C82.8389 142.627 82.3848 142.549 82.001 142.394C81.6172 142.236 81.2994 142.01 81.0474 141.717C80.7984 141.424 80.6124 141.074 80.4893 140.667C80.3663 140.26 80.3047 139.807 80.3047 139.309C80.3047 138.644 80.4131 138.065 80.6299 137.573C80.8497 137.078 81.1866 136.694 81.6407 136.422C82.0948 136.149 82.6719 136.013 83.3721 136.013C84.0694 136.013 84.642 136.149 85.09 136.422C85.542 136.694 85.876 137.078 86.092 137.573C86.312 138.068 86.422 138.65 86.422 139.318ZM81.733 139.318C81.733 139.766 81.7886 140.153 81.9 140.478C82.0142 140.8 82.1915 141.049 82.4317 141.225C82.6719 141.398 82.9825 141.484 83.3633 141.484C83.7501 141.484 84.0635 141.398 84.3038 141.225C84.544 141.049 84.718 140.8 84.827 140.478C84.938 140.153 84.994 139.766 84.994 139.318C84.994 138.644 84.868 138.114 84.616 137.727C84.3638 137.34 83.9493 137.147 83.3721 137.147C82.9883 137.147 82.6749 137.235 82.4317 137.411C82.1915 137.583 82.0142 137.832 81.9 138.158C81.7886 138.48 81.733 138.867 81.733 139.318ZM88.653 136.114H89.88V139.217C89.88 139.369 89.877 139.538 89.871 139.722C89.868 139.907 89.862 140.088 89.853 140.267C89.847 140.443 89.841 140.597 89.836 140.728C89.83 140.86 89.824 140.948 89.818 140.992H89.844L92.811 136.114H94.441V142.539H93.228V139.454C93.228 139.29 93.231 139.111 93.237 138.918C93.243 138.725 93.25 138.537 93.259 138.355C93.271 138.174 93.281 138.017 93.29 137.885C93.298 137.75 93.304 137.661 93.307 137.617H93.272L90.293 142.539H88.653V136.114ZM93.83 134C93.798 134.311 93.71 134.585 93.567 134.822C93.423 135.06 93.199 135.244 92.894 135.376C92.59 135.508 92.179 135.574 91.664 135.574C91.133 135.574 90.72 135.511 90.424 135.385C90.129 135.256 89.918 135.074 89.792 134.84C89.666 134.602 89.59 134.323 89.563 134H90.763C90.789 134.331 90.873 134.551 91.013 134.66C91.154 134.765 91.38 134.818 91.69 134.818C91.948 134.818 92.159 134.759 92.323 134.642C92.487 134.525 92.585 134.311 92.617 134H93.83ZM105.439 142.539H103.892L101.563 139.283V142.539H100.201V136.114H101.563V139.226L103.866 136.114H105.316L102.973 139.199L105.439 142.539ZM112.979 139.318C112.979 139.813 112.917 140.264 112.794 140.671C112.671 141.076 112.484 141.424 112.232 141.717C111.983 142.01 111.666 142.236 111.283 142.394C110.899 142.549 110.445 142.627 109.92 142.627C109.396 142.627 108.942 142.549 108.558 142.394C108.174 142.236 107.856 142.01 107.604 141.717C107.355 141.424 107.169 141.074 107.046 140.667C106.923 140.26 106.862 139.807 106.862 139.309C106.862 138.644 106.97 138.065 107.187 137.573C107.407 137.078 107.744 136.694 108.198 136.422C108.652 136.149 109.229 136.013 109.929 136.013C110.626 136.013 111.199 136.149 111.647 136.422C112.099 136.694 112.433 137.078 112.649 137.573C112.869 138.068 112.979 138.65 112.979 139.318ZM108.29 139.318C108.29 139.766 108.346 140.153 108.457 140.478C108.571 140.8 108.748 141.049 108.989 141.225C109.229 141.398 109.54 141.484 109.92 141.484C110.307 141.484 110.621 141.398 110.861 141.225C111.101 141.049 111.275 140.8 111.384 140.478C111.495 140.153 111.551 139.766 111.551 139.318C111.551 138.644 111.425 138.114 111.173 137.727C110.921 137.34 110.506 137.147 109.929 137.147C109.545 137.147 109.232 137.235 108.989 137.411C108.748 137.583 108.571 137.832 108.457 138.158C108.346 138.48 108.29 138.867 108.29 139.318ZM117.94 137.156C117.679 137.156 117.447 137.207 117.245 137.31C117.046 137.409 116.877 137.554 116.74 137.745C116.605 137.935 116.502 138.165 116.432 138.435C116.362 138.704 116.327 139.007 116.327 139.344C116.327 139.798 116.382 140.186 116.494 140.509C116.608 140.828 116.784 141.073 117.021 141.243C117.258 141.41 117.565 141.493 117.94 141.493C118.2 141.493 118.461 141.464 118.722 141.405C118.985 141.347 119.271 141.263 119.579 141.155V142.297C119.294 142.414 119.015 142.498 118.739 142.548C118.464 142.601 118.155 142.627 117.812 142.627C117.15 142.627 116.605 142.491 116.177 142.218C115.752 141.943 115.438 141.559 115.232 141.067C115.027 140.572 114.925 139.995 114.925 139.335C114.925 138.849 114.991 138.404 115.123 137.999C115.254 137.595 115.448 137.245 115.703 136.949C115.958 136.653 116.273 136.425 116.648 136.264C117.023 136.102 117.453 136.022 117.94 136.022C118.259 136.022 118.578 136.063 118.898 136.145C119.22 136.224 119.527 136.334 119.82 136.475L119.381 137.582C119.141 137.468 118.899 137.368 118.656 137.283C118.413 137.198 118.174 137.156 117.94 137.156ZM124.57 142.539L123.023 137.498H122.984C122.989 137.619 122.998 137.8 123.01 138.043C123.025 138.284 123.038 138.54 123.049 138.812C123.061 139.085 123.067 139.331 123.067 139.551V142.539H121.85V136.114H123.704L125.225 141.027H125.251L126.864 136.114H128.718V142.539H127.448V139.498C127.448 139.296 127.451 139.063 127.457 138.799C127.466 138.536 127.476 138.285 127.488 138.048C127.5 137.808 127.508 137.627 127.514 137.507H127.475L125.818 142.539H124.57ZM134.94 142.539H131.24V136.114H134.94V137.23H132.602V138.641H134.778V139.757H132.602V141.414H134.94V142.539ZM139.663 142.539H138.301V137.248H136.556V136.114H141.408V137.248H139.663V142.539ZM149.128 139.318C149.128 139.813 149.067 140.264 148.944 140.671C148.821 141.076 148.633 141.424 148.381 141.717C148.132 142.01 147.816 142.236 147.432 142.394C147.048 142.549 146.594 142.627 146.07 142.627C145.545 142.627 145.091 142.549 144.707 142.394C144.324 142.236 144.006 142.01 143.754 141.717C143.505 141.424 143.319 141.074 143.196 140.667C143.073 140.26 143.011 139.807 143.011 139.309C143.011 138.644 143.12 138.065 143.336 137.573C143.556 137.078 143.893 136.694 144.347 136.422C144.801 136.149 145.378 136.013 146.079 136.013C146.776 136.013 147.349 136.149 147.797 136.422C148.248 136.694 148.582 137.078 148.799 137.573C149.019 138.068 149.128 138.65 149.128 139.318ZM144.439 139.318C144.439 139.766 144.495 140.153 144.606 140.478C144.721 140.8 144.898 141.049 145.138 141.225C145.378 141.398 145.689 141.484 146.07 141.484C146.456 141.484 146.77 141.398 147.01 141.225C147.25 141.049 147.425 140.8 147.533 140.478C147.644 140.153 147.7 139.766 147.7 139.318C147.7 138.644 147.574 138.114 147.322 137.727C147.07 137.34 146.656 137.147 146.079 137.147C145.695 137.147 145.381 137.235 145.138 137.411C144.898 137.583 144.721 137.832 144.606 138.158C144.495 138.48 144.439 138.867 144.439 139.318ZM156.444 142.539H155.086V137.248H153.513C153.478 137.523 153.44 137.824 153.399 138.149C153.358 138.474 153.315 138.802 153.272 139.133C153.228 139.464 153.181 139.779 153.131 140.078C153.084 140.377 153.037 140.639 152.99 140.865C152.914 141.24 152.81 141.559 152.678 141.823C152.549 142.083 152.372 142.283 152.147 142.42C151.924 142.558 151.632 142.627 151.272 142.627C151.152 142.627 151.036 142.618 150.925 142.601C150.816 142.583 150.715 142.56 150.622 142.53V141.414C150.698 141.44 150.774 141.462 150.85 141.48C150.926 141.495 151.01 141.502 151.101 141.502C151.218 141.502 151.315 141.464 151.391 141.388C151.47 141.309 151.54 141.175 151.602 140.988C151.663 140.797 151.725 140.535 151.786 140.201C151.813 140.055 151.848 139.848 151.892 139.581C151.936 139.312 151.985 138.997 152.041 138.637C152.097 138.273 152.154 137.878 152.212 137.45C152.274 137.022 152.333 136.577 152.388 136.114H156.444V142.539ZM164.798 139.318C164.798 139.813 164.736 140.264 164.613 140.671C164.49 141.076 164.302 141.424 164.05 141.717C163.801 142.01 163.485 142.236 163.101 142.394C162.717 142.549 162.263 142.627 161.739 142.627C161.215 142.627 160.76 142.549 160.377 142.394C159.993 142.236 159.675 142.01 159.423 141.717C159.174 141.424 158.988 141.074 158.865 140.667C158.742 140.26 158.68 139.807 158.68 139.309C158.68 138.644 158.789 138.065 159.006 137.573C159.225 137.078 159.562 136.694 160.016 136.422C160.47 136.149 161.048 136.013 161.748 136.013C162.445 136.013 163.018 136.149 163.466 136.422C163.917 136.694 164.251 137.078 164.468 137.573C164.688 138.068 164.798 138.65 164.798 139.318ZM160.109 139.318C160.109 139.766 160.164 140.153 160.276 140.478C160.39 140.8 160.567 141.049 160.807 141.225C161.048 141.398 161.358 141.484 161.739 141.484C162.126 141.484 162.439 141.398 162.679 141.225C162.92 141.049 163.094 140.8 163.202 140.478C163.314 140.153 163.369 139.766 163.369 139.318C163.369 138.644 163.243 138.114 162.991 137.727C162.739 137.34 162.325 137.147 161.748 137.147C161.364 137.147 161.05 137.235 160.807 137.411C160.567 137.583 160.39 137.832 160.276 138.158C160.164 138.48 160.109 138.867 160.109 139.318ZM171.09 136.114V137.239H168.391V142.539H167.029V136.114H171.09ZM172.983 136.114H174.209V139.217C174.209 139.369 174.206 139.538 174.2 139.722C174.197 139.907 174.191 140.088 174.182 140.267C174.177 140.443 174.171 140.597 174.165 140.728C174.159 140.86 174.153 140.948 174.147 140.992H174.174L177.14 136.114H178.77V142.539H177.557V139.454C177.557 139.29 177.56 139.111 177.566 138.918C177.572 138.725 177.579 138.537 177.588 138.355C177.6 138.174 177.61 138.017 177.619 137.885C177.628 137.75 177.634 137.661 177.637 137.617H177.601L174.622 142.539H172.983V136.114ZM181.292 136.114H182.518V139.217C182.518 139.369 182.515 139.538 182.509 139.722C182.506 139.907 182.5 140.088 182.492 140.267C182.486 140.443 182.48 140.597 182.474 140.728C182.468 140.86 182.462 140.948 182.456 140.992H182.483L185.449 136.114H187.08V142.539H185.867V139.454C185.867 139.29 185.87 139.111 185.875 138.918C185.881 138.725 185.889 138.537 185.897 138.355C185.909 138.174 185.919 138.017 185.928 137.885C185.937 137.75 185.943 137.661 185.946 137.617H185.911L182.931 142.539H181.292V136.114Z" fill="#814684"/>
<path d="M31.3364 21.0177C34.6205 19.8733 38.2649 19.3011 42.2699 19.3011C46.435 19.3011 50.1996 20.0641 53.5638 21.5899C57.008 23.0205 59.9717 25.1662 62.4547 28.0273C65.0179 30.8883 67.0604 34.3692 68.5823 38.47C70.104 42.5709 71.065 47.2439 71.466 52.4891H38.5L46 65.5H51.5L71.5 65.256C71.34 71.3596 70.665 75.3297 69.3031 80.0981C67.9415 84.7711 65.939 88.7289 63.2957 91.9714C60.6525 95.1185 57.3685 97.5504 53.4436 99.267L41.549 113C50.8404 113 58.5299 110.807 64.6174 106.42C70.785 102.033 75.391 95.7861 78.434 87.6799C81.478 79.5736 83 69.9414 83 58.7834C83 51.4401 82.159 44.7166 80.477 38.6131C78.875 32.4142 76.392 27.0259 73.028 22.4482C69.6636 17.8706 65.4184 14.342 60.2921 11.8624C55.2458 9.28746 49.2785 8 42.39 8C37.9045 8 33.5391 8.52452 29.2939 9.57356C25.0487 10.6226 25.284 10.3486 22 12.256V24.756C24.6432 23.3255 28.0524 22.0668 31.3364 21.0177Z" fill="#814684"/>
<path d="M97.936 2.01857V2.01853L97.926 2.02018C87.421 3.87406 79.6466 9.66983 75.1021 18.9648C72.502 24.269 72.1978 26.6856 70.4039 47.017V47.0173C69.0554 62.3498 67.3366 73.8024 65.0612 82.0258C62.7765 90.2831 59.9824 95.0841 56.6401 97.3764C54.7335 98.6453 51.3225 99.7179 46.8955 100.21C46.8935 100.211 46.8916 100.211 46.8896 100.211L46.8621 100.214C45.1447 100.386 43.8034 100.52 42.7375 100.702C41.6571 100.887 40.776 101.134 40.0048 101.574C39.2209 102.021 38.6235 102.624 38.0414 103.407C37.4804 104.161 36.8965 105.134 36.1687 106.347L36.148 106.381C35.2859 107.751 34.5241 109.097 33.9746 110.158C33.6998 110.688 33.4731 111.157 33.3123 111.527C33.2324 111.712 33.1632 111.884 33.1121 112.035C33.0754 112.143 33 112.371 33 112.605C33 112.938 33.1536 113.179 33.2766 113.315C33.393 113.443 33.5173 113.518 33.592 113.558C33.7427 113.639 33.9001 113.686 34.0113 113.714C34.2498 113.775 34.5555 113.821 34.8909 113.858C35.575 113.934 36.5399 113.992 37.7051 114.03C40.043 114.105 43.2639 114.105 46.8282 114.005L46.8347 114.004C54.0357 113.754 58.8997 113.229 62.5469 111.935C66.2686 110.614 68.6707 108.514 71.0083 105.294C79.3905 93.8439 82.697 80.4796 85.496 46.7897C86.8 31.8525 87.495 27.8387 89.406 23.7287C90.605 21.1881 92.173 19.1108 93.859 17.68C95.553 16.243 97.307 15.5049 98.9 15.5049C99.01 15.5049 99.079 15.5078 99.118 15.5104C99.135 15.5404 99.158 15.5869 99.184 15.6562C99.289 15.9259 99.402 16.4027 99.505 17.2332C99.607 18.0511 99.692 19.1568 99.764 20.6526C100.05 26.6488 100.1 38.5902 100.2 62.4027V62.4091L99.9 107.098V107.105C99.9 108.855 100.597 110.645 102.042 111.859L103.127 112.845L103.141 112.857L103.155 112.869C104.903 114.344 106.822 115.097 108.786 114.978C110.743 114.86 112.588 113.884 114.213 112.206L115.107 111.312L115.124 111.295L115.14 111.278C116.283 110.02 117 108.388 117 106.705V77.5049C117 55.8931 117.527 42.3307 119.134 33.4071C120.73 24.5422 123.361 20.4228 127.473 17.5247C127.847 17.2654 128.176 17.0291 128.477 16.8125C128.878 16.525 129.229 16.2723 129.575 16.047C130.192 15.6441 130.502 15.5344 130.638 15.5275C130.662 15.5496 130.72 15.6129 130.796 15.7628C131.007 16.1744 131.22 16.9538 131.396 18.3201C131.743 21.0192 131.897 25.5613 131.961 32.8715C132.01 38.4671 132.007 45.6484 132.003 54.8109C132.001 57.5897 132 60.5507 132 63.7049V113.105V114.105H133H140.5H148H149V113.105V61.2049C149 46.9519 148.925 33.7979 148.812 24.0809C148.756 19.2228 148.69 15.221 148.62 12.3693C148.585 10.9443 148.548 9.80143 148.511 8.98075C148.492 8.57129 148.473 8.23478 148.453 7.9805C148.437 7.77772 148.414 7.50474 148.358 7.31762L148.348 7.28451L148.336 7.25216C147.614 5.33722 145.809 4.04467 143.643 3.2368C141.455 2.4204 138.729 2.02996 135.85 2.02996C130.11 2.02996 123.491 3.58554 118.926 6.78614L118.919 6.79123C118.227 7.28549 117.678 7.65455 117.244 7.9134C117.1 7.99939 116.975 8.06896 116.868 8.12485C116.824 7.84535 116.737 7.56918 116.637 7.31488C116.485 6.93092 116.275 6.52557 116.029 6.1216C115.539 5.31876 114.869 4.4619 114.12 3.71093C112.648 2.13107 110.992 1.27876 108.462 1.05872C106.019 0.846289 102.726 1.22022 97.936 2.01857ZM99.087 15.4628C99.087 15.4626 99.089 15.4643 99.092 15.4685C99.089 15.4651 99.087 15.463 99.087 15.4628Z" fill="#333333" stroke="white" stroke-width="2"/>
</svg>
