<svg width="166" height="126" viewBox="0 0 166 126" fill="none" xmlns="http://www.w3.org/2000/svg">
<path d="M35.9347 21.0365C38.8704 20.1103 42.1285 19.6472 45.7087 19.6472C49.4321 19.6472 52.7975 20.2647 55.8049 21.4997C58.8839 22.6574 61.5333 24.3941 63.753 26.7096C66.0444 29.0251 67.8703 31.8423 69.2307 35.1612C70.5912 38.4801 71.4505 42.2621 71.8085 46.5073H41.4447V54.2048C42.7336 56.8025 71.9159 55.6536 71.9159 55.6536C71.7727 60.5934 71.0925 64.9929 69.8751 68.8521C68.6579 72.6341 66.8678 75.8372 64.5049 78.4615C62.1419 81.0084 59.2061 82.977 55.6975 84.3662C52.2605 85.6784 48.2149 86.3341 43.5606 86.3341C40.1236 86.3341 36.8656 86.0259 33.7865 85.4079L24.657 92.1228C27.6644 93.2809 30.7076 94.13 33.7865 94.6701C36.8656 95.2102 40.6248 95.4807 45.0643 95.4807C53.3704 95.4807 58.311 92.5562 63.753 89.0057C69.2666 85.4553 73.5879 80.5942 76.3086 74.0333C79.03 67.4727 82.1195 60.632 82.1195 51.6015C82.1195 45.6583 81.3674 40.2168 79.8639 35.277C78.4316 30.26 76.2124 25.8992 73.2048 22.1943C70.1973 18.4895 66.4023 15.6336 61.8197 13.6268C57.3086 11.5429 51.9741 10.5009 45.8161 10.5009C41.8062 10.5009 37.9038 10.9254 34.1088 11.7744H33.7865L29.8233 13.6268L35.9347 21.0365Z" fill="#814684"/>
<path d="M110.812 70.3748L110.81 70.3868L110.81 70.3989C110.529 73.6803 110.457 76.753 110.601 79.6144C110.703 81.6585 110.961 83.5669 111.378 85.3357L111.384 85.363L111.392 85.3895C111.884 87.1286 112.61 88.6607 113.581 89.968L113.594 89.9849L113.607 90.0009C114.667 91.3283 115.993 92.3243 117.565 92.9872C119.168 93.6646 121.047 93.9061 123.162 93.7713C124.08 93.7135 125.201 93.2906 126.453 92.6509C127.723 92.0009 129.067 91.1759 130.484 90.1823C131.972 89.2482 133.48 88.1775 135.008 86.9705L135.021 86.9609L135.033 86.9505C136.556 85.6752 137.928 84.4401 139.148 83.2451L139.161 83.2331L139.173 83.2202C140.393 81.9514 141.41 80.7484 142.215 79.6126L142.225 79.5973L142.236 79.5817C143.047 78.3577 143.578 77.1008 143.517 75.8803C143.431 74.1587 142.709 72.7216 141.424 71.6287C140.165 70.5571 138.711 70.0545 137.111 70.1563L136.739 70.1799L136.451 70.4327L135.191 71.539L135.185 71.5439L135.179 71.5488C134.285 72.3542 133.209 73.3087 131.951 74.4128C130.701 75.5092 129.421 76.6078 128.11 77.7086C126.816 78.7247 125.583 79.5983 124.412 80.3318L124.401 80.3391L124.391 80.3455C123.547 80.9 122.932 81.185 122.513 81.3029C122.45 80.8407 122.409 80.4049 122.388 79.9939C122.194 76.1213 122.356 72.0131 122.879 67.6672C123.464 63.22 124.235 58.76 125.193 54.2872L125.194 54.2825C126.15 49.731 127.234 45.24 128.445 40.8092L128.447 40.8036C129.658 36.2913 130.851 32.0202 132.023 27.9902C132.454 26.5949 132.83 25.3011 133.149 24.109C133.262 23.7412 133.372 23.3436 133.479 22.9169C133.559 22.5969 133.639 22.3013 133.72 22.0297L133.789 22.039C134.117 20.9799 134.467 19.7843 134.842 18.4529L134.844 18.4437L134.847 18.4345C135.216 17.0413 135.556 15.683 135.868 14.3596C136.247 13.0071 136.538 11.7199 136.737 10.4991C136.937 9.27129 137.026 8.17838 136.978 7.23952C136.898 5.63448 136.278 4.27441 135.141 3.23224C134.064 2.11717 132.741 1.58289 131.239 1.67836C130.211 1.74372 129.25 2.10957 128.371 2.74218C127.553 3.30109 126.912 4.03228 126.476 4.93183C126.474 4.93466 126.474 4.93749 126.472 4.94033L94.5615 68.691C94.6743 68.092 94.7895 67.4822 94.9069 66.8614C95.6597 63.1164 96.4081 59.2695 97.1503 55.3208C97.8941 51.3698 98.6076 47.4547 99.2915 43.5757L99.2961 43.5506L99.2991 43.5253L101.756 25.375C101.756 25.3734 101.757 25.3718 101.757 25.3702C101.926 24.1774 102.261 20.3709 102.548 16.8313C102.692 15.0465 102.824 13.3102 102.92 11.9759C102.966 11.3093 103.005 10.7397 103.03 10.3134C103.053 9.93412 103.072 9.5692 103.063 9.39545C102.983 7.79041 102.362 6.43033 101.226 5.38816C100.15 4.27311 98.8257 3.73883 97.3238 3.8343C95.9559 3.92124 91.4758 4.26181 87.9962 5.94506C84.1902 7.78609 82.3694 9.81743 79.6101 12.8954L79.5746 12.9353L79.5215 12.9941L80.3426 13.8206L79.5215 12.9941C76.4487 16.422 74.9847 18.7735 72.9236 23.0032C71.634 25.6496 70.9419 27.8752 70.3642 30.1159C70.1768 30.8428 70.0043 31.5576 69.8293 32.2833C69.4594 33.8167 69.0778 35.3985 68.5185 37.245C67.7856 39.6647 66.8609 42.7659 66.1197 45.2607C65.7491 46.5085 65.4242 47.6051 65.192 48.3899L64.9189 49.313L64.8455 49.5614L64.8288 49.618L64.8119 49.6662C64.7941 49.717 64.7675 49.7926 64.7327 49.8905C64.6634 50.0863 64.5616 50.3714 64.4328 50.7269C64.1751 51.438 63.8095 52.4289 63.3788 53.5478C62.5128 55.797 61.3997 58.5194 60.3763 60.5258C59.5064 62.2312 58.7723 63.9398 58.0855 65.5382C57.9175 65.9293 57.7522 66.314 57.5885 66.6903C56.7441 68.6315 55.9377 70.3605 54.9549 71.8329C53.4911 74.0257 52.4562 75.1932 51.225 76.5822C50.7333 77.1367 50.2104 77.7266 49.6164 78.4313C48.7022 79.5156 47.4249 80.5718 46.0929 81.5597C45.4324 82.0501 44.7743 82.5116 44.1544 82.9465L44.1299 82.9634C43.5259 83.3871 42.9486 83.7916 42.4667 84.1576C40.7098 85.489 39.1345 86.1327 37.7262 86.2217C36.4824 86.3012 35.7683 85.9946 35.3466 85.546C34.6659 84.8221 34.0759 84.0653 33.5741 83.2764L33.5679 83.2668L33.5616 83.2579C32.9136 82.2812 32.2276 81.4337 31.5001 80.7243L30.4222 79.6736L29.7276 81.0517L25.0254 90.3797L24.6536 91.1181L25.1718 91.7417C26.3989 93.2192 27.879 94.4487 29.6005 95.435L30.1456 94.374L29.6005 95.435C31.2953 96.4053 33.0495 97.1244 34.8617 97.5882L34.8672 97.589L34.8727 97.5906C36.7166 98.0417 38.374 98.2383 39.827 98.146C40.3128 98.1147 40.8804 98.1147 41.5392 98.1147C41.6063 98.1147 41.6743 98.1147 41.7434 98.1147C42.4725 98.1147 43.2854 98.1099 44.1093 98.0529C45.7224 97.9413 47.549 97.6227 49.016 96.5818C49.6004 96.1918 50.2026 95.8363 50.8347 95.4711C50.9465 95.4061 51.0597 95.3411 51.1738 95.2753C51.7009 94.9719 52.2497 94.6557 52.7967 94.317C54.1424 93.484 55.5337 92.4808 56.88 90.9921C57.137 90.7072 57.3946 90.4239 57.653 90.139C59.8903 87.6727 62.1908 85.1367 64.7474 81.6841C66.3254 79.5524 67.3739 77.6744 68.3428 75.7759C68.6315 75.2102 68.9099 74.6498 69.1912 74.0833C69.861 72.7346 70.5479 71.3512 71.4343 69.7778C72.8727 67.2242 73.701 64.9595 74.4016 62.671C74.6543 61.8451 74.8852 61.0366 75.1191 60.217C75.5441 58.7288 75.9791 57.2036 76.576 55.47C77.419 53.0213 78.1627 49.5514 78.6899 46.7459C78.9557 45.3324 79.1708 44.068 79.3185 43.1569C79.3928 42.7012 79.4503 42.3333 79.4897 42.0788C79.5094 41.9515 79.5246 41.8526 79.5344 41.7851L79.5458 41.7085V41.7079L79.5586 41.641C79.5647 41.6098 79.5723 41.571 79.5814 41.5252C79.5897 41.4803 79.6003 41.4287 79.6117 41.3709C79.6579 41.1364 79.7245 40.7983 79.8086 40.3854C79.9775 39.5591 80.2138 38.4362 80.485 37.2471C80.7569 36.0557 81.0614 34.809 81.3658 33.7316C81.6794 32.6224 81.9657 31.7934 82.1854 31.3718L82.2369 31.2731L82.2702 31.1662C82.9057 29.1322 84.2963 28.0255 85.8724 27.3893C86.9207 26.9662 88.0099 26.7694 88.9407 26.6646L82.9481 88.245C82.836 89.1213 82.9223 89.9865 83.1995 90.826L83.2162 90.8749L83.2366 90.9231C83.5714 91.708 84.016 92.4126 84.5689 93.029L84.575 93.0362C85.1794 93.6983 85.8353 94.2304 86.548 94.606L86.57 94.618L86.5935 94.6284C87.3592 94.988 88.1424 95.1766 88.9248 95.1268C89.6731 95.0795 90.4563 94.7384 91.2319 94.2577C92.0999 93.8227 92.8391 93.2753 93.3367 92.5651L93.3905 92.4872L93.4329 92.4014L114.253 49.9478C114.249 49.9655 114.244 49.9833 114.241 50.0009C113.466 53.4243 112.787 56.876 112.205 60.3558C111.618 63.7698 111.153 67.1096 110.812 70.3748Z" fill="#333333" stroke="#FCF8F7" stroke-width="3"/>
<path d="M47.8 113.094V115.464H46.8048V113.962H43.2233V108.805H44.2552V113.052H46.0459V108.805H47.0744V113.094H47.8ZM52.7148 113.962H49.9122V108.805H52.7148V109.701H50.944V110.833H52.5916V111.729H50.944V113.059H52.7148V113.962ZM59.0842 113.962H58.0557V111.736H56.1285V113.962H55.0967V108.805H56.1285V110.826H58.0557V108.805H59.0842V113.962ZM63.5563 113.962H62.5245V109.716H61.2031V108.805H64.8777V109.716H63.5563V113.962ZM68.5443 108.805C69.1723 108.805 69.6305 108.949 69.919 109.236C70.2075 109.52 70.3518 109.913 70.3518 110.414C70.3518 110.639 70.3196 110.856 70.2552 111.063C70.1909 111.268 70.0854 111.45 69.939 111.61C69.7948 111.769 69.6017 111.896 69.3598 111.99C69.118 112.082 68.8195 112.128 68.4645 112.128H68.0218V113.962H66.99V108.805H68.5443ZM68.4911 109.701H68.0218V111.232H68.3613C68.5543 111.232 68.7219 111.205 68.8639 111.151C69.0059 111.097 69.1157 111.012 69.1934 110.897C69.2711 110.782 69.3099 110.634 69.3099 110.452C69.3099 110.199 69.2434 110.011 69.1102 109.888C68.9771 109.764 68.7707 109.701 68.4911 109.701ZM79.6192 113.962H78.5907V109.716H77.3985C77.372 109.936 77.3432 110.178 77.3121 110.439C77.2811 110.699 77.2493 110.963 77.216 111.228C77.1826 111.494 77.147 111.747 77.1092 111.987C77.0736 112.227 77.038 112.437 77.0024 112.618C76.9448 112.919 76.866 113.175 76.7661 113.387C76.6691 113.596 76.5343 113.756 76.3639 113.866C76.195 113.977 75.9746 114.032 75.7013 114.032C75.6102 114.032 75.5226 114.025 75.4383 114.012C75.3562 113.997 75.2796 113.979 75.2087 113.955V113.059C75.2663 113.08 75.324 113.097 75.3817 113.112C75.4394 113.124 75.5027 113.13 75.5715 113.13C75.6602 113.13 75.7334 113.099 75.7913 113.038C75.8511 112.975 75.9041 112.867 75.9511 112.717C75.9973 112.564 76.0442 112.353 76.0904 112.085C76.1109 111.968 76.1374 111.802 76.1707 111.588C76.2041 111.372 76.2419 111.119 76.2836 110.83C76.326 110.538 76.3692 110.221 76.4139 109.878C76.4601 109.534 76.5048 109.177 76.5464 108.805H79.6192V113.962ZM85.1892 113.962L84.8363 112.735H83.0624L82.7095 113.962H81.5984L83.3154 108.785H84.5773L86.3011 113.962H85.1892ZM84.5901 111.817L84.2372 110.618C84.2152 110.538 84.1857 110.436 84.1478 110.312C84.1122 110.184 84.0759 110.057 84.038 109.927C84.0024 109.796 83.9736 109.682 83.9509 109.585C83.9289 109.682 83.8979 109.801 83.8577 109.945C83.8206 110.085 83.7835 110.22 83.7479 110.347C83.7131 110.474 83.6873 110.565 83.6714 110.618L83.3222 111.817H84.5901ZM91.6416 110.012C91.6416 110.358 91.5258 110.636 91.2925 110.848C91.0592 111.059 90.7646 111.192 90.4071 111.246V111.268C90.8509 111.314 91.1925 111.445 91.4326 111.658C91.6719 111.873 91.7916 112.151 91.7916 112.495C91.7916 112.796 91.7144 113.062 91.5591 113.295C91.4038 113.526 91.1736 113.707 90.8698 113.838C90.5661 113.967 90.1897 114.032 89.7413 114.032C89.3732 114.032 89.046 114.009 88.7597 113.962C88.4757 113.912 88.2295 113.843 88.0205 113.754V112.837C88.1628 112.907 88.3212 112.968 88.4969 113.02C88.6741 113.069 88.8536 113.109 89.0361 113.137C89.2179 113.162 89.3861 113.175 89.5421 113.175C89.9723 113.175 90.2836 113.109 90.4767 112.978C90.6722 112.846 90.7699 112.659 90.7699 112.417C90.7699 112.17 90.629 111.99 90.3472 111.878C90.0655 111.764 89.686 111.708 89.2088 111.708H88.7529V110.854H89.1626C89.5482 110.854 89.8481 110.829 90.0609 110.777C90.276 110.723 90.426 110.646 90.5101 110.548C90.5972 110.447 90.6403 110.325 90.6403 110.184C90.6403 110.008 90.5661 109.868 90.4169 109.765C90.2685 109.659 90.0473 109.606 89.7549 109.606C89.502 109.606 89.2656 109.645 89.046 109.723C88.8263 109.798 88.6211 109.899 88.4302 110.026L87.9803 109.296C88.1469 109.18 88.3249 109.081 88.5135 108.996C88.7044 108.911 88.9127 108.846 89.1392 108.802C89.3656 108.755 89.6186 108.732 89.8981 108.732C90.2639 108.732 90.5767 108.787 90.8365 108.897C91.0963 109.008 91.2948 109.159 91.4326 109.352C91.572 109.543 91.6416 109.763 91.6416 110.012ZM96.8663 113.962H94.0639V108.805H96.8663V109.701H95.0955V110.833H96.7436V111.729H95.0955V113.059H96.8663V113.962ZM100.803 108.805C101.43 108.805 101.889 108.949 102.177 109.236C102.466 109.52 102.61 109.913 102.61 110.414C102.61 110.639 102.578 110.856 102.514 111.063C102.449 111.268 102.344 111.45 102.197 111.61C102.053 111.769 101.86 111.896 101.618 111.99C101.376 112.082 101.077 112.128 100.723 112.128H100.28V113.962H99.2483V108.805H100.803ZM100.75 109.701H100.28V111.232H100.619C100.812 111.232 100.98 111.205 101.122 111.151C101.264 111.097 101.374 111.012 101.452 110.897C101.53 110.782 101.568 110.634 101.568 110.452C101.568 110.199 101.502 110.011 101.368 109.888C101.235 109.764 101.029 109.701 100.75 109.701ZM108.88 113.962H107.851V111.736H105.924V113.962H104.892V108.805H105.924V110.826H107.851V108.805H108.88V113.962ZM115.891 111.377C115.891 111.774 115.845 112.136 115.752 112.463C115.658 112.788 115.516 113.067 115.325 113.302C115.137 113.537 114.897 113.719 114.606 113.845C114.316 113.97 113.972 114.032 113.575 114.032C113.177 114.032 112.833 113.97 112.542 113.845C112.252 113.719 112.012 113.537 111.821 113.302C111.632 113.067 111.491 112.786 111.398 112.459C111.305 112.133 111.258 111.769 111.258 111.37C111.258 110.836 111.34 110.371 111.504 109.976C111.671 109.579 111.926 109.271 112.27 109.053C112.614 108.833 113.051 108.724 113.582 108.724C114.11 108.724 114.544 108.833 114.883 109.053C115.224 109.271 115.477 109.579 115.642 109.976C115.808 110.374 115.891 110.841 115.891 111.377ZM112.339 111.377C112.339 111.736 112.382 112.047 112.466 112.308C112.553 112.566 112.687 112.766 112.869 112.907C113.051 113.046 113.286 113.115 113.575 113.115C113.867 113.115 114.105 113.046 114.287 112.907C114.469 112.766 114.601 112.566 114.683 112.308C114.767 112.047 114.809 111.736 114.809 111.377C114.809 110.836 114.714 110.411 114.523 110.1C114.332 109.789 114.019 109.634 113.582 109.634C113.291 109.634 113.053 109.705 112.869 109.846C112.687 109.984 112.553 110.184 112.466 110.446C112.382 110.704 112.339 111.015 112.339 111.377ZM118.263 108.805H119.192V111.296C119.192 111.418 119.19 111.553 119.185 111.701C119.183 111.849 119.178 111.995 119.172 112.138C119.168 112.28 119.163 112.403 119.158 112.508C119.154 112.614 119.149 112.685 119.145 112.72H119.165L121.412 108.805H122.647V113.962H121.728V111.486C121.728 111.354 121.731 111.211 121.734 111.056C121.739 110.901 121.745 110.75 121.751 110.604C121.76 110.459 121.768 110.333 121.775 110.227C121.781 110.118 121.786 110.047 121.788 110.012H121.762L119.505 113.962H118.263V108.805ZM122.184 107.109C122.159 107.358 122.093 107.578 121.984 107.769C121.875 107.96 121.706 108.107 121.475 108.213C121.244 108.319 120.934 108.372 120.543 108.372C120.142 108.372 119.829 108.321 119.605 108.22C119.38 108.117 119.221 107.971 119.125 107.783C119.03 107.592 118.972 107.368 118.952 107.109H119.861C119.881 107.374 119.944 107.551 120.051 107.639C120.157 107.723 120.328 107.765 120.563 107.765C120.758 107.765 120.918 107.718 121.042 107.624C121.166 107.53 121.241 107.358 121.266 107.109H122.184ZM5.13293 118.436H6.06158V120.926C6.06158 121.048 6.05936 121.184 6.05493 121.332C6.05271 121.48 6.04827 121.625 6.04161 121.769C6.03717 121.91 6.03273 122.034 6.0283 122.139C6.02386 122.245 6.01942 122.316 6.01498 122.351H6.03495L8.28169 118.436H9.5165V123.592H8.59791V121.116C8.59791 120.985 8.60011 120.841 8.6045 120.686C8.60897 120.531 8.6145 120.381 8.62116 120.234C8.63002 120.089 8.63783 119.963 8.64449 119.857C8.65116 119.749 8.65555 119.678 8.65782 119.642H8.63116L6.37446 123.592H5.13293V118.436ZM17.3025 123.592L16.1309 119.547H16.1009C16.1054 119.644 16.1121 119.789 16.1209 119.984C16.132 120.178 16.142 120.383 16.1508 120.601C16.1597 120.82 16.1642 121.018 16.1642 121.194V123.592H15.2422V118.436H16.6468L17.7984 122.379H17.8184L19.04 118.436H20.4446V123.592H19.4827V121.152C19.4827 120.99 19.4849 120.803 19.4893 120.591C19.4959 120.38 19.5037 120.178 19.5126 119.988C19.5215 119.796 19.5281 119.65 19.5326 119.554H19.5026L18.2478 123.592H17.3025ZM25.8387 123.592H23.0362V118.436H25.8387V119.332H24.068V120.464H25.7156V121.36H24.068V122.689H25.8387V123.592ZM32.0317 118.436V122.682H32.6808V125.095H31.6855V123.592H28.6366V125.095H27.6414V122.682H28.0175C28.144 122.414 28.266 122.131 28.3837 121.832C28.5013 121.534 28.6111 121.213 28.7132 120.869C28.8152 120.527 28.9073 120.153 28.9894 119.751C29.0715 119.349 29.1403 118.911 29.1958 118.436H32.0317ZM31.0032 119.346H30.0146C29.9813 119.596 29.9358 119.861 29.8782 120.143C29.8205 120.426 29.7517 120.714 29.6718 121.007C29.5942 121.299 29.5064 121.587 29.4088 121.871C29.3134 122.156 29.2114 122.426 29.1026 122.682H31.0032V119.346ZM34.7963 118.436H35.725V120.926C35.725 121.048 35.7228 121.184 35.7183 121.332C35.7161 121.48 35.7116 121.625 35.705 121.769C35.7006 121.91 35.6961 122.034 35.6916 122.139C35.6872 122.245 35.6828 122.316 35.6784 122.351H35.6983L37.945 118.436H39.1799V123.592H38.2612V121.116C38.2612 120.985 38.2635 120.841 38.2679 120.686C38.2724 120.531 38.2779 120.381 38.2846 120.234C38.2934 120.089 38.3012 119.963 38.3078 119.857C38.3145 119.749 38.3189 119.678 38.3211 119.642H38.2946L36.0378 123.592H34.7963V118.436ZM46.3481 122.725V125.095H45.3529V123.592H41.7715V118.436H42.8033V122.682H44.594V118.436H45.6225V122.725H46.3481ZM48.4603 118.436H49.389V120.926C49.389 121.048 49.3868 121.184 49.3823 121.332C49.3801 121.48 49.3757 121.625 49.3691 121.769C49.3646 121.91 49.3601 122.034 49.3557 122.139C49.3513 122.245 49.3469 122.316 49.3424 122.351H49.3624L51.6091 118.436H52.8439V123.592H51.9253V121.116C51.9253 120.985 51.9275 120.841 51.9319 120.686C51.9364 120.531 51.9419 120.381 51.9486 120.234C51.9574 120.089 51.9653 119.963 51.9719 119.857C51.9786 119.749 51.983 119.678 51.9852 119.642H51.9586L49.7019 123.592H48.4603V118.436ZM59.423 123.592H58.3946V121.367H56.4673V123.592H55.4355V118.436H56.4673V120.457H58.3946V118.436H59.423V123.592ZM64.0849 119.272C63.8874 119.272 63.7121 119.313 63.559 119.396C63.4081 119.475 63.2805 119.592 63.1762 119.745C63.0742 119.897 62.9964 120.082 62.9432 120.299C62.8899 120.515 62.8634 120.758 62.8634 121.028C62.8634 121.393 62.9055 121.704 62.9899 121.963C63.0763 122.219 63.2095 122.416 63.3892 122.552C63.569 122.686 63.8009 122.753 64.0849 122.753C64.2824 122.753 64.4798 122.73 64.6774 122.682C64.8771 122.636 65.0934 122.568 65.3264 122.482V123.398C65.1111 123.492 64.8992 123.559 64.6907 123.6C64.4821 123.642 64.248 123.663 63.9884 123.663C63.4869 123.663 63.0742 123.554 62.7501 123.335C62.4284 123.114 62.1899 122.806 62.0345 122.411C61.8792 122.014 61.8015 121.551 61.8015 121.021C61.8015 120.631 61.8515 120.274 61.9514 119.949C62.0512 119.625 62.1977 119.344 62.3907 119.106C62.5837 118.869 62.8223 118.686 63.1063 118.556C63.3904 118.426 63.7165 118.362 64.0849 118.362C64.3268 118.362 64.5686 118.395 64.8105 118.461C65.0546 118.524 65.2875 118.613 65.5095 118.726L65.1767 119.614C64.9946 119.523 64.8116 119.442 64.6275 119.374C64.4433 119.306 64.2624 119.272 64.0849 119.272ZM71.6958 123.592H70.5241L68.7601 120.979V123.592H67.7282V118.436H68.7601V120.934L70.5042 118.436H71.6025L69.8285 120.912L71.6958 123.592ZM78.0885 121.007C78.0885 121.405 78.0415 121.767 77.9484 122.093C77.8552 122.418 77.7136 122.698 77.5227 122.933C77.3341 123.168 77.094 123.349 76.8039 123.476C76.5131 123.6 76.1692 123.663 75.7716 123.663C75.3746 123.663 75.0307 123.6 74.74 123.476C74.4493 123.349 74.2086 123.168 74.0177 122.933C73.8291 122.698 73.6882 122.417 73.595 122.09C73.5018 121.763 73.4552 121.4 73.4552 121C73.4552 120.466 73.5373 120.002 73.7015 119.607C73.868 119.21 74.1231 118.901 74.4671 118.683C74.811 118.464 75.2481 118.355 75.7784 118.355C76.3063 118.355 76.7403 118.464 77.0796 118.683C77.422 118.901 77.6749 119.21 77.8386 119.607C78.0052 120.004 78.0885 120.471 78.0885 121.007ZM74.537 121.007C74.537 121.367 74.5791 121.677 74.6635 121.938C74.75 122.197 74.8843 122.397 75.0662 122.538C75.2481 122.677 75.4834 122.746 75.7716 122.746C76.0647 122.746 76.3025 122.677 76.4843 122.538C76.6661 122.397 76.7979 122.197 76.8804 121.938C76.9645 121.677 77.0069 121.367 77.0069 121.007C77.0069 120.466 76.9115 120.041 76.7206 119.731C76.5297 119.42 76.2154 119.265 75.7784 119.265C75.4878 119.265 75.2504 119.336 75.0662 119.477C74.8843 119.615 74.75 119.815 74.6635 120.076C74.5791 120.335 74.537 120.645 74.537 121.007ZM80.46 118.436H81.3893V120.926C81.3893 121.048 81.387 121.184 81.3825 121.332C81.3802 121.48 81.3757 121.625 81.3689 121.769C81.3643 121.91 81.3598 122.034 81.356 122.139C81.3514 122.245 81.3469 122.316 81.3423 122.351H81.362L83.6093 118.436H84.8439V123.592H83.9251V121.116C83.9251 120.985 83.9274 120.841 83.9319 120.686C83.9365 120.531 83.9418 120.381 83.9486 120.234C83.9577 120.089 83.9653 119.963 83.9721 119.857C83.9781 119.749 83.9827 119.678 83.985 119.642H83.9585L81.7021 123.592H80.46V118.436ZM84.3811 116.739C84.3568 116.989 84.2902 117.209 84.1819 117.399C84.0728 117.59 83.9032 117.738 83.6721 117.844C83.4419 117.95 83.1306 118.003 82.7405 118.003C82.3383 118.003 82.0255 117.952 81.8013 117.851C81.5779 117.747 81.4181 117.601 81.3227 117.414C81.2272 117.223 81.1697 116.999 81.1492 116.739H82.0581C82.0778 117.005 82.1414 117.182 82.2475 117.269C82.3542 117.353 82.5254 117.396 82.7602 117.396C82.9556 117.396 83.1154 117.349 83.2397 117.255C83.3639 117.161 83.4381 116.989 83.4623 116.739H84.3811ZM94.5372 123.592H93.3655L91.6015 120.979V123.592H90.5699V118.436H91.6015V120.934L93.3458 118.436H94.4441L92.6695 120.912L94.5372 123.592ZM100.93 121.007C100.93 121.405 100.883 121.767 100.79 122.093C100.697 122.418 100.555 122.698 100.364 122.933C100.175 123.168 99.9353 123.349 99.6452 123.476C99.3544 123.6 99.0105 123.663 98.6129 123.663C98.216 123.663 97.8721 123.6 97.5813 123.476C97.2904 123.349 97.0496 123.168 96.8587 122.933C96.6701 122.698 96.5292 122.417 96.4361 122.09C96.3429 121.763 96.2967 121.4 96.2967 121C96.2967 120.466 96.3785 120.002 96.5429 119.607C96.7095 119.21 96.9648 118.901 97.3086 118.683C97.6525 118.464 98.0895 118.355 98.6197 118.355C99.1476 118.355 99.5816 118.464 99.9209 118.683C100.263 118.901 100.516 119.21 100.68 119.607C100.846 120.004 100.93 120.471 100.93 121.007ZM97.3783 121.007C97.3783 121.367 97.4207 121.677 97.5048 121.938C97.5911 122.197 97.7252 122.397 97.9077 122.538C98.0895 122.677 98.3251 122.746 98.6129 122.746C98.906 122.746 99.1438 122.677 99.3256 122.538C99.5074 122.397 99.6392 122.197 99.7217 121.938C99.8058 121.677 99.8482 121.367 99.8482 121.007C99.8482 120.466 99.7528 120.041 99.5619 119.731C99.371 119.42 99.0567 119.265 98.6197 119.265C98.3288 119.265 98.0918 119.336 97.9077 119.477C97.7252 119.615 97.5911 119.815 97.5048 120.076C97.4207 120.335 97.3783 120.645 97.3783 121.007ZM105.369 119.272C105.171 119.272 104.996 119.313 104.843 119.396C104.692 119.475 104.565 119.592 104.46 119.745C104.358 119.897 104.281 120.082 104.227 120.299C104.174 120.515 104.147 120.758 104.147 121.028C104.147 121.393 104.189 121.704 104.274 121.963C104.36 122.219 104.493 122.416 104.673 122.552C104.852 122.686 105.085 122.753 105.369 122.753C105.566 122.753 105.764 122.73 105.961 122.682C106.16 122.636 106.377 122.568 106.61 122.482V123.398C106.395 123.492 106.183 123.559 105.974 123.6C105.766 123.642 105.532 123.663 105.272 123.663C104.771 123.663 104.358 123.554 104.034 123.335C103.713 123.114 103.474 122.806 103.318 122.411C103.163 122.014 103.085 121.551 103.085 121.021C103.085 120.631 103.135 120.274 103.235 119.949C103.335 119.625 103.482 119.344 103.675 119.106C103.868 118.869 104.106 118.686 104.39 118.556C104.674 118.426 105 118.362 105.369 118.362C105.611 118.362 105.852 118.395 106.095 118.461C106.338 118.524 106.571 118.613 106.793 118.726L106.46 119.614C106.279 119.523 106.095 119.442 105.911 119.374C105.727 119.306 105.546 119.272 105.369 119.272ZM111.072 123.592L109.901 119.547H109.871C109.875 119.644 109.882 119.789 109.891 119.984C109.902 120.178 109.912 120.383 109.92 120.601C109.929 120.82 109.934 121.018 109.934 121.194V123.592H109.012V118.436H110.416L111.568 122.379H111.588L112.81 118.436H114.214V123.592H113.252V121.152C113.252 120.99 113.254 120.803 113.259 120.591C113.266 120.38 113.273 120.178 113.282 119.988C113.292 119.796 113.298 119.65 113.302 119.554H113.273L112.018 123.592H111.072ZM119.608 123.592H116.806V118.436H119.608V119.332H117.838V120.464H119.486V121.36H117.838V122.689H119.608V123.592ZM123.867 123.592H122.836V119.346H121.515V118.436H125.189V119.346H123.867V123.592ZM131.718 121.007C131.718 121.405 131.672 121.767 131.579 122.093C131.485 122.418 131.343 122.698 131.152 122.933C130.964 123.168 130.724 123.349 130.433 123.476C130.142 123.6 129.799 123.663 129.402 123.663C129.004 123.663 128.66 123.6 128.369 123.476C128.079 123.349 127.838 123.168 127.648 122.933C127.459 122.698 127.318 122.417 127.225 122.09C127.132 121.763 127.085 121.4 127.085 121C127.085 120.466 127.167 120.002 127.331 119.607C127.498 119.21 127.753 118.901 128.097 118.683C128.441 118.464 128.878 118.355 129.409 118.355C129.936 118.355 130.37 118.464 130.71 118.683C131.051 118.901 131.304 119.21 131.469 119.607C131.635 120.004 131.718 120.471 131.718 121.007ZM128.166 121.007C128.166 121.367 128.209 121.677 128.293 121.938C128.38 122.197 128.514 122.397 128.696 122.538C128.878 122.677 129.113 122.746 129.402 122.746C129.694 122.746 129.932 122.677 130.114 122.538C130.295 122.397 130.428 122.197 130.51 121.938C130.594 121.677 130.636 121.367 130.636 121.007C130.636 120.466 130.541 120.041 130.35 119.731C130.159 119.42 129.846 119.265 129.409 119.265C129.118 119.265 128.88 119.336 128.696 119.477C128.514 119.615 128.38 119.815 128.293 120.076C128.209 120.335 128.166 120.645 128.166 121.007ZM137.941 123.592H136.912V119.346H135.721C135.694 119.567 135.666 119.808 135.634 120.069C135.603 120.33 135.571 120.593 135.538 120.859C135.505 121.125 135.469 121.377 135.431 121.617C135.396 121.857 135.36 122.068 135.325 122.249C135.267 122.55 135.188 122.806 135.088 123.018C134.991 123.226 134.857 123.387 134.686 123.497C134.517 123.608 134.296 123.663 134.023 123.663C133.933 123.663 133.845 123.656 133.761 123.642C133.678 123.628 133.602 123.609 133.531 123.585V122.689C133.589 122.71 133.646 122.728 133.704 122.742C133.761 122.754 133.825 122.76 133.894 122.76C133.983 122.76 134.056 122.73 134.114 122.669C134.173 122.605 134.226 122.498 134.273 122.348C134.32 122.194 134.367 121.984 134.413 121.716C134.433 121.599 134.46 121.433 134.493 121.218C134.526 121.003 134.563 120.75 134.606 120.461C134.648 120.169 134.691 119.852 134.735 119.508C134.782 119.165 134.827 118.808 134.869 118.436H137.941V123.592ZM144.95 121.007C144.95 121.405 144.903 121.767 144.81 122.093C144.717 122.418 144.574 122.698 144.383 122.933C144.195 123.168 143.955 123.349 143.665 123.476C143.374 123.6 143.03 123.663 142.633 123.663C142.236 123.663 141.891 123.6 141.601 123.476C141.311 123.349 141.07 123.168 140.879 122.933C140.69 122.698 140.549 122.417 140.456 122.09C140.363 121.763 140.316 121.4 140.316 121C140.316 120.466 140.399 120.002 140.563 119.607C140.729 119.21 140.984 118.901 141.328 118.683C141.672 118.464 142.11 118.355 142.64 118.355C143.168 118.355 143.602 118.464 143.941 118.683C144.283 118.901 144.536 119.21 144.7 119.607C144.867 120.004 144.95 120.471 144.95 121.007ZM141.398 121.007C141.398 121.367 141.44 121.677 141.525 121.938C141.611 122.197 141.745 122.397 141.927 122.538C142.11 122.677 142.344 122.746 142.633 122.746C142.926 122.746 143.163 122.677 143.345 122.538C143.527 122.397 143.659 122.197 143.741 121.938C143.826 121.677 143.868 121.367 143.868 121.007C143.868 120.466 143.772 120.041 143.581 119.731C143.39 119.42 143.077 119.265 142.64 119.265C142.349 119.265 142.111 119.336 141.927 119.477C141.745 119.615 141.611 119.815 141.525 120.076C141.44 120.335 141.398 120.645 141.398 121.007ZM150.397 118.436V119.339H148.353V123.592H147.321V118.436H150.397ZM152.513 118.436H153.441V120.926C153.441 121.048 153.439 121.184 153.434 121.332C153.432 121.48 153.428 121.625 153.421 121.769C153.417 121.91 153.412 122.034 153.408 122.139C153.403 122.245 153.399 122.316 153.394 122.351H153.415L155.661 118.436H156.896V123.592H155.977V121.116C155.977 120.985 155.979 120.841 155.984 120.686C155.988 120.531 155.994 120.381 156.001 120.234C156.01 120.089 156.017 119.963 156.024 119.857C156.031 119.749 156.035 119.678 156.038 119.642H156.01L153.754 123.592H152.513V118.436ZM159.488 118.436H160.416V120.926C160.416 121.048 160.414 121.184 160.409 121.332C160.407 121.48 160.403 121.625 160.397 121.769C160.392 121.91 160.387 122.034 160.383 122.139C160.378 122.245 160.374 122.316 160.369 122.351H160.39L162.636 118.436H163.872V123.592H162.953V121.116C162.953 120.985 162.955 120.841 162.959 120.686C162.963 120.531 162.969 120.381 162.976 120.234C162.985 120.089 162.992 119.963 162.999 119.857C163.006 119.749 163.01 119.678 163.013 119.642H162.986L160.729 123.592H159.488V118.436Z" fill="#814684"/>
</svg>
