<svg width="151" height="118" viewBox="0 0 151 118" fill="none" xmlns="http://www.w3.org/2000/svg">
<path d="M36.921 16.2371C39.7623 15.2859 42.7435 14.8195 45.7397 14.8574C48.8736 14.8109 51.9808 15.4411 54.8489 16.7051C57.6149 17.8459 60.0724 19.6234 62.0217 21.893C64.1912 24.3698 65.8697 27.2366 66.9677 30.3407C68.2659 33.9793 69.0508 37.7812 69.2994 41.6364H35.751V50.7538H69.3962C69.3375 55.1979 68.7167 59.6169 67.5486 63.9053C66.5976 67.3939 64.9509 70.6544 62.7075 73.4905C60.5502 76.0442 57.8259 78.0583 54.7521 79.3723L45.1588 90.4583C52.657 90.4583 58.8616 88.6889 63.7726 85.1493C68.6836 81.6097 72.3977 76.5699 74.915 70.0292C77.3732 63.4722 78.6023 55.6996 78.6023 46.7114C78.6575 41.2202 77.9736 35.7464 76.569 30.4375C75.4065 25.7564 73.3578 21.3414 70.5339 17.4312C67.8752 13.7704 64.3522 10.824 60.279 8.85452C55.782 6.67991 50.8301 5.61209 45.8365 5.74016C42.275 5.73178 38.7256 6.15715 35.2669 7.0069C32.0772 7.76292 29.0105 8.96627 26.1577 10.5812L29.7482 19.2385C32.0401 18.0162 34.4415 17.0113 36.921 16.2371Z" fill="#9F9F9F"/>
<path d="M81.0228 1.92381C72.5672 3.41647 66.298 8.09613 62.6269 15.5917C60.5291 19.876 60.2871 21.8205 58.8347 38.2235C57.7536 50.6005 56.3658 59.8388 54.5262 66.4629C52.6866 73.0871 50.4275 77.0003 47.7326 78.8479C46.1916 79.8726 43.4402 80.744 39.874 81.1393C38.4863 81.2765 37.4051 81.3895 36.5498 81.5347C35.7773 81.6364 35.0288 81.8736 34.3391 82.2366C33.7021 82.6078 33.1519 83.1113 32.7254 83.7132C32.2736 84.3264 31.8056 85.109 31.2166 86.0853C30.5228 87.1906 29.9015 88.2718 29.4577 89.1351C29.2399 89.5627 29.0543 89.942 28.9252 90.2324C28.8607 90.3857 28.8042 90.5229 28.7638 90.6439C28.7133 90.7924 28.6835 90.9473 28.6751 91.1038C28.6717 91.3168 28.7529 91.5234 28.901 91.6767C28.972 91.7582 29.0566 91.8259 29.1511 91.8784C29.2592 91.9308 29.3728 91.972 29.49 91.9994C29.7241 92.0535 29.9612 92.0938 30.2 92.1204C30.7487 92.1769 31.5313 92.2253 32.4753 92.2576C34.3552 92.3141 36.9533 92.3141 39.8337 92.2576C45.651 92.0559 49.5722 91.6363 52.5172 90.5874C55.316 89.5942 57.7132 87.7127 59.3431 85.23C66.1044 75.9917 68.775 65.2123 71.0342 38.0299C72.0831 25.9757 72.6478 22.7403 74.1889 19.4242C75.034 17.5772 76.2572 15.928 77.7793 14.5832C78.8765 13.5423 80.3043 12.9199 81.8135 12.8242H81.991C82.0128 12.859 82.0298 12.8972 82.0395 12.9372C82.1766 13.3506 82.2654 13.7783 82.3057 14.212C82.3864 14.8736 82.4509 15.7611 82.5074 16.9714C82.7414 21.8124 82.7817 31.4461 82.8624 50.6569L82.6204 86.7146C82.6131 87.4416 82.7632 88.1613 83.0617 88.8245C83.3594 89.4877 83.7984 90.0783 84.347 90.5552L85.2265 91.362C86.4634 92.5005 88.0964 93.1112 89.777 93.0644C91.4658 92.8974 93.0286 92.0954 94.1501 90.8214L94.8763 90.1033C95.8146 89.098 96.3487 87.7829 96.377 86.408V62.8241C96.377 45.3883 96.8046 34.4475 98.0956 27.2425C99.3865 20.0374 101.508 16.7536 104.825 14.4299L105.631 13.857C105.954 13.623 106.237 13.4213 106.519 13.2357C106.768 13.034 107.061 12.8932 107.374 12.8242C107.427 12.879 107.47 12.9416 107.503 13.0098C107.769 13.6697 107.932 14.3662 107.987 15.0753C108.262 17.2538 108.391 20.9168 108.439 26.8148C108.48 31.3251 108.48 37.1263 108.439 44.5169V92.3544H122.156V49.7049C122.156 38.2074 122.091 27.5975 122.002 19.755C122.002 15.8338 121.905 12.6064 121.849 10.3069C121.849 9.15313 121.792 8.2333 121.76 7.57169C121.76 7.24089 121.76 6.96656 121.712 6.76485C121.704 6.58544 121.68 6.40713 121.639 6.23234V6.13551C121.05 4.58638 119.598 3.54556 117.847 2.90816C115.862 2.23707 113.778 1.90697 111.683 1.93188C107.051 1.93188 101.71 3.18248 98.031 5.76437C97.4743 6.15972 97.0305 6.45825 96.6755 6.66803C96.5787 6.72977 96.4795 6.78633 96.377 6.83746C96.3358 6.61421 96.2737 6.39537 96.1914 6.18393C96.0567 5.84981 95.8921 5.52847 95.6992 5.22379C95.2611 4.51888 94.7448 3.86646 94.1582 3.2793C93.5797 2.63469 92.8769 2.11319 92.0919 1.74586C91.3076 1.37852 90.4572 1.17288 89.5915 1.14118C87.5744 0.971744 84.9199 1.29448 81.0228 1.92381Z" fill="#814684" stroke="white" stroke-width="2"/>
<path d="M41.4877 105.925V108.306H40.3985V106.797H36.5821V101.617H37.6794V105.885H39.5835V101.617H40.6808V105.925H41.4877ZM45.9979 106.797H43.0126V101.617H45.9979V102.513H44.0776V103.65H45.8366V104.57H44.0776V105.909H45.9656L45.9979 106.797ZM52.0573 106.797H50.9277V104.57H48.8783V106.805H47.773V101.625H48.8783V103.658H50.9277V101.625H52.025L52.0573 106.797ZM56.0915 106.797H54.9619V102.529H53.5903V101.617H57.5034V102.529H56.0592L56.0915 106.797ZM60.6824 101.617C61.2055 101.573 61.7263 101.725 62.1428 102.045C62.2986 102.199 62.4201 102.384 62.4994 102.588C62.5786 102.792 62.6138 103.012 62.6027 103.231C62.6033 103.452 62.5706 103.672 62.5059 103.884C62.4342 104.09 62.3186 104.277 62.167 104.433C61.9923 104.608 61.7797 104.74 61.5457 104.82C61.2382 104.919 60.9165 104.965 60.5936 104.957H60.1257V106.797H58.9961V101.617H60.6824ZM60.6259 102.513H60.1257V104.054H60.4888C60.6697 104.058 60.8499 104.031 61.0213 103.973C61.1634 103.925 61.2874 103.835 61.3763 103.715C61.4626 103.583 61.505 103.428 61.4973 103.271C61.5059 103.167 61.4916 103.063 61.4553 102.965C61.419 102.868 61.3618 102.779 61.2875 102.706C61.0898 102.554 60.8413 102.485 60.5936 102.513H60.6259ZM71.0261 106.797H69.9288V102.529H68.662C68.662 102.755 68.6056 102.997 68.5652 103.255L68.4684 104.062C68.4281 104.328 68.3958 104.578 68.3554 104.82C68.3151 105.062 68.2748 105.272 68.2344 105.457C68.1921 105.737 68.1077 106.009 67.9843 106.264C67.8934 106.463 67.7443 106.629 67.5567 106.74C67.3436 106.862 67.1001 106.921 66.8547 106.91C66.7608 106.918 66.6662 106.918 66.5723 106.91C66.4897 106.9 66.4085 106.882 66.3303 106.853V105.958C66.3908 105.979 66.4528 105.995 66.5158 106.006C66.5828 106.014 66.6506 106.014 66.7176 106.006C66.761 106.007 66.8042 105.998 66.8445 105.982C66.8847 105.965 66.921 105.94 66.9515 105.909C67.0293 105.814 67.087 105.704 67.121 105.587C67.1827 105.378 67.2312 105.165 67.2662 104.949C67.2662 104.836 67.3146 104.667 67.355 104.449C67.3953 104.231 67.4276 103.981 67.476 103.691C67.5244 103.4 67.5647 103.077 67.6132 102.73C67.6616 102.383 67.71 102.028 67.7503 101.657H71.0261V106.797ZM76.2302 106.797L75.859 105.562H73.971L73.5918 106.797H72.4058L74.2373 101.593H75.5847L77.4162 106.797H76.2302ZM75.5928 104.643L75.2216 103.44L75.1248 103.126L75.0038 102.747C75.0038 102.609 74.9392 102.496 74.915 102.4L74.8182 102.763L74.6972 103.166C74.6569 103.295 74.6327 103.384 74.6165 103.44L74.2454 104.643H75.5928ZM82.3783 102.827C82.3799 102.98 82.3476 103.133 82.2831 103.272C82.2186 103.411 82.125 103.536 82.0072 103.634C81.7393 103.858 81.4109 103.999 81.0632 104.037C81.4593 104.053 81.8418 104.188 82.1605 104.425C82.2775 104.524 82.3727 104.647 82.438 104.787C82.5034 104.926 82.5381 105.077 82.5397 105.232C82.5461 105.52 82.4582 105.804 82.2896 106.038C82.1032 106.289 81.8482 106.479 81.5553 106.587C81.1705 106.727 80.7622 106.793 80.3531 106.781C80.0048 106.783 79.6568 106.759 79.3123 106.708C79.0364 106.669 78.7658 106.598 78.5055 106.498V105.579C78.6702 105.653 78.8401 105.715 79.0138 105.764C79.2021 105.814 79.3934 105.852 79.5866 105.877C79.7654 105.905 79.9463 105.919 80.1272 105.917C80.4719 105.942 80.8171 105.875 81.1277 105.724C81.2237 105.665 81.3028 105.581 81.356 105.483C81.4101 105.383 81.4367 105.272 81.4343 105.159C81.4343 104.909 81.2891 104.731 80.9825 104.618C80.5936 104.484 80.1831 104.424 79.7722 104.441H79.2881V103.586H79.7238C80.0459 103.595 80.368 103.568 80.6839 103.505C80.8615 103.478 81.0277 103.4 81.16 103.279C81.2487 103.179 81.2971 103.05 81.2971 102.916C81.298 102.83 81.277 102.747 81.2358 102.671C81.1947 102.596 81.1358 102.534 81.0632 102.488C80.8461 102.371 80.5995 102.318 80.3531 102.335C80.0985 102.33 79.8448 102.369 79.6028 102.448C79.3696 102.521 79.1471 102.623 78.9412 102.755L78.4651 102.02C78.6434 101.901 78.8326 101.798 79.0299 101.714C79.2468 101.629 79.4709 101.564 79.6996 101.52C79.9658 101.473 80.2361 101.451 80.5064 101.456C80.8469 101.444 81.1866 101.499 81.5069 101.617C81.7554 101.712 81.9757 101.871 82.1443 102.077C82.3033 102.292 82.3759 102.561 82.346 102.827H82.3783ZM87.2193 106.797H84.234V101.617H87.2193V102.513H85.2991V103.65H87.058V104.57H85.2991V105.909H87.1871L87.2193 106.797ZM90.6888 101.617C91.2116 101.573 91.7328 101.725 92.1491 102.045C92.3049 102.199 92.4267 102.384 92.5058 102.588C92.5848 102.792 92.6203 103.012 92.609 103.231C92.6098 103.452 92.5768 103.672 92.5122 103.884C92.4404 104.09 92.325 104.277 92.1733 104.433C91.9991 104.608 91.7861 104.74 91.5521 104.82C91.2447 104.919 90.9227 104.965 90.6 104.957H90.132V106.797H89.0347V101.617H90.6888ZM90.6323 102.513H90.132V104.054H90.4951C90.6758 104.058 90.8566 104.031 91.0276 103.973C91.1688 103.928 91.2907 103.837 91.3746 103.715C91.477 103.561 91.5238 103.378 91.5077 103.195C91.4916 103.011 91.4133 102.838 91.2858 102.706C91.1898 102.63 91.0801 102.574 90.9623 102.541C90.8445 102.508 90.7218 102.498 90.6 102.513H90.6323ZM98.5635 106.797H97.4662V104.57H95.3846V106.805H94.2873V101.625H95.3846V103.658H97.4339V101.625H98.5312L98.5635 106.797ZM105.309 104.199C105.314 104.567 105.264 104.934 105.163 105.288C105.068 105.599 104.912 105.887 104.704 106.135C104.496 106.377 104.233 106.565 103.937 106.684C103.226 106.931 102.453 106.931 101.742 106.684C101.435 106.565 101.159 106.377 100.936 106.135C100.731 105.886 100.581 105.598 100.492 105.288C100.385 104.932 100.333 104.562 100.339 104.191C100.327 103.711 100.418 103.236 100.605 102.795C100.766 102.407 101.049 102.081 101.412 101.867C101.837 101.629 102.32 101.514 102.807 101.536C103.292 101.514 103.773 101.628 104.195 101.867C104.556 102.082 104.838 102.408 105.002 102.795C105.192 103.238 105.285 103.716 105.276 104.199H105.309ZM101.525 104.199C101.519 104.516 101.565 104.832 101.662 105.135C101.739 105.375 101.888 105.587 102.089 105.74C102.317 105.877 102.578 105.95 102.844 105.95C103.11 105.95 103.371 105.877 103.598 105.74C103.799 105.588 103.946 105.376 104.018 105.135C104.119 104.833 104.165 104.517 104.155 104.199C104.181 103.75 104.074 103.304 103.848 102.916C103.739 102.756 103.588 102.628 103.412 102.546C103.236 102.463 103.041 102.429 102.848 102.448C102.579 102.437 102.315 102.511 102.089 102.658C101.888 102.811 101.739 103.022 101.662 103.263C101.554 103.563 101.497 103.879 101.492 104.199H101.525ZM107.108 101.617H108.1V104.118C108.1 104.239 108.1 104.376 108.1 104.53C108.1 104.683 108.1 104.82 108.1 104.965C108.1 105.111 108.1 105.232 108.1 105.336C108.1 105.441 108.1 105.514 108.1 105.554L110.521 101.617H111.836V106.797H110.86V103.876V103.424C110.86 103.279 110.86 103.15 110.86 103.045V102.827L108.439 106.797H107.116L107.108 101.617ZM111.287 99.9064C111.265 100.143 111.191 100.372 111.07 100.576C110.942 100.779 110.752 100.934 110.529 101.02C110.212 101.139 109.875 101.194 109.537 101.181C109.196 101.193 108.857 101.141 108.536 101.028C108.32 100.944 108.14 100.787 108.028 100.584C107.919 100.374 107.855 100.143 107.842 99.9064H108.81C108.805 100.103 108.877 100.295 109.012 100.439C109.177 100.539 109.369 100.584 109.561 100.568C109.74 100.575 109.917 100.528 110.069 100.431C110.142 100.364 110.201 100.283 110.243 100.193C110.284 100.102 110.307 100.006 110.311 99.9064H111.287ZM0 111.299H0.984344V113.8C0.984344 113.921 0.984344 114.058 0.984344 114.212C0.984344 114.365 0.984344 114.502 0.984344 114.647C0.984344 114.793 0.984344 114.914 0.984344 115.019C0.984344 115.123 0.984344 115.196 0.984344 115.236L3.40486 111.299H4.72001V116.479H3.68726V113.994C3.68726 113.857 3.68726 113.711 3.68726 113.558C3.68726 113.405 3.68726 113.252 3.68726 113.106C3.68726 112.961 3.68726 112.832 3.68726 112.727C3.68726 112.622 3.68726 112.542 3.68726 112.509L1.26674 116.479H0V111.299ZM11.5055 116.479L10.263 112.445C10.263 112.542 10.263 112.687 10.263 112.888C10.263 113.09 10.263 113.284 10.263 113.51C10.263 113.736 10.263 113.921 10.263 114.099V116.519H9.31093V111.339H10.8278L12.0542 115.301L13.3532 111.339H14.862V116.519H13.8292V114.099C13.8292 113.937 13.8292 113.752 13.8292 113.534V112.929C13.8292 112.735 13.8292 112.59 13.8292 112.493L12.4899 116.527L11.5055 116.479ZM19.8725 116.479H16.8871V111.299H19.8725V112.195H17.9925V113.332H19.7434V114.252H17.9925V115.591H19.8725V116.479ZM25.7462 111.299V115.567H26.4401V117.988H25.3509V116.479H22.1235V117.988H21.0666V115.567H21.47C21.6072 115.293 21.7363 115.01 21.8573 114.712C21.9783 114.413 22.0993 114.091 22.2123 113.744C22.3252 113.397 22.4221 113.026 22.5028 112.622C22.5834 112.219 22.6641 111.815 22.7287 111.299H25.7462ZM24.6489 112.211H23.6001C23.5624 112.463 23.514 112.733 23.4548 113.018C23.3957 113.302 23.3231 113.593 23.237 113.889C23.1482 114.179 23.0595 114.47 22.9546 114.76C22.8497 115.051 22.7448 115.317 22.6238 115.567H24.6489V112.211ZM27.9651 111.299H28.9575V113.8C28.9575 113.921 28.9575 114.058 28.9575 114.212C28.9575 114.365 28.9575 114.502 28.9575 114.647C28.9575 114.793 28.9575 114.914 28.9575 115.019C28.9575 115.123 28.9575 115.196 28.9575 115.236L31.378 111.299H32.6124V116.479H31.6604V113.558V113.106C31.6604 112.961 31.6604 112.832 31.6604 112.727C31.6604 112.622 31.6604 112.542 31.6604 112.509L29.2399 116.479H27.9651V111.299ZM39.5432 115.608V117.988H38.4862V116.479H34.6699V111.299H35.7672V115.567H37.6794V111.299H38.7686V115.608H39.5432ZM41.0681 111.299H42.0605V113.8C42.0605 113.921 42.0605 114.058 42.0605 114.212C42.0605 114.365 42.0605 114.502 42.0605 114.647C42.0605 114.793 42.0605 114.914 42.0605 115.019C42.0605 115.123 42.0605 115.196 42.0605 115.236L44.4811 111.299H45.7962V116.479H44.7635V113.558V113.106C44.7635 112.961 44.7635 112.832 44.7635 112.727C44.7635 112.622 44.7635 112.542 44.7635 112.509L42.3429 116.479H41.0681V111.299ZM52.025 116.479H50.9277V114.252H48.8703V116.487H47.773V111.307H48.8703V113.34H50.9277V111.307H52.025V116.479ZM56.2609 112.138C56.0684 112.134 55.8777 112.175 55.7042 112.259C55.5407 112.343 55.3996 112.465 55.2927 112.614C55.1777 112.784 55.093 112.972 55.0426 113.171C54.9204 113.723 54.9371 114.297 55.091 114.841C55.1697 115.079 55.3188 115.287 55.5186 115.438C55.7406 115.578 55.9989 115.648 56.2609 115.64C56.4728 115.64 56.6839 115.615 56.8903 115.567C57.1254 115.514 57.3573 115.447 57.5841 115.365V116.285C57.3667 116.378 57.1392 116.446 56.9064 116.487C56.6587 116.531 56.4076 116.552 56.156 116.552C55.6951 116.568 55.2388 116.454 54.8409 116.221C54.4801 116.005 54.1975 115.68 54.034 115.293C53.8639 114.847 53.7817 114.374 53.792 113.897C53.7867 113.531 53.8385 113.166 53.9453 112.816C54.0489 112.508 54.2074 112.22 54.4133 111.969C54.6357 111.725 54.912 111.538 55.2201 111.42C55.5501 111.285 55.9044 111.219 56.2609 111.226C56.5329 111.225 56.8039 111.257 57.0678 111.323C57.3236 111.386 57.5724 111.476 57.81 111.589L57.455 112.485C57.2674 112.391 57.0732 112.31 56.8741 112.243C56.6779 112.17 56.4701 112.135 56.2609 112.138ZM63.6435 116.479H62.3929L60.513 113.857V116.479H59.4157V111.299H60.513V113.808L62.3768 111.299H63.5467L61.6587 113.784L63.6435 116.479ZM69.7271 113.881C69.7334 114.25 69.6816 114.618 69.5738 114.97C69.4858 115.282 69.3317 115.57 69.1219 115.817C68.9028 116.064 68.6255 116.253 68.3151 116.366C67.6044 116.613 66.8312 116.613 66.1205 116.366C65.8119 116.25 65.5354 116.062 65.3137 115.817C65.1094 115.568 64.9583 115.28 64.8699 114.97C64.7626 114.614 64.7109 114.244 64.7166 113.873C64.7057 113.394 64.7965 112.918 64.9828 112.477C65.1444 112.089 65.4275 111.763 65.7897 111.549C66.2151 111.311 66.6985 111.197 67.1855 111.218C67.67 111.196 68.151 111.31 68.5733 111.549C68.934 111.765 69.2167 112.09 69.3801 112.477C69.595 112.914 69.7133 113.394 69.7271 113.881ZM65.943 113.881C65.9371 114.198 65.9835 114.514 66.0802 114.817C66.1579 115.057 66.307 115.269 66.5078 115.422C66.7355 115.559 66.9963 115.632 67.2622 115.632C67.528 115.632 67.7889 115.559 68.0166 115.422C68.2151 115.268 68.3616 115.056 68.4361 114.817C68.5328 114.514 68.5792 114.198 68.5733 113.881C68.5953 113.433 68.489 112.988 68.2667 112.598C68.1568 112.438 68.0061 112.31 67.8302 112.228C67.6542 112.145 67.4595 112.111 67.2662 112.13C66.9978 112.12 66.7328 112.193 66.5078 112.34C66.307 112.493 66.1579 112.705 66.0802 112.945C65.9835 113.248 65.9371 113.564 65.943 113.881ZM71.5263 111.299H72.5187V113.8C72.5187 113.921 72.5187 114.058 72.5187 114.212C72.5187 114.365 72.5187 114.502 72.5187 114.647C72.5187 114.793 72.5187 114.914 72.5187 115.019C72.5254 115.091 72.5254 115.164 72.5187 115.236L74.9392 111.299H76.1818V116.479H75.2055V113.558V113.106C75.2055 112.961 75.2055 112.832 75.2055 112.727C75.2055 112.622 75.2055 112.542 75.2055 112.509L72.785 116.479H71.4618L71.5263 111.299ZM75.7057 109.589C75.6864 109.826 75.6117 110.055 75.4879 110.258C75.36 110.461 75.1705 110.616 74.9473 110.702C74.6306 110.821 74.2931 110.876 73.9549 110.863C73.6147 110.875 73.2755 110.823 72.9544 110.71C72.7397 110.624 72.5606 110.467 72.4461 110.266C72.3369 110.056 72.2736 109.825 72.2605 109.589H73.2288C73.2234 109.785 73.2959 109.977 73.4305 110.121C73.5949 110.221 73.7872 110.266 73.9791 110.25C74.1586 110.257 74.336 110.21 74.4874 110.113C74.5604 110.046 74.6189 109.965 74.6591 109.875C74.6994 109.785 74.7206 109.687 74.7214 109.589H75.7057ZM85.057 116.479H83.8064L81.9265 113.857V116.479H80.8292V111.299H81.9265V113.808L83.7822 111.299H84.9521L83.0641 113.784L85.057 116.479ZM91.1406 113.881C91.143 114.25 91.0914 114.617 90.9873 114.97C90.8993 115.282 90.7452 115.57 90.5355 115.817C90.3144 116.063 90.0376 116.251 89.7286 116.366C89.3776 116.496 89.0057 116.559 88.6313 116.552C88.2569 116.56 87.885 116.497 87.534 116.366C87.2242 116.252 86.9474 116.063 86.7272 115.817C86.5206 115.569 86.3665 115.28 86.2753 114.97C86.1745 114.614 86.1261 114.244 86.1301 113.873C86.1212 113.395 86.2084 112.92 86.3883 112.477C86.5505 112.089 86.8337 111.764 87.1951 111.549C87.6203 111.311 88.1036 111.197 88.591 111.218C89.0727 111.196 89.5511 111.31 89.9707 111.549C90.3329 111.763 90.6161 112.089 90.7775 112.477C91.0034 112.912 91.1325 113.391 91.1567 113.881H91.1406ZM87.3565 113.881C87.3484 114.198 87.392 114.514 87.4856 114.817C87.5663 115.058 87.718 115.269 87.9213 115.422C88.1432 115.569 88.4054 115.642 88.6717 115.632C88.9403 115.642 89.205 115.569 89.4301 115.422C89.6286 115.268 89.7754 115.056 89.8496 114.817C89.9465 114.514 89.9925 114.198 89.9868 113.881C90.0086 113.433 89.9021 112.988 89.6802 112.598C89.5697 112.438 89.4188 112.311 89.2429 112.229C89.067 112.147 88.8734 112.112 88.6797 112.13C88.411 112.119 88.1456 112.192 87.9213 112.34C87.718 112.492 87.5663 112.704 87.4856 112.945C87.3977 113.248 87.3589 113.565 87.3727 113.881H87.3565ZM95.1425 112.138C94.9473 112.134 94.7544 112.176 94.5777 112.259C94.4147 112.341 94.276 112.463 94.1743 112.614C94.0565 112.782 93.9718 112.971 93.9242 113.171C93.7911 113.722 93.808 114.299 93.9726 114.841C94.0476 115.081 94.1977 115.29 94.4002 115.438C94.6213 115.578 94.8803 115.649 95.1425 115.64C95.3547 115.64 95.5653 115.615 95.7718 115.567C96.0066 115.513 96.2382 115.446 96.4657 115.365V116.285C96.2479 116.376 96.0204 116.443 95.788 116.487C95.5403 116.531 95.2894 116.552 95.0376 116.552C94.5737 116.57 94.1146 116.456 93.7144 116.221C93.3707 115.998 93.106 115.674 92.956 115.293C92.6558 114.499 92.6244 113.629 92.8672 112.816C92.9649 112.504 93.1238 112.216 93.3352 111.969C93.5458 111.731 93.808 111.543 94.1017 111.42C94.4317 111.285 94.7859 111.219 95.1425 111.226C95.4144 111.225 95.6855 111.257 95.9493 111.323C96.2051 111.388 96.4536 111.477 96.6916 111.589L96.3366 112.485C96.147 112.389 95.9502 112.308 95.7476 112.243C95.5596 112.171 95.3596 112.136 95.1586 112.138H95.1425ZM100.492 116.479L99.2413 112.445C99.2413 112.542 99.2413 112.687 99.2413 112.888C99.2413 113.09 99.2413 113.284 99.2413 113.51C99.2413 113.736 99.2413 113.921 99.2413 114.099V116.519H98.265V111.339H99.7576L100.984 115.301L102.283 111.339H103.776V116.519H102.807V114.099C102.807 113.937 102.807 113.752 102.807 113.534C102.807 113.316 102.807 113.122 102.807 112.929C102.807 112.735 102.807 112.59 102.807 112.493L101.476 116.527L100.492 116.479ZM108.859 116.479H105.873V111.299H108.859V112.195H106.971V113.332H108.722V114.252H106.971V115.591H108.859V116.479ZM112.667 116.479H111.57V112.211H110.158V111.299H114.103V112.211H112.691L112.667 116.479ZM120.308 113.881C120.31 114.25 120.259 114.617 120.155 114.97C120.067 115.282 119.912 115.57 119.703 115.817C119.482 116.063 119.205 116.251 118.896 116.366C118.183 116.613 117.406 116.613 116.693 116.366C116.399 116.245 116.136 116.057 115.927 115.817C115.72 115.569 115.566 115.28 115.475 114.97C115.374 114.614 115.326 114.244 115.33 113.873C115.321 113.395 115.408 112.92 115.588 112.477C115.752 112.091 116.035 111.765 116.395 111.549C116.823 111.312 117.309 111.197 117.799 111.218C118.28 111.196 118.759 111.31 119.178 111.549C119.538 111.765 119.821 112.091 119.985 112.477C120.197 112.915 120.313 113.394 120.324 113.881H120.308ZM116.524 113.881C116.516 114.198 116.559 114.514 116.653 114.817C116.737 115.054 116.884 115.264 117.08 115.422C117.306 115.568 117.57 115.641 117.839 115.632C118.108 115.642 118.372 115.569 118.597 115.422C118.796 115.268 118.943 115.056 119.017 114.817C119.114 114.514 119.16 114.198 119.154 113.881C119.176 113.433 119.069 112.988 118.847 112.598C118.737 112.438 118.586 112.311 118.41 112.229C118.234 112.147 118.041 112.112 117.847 112.13C117.576 112.12 117.309 112.193 117.08 112.34C116.884 112.498 116.737 112.708 116.653 112.945C116.559 113.248 116.516 113.564 116.524 113.881ZM126.206 116.479H125.109V112.211H123.842C123.842 112.437 123.785 112.679 123.753 112.937C123.721 113.195 123.68 113.469 123.648 113.744C123.616 114.018 123.576 114.26 123.535 114.502C123.495 114.744 123.455 114.954 123.422 115.14C123.371 115.418 123.287 115.688 123.172 115.946C123.079 116.146 122.926 116.311 122.736 116.422C122.523 116.544 122.28 116.603 122.034 116.592C121.941 116.6 121.846 116.6 121.752 116.592C121.67 116.582 121.588 116.564 121.51 116.535V115.64C121.571 115.661 121.633 115.677 121.696 115.688C121.763 115.696 121.83 115.696 121.897 115.688C121.941 115.689 121.984 115.68 122.024 115.664C122.064 115.647 122.101 115.622 122.131 115.591C122.212 115.498 122.269 115.388 122.301 115.269C122.362 115.06 122.411 114.847 122.446 114.631C122.446 114.518 122.502 114.349 122.535 114.131C122.567 113.913 122.607 113.663 122.656 113.373C122.704 113.082 122.744 112.759 122.793 112.412C122.841 112.066 122.89 111.71 122.93 111.339H126.206V116.479ZM132.951 113.881C132.953 114.25 132.902 114.617 132.798 114.97C132.71 115.282 132.556 115.57 132.346 115.817C132.136 116.057 131.874 116.245 131.579 116.366C130.866 116.613 130.09 116.613 129.377 116.366C129.082 116.245 128.82 116.057 128.61 115.817C128.404 115.569 128.25 115.28 128.158 114.97C128.058 114.614 128.009 114.244 128.013 113.873C128.004 113.395 128.091 112.92 128.271 112.477C128.436 112.091 128.718 111.765 129.078 111.549C129.504 111.312 129.987 111.197 130.474 111.218C130.959 111.195 131.44 111.309 131.862 111.549C132.225 111.762 132.508 112.088 132.669 112.477C132.867 112.918 132.969 113.397 132.967 113.881H132.951ZM129.167 113.881C129.159 114.198 129.202 114.514 129.296 114.817C129.377 115.056 129.525 115.266 129.724 115.422C129.948 115.57 130.213 115.643 130.482 115.632C130.751 115.642 131.015 115.569 131.241 115.422C131.439 115.268 131.586 115.056 131.66 114.817C131.757 114.514 131.803 114.198 131.797 113.881C131.819 113.433 131.713 112.988 131.491 112.598C131.378 112.437 131.227 112.31 131.049 112.228C130.873 112.145 130.677 112.112 130.482 112.13C130.213 112.121 129.949 112.194 129.724 112.34C129.525 112.496 129.377 112.706 129.296 112.945C129.208 113.248 129.169 113.565 129.183 113.881H129.167ZM138.042 111.299V112.203H135.888V116.479H134.791V111.299H138.042ZM139.567 111.299H140.56V113.8C140.56 113.921 140.56 114.058 140.56 114.212C140.56 114.365 140.56 114.502 140.56 114.647C140.56 114.793 140.56 114.914 140.56 115.019C140.566 115.091 140.566 115.164 140.56 115.236L142.98 111.299H144.295V116.479H143.311V113.994C143.311 113.857 143.311 113.711 143.311 113.558C143.311 113.405 143.311 113.252 143.311 113.106C143.311 112.961 143.311 112.832 143.311 112.727V112.509L140.89 116.479H139.567V111.299ZM146.272 111.299H147.264V113.8C147.264 113.921 147.264 114.058 147.264 114.212C147.264 114.365 147.264 114.502 147.264 114.647C147.264 114.793 147.264 114.914 147.264 115.019C147.264 115.123 147.264 115.196 147.264 115.236L149.685 111.299H151V116.479H150.016V113.994C150.016 113.857 150.016 113.711 150.016 113.558C150.016 113.405 150.016 113.252 150.016 113.106C150.016 112.961 150.016 112.832 150.016 112.727V112.509L147.595 116.479H146.272V111.299Z" fill="#814684"/>
</svg>
