<svg width="16" height="16" viewBox="0 0 16 16" fill="none" xmlns="http://www.w3.org/2000/svg">
<path d="M7 4.75C7 4.338 7.338 4 7.75 4H8.25C8.662 4 9 4.338 9 4.75V5.25C9 5.662 8.662 6 8.25 6H7.75C7.338 6 7 5.662 7 5.25V4.75Z" fill="black"/>
<path d="M10 12H6V11H7V8H6V7H9V11H10V12Z" fill="black"/>
<path d="M8 0C3.582 0 0 3.582 0 8C0 12.418 3.582 16 8 16C12.418 16 16 12.418 16 8C16 3.582 12.418 0 8 0ZM8 14.5C4.41 14.5 1.5 11.59 1.5 8C1.5 4.41 4.41 1.5 8 1.5C11.59 1.5 14.5 4.41 14.5 8C14.5 11.59 11.59 14.5 8 14.5Z" fill="black"/>
</svg>
