<svg width="55" height="55" viewBox="0 0 55 55" fill="none" xmlns="http://www.w3.org/2000/svg">
<g clip-path="url(#clip0_1427_365)">
<path d="M22.4545 13.3218H16.1676C14.861 13.3218 13.7978 14.3849 13.7978 15.6917V24.4163H13.5248C12.2182 24.4163 11.155 25.4794 11.155 26.7862C11.155 28.0929 12.2181 29.156 13.5248 29.156H13.7978V30.6311H13.5248C12.2182 30.6311 11.155 31.6943 11.155 33.001C11.155 34.3076 12.2181 35.3708 13.5248 35.3708H13.7978V37.5625C13.7978 38.8692 14.8608 39.9324 16.1676 39.9324C17.4743 39.9324 18.5375 38.8693 18.5375 37.5625V35.3708H22.0846C23.3913 35.3708 24.4545 34.3078 24.4545 33.001C24.4545 31.6943 23.3914 30.6311 22.0846 30.6311H18.5375V29.156H22.4545C26.82 29.156 30.3715 25.6044 30.3715 21.239C30.3715 16.8733 26.82 13.3218 22.4545 13.3218ZM22.4545 27.5445H17.7318C17.2869 27.5445 16.9261 27.9052 16.9261 28.3501V31.4366C16.9261 31.8815 17.2869 32.2422 17.7318 32.2422H22.0846C22.5028 32.2422 22.8432 32.5826 22.8432 33.0008C22.8432 33.4189 22.5029 33.7593 22.0846 33.7593H17.7318C17.2869 33.7593 16.9261 34.12 16.9261 34.5649V37.5623C16.9261 37.9805 16.5859 38.3208 16.1676 38.3208C15.7494 38.3208 15.4091 37.9806 15.4091 37.5623V34.5649C15.4091 34.12 15.0484 33.7593 14.6035 33.7593H13.5248C13.1067 33.7593 12.7663 33.4191 12.7663 33.0008C12.7663 32.5826 13.1065 32.2422 13.5248 32.2422H14.6035C15.0484 32.2422 15.4091 31.8815 15.4091 31.4366V28.3501C15.4091 27.9052 15.0484 27.5445 14.6035 27.5445H13.5248C13.1067 27.5445 12.7663 27.2043 12.7663 26.786C12.7663 26.3677 13.1065 26.0275 13.5248 26.0275H14.6035C15.0484 26.0275 15.4091 25.6667 15.4091 25.2218V15.6914C15.4091 15.2732 15.7493 14.9329 16.1676 14.9329H22.4545C25.9314 14.9329 28.7602 17.7617 28.7602 21.2386C28.7602 24.7155 25.9314 27.5445 22.4545 27.5445ZM11.6573 47.9768C8.59966 45.6076 6.06998 42.533 4.34188 39.0857C2.53 35.4712 1.61133 31.5732 1.61133 27.5C1.61133 20.5848 4.30418 14.0837 9.19392 9.19392C14.0837 4.30418 20.5848 1.61133 27.5 1.61133C31.0988 1.61133 34.5817 2.33546 37.8517 3.76363C41.0109 5.14336 43.8259 7.1124 46.2185 9.61587C46.5259 9.93749 47.0359 9.94909 47.3575 9.64165C47.6792 9.33421 47.6907 8.82428 47.3833 8.50255C44.8424 5.84386 41.8524 3.75268 38.4965 2.28701C35.0219 0.769463 31.3222 0 27.5 0C20.1545 0 13.2486 2.86043 8.05449 8.0546C2.86054 13.2486 0 20.1545 0 27.5C0 31.8262 0.976143 35.9671 2.90136 39.8076C4.73677 43.4692 7.42328 46.7344 10.6703 49.2505C10.8172 49.3642 10.9909 49.4193 11.1632 49.4193C11.4038 49.4193 11.6418 49.312 11.8006 49.1071C12.0731 48.7554 12.009 48.2493 11.6573 47.9768ZM49.8918 11.5321C49.6331 11.17 49.1299 11.0862 48.7679 11.3448C48.4058 11.6035 48.322 12.1067 48.5806 12.4687C51.726 16.8719 53.3887 22.0696 53.3887 27.5C53.3887 34.4152 50.6958 40.9163 45.8061 45.8061C40.9163 50.6958 34.4152 53.3887 27.5 53.3887C23.0722 53.3887 18.7029 52.2519 14.8645 50.1012C14.4764 49.8837 13.9854 50.0221 13.7678 50.4103C13.5504 50.7985 13.6887 51.2894 14.0769 51.507C18.1554 53.7921 22.797 55 27.5 55C34.8455 55 41.7514 52.1395 46.9455 46.9455C52.1396 41.7514 55 34.8455 55 27.5C55 21.7318 53.2336 16.2102 49.8918 11.5321ZM27.5 4.8863C15.0308 4.8863 4.8863 15.0308 4.8863 27.5C4.8863 39.9692 15.0308 50.1137 27.5 50.1137C30.8386 50.1137 34.0101 49.3858 36.8653 48.0814C36.9258 48.0616 36.9844 48.0343 37.0397 47.9999C39.5529 46.8256 41.8159 45.2029 43.7251 43.2346C43.7944 43.1832 43.8556 43.1201 43.9061 43.0472C47.7513 38.9916 50.1136 33.5167 50.1136 27.5001C50.1137 15.0308 39.9692 4.8863 27.5 4.8863ZM42.2487 27.4448C42.1447 29.1865 42.5528 30.9605 42.8054 31.8628C42.8142 31.8942 42.8248 31.9249 42.8373 31.955C43.0145 32.3814 43.1649 32.8297 43.2844 33.2878C43.2858 33.2932 43.2873 33.2986 43.2888 33.304L43.2873 33.2987L43.2962 33.3354C43.9637 35.9446 43.6987 39.0602 42.5551 42.1276C41.6817 43.0262 40.7294 43.8477 39.7085 44.5794C40.0238 44.0477 40.315 43.4973 40.5776 42.9325C42.0373 39.7943 42.4979 36.4582 41.8411 33.7798C41.833 33.7464 41.8227 33.7134 41.8102 33.6813C41.6751 33.3316 41.5392 32.9257 41.417 32.5073C41.4076 32.4749 41.3962 32.4432 41.3828 32.4124C41.2657 32.1426 41.1384 31.8878 41.0045 31.6552C39.6836 29.3588 37.8026 29.1759 36.799 29.2708C35.028 29.4384 33.315 30.655 32.8144 32.1009C32.7481 32.2922 32.6112 32.4463 32.4291 32.5349C32.2468 32.6234 32.0409 32.6355 31.8495 32.5693C31.6581 32.5031 31.5039 32.3662 31.4153 32.1839C31.3268 32.0017 31.3146 31.7959 31.3808 31.6045C31.9827 29.8661 33.7767 28.3751 35.8451 27.8942C36.0834 27.8388 36.2837 27.6781 36.3893 27.4574C36.495 27.2366 36.4945 26.9799 36.3883 26.7594C35.9073 25.7621 35.5637 24.6304 35.3673 23.3957C34.9512 20.7813 35.3984 18.5684 36.6267 17.1648C36.902 16.8502 37.3822 16.8181 37.6969 17.0935C37.8493 17.2269 37.9408 17.4117 37.9543 17.6139C37.9677 17.816 37.9018 18.0113 37.7683 18.1637C36.8555 19.2069 36.5264 21.0271 36.8655 23.1571C37.0089 24.0583 37.3094 25.0695 37.6901 25.9313C38.1502 26.973 38.6694 27.698 39.233 28.0863C39.2776 28.117 39.3251 28.143 39.3748 28.1643C39.4449 28.1941 39.5142 28.2254 39.583 28.2582C39.8278 28.3748 40.1148 28.3606 40.3466 28.2202C40.5785 28.0799 40.7244 27.8324 40.7347 27.5616C40.8325 24.9967 41.7768 23.2855 43.5414 22.4754C43.7255 22.391 43.9316 22.3833 44.1215 22.4536C44.3114 22.5241 44.4626 22.6643 44.5471 22.8484C44.6316 23.0325 44.6394 23.2385 44.5689 23.4285C44.4985 23.6184 44.3583 23.7696 44.1741 23.8541C43.3716 24.2227 42.3861 25.1447 42.2487 27.4448ZM45.0449 39.0306C45.3928 36.8888 45.3349 34.8033 44.8567 32.9338C44.8521 32.9136 44.8471 32.8935 44.8415 32.8736C44.708 32.3629 44.5409 31.8618 44.3444 31.3831C43.631 28.8028 43.5744 25.9026 44.8463 25.3187C45.4216 25.0546 45.8596 24.5824 46.0797 23.9889C46.2998 23.3954 46.2755 22.7517 46.0115 22.1765C45.7474 21.6012 45.2751 21.1632 44.6817 20.9432C44.0881 20.7231 43.4444 20.7472 42.8692 21.0114C41.017 21.8616 39.8188 23.455 39.3451 25.6696C38.9549 24.9009 38.6102 23.8683 38.4568 22.9044C38.201 21.2969 38.4018 19.8872 38.981 19.2253C39.3979 18.7489 39.6043 18.1387 39.5622 17.5071C39.5201 16.8754 39.2346 16.298 38.7581 15.8812C37.7747 15.0208 36.2745 15.1208 35.4143 16.1041C33.8654 17.8744 33.2837 20.5539 33.7762 23.6494C33.9432 24.6987 34.2068 25.6864 34.5622 26.5975C32.3712 27.3913 30.5409 29.1063 29.8583 31.0777C29.6512 31.6758 29.6895 32.3188 29.9661 32.8882C30.2426 33.4576 30.7244 33.8853 31.3226 34.0924C31.9206 34.2994 32.5637 34.2611 33.1331 33.9846C33.7025 33.708 34.1302 33.2263 34.3372 32.6282C34.6293 31.7844 35.8263 30.9816 36.9511 30.8753C38.0493 30.7713 38.9435 31.3039 39.6079 32.459C39.7045 32.6269 39.7977 32.8119 39.8851 33.0096C40.0117 33.4389 40.147 33.8429 40.2879 34.212C40.8415 36.5335 40.4157 39.4608 39.1167 42.2533C38.3509 43.8998 37.3264 45.4118 36.1493 46.6379C33.5103 47.8353 30.5817 48.5026 27.5 48.5026C15.9193 48.5026 6.49763 39.081 6.49763 27.5002C6.49763 15.9194 15.9193 6.49763 27.5 6.49763C39.0807 6.49763 48.5024 15.9193 48.5024 27.5C48.5024 31.7555 47.2289 35.7185 45.0449 39.0306ZM22.4545 16.45H17.7318C17.2869 16.45 16.9261 16.8108 16.9261 17.2557V25.2219C16.9261 25.6668 17.2869 26.0276 17.7318 26.0276H22.4545C25.095 26.0276 27.2433 23.8793 27.2433 21.2388C27.2433 18.5983 25.095 16.45 22.4545 16.45ZM22.4545 24.4162H18.5375V18.0614H22.4545C24.2066 18.0614 25.6319 19.4868 25.6319 21.2388C25.6319 22.9909 24.2066 24.4162 22.4545 24.4162Z" fill="white"/>
</g>
<defs>
<clipPath id="clip0_1427_365">
<rect width="55" height="55" fill="white"/>
</clipPath>
</defs>
</svg>
