<svg width="59" height="59" viewBox="0 0 59 59" fill="none" xmlns="http://www.w3.org/2000/svg">
<path d="M53.5264 7.89355H5.47363C2.45553 7.89355 0 10.3491 0 13.3672V45.6328C0 48.6509 2.45553 51.1064 5.47363 51.1064H53.5264C56.5445 51.1064 59 48.6509 59 45.6328V13.3672C59 10.3491 56.5445 7.89355 53.5264 7.89355ZM57.2715 45.6328C57.2715 47.6978 55.5915 49.3779 53.5264 49.3779H5.47363C3.40863 49.3779 1.72852 47.6978 1.72852 45.6328V13.3672C1.72852 11.3022 3.40863 9.62207 5.47363 9.62207H53.5264C55.5915 9.62207 57.2715 11.3022 57.2715 13.3672V45.6328Z" fill="white"/>
<path d="M53.5264 17.1123C51.4613 17.1123 49.7812 15.4322 49.7812 13.3672C49.7812 12.8899 49.3944 12.5029 48.917 12.5029H42.752C42.2745 12.5029 41.8877 12.8899 41.8877 13.3672C41.8877 13.8445 42.2745 14.2314 42.752 14.2314H48.121C48.4917 16.5588 50.3347 18.4019 52.6621 18.7727V40.2274C50.3347 40.5981 48.4917 42.4412 48.121 44.7687H10.8792C10.5083 42.4412 8.66528 40.5981 6.33789 40.2273V18.7727C8.66528 18.402 10.5083 16.5589 10.8792 14.2314H39.2949C39.7723 14.2314 40.1592 13.8445 40.1592 13.3672C40.1592 12.8899 39.7723 12.5029 39.2949 12.5029H10.083C9.60571 12.5029 9.21875 12.8899 9.21875 13.3672C9.21875 15.4322 7.53863 17.1123 5.47363 17.1123C4.99633 17.1123 4.60938 17.4993 4.60938 17.9766V41.0234C4.60938 41.5007 4.99633 41.8877 5.47363 41.8877C7.53863 41.8877 9.21875 43.5678 9.21875 45.6328C9.21875 46.1101 9.60571 46.4971 10.083 46.4971H48.917C49.3944 46.4971 49.7812 46.1101 49.7812 45.6328C49.7812 43.5678 51.4613 41.8877 53.5264 41.8877C54.0038 41.8877 54.3906 41.5007 54.3906 41.0234V17.9766C54.3906 17.4993 54.0038 17.1123 53.5264 17.1123Z" fill="white"/>
<path d="M21.9712 38.2659C21.6879 38.65 21.7696 39.1911 22.1536 39.4745C24.2935 41.0532 26.8341 41.8877 29.501 41.8877C36.3315 41.8877 41.8887 36.3306 41.8887 29.5C41.8887 22.6694 36.3315 17.1123 29.501 17.1123C22.6703 17.1123 17.1133 22.6694 17.1133 29.5C17.1133 32.1668 17.9478 34.7074 19.5265 36.8475C19.8098 37.2315 20.3509 37.3132 20.7351 37.0299C21.1192 36.7465 21.2009 36.2055 20.9175 35.8213C19.5596 33.9805 18.8418 31.7948 18.8418 29.5C18.8418 23.6225 23.6234 18.8408 29.501 18.8408C35.3785 18.8408 40.1602 23.6225 40.1602 29.5C40.1602 35.3775 35.3785 40.1592 29.501 40.1592C27.2062 40.1592 25.0203 39.4414 23.1798 38.0835C22.7957 37.8001 22.2545 37.8817 21.9712 38.2659Z" fill="white"/>
<path d="M33.6435 23.0467C33.2454 22.7833 32.7092 22.8924 32.4457 23.2905L29.5148 27.719L26.5551 23.2603C26.2911 22.8625 25.7548 22.7542 25.3571 23.0182C24.9594 23.2822 24.851 23.8185 25.115 24.2161L28.2486 28.9368H25.8426C25.3653 28.9368 24.9783 29.3238 24.9783 29.8011C24.9783 30.2784 25.3653 30.6654 25.8426 30.6654H28.6477L28.6438 32.3939H25.8426C25.3653 32.3939 24.9783 32.7808 24.9783 33.2581C24.9783 33.7354 25.3653 34.1224 25.8426 34.1224H28.6399L28.6373 35.2596C28.6362 35.7369 29.0223 36.1248 29.4996 36.1258H29.5016C29.978 36.1258 30.3647 35.7402 30.3658 35.2635L30.3684 34.1224H33.1589C33.6363 34.1224 34.0232 33.7354 34.0232 33.2581C34.0232 32.7808 33.6363 32.3939 33.1589 32.3939H30.3723L30.3764 30.6654H33.1589C33.6363 30.6654 34.0232 30.2784 34.0232 29.8011C34.0232 29.3238 33.6363 28.9368 33.1589 28.9368H30.7815L33.8871 24.2444C34.1506 23.8464 34.0415 23.3102 33.6435 23.0467Z" fill="white"/>
<path d="M44.9697 28.6357H49.5791C50.0565 28.6357 50.4434 28.2488 50.4434 27.7715C50.4434 27.2942 50.0565 26.9072 49.5791 26.9072H44.9697C44.4923 26.9072 44.1055 27.2942 44.1055 27.7715C44.1055 28.2488 44.4923 28.6357 44.9697 28.6357Z" fill="white"/>
<path d="M44.9697 32.0928H49.5791C50.0565 32.0928 50.4434 31.7058 50.4434 31.2285C50.4434 30.7512 50.0565 30.3643 49.5791 30.3643H44.9697C44.4923 30.3643 44.1055 30.7512 44.1055 31.2285C44.1055 31.7058 44.4923 32.0928 44.9697 32.0928Z" fill="white"/>
<path d="M14.0303 26.9072H9.4209C8.9436 26.9072 8.55664 27.2942 8.55664 27.7715C8.55664 28.2488 8.9436 28.6357 9.4209 28.6357H14.0303C14.5076 28.6357 14.8945 28.2488 14.8945 27.7715C14.8945 27.2942 14.5076 26.9072 14.0303 26.9072Z" fill="white"/>
<path d="M14.0303 30.3643H9.4209C8.9436 30.3643 8.55664 30.7512 8.55664 31.2285C8.55664 31.7058 8.9436 32.0928 9.4209 32.0928H14.0303C14.5076 32.0928 14.8945 31.7058 14.8945 31.2285C14.8945 30.7512 14.5076 30.3643 14.0303 30.3643Z" fill="white"/>
</svg>
