<svg width="114" height="15" viewBox="0 0 114 15" fill="none" xmlns="http://www.w3.org/2000/svg">
<path d="M7.5 0L9.18386 5.18237H14.6329L10.2245 8.38525L11.9084 13.5676L7.5 10.3647L3.09161 13.5676L4.77547 8.38525L0.367076 5.18237H5.81614L7.5 0Z" fill="#EDDB3D"/>
<path d="M32.5 0L34.1839 5.18237H39.6329L35.2245 8.38525L36.9084 13.5676L32.5 10.3647L28.0916 13.5676L29.7755 8.38525L25.3671 5.18237H30.8161L32.5 0Z" fill="#EDDB3D"/>
<path d="M57.5 0L59.1839 5.18237H64.6329L60.2245 8.38525L61.9084 13.5676L57.5 10.3647L53.0916 13.5676L54.7755 8.38525L50.3671 5.18237H55.8161L57.5 0Z" fill="#EDDB3D"/>
<path d="M82 0L83.5716 5.18237H88.6574L84.5429 8.38525L86.1145 13.5676L82 10.3647L77.8855 13.5676L79.4571 8.38525L75.3426 5.18237H80.4284L82 0Z" fill="#EDDB3D"/>
<path d="M107 0L108.572 5.18237H113.657L109.543 8.38525L111.114 13.5676L107 10.3647L102.886 13.5676L104.457 8.38525L100.343 5.18237H105.428L107 0Z" fill="#EDDB3D"/>
</svg>
