<svg width="125" height="60" viewBox="0 0 125 60" fill="none" xmlns="http://www.w3.org/2000/svg">
<g clip-path="url(#clip0_2:2847)">
<mask id="mask0_2:2847" style="mask-type:alpha" maskUnits="userSpaceOnUse" x="16" y="19" width="18" height="13">
<path d="M16.0191 28.5554L28.0272 28.6523C28.0272 28.6523 30.6775 28.989 32.9414 30.9774C33.0702 31.0897 33.574 30.9774 33.574 30.9774L33.5128 19.0522L16.0191 19.0727V28.5554Z" fill="white"/>
</mask>
<g mask="url(#mask0_2:2847)">
<path fill-rule="evenodd" clip-rule="evenodd" d="M31.0231 21.7383C29.5947 20.5624 27.6293 19.9731 25.1269 19.9731C21.7815 19.9731 20.2981 19.9731 18.8926 19.9731V20.8443C18.8926 20.8443 22.2763 20.8443 25.0121 20.8443C27.1395 20.8443 29.0654 21.283 30.2413 22.2982C31.4172 23.3147 32.3088 24.8274 32.3088 26.6946C32.3088 28.4968 31.5371 29.8321 30.314 30.8423C29.0909 31.8524 26.9099 32.2975 24.7264 32.2975C22.1207 32.2975 17.6963 32.2975 17.6963 32.2975V33.1686C17.6963 33.1686 23.6818 33.1674 24.7749 33.1674C27.4086 33.1674 29.4659 32.5947 30.9466 31.4519C32.4274 30.3079 33.1671 28.6996 33.1671 26.6245C33.1671 24.5442 32.4529 22.9155 31.0231 21.7383Z" fill="white"/>
<path fill-rule="evenodd" clip-rule="evenodd" d="M30.4952 23.001C29.6062 22.3263 28.5846 21.783 25.6945 21.783C22.5774 21.7842 22.196 21.783 20.8862 21.783V22.6324C20.8862 22.6324 23.0378 22.6043 25.5873 22.6324C28.0515 22.6579 28.9557 22.9359 29.7848 23.5494C30.8459 24.3338 31.504 25.3018 31.504 26.6563C31.504 27.9624 30.8357 28.887 29.7694 29.6714C28.679 30.4749 27.012 30.4839 26.3335 30.4992C26.0771 30.5055 22.7636 30.4992 22.7636 30.4992V31.3486C22.7636 31.3486 24.4127 31.3716 25.4317 31.3473C27.7709 31.295 29.1585 31.156 30.4505 30.1956C31.6634 29.2964 32.305 28.109 32.305 26.6053C32.305 24.622 31.3127 23.6221 30.4952 23.001Z" fill="white"/>
<path fill-rule="evenodd" clip-rule="evenodd" d="M30.0653 24.1221C29.3983 23.7037 28.8129 23.4219 26.0516 23.4219C23.2457 23.4219 23.775 23.4219 22.5952 23.4219V23.9805C22.5952 23.9805 23.6614 23.9805 25.9559 23.9805C28.4022 23.9805 29.3294 24.4154 29.61 24.5876C30.1597 24.9243 30.8841 25.4727 30.8841 26.59C30.8841 27.3043 30.462 28.2009 29.8383 28.5529C29.2695 28.873 28.23 29.16 26.3985 29.16C26.1676 29.16 15.1085 29.16 15.1085 29.16V29.7186C15.1085 29.7186 25.5223 29.7186 26.4406 29.7186C28.6483 29.7186 29.4059 29.4737 30.1839 29.0439C30.9645 28.6141 31.4849 27.7302 31.4849 26.5951C31.4849 25.3274 30.777 24.5672 30.0653 24.1221Z" fill="white"/>
</g>
<path fill-rule="evenodd" clip-rule="evenodd" d="M32.2629 30.2848C30.8344 29.1076 28.8677 28.5196 26.3666 28.5196C23.0199 28.5196 23.6028 28.5183 22.196 28.5183V29.3894C22.196 29.3894 23.5148 29.3894 26.2505 29.3894C28.3779 29.3894 30.3051 29.8282 31.481 30.8434C32.657 31.8599 33.5472 33.3726 33.5472 35.241C33.5472 37.0419 32.7769 38.3773 31.5537 39.3874C30.3306 40.3976 28.1484 40.8427 25.9649 40.8427C23.3604 40.8427 18.936 40.8427 18.936 40.8427V41.7138C18.936 41.7138 24.9203 41.7125 26.0146 41.7125C28.6483 41.7125 30.7043 41.1411 32.1851 39.9971C33.6658 38.8543 34.4069 37.2447 34.4069 35.1709C34.4069 33.0894 33.6926 31.4607 32.2629 30.2848Z" fill="white"/>
<path fill-rule="evenodd" clip-rule="evenodd" d="M31.7348 31.5461C30.8459 30.8727 29.8243 30.3281 26.9342 30.3281C23.8158 30.3294 21.7075 30.3281 20.3976 30.3281V31.1776C20.3976 31.1776 24.2762 31.1495 26.827 31.1776C29.2911 31.2031 30.1941 31.4811 31.0231 32.0946C32.0856 32.8802 32.7437 33.847 32.7437 35.2015C32.7437 36.5075 32.0754 37.4322 31.0091 38.2179C29.9186 39.0201 28.2517 39.0303 27.5719 39.0456C27.3155 39.0507 24.002 39.0456 24.002 39.0456V39.8938C24.002 39.8938 25.6511 39.9167 26.6714 39.8938C29.0093 39.8402 30.3982 39.7012 31.6902 38.7421C32.9018 37.8416 33.5434 36.6542 33.5434 35.1505C33.5434 33.1685 32.5524 32.1673 31.7348 31.5461Z" fill="white"/>
<path fill-rule="evenodd" clip-rule="evenodd" d="M21.7968 34.4288H27.9226V33.9543H21.7968V34.4288Z" fill="white"/>
<path fill-rule="evenodd" clip-rule="evenodd" d="M24.3234 36.0881H27.8869V35.6799H24.3234V36.0881Z" fill="white"/>
<path fill-rule="evenodd" clip-rule="evenodd" d="M18.936 34.4288H20.7509V33.9543H18.936V34.4288Z" fill="white"/>
<path fill-rule="evenodd" clip-rule="evenodd" d="M17.8047 36.1212H23.3171V35.6467H17.8047V36.1212Z" fill="white"/>
<path fill-rule="evenodd" clip-rule="evenodd" d="M19.163 23.9436H21.3108V23.552H19.163V23.9436Z" fill="white"/>
<path fill-rule="evenodd" clip-rule="evenodd" d="M17.667 27.1191H22.5863V26.6638H17.667V27.1191Z" fill="white"/>
<path fill-rule="evenodd" clip-rule="evenodd" d="M17.8047 39.8352H22.9918V39.2664H17.8047V39.8352Z" fill="white"/>
<path fill-rule="evenodd" clip-rule="evenodd" d="M16.5115 41.6794H17.8086V40.8555H16.5115V41.6794Z" fill="white"/>
<path fill-rule="evenodd" clip-rule="evenodd" d="M19.7535 25.729H27.8984V25.2737H19.7535V25.729Z" fill="white"/>
<path fill-rule="evenodd" clip-rule="evenodd" d="M23.826 27.1191H27.744V26.6638H23.826V27.1191Z" fill="white"/>
<path fill-rule="evenodd" clip-rule="evenodd" d="M31.305 32.7529C30.6367 32.3486 30.0513 32.0769 27.2913 32.0769C24.4853 32.0769 24.0657 32.0769 22.8872 32.0769V32.6164C22.8872 32.6164 24.8999 32.6164 27.1943 32.6164C29.6406 32.6164 30.5691 33.036 30.8497 33.2031C31.3981 33.5283 32.1238 34.0564 32.1238 35.1354C32.1238 35.8254 31.7017 36.6901 31.0767 37.0294C30.5079 37.3393 29.4684 37.6161 27.6369 37.6161C27.4061 37.6161 16.3482 37.6161 16.3482 37.6161V38.1556C16.3482 38.1556 26.762 38.1543 27.679 38.1543C29.888 38.1543 30.6456 37.9183 31.4236 37.5038C32.2029 37.088 32.7233 36.2348 32.7233 35.1392C32.7233 33.9161 32.0167 33.1827 31.305 32.7529Z" fill="white"/>
<path fill-rule="evenodd" clip-rule="evenodd" d="M42.905 31.5335V36.4974H45.6165C46.7886 36.4974 47.698 36.2729 48.3446 35.824C48.99 35.3751 49.3127 34.759 49.3127 33.9772C49.3127 32.3472 47.9416 31.5335 45.1994 31.5335H42.905ZM42.905 25.6245V30.0795H44.9507C46.0438 30.0795 46.9034 29.8665 47.5296 29.4405C48.1559 29.0133 48.4696 28.4125 48.4696 27.6358C48.4696 26.2953 47.3791 25.6245 45.1994 25.6245H42.905ZM40.9076 37.9603V24.1628H45.7593C47.2325 24.1628 48.402 24.4549 49.2655 25.0378C50.1289 25.6219 50.5613 26.3821 50.5613 27.3182C50.5613 28.1013 50.2998 28.7811 49.7769 29.3589C49.254 29.9354 48.5321 30.3461 47.6138 30.5897V30.6279C48.763 30.7376 49.6813 31.0884 50.3713 31.6814C51.0613 32.2758 51.4056 33.0474 51.4056 33.9963C51.4056 35.1761 50.8827 36.1327 49.8369 36.8635C48.7897 37.5943 47.471 37.9603 45.878 37.9603H40.9076Z" fill="white"/>
<path fill-rule="evenodd" clip-rule="evenodd" d="M53.63 37.9602H55.5788V28.1076H53.63V37.9602ZM54.6286 25.6053C54.2792 25.6053 53.982 25.5096 53.7371 25.317C53.491 25.1244 53.3685 24.8808 53.3685 24.5862C53.3685 24.2903 53.491 24.0454 53.7371 23.849C53.982 23.6539 54.2792 23.5557 54.6286 23.5557C54.9845 23.5557 55.288 23.6539 55.538 23.849C55.788 24.0454 55.9117 24.2903 55.9117 24.5862C55.9117 24.8681 55.788 25.1091 55.538 25.3068C55.288 25.5058 54.9845 25.6053 54.6286 25.6053Z" fill="white"/>
<path fill-rule="evenodd" clip-rule="evenodd" d="M64.1994 37.8647C63.7389 38.07 63.1331 38.1721 62.3806 38.1721C60.2481 38.1721 59.1819 37.2104 59.1819 35.2858V29.4546H57.0902V28.1077H59.1819V25.7023L61.132 25.1921V28.1077H64.1994V29.4546H61.132V35.0065C61.132 35.6672 61.271 36.1391 61.5478 36.4209C61.8258 36.7028 62.285 36.8444 62.9278 36.8444C63.4188 36.8444 63.8422 36.736 64.1994 36.5166V37.8647Z" fill="white"/>
<path fill-rule="evenodd" clip-rule="evenodd" d="M81.9009 37.9603H80.0745V29.4456C80.0745 28.7722 80.1255 27.9495 80.2276 26.9751H80.1842C80.0095 27.5478 79.8513 27.9572 79.7136 28.2059L74.3543 37.9603H73.4576L68.1098 28.276C67.9568 27.9929 67.7999 27.5593 67.6392 26.9751H67.5958C67.6545 27.4827 67.6838 28.3118 67.6838 29.4622V37.9603H65.911V25.2673H68.3394L73.1515 34.1187C73.524 34.7973 73.7638 35.3049 73.8734 35.6416H73.9385C74.2522 34.9452 74.5035 34.4261 74.6935 34.083L79.6039 25.2673H81.9009V37.9603Z" fill="white"/>
<path fill-rule="evenodd" clip-rule="evenodd" d="M91.8096 32.9761L88.8736 33.3039C87.9693 33.4059 87.2883 33.587 86.8278 33.8472C86.3687 34.1074 86.1391 34.5678 86.1391 35.2272C86.1391 35.7093 86.3508 36.1021 86.7756 36.407C87.199 36.7118 87.764 36.8636 88.4693 36.8636C89.4361 36.8636 90.2345 36.5893 90.8645 36.0409C91.4946 35.4925 91.8096 34.7987 91.8096 33.9582V32.9761ZM93.7598 37.9604H91.8096V36.421H91.7624C90.9143 37.6008 89.6657 38.1913 88.0178 38.1913C86.8049 38.1913 85.856 37.9311 85.1698 37.412C84.4849 36.8929 84.1418 36.2029 84.1418 35.3433C84.1418 33.5028 85.481 32.4315 88.1607 32.1292L91.8096 31.716C91.8096 30.0413 90.973 29.2047 89.3009 29.2047C87.8354 29.2047 86.5115 29.609 85.3305 30.4163V28.8004C86.5269 28.1843 87.9069 27.877 89.468 27.877C92.3287 27.877 93.7598 29.1014 93.7598 31.5527V37.9604Z" fill="white"/>
<path fill-rule="evenodd" clip-rule="evenodd" d="M102.808 29.7046C102.467 29.4929 101.975 29.387 101.333 29.387C100.502 29.387 99.8052 29.7046 99.2466 30.3398C98.688 30.9749 98.4086 31.8409 98.4086 32.9378V37.9604H96.4585V28.1078H98.4086V30.1383H98.4558C98.7339 29.4444 99.1573 28.9049 99.7287 28.5159C100.299 28.1282 100.937 27.9343 101.642 27.9343C102.149 27.9343 102.537 27.979 102.808 28.0695V29.7046Z" fill="white"/>
<path fill-rule="evenodd" clip-rule="evenodd" d="M109.597 37.8647C109.136 38.07 108.53 38.1721 107.778 38.1721C105.645 38.1721 104.579 37.2104 104.579 35.2858V29.4546H102.487V28.1077H104.579V25.7023L106.529 25.1921V28.1077H109.597V29.4546H106.529V35.0065C106.529 35.6672 106.668 36.1391 106.945 36.4209C107.223 36.7028 107.682 36.8444 108.325 36.8444C108.816 36.8444 109.24 36.736 109.597 36.5166V37.8647Z" fill="white"/>
</g>
<defs>
<clipPath id="clip0_2:2847">
<rect width="93.6158" height="22.83" fill="white" transform="translate(16 19)"/>
</clipPath>
</defs>
</svg>
