<svg width="125" height="60" viewBox="0 0 125 60" fill="none" xmlns="http://www.w3.org/2000/svg">
<g clip-path="url(#clip0_2:2844)">
<path d="M26.9823 35.0768C26.7172 35.0768 26.5298 35.0219 26.4201 34.9122C26.3195 34.8025 26.2693 34.6288 26.2693 34.3912V26.4511C26.2693 26.2134 26.324 26.0397 26.4338 25.93C26.5435 25.8111 26.7263 25.7517 26.9823 25.7517H30.3421C31.622 25.7517 32.5636 26.0214 33.167 26.5608C33.7705 27.1002 34.0721 27.9047 34.0721 28.9744C34.0721 30.0349 33.7705 30.8348 33.167 31.3742C32.5728 31.9045 31.6312 32.1696 30.3421 32.1696H29.0393V34.3912C29.0393 34.6288 28.9845 34.8025 28.8748 34.9122C28.7651 35.0219 28.5776 35.0768 28.3125 35.0768H26.9823ZM30.1227 30.1811C30.4975 30.1811 30.7855 30.0805 30.9866 29.8795C31.1969 29.6783 31.302 29.3766 31.302 28.9744C31.302 28.563 31.1969 28.2567 30.9866 28.0555C30.7855 27.8544 30.4975 27.7539 30.1227 27.7539H29.0393V30.1811H30.1227Z" fill="white"/>
<path d="M37.3107 35.2824C36.4514 35.2824 35.7611 35.0082 35.24 34.4596C34.728 33.9019 34.472 33.1202 34.472 32.1146C34.472 31.3467 34.6458 30.6747 34.9932 30.0988C35.3497 29.5228 35.848 29.0794 36.4879 28.7686C37.137 28.4486 37.8821 28.2886 38.7232 28.2886C39.418 28.2886 40.0305 28.3663 40.5608 28.5217C41.1002 28.668 41.5938 28.8829 42.0418 29.1662V34.6516C42.0418 34.8253 42.0098 34.9395 41.9458 34.9944C41.8818 35.0493 41.7539 35.0767 41.5619 35.0767H40.1631C40.0625 35.0767 39.9848 35.063 39.9299 35.0356C39.8751 34.999 39.8294 34.9441 39.7929 34.871L39.6146 34.4596C39.3494 34.743 39.0295 34.9487 38.6546 35.0767C38.2889 35.2139 37.841 35.2824 37.3107 35.2824ZM38.3392 33.4174C38.6957 33.4174 38.9746 33.3305 39.1758 33.1568C39.3768 32.9832 39.4774 32.7363 39.4774 32.4163V30.277C39.3037 30.1947 39.0843 30.1536 38.8192 30.1536C38.3347 30.1536 37.9461 30.3228 37.6536 30.661C37.3701 30.9993 37.2284 31.4747 37.2284 32.0872C37.2284 32.974 37.5987 33.4174 38.3392 33.4174Z" fill="white"/>
<path d="M43.9502 35.0767C43.6851 35.0767 43.4977 35.0218 43.388 34.9121C43.2783 34.8025 43.2234 34.6288 43.2234 34.3911V28.9194C43.2234 28.7548 43.2509 28.6451 43.3057 28.5903C43.3697 28.5263 43.4977 28.4943 43.6897 28.4943H45.1021C45.2119 28.4943 45.2942 28.5126 45.349 28.5491C45.413 28.5766 45.4496 28.6314 45.4587 28.7137L45.5273 29.1251C45.7833 28.8691 46.117 28.668 46.5284 28.5217C46.9489 28.3663 47.4151 28.2886 47.9271 28.2886C48.6676 28.2886 49.2664 28.4988 49.7236 28.9194C50.1807 29.3308 50.4092 29.9434 50.4092 30.757V34.3911C50.4092 34.6288 50.3543 34.8025 50.2447 34.9121C50.1441 35.0218 49.9612 35.0767 49.6961 35.0767H48.366C48.1008 35.0767 47.9088 35.0218 47.79 34.9121C47.6803 34.8025 47.6254 34.6288 47.6254 34.3911V30.9353C47.6254 30.661 47.566 30.4645 47.4471 30.3456C47.3283 30.2267 47.1409 30.1673 46.8849 30.1673C46.6106 30.1673 46.3912 30.2405 46.2267 30.3867C46.0712 30.533 45.9935 30.7342 45.9935 30.9901V34.3911C45.9935 34.6288 45.9387 34.8025 45.829 34.9121C45.7284 35.0218 45.5455 35.0767 45.2804 35.0767H43.9502Z" fill="white"/>
<path d="M55.2565 35.2824C53.9766 35.2824 52.9892 34.9853 52.2944 34.3911C51.5996 33.7968 51.2522 32.9329 51.2522 31.7992C51.2522 31.1044 51.4122 30.4918 51.7321 29.9616C52.0521 29.4314 52.5138 29.02 53.1172 28.7274C53.7297 28.4349 54.4519 28.2886 55.2839 28.2886C55.9147 28.2886 56.4449 28.348 56.8746 28.4668C57.3135 28.5857 57.702 28.7686 58.0403 29.0154C58.1408 29.0794 58.1911 29.1617 58.1911 29.2623C58.1911 29.3354 58.1546 29.4314 58.0814 29.5502L57.5192 30.5239C57.4552 30.6519 57.3775 30.7158 57.286 30.7158C57.2312 30.7158 57.1443 30.6793 57.0255 30.6061C56.7787 30.4507 56.5455 30.3364 56.3261 30.2633C56.1158 30.1902 55.8507 30.1536 55.5307 30.1536C55.0736 30.1536 54.7034 30.2999 54.4199 30.5924C54.1457 30.885 54.0085 31.2873 54.0085 31.7992C54.0085 32.3203 54.1503 32.7226 54.4337 33.006C54.7171 33.2803 55.1057 33.4174 55.5993 33.4174C55.8918 33.4174 56.1569 33.3763 56.3947 33.294C56.6324 33.2117 56.8746 33.0974 57.1215 32.9511C57.2495 32.878 57.3409 32.8414 57.3958 32.8414C57.4781 32.8414 57.5512 32.9054 57.6151 33.0334L58.2322 34.0893C58.278 34.1807 58.3008 34.2539 58.3008 34.3088C58.3008 34.3911 58.246 34.4687 58.1363 34.5419C57.7523 34.7887 57.3318 34.9715 56.8746 35.0904C56.4267 35.2184 55.8873 35.2824 55.2565 35.2824Z" fill="white"/>
<path d="M61.7778 35.2824C60.9184 35.2824 60.2282 35.0082 59.7071 34.4596C59.1951 33.9019 58.9391 33.1202 58.9391 32.1146C58.9391 31.3467 59.1128 30.6747 59.4602 30.0988C59.8168 29.5228 60.315 29.0794 60.955 28.7686C61.6041 28.4486 62.3492 28.2886 63.1902 28.2886C63.8851 28.2886 64.4976 28.3663 65.0279 28.5217C65.5673 28.668 66.0609 28.8829 66.5089 29.1662V34.6516C66.5089 34.8253 66.4769 34.9395 66.4129 34.9944C66.3489 35.0493 66.2209 35.0767 66.0289 35.0767H64.6302C64.5296 35.0767 64.4519 35.063 64.3971 35.0356C64.3422 34.999 64.2965 34.9441 64.2599 34.871L64.0817 34.4596C63.8165 34.743 63.4966 34.9487 63.1217 35.0767C62.7561 35.2139 62.308 35.2824 61.7778 35.2824ZM62.8063 33.4174C63.1628 33.4174 63.4417 33.3305 63.6428 33.1568C63.844 32.9832 63.9445 32.7363 63.9445 32.4163V30.277C63.7708 30.1947 63.5514 30.1536 63.2863 30.1536C62.8017 30.1536 62.4132 30.3228 62.1206 30.661C61.8372 30.9993 61.6955 31.4747 61.6955 32.0872C61.6955 32.974 62.0658 33.4174 62.8063 33.4174Z" fill="white"/>
<path d="M75.1231 34.5557C75.1871 34.6288 75.2191 34.7111 75.2191 34.8025C75.2191 34.8848 75.1916 34.9534 75.1368 35.0082C75.082 35.0539 75.0088 35.0768 74.9174 35.0768H72.7919C72.6638 35.0768 72.5679 35.0677 72.5039 35.0494C72.449 35.0219 72.3896 34.9716 72.3256 34.8985L70.4606 32.3615V34.3912C70.4606 34.6288 70.4057 34.8025 70.296 34.9122C70.1863 35.0219 69.9989 35.0768 69.7338 35.0768H68.4036C68.1385 35.0768 67.951 35.0219 67.8414 34.9122C67.7408 34.8025 67.6905 34.6288 67.6905 34.3912V26.4511C67.6905 26.2134 67.7453 26.0397 67.855 25.93C67.9648 25.8111 68.1476 25.7517 68.4036 25.7517H69.7338C69.9989 25.7517 70.1863 25.8111 70.296 25.93C70.4057 26.0397 70.4606 26.2134 70.4606 26.4511V31.045L72.2708 28.6864C72.3256 28.6132 72.385 28.563 72.449 28.5355C72.513 28.5081 72.609 28.4944 72.737 28.4944H74.8625C74.9539 28.4944 75.0226 28.5218 75.0682 28.5767C75.1231 28.6224 75.1505 28.6864 75.1505 28.7687C75.1505 28.8601 75.1185 28.9424 75.0546 29.0155L72.7096 31.7033L75.1231 34.5557Z" fill="white"/>
<path d="M79.5759 35.2824C78.8079 35.2824 78.1224 35.1544 77.519 34.8984C76.9247 34.6424 76.4538 34.2585 76.1064 33.7465C75.759 33.2345 75.5853 32.6083 75.5853 31.8677C75.5853 30.7067 75.9144 29.82 76.5728 29.2074C77.2311 28.5949 78.1773 28.2886 79.4114 28.2886C80.6183 28.2886 81.5325 28.5903 82.1538 29.1937C82.785 29.7879 83.1 30.6153 83.1 31.6758C83.1 32.1329 82.899 32.3614 82.4965 32.3614H78.1908C78.1908 32.7546 78.3369 33.0563 78.6297 33.2665C78.9311 33.4768 79.3836 33.582 79.9871 33.582C80.3618 33.582 80.6732 33.55 80.9197 33.486C81.1755 33.4128 81.432 33.3077 81.6878 33.1706C81.7975 33.1248 81.8709 33.102 81.9072 33.102C81.9892 33.102 82.0583 33.1568 82.1131 33.2665L82.5791 34.1442C82.6247 34.2356 82.6475 34.3042 82.6475 34.3499C82.6475 34.4322 82.5927 34.5099 82.4829 34.583C82.1082 34.8299 81.6835 35.0082 81.2076 35.1178C80.7323 35.2275 80.1887 35.2824 79.5759 35.2824ZM80.6319 31.0038C80.6319 30.6564 80.5314 30.3867 80.3298 30.1947C80.1288 30.0028 79.8275 29.9068 79.4249 29.9068C79.023 29.9068 78.7167 30.0073 78.5065 30.2085C78.2963 30.4004 78.1908 30.6655 78.1908 31.0038H80.6319Z" fill="white"/>
<path d="M87.8003 35.2824C87.0323 35.2824 86.3055 35.2046 85.6201 35.0492C84.9347 34.8847 84.3811 34.6562 83.9607 34.3636C83.8054 34.263 83.7277 34.1579 83.7277 34.0482C83.7277 33.975 83.7548 33.8973 83.8096 33.8151L84.4815 32.7454C84.5549 32.6357 84.6283 32.5809 84.701 32.5809C84.7473 32.5809 84.8249 32.6129 84.9347 32.6768C85.2724 32.8689 85.6564 33.0243 86.0861 33.1431C86.5157 33.2619 86.9411 33.3214 87.3614 33.3214C87.7911 33.3214 88.1067 33.2574 88.3076 33.1293C88.5178 33.0014 88.6233 32.7957 88.6233 32.5122C88.6233 32.238 88.5093 32.0232 88.2806 31.8677C88.0611 31.7123 87.645 31.5157 87.0323 31.2781C86.1089 30.9306 85.3871 30.5421 84.8656 30.1125C84.354 29.6736 84.0982 29.0794 84.0982 28.3297C84.0982 27.4246 84.4224 26.7344 85.0715 26.259C85.7205 25.7836 86.5848 25.5459 87.6635 25.5459C88.4131 25.5459 89.0529 25.6145 89.583 25.7516C90.1224 25.8796 90.5798 26.0807 90.9546 26.355C91.1099 26.4738 91.1876 26.5835 91.1876 26.6841C91.1876 26.7481 91.1605 26.8212 91.1056 26.9035L90.4337 27.9732C90.3511 28.0829 90.2777 28.1377 90.2143 28.1377C90.168 28.1377 90.0903 28.1057 89.9806 28.0417C89.4505 27.6943 88.8199 27.5206 88.0882 27.5206C87.6956 27.5206 87.3935 27.5846 87.1833 27.7126C86.9731 27.8406 86.8677 28.0509 86.8677 28.3434C86.8677 28.5445 86.9225 28.7091 87.0323 28.8371C87.142 28.9651 87.2888 29.0794 87.4712 29.18C87.6635 29.2714 87.9557 29.3902 88.349 29.5365L88.6097 29.6325C89.2859 29.8976 89.816 30.1536 90.2 30.4004C90.5933 30.6381 90.8904 30.9353 91.0914 31.2918C91.293 31.6392 91.3935 32.0781 91.3935 32.6083C91.3935 33.4219 91.0871 34.0711 90.4743 34.5556C89.8709 35.0401 88.9795 35.2824 87.8003 35.2824Z" fill="white"/>
<path d="M94.3069 35.0768C94.1701 35.0768 94.0646 35.0539 93.9912 35.0083C93.9186 34.9625 93.8637 34.8711 93.8274 34.734L92.0582 28.8098C92.0397 28.7549 92.0304 28.7138 92.0304 28.6864C92.0304 28.5584 92.1223 28.4944 92.3048 28.4944H94.1152C94.2342 28.4944 94.3204 28.5173 94.3753 28.563C94.4301 28.5995 94.4672 28.6635 94.485 28.7549L95.226 31.8679L96.158 29.3584C96.2043 29.2486 96.2499 29.1755 96.2955 29.1389C96.3503 29.0932 96.4415 29.0704 96.5698 29.0704H97.4333C97.5616 29.0704 97.6485 29.0932 97.6941 29.1389C97.749 29.1755 97.7996 29.2486 97.8452 29.3584L98.7636 31.8679L99.5181 28.7549C99.5452 28.6635 99.5822 28.5995 99.6278 28.563C99.6734 28.5173 99.7561 28.4944 99.8744 28.4944H101.698C101.881 28.4944 101.973 28.5584 101.973 28.6864C101.973 28.7138 101.963 28.7549 101.946 28.8098L100.163 34.734C100.126 34.8711 100.071 34.9625 99.9983 35.0083C99.9342 35.0539 99.8337 35.0768 99.6962 35.0768H98.3525C98.2242 35.0768 98.1287 35.0539 98.0646 35.0083C98.0005 34.9534 97.9456 34.862 97.9 34.734L96.9951 32.2519L96.0896 34.734C96.0532 34.862 95.9984 34.9534 95.925 35.0083C95.8608 35.0539 95.7654 35.0768 95.6371 35.0768H94.3069Z" fill="white"/>
<path d="M105.449 35.2824C104.59 35.2824 103.899 35.0082 103.378 34.4596C102.866 33.9019 102.61 33.1202 102.61 32.1146C102.61 31.3467 102.784 30.6747 103.131 30.0988C103.488 29.5228 103.986 29.0794 104.626 28.7686C105.275 28.4486 106.02 28.2886 106.861 28.2886C107.556 28.2886 108.169 28.3663 108.699 28.5217C109.238 28.668 109.732 28.8829 110.18 29.1662V34.6516C110.18 34.8253 110.148 34.9395 110.084 34.9944C110.02 35.0493 109.892 35.0767 109.7 35.0767H108.301C108.201 35.0767 108.123 35.063 108.068 35.0356C108.013 34.999 107.968 34.9441 107.931 34.871L107.752 34.4596C107.487 34.743 107.168 34.9487 106.793 35.0767C106.427 35.2139 105.979 35.2824 105.449 35.2824ZM106.477 33.4174C106.834 33.4174 107.113 33.3305 107.314 33.1568C107.515 32.9832 107.616 32.7363 107.616 32.4163V30.277C107.442 30.1947 107.222 30.1536 106.957 30.1536C106.473 30.1536 106.085 30.3228 105.792 30.661C105.508 30.9993 105.366 31.4747 105.366 32.0872C105.366 32.974 105.737 33.4174 106.477 33.4174Z" fill="white"/>
<path d="M112.075 37.8468C111.809 37.8468 111.622 37.792 111.512 37.6822C111.412 37.5725 111.361 37.3988 111.361 37.1611V29.3034C111.773 29.0108 112.29 28.7686 112.911 28.5766C113.533 28.3846 114.182 28.2886 114.858 28.2886C117.619 28.2886 119 29.4588 119 31.7992C119 32.8597 118.707 33.7054 118.122 34.3362C117.537 34.967 116.71 35.2824 115.64 35.2824C115.338 35.2824 115.046 35.2459 114.763 35.1727C114.488 35.0996 114.26 34.999 114.077 34.871V37.1611C114.077 37.3988 114.022 37.5725 113.912 37.6822C113.802 37.792 113.615 37.8468 113.35 37.8468H112.075ZM115.051 33.4311C115.444 33.4311 115.736 33.2848 115.928 32.9923C116.129 32.6906 116.23 32.2883 116.23 31.7855C116.23 31.1912 116.111 30.7753 115.874 30.5376C115.645 30.2908 115.288 30.1673 114.803 30.1673C114.493 30.1673 114.246 30.2085 114.063 30.2908V32.4712C114.063 32.782 114.15 33.0197 114.324 33.1842C114.498 33.3488 114.74 33.4311 115.051 33.4311Z" fill="white"/>
<path fill-rule="evenodd" clip-rule="evenodd" d="M8.12786 24.2066C7.86052 22.775 8.959 21.4524 10.4153 21.4524C11.7005 21.4524 12.7424 22.4942 12.7424 23.7794V26.6483C13.0639 26.6256 13.3905 26.614 13.7213 26.614C14.0391 26.614 14.3531 26.6247 14.6624 26.6457V23.7794C14.6624 22.4942 15.7042 21.4524 16.9894 21.4524C18.4457 21.4524 19.5442 22.775 19.2769 24.2066L18.6472 27.5788C20.8084 28.5224 22.4426 30.1612 22.4426 32.2206V33.4664C22.4426 35.1599 21.3223 36.5778 19.756 37.535C18.1775 38.4995 16.0422 39.073 13.7213 39.073C11.4004 39.073 9.26505 38.4995 7.68659 37.535C6.12035 36.5778 5 35.1599 5 33.4664V32.2206C5 30.1721 6.61745 28.5396 8.76047 27.5941L8.12786 24.2066ZM17.8401 28.0219L18.577 24.0759C18.7626 23.0823 18.0002 22.1643 16.9894 22.1643C16.0974 22.1643 15.3743 22.8874 15.3743 23.7794V27.4303C15.1406 27.4003 14.9031 27.3766 14.6624 27.3594C14.3537 27.3373 14.0397 27.3259 13.7213 27.3259C13.3899 27.3259 13.0632 27.3382 12.7424 27.3621C12.5016 27.3801 12.2642 27.4045 12.0304 27.4352V23.7794C12.0304 22.8874 11.3073 22.1643 10.4153 22.1643C9.40456 22.1643 8.64215 23.0823 8.82771 24.0759L9.56704 28.035C7.25577 28.8935 5.71194 30.4469 5.71194 32.2206V33.4664C5.71194 36.1697 9.29786 38.361 13.7213 38.361C18.1448 38.361 21.7307 36.1697 21.7307 33.4664V32.2206C21.7307 30.4378 20.1711 28.8777 17.8401 28.0219Z" fill="#2A3D5A"/>
<path d="M21.7306 33.4664C21.7306 36.1696 18.1446 38.361 13.7211 38.361C9.29772 38.361 5.71181 36.1696 5.71181 33.4664V32.2205H21.7306V33.4664Z" fill="#CDE0FD"/>
<path fill-rule="evenodd" clip-rule="evenodd" d="M8.82757 24.0756C8.64202 23.082 9.40442 22.1641 10.4152 22.1641C11.3072 22.1641 12.0303 22.8872 12.0303 23.7792V27.4349C12.5754 27.3633 13.1411 27.3257 13.7211 27.3257C14.2879 27.3257 14.8408 27.3616 15.3741 27.43V23.7792C15.3741 22.8872 16.0973 22.1641 16.9892 22.1641C18.0001 22.1641 18.7624 23.082 18.5769 24.0756L17.84 28.0216C20.1709 28.8774 21.7306 30.4375 21.7306 32.2203C21.7306 34.9235 18.1446 37.1149 13.7211 37.1149C9.29772 37.1149 5.71181 34.9235 5.71181 32.2203C5.71181 30.4466 7.25563 28.8932 9.5669 28.0347L8.82757 24.0756Z" fill="#879AB7"/>
<path d="M11.4967 31.8647C11.4967 32.6019 11.0983 33.1996 10.6068 33.1996C10.1153 33.1996 9.71684 32.6019 9.71684 31.8647C9.71684 31.1274 10.1153 30.5298 10.6068 30.5298C11.0983 30.5298 11.4967 31.1274 11.4967 31.8647Z" fill="#2A3D5A"/>
<path d="M17.6371 31.8647C17.6371 32.6019 17.2387 33.1996 16.7472 33.1996C16.2557 33.1996 15.8573 32.6019 15.8573 31.8647C15.8573 31.1274 16.2557 30.5298 16.7472 30.5298C17.2387 30.5298 17.6371 31.1274 17.6371 31.8647Z" fill="#2A3D5A"/>
</g>
<defs>
<clipPath id="clip0_2:2844">
<rect width="114" height="18.525" fill="white" transform="translate(5 21)"/>
</clipPath>
</defs>
</svg>
