<svg width="125" height="60" viewBox="0 0 125 60" fill="none" xmlns="http://www.w3.org/2000/svg">
<g clip-path="url(#clip0_2:2845)">
<path d="M52.4692 26.4172C52.17 25.2512 51.4158 24.398 49.9411 24.398C47.7649 24.398 46.8548 26.3172 46.8548 28.2648C46.8548 30.2125 47.7649 32.1328 49.9411 32.1328C51.5212 32.1328 52.387 30.953 52.5282 29.4741H54.2631C54.1209 31.9052 52.4007 33.5822 49.9443 33.5822C46.9012 33.5822 45.0809 31.1647 45.0809 28.2638C45.0809 25.3628 46.8948 22.9412 49.938 22.9412C52.2269 22.9549 54.0324 24.221 54.2462 26.4109L52.4692 26.4172Z" fill="white"/>
<path d="M55.3133 29.6532C55.3133 27.4064 56.6637 25.7864 59.0242 25.7864C61.3848 25.7864 62.7352 27.4064 62.7352 29.6532C62.7352 31.9001 61.3848 33.5359 59.0242 33.5359C56.6637 33.5359 55.3133 31.9148 55.3133 29.6532ZM61.1141 29.6532C61.1141 28.3892 60.4747 27.0662 59.0242 27.0662C57.5738 27.0662 56.9344 28.3882 56.9344 29.6532C56.9344 30.9183 57.5738 32.2561 59.0242 32.2561C60.4747 32.2561 61.1141 30.9331 61.1141 29.6532Z" fill="white"/>
<path d="M64.1288 23.1833H65.75V24.7191H64.1288V23.1833ZM64.1288 25.9853H65.75V33.3367H64.1288V25.9853Z" fill="white"/>
<path d="M67.5133 25.9853H69.0491V27.0661L69.0775 27.0945C69.3104 26.6942 69.6447 26.3623 70.0468 26.1324C70.4488 25.9026 70.9044 25.7828 71.3675 25.7852C72.9602 25.7852 73.9693 26.6384 73.9693 28.2869V33.3357H72.3482V28.7146C72.3197 27.5633 71.8647 27.0661 70.9125 27.0661C69.8317 27.0661 69.1344 27.9182 69.1344 28.999V33.3367H67.5133V25.9853Z" fill="white"/>
<path d="M84.762 33.3367H83.6244L83.3547 32.1422C82.4067 33.223 81.5345 33.578 80.2999 33.578C77.2589 33.5801 75.4345 31.1573 75.4345 28.2596C75.4345 25.3618 77.2589 22.9412 80.2978 22.9412C82.5099 22.9412 84.3786 24.1209 84.6482 26.4109H82.9133C82.7427 25.0742 81.5777 24.3916 80.2978 24.3916C78.1216 24.3916 77.2115 26.3109 77.2115 28.2585C77.2115 30.2062 78.1216 32.1264 80.2978 32.1264C82.117 32.1549 83.1124 31.0604 83.1419 29.3393H80.44V27.9899H84.7588L84.762 33.3367Z" fill="white"/>
<path d="M87.7345 30.0799C87.7345 31.2322 88.3602 32.2561 89.7106 32.2561C90.6492 32.2561 91.218 31.8432 91.5013 31.0331H93.0382C92.6832 32.6395 91.318 33.5359 89.7106 33.5359C87.408 33.5359 86.1134 31.9285 86.1134 29.668C86.1134 27.5771 87.4828 25.7864 89.6685 25.7864C91.9859 25.7864 93.4079 27.8762 93.1382 30.0799H87.7345ZM91.5171 29.0139C91.4602 27.99 90.7629 27.0662 89.6685 27.0662C88.5445 27.0662 87.7777 27.9184 87.7345 29.0139H91.5171Z" fill="white"/>
<path d="M99.3383 28.445C99.2098 27.5486 98.5557 27.0662 97.6603 27.0662C96.8176 27.0662 95.6411 27.5065 95.6411 29.7386C95.6411 30.9615 96.1814 32.2561 97.5887 32.2561C98.5272 32.2561 99.1814 31.6304 99.3383 30.5781H100.959C100.66 32.4836 99.4847 33.5359 97.5887 33.5359C95.285 33.5359 94.02 31.9001 94.02 29.7386C94.02 27.5202 95.2292 25.7864 97.6456 25.7864C99.352 25.7864 100.806 26.6396 100.959 28.445H99.3383Z" fill="white"/>
<path d="M102.329 23.1833H103.95V28.9568L106.879 25.9853H108.87L106.055 28.6861L109.14 33.3367H107.16L104.913 29.7668L103.946 30.7054V33.3388H102.329V23.1833Z" fill="white"/>
<path d="M109.577 29.6532C109.577 27.4064 110.927 25.7864 113.288 25.7864C115.649 25.7864 117 27.4064 117 29.6532C117 31.9001 115.649 33.5359 113.288 33.5359C110.927 33.5359 109.577 31.9148 109.577 29.6532ZM115.379 29.6532C115.379 28.3892 114.738 27.0662 113.288 27.0662C111.837 27.0662 111.198 28.3882 111.198 29.6532C111.198 30.9183 111.837 32.2561 113.288 32.2561C114.738 32.2561 115.379 30.9331 115.379 29.6532Z" fill="white"/>
<path d="M36.0726 29.4722C36.0853 32.3472 35.2451 35.1614 33.6584 37.559C32.0716 39.9565 29.8096 41.8297 27.1582 42.9416C24.5069 44.0535 21.5854 44.3542 18.7632 43.8057C15.9409 43.2572 13.3447 41.8841 11.3028 39.86C9.26099 37.836 7.86518 35.2519 7.29195 32.4346C6.71872 29.6173 6.9938 26.6933 8.08242 24.0323C9.17103 21.3713 11.0243 19.0929 13.4078 17.4852C15.7913 15.8775 18.5981 15.0127 21.4731 15.0001C25.3282 14.9833 29.0321 16.4986 31.77 19.2126C34.5079 21.9266 36.0556 25.6171 36.0726 29.4722Z" fill="#96A9C6"/>
<path d="M34.9824 29.4775C34.9944 32.1365 34.2177 34.7393 32.7505 36.9569C31.2832 39.1744 29.1914 40.9071 26.7394 41.9357C24.2874 42.9644 21.5855 43.2428 18.9752 42.7359C16.365 42.2289 13.9637 40.9593 12.0751 39.0876C10.1864 37.2158 8.89521 34.8261 8.36474 32.2206C7.83427 29.615 8.08836 26.9107 9.09487 24.4495C10.1014 21.9884 11.8151 19.881 14.0194 18.3938C16.2236 16.9066 18.8193 16.1065 21.4783 16.0946C25.0436 16.0789 28.4692 17.48 31.0016 19.9897C33.534 22.4994 34.9659 25.9122 34.9824 29.4775Z" fill="#D5E5FF"/>
<path d="M21.7838 16.9656C22.6384 16.8139 23.5131 16.8139 24.3677 16.9656C25.2306 17.1022 26.0647 17.3817 26.8357 17.7925C27.6025 18.2138 28.2651 18.7858 28.9245 19.3219C29.5839 19.8581 30.2401 20.4069 30.8648 21.0073C31.5024 21.5984 32.0589 22.2714 32.5196 23.0087C32.994 23.7402 33.3828 24.5237 33.6783 25.344C34.2397 26.9935 34.4346 28.7705 34.1544 30.4654H34.0712C33.79 28.7853 33.4086 27.1842 32.8072 25.661C32.5249 24.894 32.1927 24.1463 31.8128 23.4227C31.4164 22.6989 30.9797 21.998 30.5045 21.3233C30.0213 20.6412 29.4292 20.0434 28.7518 19.5537C28.0692 19.067 27.2844 18.7521 26.525 18.4529C25.7655 18.1538 25.0123 17.8441 24.2202 17.6166C23.4281 17.389 22.6233 17.2184 21.7827 17.053L21.7838 16.9656Z" fill="white"/>
<path d="M28.3557 24.7322C27.3803 24.4499 26.3691 24.0496 25.3452 23.6451C25.2862 23.3881 25.0587 23.0679 24.5984 22.6771C23.9295 22.0967 22.6728 22.1114 21.5868 22.3685C20.3881 22.0862 19.2041 21.9861 18.0675 22.2631C8.77167 24.8238 14.0427 31.0713 10.6298 37.3514C11.1154 38.3816 16.3495 44.3921 23.9232 42.7794C23.9232 42.7794 21.333 36.5551 27.178 33.5678C31.9192 31.1356 35.3447 26.6356 28.3557 24.7322Z" fill="#94A7C4"/>
<path d="M29.5039 28.8202C29.5045 28.9316 29.4721 29.0407 29.4107 29.1338C29.3493 29.2268 29.2617 29.2995 29.1589 29.3427C29.0562 29.386 28.9429 29.3978 28.8335 29.3766C28.7241 29.3555 28.6234 29.3024 28.5441 29.224C28.4648 29.1457 28.4106 29.0455 28.3883 28.9363C28.3659 28.8272 28.3764 28.7138 28.4185 28.6106C28.4606 28.5074 28.5323 28.4189 28.6246 28.3565C28.717 28.2941 28.8257 28.2604 28.9372 28.2598C29.0866 28.2592 29.2301 28.3179 29.3363 28.4229C29.4425 28.5279 29.5028 28.6708 29.5039 28.8202Z" fill="white"/>
<path d="M21.5869 22.364C22.2642 22.4125 24.7132 23.2067 25.3452 23.6407C24.8186 22.1133 23.0458 21.91 21.5869 22.364Z" fill="#4E617E"/>
<path d="M22.2315 26.2268C22.2317 26.741 22.0794 27.2437 21.7939 27.6714C21.5083 28.0991 21.1024 28.4324 20.6274 28.6294C20.1524 28.8263 19.6296 28.8779 19.1253 28.7777C18.6209 28.6775 18.1576 28.43 17.7939 28.0665C17.4302 27.703 17.1825 27.2397 17.0822 26.7354C16.9818 26.2311 17.0332 25.7083 17.2299 25.2332C17.4266 24.7582 17.7599 24.3521 18.1874 24.0664C18.6149 23.7807 19.1176 23.6282 19.6318 23.6282C19.9732 23.628 20.3112 23.6951 20.6266 23.8257C20.942 23.9562 21.2286 24.1476 21.47 24.3889C21.7114 24.6302 21.9029 24.9168 22.0336 25.2321C22.1642 25.5475 22.2315 25.8855 22.2315 26.2268Z" fill="white"/>
<path d="M21.4604 26.25C21.4604 26.6117 21.3532 26.9652 21.1523 27.2659C20.9513 27.5667 20.6657 27.801 20.3316 27.9395C19.9975 28.0779 19.6298 28.1141 19.2751 28.0435C18.9203 27.973 18.5945 27.7988 18.3388 27.5431C18.083 27.2873 17.9089 26.9615 17.8383 26.6068C17.7678 26.252 17.804 25.8844 17.9424 25.5502C18.0808 25.2161 18.3152 24.9305 18.6159 24.7296C18.9166 24.5286 19.2701 24.4214 19.6318 24.4214C20.1168 24.4214 20.5819 24.614 20.9248 24.957C21.2678 25.2999 21.4604 25.765 21.4604 26.25Z" fill="#485B78"/>
<path d="M31.6095 29.9661C29.5028 31.4503 27.1075 32.5764 23.7094 32.5764C22.1188 32.5764 21.7965 30.891 20.7452 31.7147C20.2027 32.1424 18.2898 33.0988 16.772 33.0261C15.2541 32.9535 12.7934 32.0634 12.1077 28.8232C11.8359 32.0634 11.6969 34.4503 10.4803 37.1858C12.903 41.0653 18.6796 44.0579 23.9232 42.7686C23.3597 38.8343 26.7978 34.9812 28.7349 33.0093C29.4723 32.2625 30.8733 31.0437 31.6095 29.964V29.9661Z" fill="#94A7C4"/>
<path d="M31.5273 30.0632C30.8732 30.6594 30.0948 31.1007 29.3027 31.4905C28.5009 31.8712 27.665 32.1755 26.8062 32.3995C25.9467 32.6218 25.0503 32.7893 24.1423 32.7071C23.2343 32.6249 22.3063 32.3163 21.7048 31.6358L21.7332 31.6032C22.4706 32.0814 23.3217 32.2499 24.1686 32.2742C25.027 32.3003 25.8856 32.2296 26.7282 32.0635C27.5794 31.8853 28.412 31.6279 29.2152 31.2945C30.0189 30.9627 30.8142 30.5783 31.4989 30.0305L31.5273 30.0632Z" fill="#58595B"/>
</g>
<defs>
<clipPath id="clip0_2:2845">
<rect width="110" height="29.0769" fill="white" transform="translate(7 15)"/>
</clipPath>
</defs>
</svg>
