<svg width="125" height="60" viewBox="0 0 125 60" fill="none" xmlns="http://www.w3.org/2000/svg">
<g clip-path="url(#clip0_2:2846)">
<path d="M13.82 29.3296C13.8201 29.1733 13.851 29.0185 13.911 28.8742C13.971 28.7298 14.0589 28.5988 14.1697 28.4885C14.2805 28.3782 14.412 28.2909 14.5567 28.2316C14.7013 28.1723 14.8562 28.1422 15.0126 28.1429L16.9896 28.1493C17.3049 28.1493 17.6072 28.2746 17.8301 28.4975C18.053 28.7204 18.1783 29.0227 18.1783 29.338V36.8143C18.4009 36.7483 18.6859 36.6779 18.9995 36.6041C19.2168 36.553 19.4104 36.43 19.549 36.255C19.6876 36.0801 19.763 35.8634 19.7631 35.6403V26.367C19.7631 26.0518 19.8883 25.7494 20.1112 25.5265C20.3341 25.3035 20.6364 25.1782 20.9517 25.1782H22.9347C23.25 25.1782 23.5523 25.3035 23.7752 25.5265C23.9981 25.7494 24.1234 26.0518 24.1234 26.367V34.9741C24.1234 34.9741 24.6195 34.7733 25.1024 34.5693C25.2819 34.4934 25.435 34.3664 25.5428 34.204C25.6505 34.0416 25.708 33.8511 25.7082 33.6562V23.3954C25.7082 23.0802 25.8334 22.7779 26.0562 22.555C26.2791 22.3321 26.5813 22.2068 26.8965 22.2068H28.8775C29.1926 22.2071 29.4946 22.3325 29.7173 22.5553C29.9399 22.7782 30.065 23.0804 30.065 23.3954V31.8448C31.7825 30.6002 33.523 29.103 34.9043 27.3029C35.1047 27.0417 35.2373 26.7348 35.2903 26.4098C35.3433 26.0848 35.315 25.7517 35.208 25.4403C34.5686 23.6008 33.5522 21.915 32.2239 20.4908C30.8956 19.0666 29.2847 17.9354 27.4941 17.1696C25.7035 16.4037 23.7728 16.0201 21.8254 16.0432C19.8781 16.0664 17.957 16.4958 16.1851 17.304C14.4133 18.1122 12.8296 19.2814 11.5356 20.7367C10.2415 22.1921 9.26548 23.9016 8.66999 25.7558C8.0745 27.61 7.87264 29.5681 8.07733 31.5048C8.28203 33.4415 8.88876 35.3141 9.85872 37.0028C10.0277 37.2942 10.2763 37.5312 10.5754 37.6861C10.8744 37.841 11.2115 37.9074 11.5469 37.8774C11.9216 37.8444 12.3882 37.7978 12.9429 37.7327C13.1844 37.7052 13.4073 37.5899 13.5692 37.4088C13.7311 37.2276 13.8207 36.9932 13.821 36.7502V29.3296" fill="white"/>
<path d="M13.7778 41.3198C15.8659 42.8389 18.3336 43.7507 20.9078 43.9544C23.4819 44.158 26.0623 43.6456 28.3633 42.4738C30.6643 41.302 32.5964 39.5165 33.9456 37.3148C35.2948 35.1131 36.0087 32.5811 36.0082 29.9989C36.0082 29.6758 35.9932 29.3578 35.9718 29.0408C30.8576 36.6683 21.4148 40.2341 13.7778 41.3198Z" fill="#A6B9D6"/>
<path d="M48.0544 29.7403C48.8044 29.8781 49.4813 30.277 49.9651 30.8664C50.4474 31.4463 50.706 32.1798 50.6942 32.934C50.6942 34.017 50.3312 34.8753 49.6051 35.5091C48.879 36.1429 47.8267 36.4598 46.4484 36.4598H41.2611V23.427H46.3561C47.6606 23.427 48.6605 23.7193 49.3559 24.3038C50.0512 24.8884 50.3989 25.6914 50.3989 26.7129C50.4323 27.4366 50.2028 28.148 49.7528 28.7158C49.3126 29.2323 48.7166 29.5919 48.0544 29.7403ZM43.3655 29.0389H45.9684C46.7068 29.0389 47.2699 28.8666 47.6575 28.522C47.8543 28.3394 48.0084 28.1158 48.1089 27.8669C48.2094 27.618 48.2539 27.3501 48.239 27.0821C48.2527 26.817 48.2076 26.5521 48.1071 26.3064C48.0066 26.0607 47.8531 25.8402 47.6575 25.6607C47.2699 25.3161 46.6822 25.1438 45.8946 25.1438H43.3655V29.0389ZM46.0238 34.7246C46.8237 34.7246 47.4422 34.5431 47.8791 34.18C48.098 33.9936 48.271 33.7592 48.3846 33.4951C48.4983 33.231 48.5495 32.9442 48.5344 32.6571C48.5487 32.3678 48.4962 32.0791 48.3809 31.8134C48.2657 31.5477 48.0908 31.3121 47.8698 31.1249C47.4268 30.7557 46.8053 30.5711 46.0053 30.5711H43.3655V34.7246H46.0238ZM56.0108 26.1591C57.2045 26.1591 58.1614 26.4637 58.8813 27.0729C59.6093 27.6964 60.0797 28.5681 60.2012 29.5188H58.2075C58.1407 29.0013 57.8882 28.5256 57.4968 28.1805C57.0636 27.8262 56.5143 27.6453 55.9554 27.6728C55.5137 27.6445 55.0769 27.7792 54.7278 28.0512C54.5836 28.1788 54.4698 28.3371 54.3947 28.5143C54.3197 28.6916 54.2852 28.8835 54.294 29.0758C54.2882 29.2199 54.3132 29.3636 54.3673 29.4973C54.4214 29.631 54.5034 29.7516 54.6078 29.8511C54.8341 30.0582 55.1014 30.2154 55.3923 30.3126C55.8318 30.4585 56.2786 30.5818 56.7307 30.6818C57.3612 30.8153 57.9812 30.9942 58.586 31.2172C59.0597 31.4017 59.4789 31.7034 59.8043 32.094C60.1645 32.5598 60.3447 33.1398 60.312 33.7277C60.3225 34.124 60.2404 34.5173 60.0722 34.8762C59.9039 35.2352 59.6542 35.5499 59.3428 35.7953C58.6967 36.3245 57.826 36.5891 56.7307 36.5891C55.4631 36.5891 54.4386 36.2937 53.6571 35.703C53.2678 35.4065 52.9422 35.0347 52.6995 34.6097C52.4569 34.1847 52.3023 33.7153 52.2449 33.2293H54.294C54.3185 33.4925 54.3966 33.7478 54.5236 33.9796C54.6506 34.2114 54.8238 34.4146 55.0324 34.5769C55.5217 34.9403 56.1219 35.1229 56.7307 35.0938C57.1637 35.1185 57.5898 34.9765 57.9214 34.6969C58.0623 34.5707 58.1742 34.4154 58.2491 34.2416C58.324 34.0679 58.3602 33.8799 58.3552 33.6908C58.363 33.5338 58.3374 33.377 58.2801 33.2306C58.2228 33.0843 58.1352 32.9517 58.0229 32.8417C57.7836 32.6218 57.5005 32.4551 57.1922 32.3525C56.7446 32.2047 56.2884 32.0845 55.8262 31.9925C55.2161 31.8575 54.615 31.6849 54.0263 31.4756C53.5657 31.304 53.1583 31.0143 52.8448 30.6357C52.498 30.1851 52.3245 29.625 52.3556 29.0573C52.3443 28.6569 52.4259 28.2594 52.594 27.8958C52.7622 27.5323 53.0123 27.2127 53.3248 26.9621C53.9709 26.4267 54.8662 26.1591 56.0108 26.1591ZM66.9392 26.1591C68.256 26.1591 69.3452 26.5067 70.2066 27.2021C71.0771 27.9128 71.6501 28.9237 71.8127 30.0357H69.579C69.4818 29.439 69.1618 28.9013 68.6837 28.5312C68.1679 28.1548 67.5404 27.963 66.9023 27.9866C66.5223 27.9775 66.1447 28.0493 65.7946 28.1973C65.4445 28.3453 65.1299 28.5661 64.8716 28.845C64.3301 29.4173 64.0594 30.2572 64.0594 31.3648C64.0594 32.4725 64.3301 33.3155 64.8716 33.8939C65.1285 34.1752 65.4426 34.3981 65.7929 34.5478C66.1432 34.6975 66.5215 34.7703 66.9023 34.7615C67.5418 34.7851 68.1702 34.5897 68.6837 34.2077C69.1609 33.8329 69.4804 33.2928 69.579 32.694H71.8127C71.6487 33.8081 71.0763 34.8214 70.2066 35.5368C69.3452 36.2383 68.256 36.5891 66.9392 36.5891C66.0291 36.6072 65.1296 36.3911 64.3271 35.9614C63.5707 35.5435 62.9518 34.9151 62.5457 34.1523C62.0977 33.2929 61.8754 32.3337 61.8996 31.3648C61.8768 30.402 62.0991 29.4492 62.5457 28.5958C62.9518 27.8331 63.5707 27.2046 64.3271 26.7867C65.1296 26.3571 66.0291 26.1409 66.9392 26.1591ZM82.4088 32.9893C82.413 33.6132 82.2539 34.2274 81.9473 34.7707C81.6187 35.3384 81.1309 35.7973 80.5443 36.0906C79.8275 36.443 79.0352 36.6142 78.2368 36.5891C77.4186 36.6027 76.6069 36.4423 75.8554 36.1183C75.1897 35.8328 74.6105 35.3777 74.1756 34.7984C73.7553 34.2274 73.5056 33.5489 73.4556 32.8417H75.7078C75.7655 33.4002 76.0247 33.9187 76.4369 34.3C76.6676 34.5088 76.9371 34.67 77.2301 34.7745C77.5231 34.8791 77.8338 34.9248 78.1445 34.9092C78.4141 34.9262 78.6844 34.8893 78.9396 34.8005C79.1948 34.7118 79.4297 34.573 79.6305 34.3923C79.8052 34.2191 79.9421 34.0115 80.0327 33.7828C80.1232 33.5541 80.1654 33.309 80.1567 33.0632C80.1733 32.6441 80.0353 32.2334 79.769 31.9094C79.5057 31.6043 79.1778 31.3615 78.8091 31.1987C78.4276 31.0264 77.9045 30.8295 77.24 30.608C76.5593 30.4015 75.8958 30.1423 75.2555 29.8326C74.7372 29.5677 74.2907 29.1814 73.954 28.7066C73.5737 28.134 73.3862 27.4549 73.4187 26.7683C73.4049 26.1154 73.5848 25.473 73.9356 24.9222C74.2979 24.3781 74.8112 23.9515 75.4124 23.6946C76.1114 23.3936 76.8667 23.2456 77.6276 23.2608C78.9567 23.2608 80.0121 23.5808 80.7935 24.2208C81.1747 24.527 81.4899 24.9074 81.7199 25.3389C81.9499 25.7705 82.0901 26.2441 82.1319 26.7313H79.8613C79.778 26.2444 79.5343 25.7994 79.169 25.4668C78.7431 25.0979 78.1903 24.9092 77.6276 24.9407C77.1148 24.9151 76.61 25.0757 76.2062 25.393C76.0242 25.5552 75.8814 25.7566 75.7887 25.9821C75.6959 26.2075 75.6556 26.4511 75.6708 26.6944C75.6557 27.0933 75.7871 27.484 76.04 27.7928C76.2948 28.0884 76.6136 28.322 76.9723 28.4758C77.3476 28.642 77.8614 28.8358 78.5137 29.0573C79.2074 29.2644 79.8833 29.5268 80.5351 29.8419C81.0653 30.1127 81.5216 30.5087 81.8642 30.9956C82.252 31.5859 82.4427 32.2839 82.4088 32.9893ZM89.036 26.1591C90.3528 26.1591 91.442 26.5067 92.3034 27.2021C93.174 27.9128 93.7469 28.9237 93.9095 30.0357H91.6758C91.5786 29.439 91.2586 28.9013 90.7805 28.5312C90.2647 28.1548 89.6372 27.963 88.9991 27.9866C88.6191 27.9775 88.2415 28.0493 87.8914 28.1973C87.5413 28.3453 87.2267 28.5661 86.9685 28.845C86.427 29.4173 86.1562 30.2572 86.1562 31.3648C86.1562 32.4725 86.427 33.3155 86.9685 33.8939C87.2253 34.1752 87.5394 34.3981 87.8897 34.5478C88.24 34.6975 88.6183 34.7703 88.9991 34.7615C89.6386 34.7851 90.267 34.5897 90.7805 34.2077C91.2578 33.8329 91.5772 33.2928 91.6758 32.694H93.9095C93.7455 33.8081 93.1731 34.8214 92.3034 35.5368C91.442 36.2383 90.3528 36.5891 89.036 36.5891C88.1259 36.6072 87.2264 36.3911 86.4239 35.9614C85.6675 35.5435 85.0487 34.9151 84.6425 34.1523C84.1945 33.2929 83.9722 32.3337 83.9964 31.3648C83.9736 30.402 84.1959 29.4492 84.6425 28.5958C85.0487 27.8331 85.6675 27.2046 86.4239 26.7867C87.2264 26.3571 88.1259 26.1409 89.036 26.1591ZM100.02 26.1591C100.859 26.1345 101.686 26.3734 102.383 26.8421C103.024 27.2833 103.509 27.9168 103.767 28.6512V26.2883H105.872V36.4598H103.767V34.0969C103.509 34.8314 103.024 35.4648 102.383 35.906C101.686 36.3748 100.859 36.6136 100.02 36.5891C99.1863 36.6031 98.3652 36.3858 97.6477 35.9614C96.9396 35.5291 96.3721 34.9007 96.0139 34.1523C95.602 33.2821 95.3997 32.3274 95.4232 31.3648C95.401 30.4083 95.6033 29.46 96.0139 28.5958C96.3721 27.8475 96.9396 27.2191 97.6477 26.7867C98.3652 26.3623 99.1863 26.145 100.02 26.1591ZM100.666 28.0051C100.25 27.9864 99.8347 28.0566 99.4479 28.211C99.0612 28.3654 98.7118 28.6004 98.423 28.9004C97.863 29.4973 97.5831 30.3188 97.5831 31.3648C97.5831 32.4109 97.863 33.2324 98.423 33.8293C98.7118 34.1293 99.0612 34.3643 99.4479 34.5187C99.8347 34.6731 100.25 34.7433 100.666 34.7246C101.223 34.7335 101.772 34.5898 102.253 34.3092C102.724 34.0289 103.108 33.623 103.361 33.137C103.642 32.5894 103.782 31.9802 103.767 31.3648C103.779 30.7527 103.64 30.147 103.361 29.6019C103.11 29.112 102.726 28.7026 102.253 28.4204C101.772 28.1399 101.223 27.9962 100.666 28.0051ZM114.086 26.1222C115.268 26.1222 116.216 26.5037 116.929 27.2667C117.643 28.0297 118 29.1189 118 30.5341V36.4598H115.896V30.7557C115.896 29.845 115.662 29.1404 115.194 28.642C114.945 28.3884 114.646 28.1905 114.315 28.0616C113.984 27.9327 113.629 27.8757 113.274 27.8943C112.901 27.8779 112.529 27.941 112.182 28.0795C111.835 28.2179 111.521 28.4285 111.262 28.6973C110.757 29.2327 110.505 30.0172 110.505 31.051V36.4598H108.401V26.2883H110.505V28.522C110.748 27.7945 111.23 27.1702 111.871 26.7498C112.531 26.3256 113.302 26.1071 114.086 26.1222Z" fill="white"/>
</g>
<defs>
<clipPath id="clip0_2:2846">
<rect width="110" height="27.9978" fill="white" transform="translate(8 16)"/>
</clipPath>
</defs>
</svg>
