<svg width="43" height="61" viewBox="0 0 43 61" fill="none" xmlns="http://www.w3.org/2000/svg">
<path d="M42.8002 22.0562C42.8034 18.0213 41.6669 14.068 39.5222 10.654C37.3776 7.24001 34.3125 4.50502 30.682 2.76569C27.0514 1.02635 23.0038 0.353812 19.0079 0.825939C15.0119 1.29807 11.231 2.89555 8.10301 5.43342C4.97497 7.97129 2.62771 11.3458 1.33302 15.1661C0.0383231 18.9864 -0.150853 23.0964 0.787392 27.0201C1.72564 30.9438 3.75293 34.5207 6.63454 37.3368C9.51614 40.1528 13.1342 42.0928 17.0698 42.932L15.3658 53.2133C15.2167 54.107 15.2637 55.0226 15.5033 55.8963C15.7429 56.7699 16.1695 57.5808 16.7534 58.2723C17.3372 58.9639 18.0644 59.5196 18.8841 59.9007C19.7039 60.2818 20.5966 60.4793 21.5002 60.4793C22.4038 60.4793 23.2965 60.2818 24.1163 59.9007C24.936 59.5196 25.6631 58.9639 26.247 58.2723C26.8309 57.5808 27.2574 56.7699 27.4971 55.8963C27.7367 55.0226 27.7836 54.107 27.6346 53.2133L25.9306 42.9036C30.6935 41.8825 34.9645 39.2575 38.0335 35.4648C41.1025 31.6722 42.7846 26.9404 42.8002 22.0562ZM21.5002 54.8082C21.2193 54.8082 20.9448 54.7247 20.7113 54.5682C20.4778 54.4117 20.2958 54.1893 20.1883 53.9291C20.0808 53.6689 20.0527 53.3826 20.1075 53.1064C20.1623 52.8302 20.2975 52.5764 20.4961 52.3773C20.6947 52.1781 20.9477 52.0425 21.2232 51.9876C21.4986 51.9326 21.7841 51.9608 22.0436 52.0686C22.3031 52.1764 22.5248 52.3589 22.6809 52.5931C22.8369 52.8272 22.9202 53.1026 22.9202 53.3842C22.9202 53.7619 22.7706 54.1241 22.5043 54.3911C22.238 54.6582 21.8768 54.8082 21.5002 54.8082ZM21.5002 37.7202C18.4108 37.7202 15.3909 36.8015 12.8222 35.0803C10.2535 33.3592 8.25143 30.9128 7.06919 28.0506C5.88695 25.1883 5.57762 22.0388 6.18033 19.0003C6.78303 15.9618 8.27069 13.1707 10.4552 10.9801C12.6397 8.78943 15.4229 7.29758 18.4529 6.69318C21.4829 6.08878 24.6235 6.39898 27.4777 7.58455C30.3319 8.77012 32.7714 10.7778 34.4877 13.3537C36.2041 15.9297 37.1202 18.9582 37.1202 22.0562C37.1127 26.2082 35.4646 30.1881 32.5369 33.124C29.6092 36.0599 25.6406 37.7127 21.5002 37.7202ZM25.3342 15.3634C25.47 15.4912 25.5783 15.6457 25.6523 15.8171C25.7263 15.9885 25.7645 16.1734 25.7645 16.3602C25.7645 16.547 25.7263 16.7319 25.6523 16.9033C25.5783 17.0747 25.47 17.2292 25.3342 17.357L16.8142 25.901C16.6867 26.0372 16.5327 26.1458 16.3618 26.22C16.1908 26.2942 16.0065 26.3325 15.8202 26.3325C15.6339 26.3325 15.4496 26.2942 15.2786 26.22C15.1077 26.1458 14.9537 26.0372 14.8262 25.901C14.6904 25.7732 14.5821 25.6187 14.5081 25.4473C14.4341 25.2759 14.3959 25.091 14.3959 24.9042C14.3959 24.7174 14.4341 24.5325 14.5081 24.3611C14.5821 24.1897 14.6904 24.0352 14.8262 23.9074L23.3462 15.3634C23.4737 15.2272 23.6277 15.1186 23.7986 15.0444C23.9696 14.9702 24.1539 14.9319 24.3402 14.9319C24.5265 14.9319 24.7108 14.9702 24.8818 15.0444C25.0527 15.1186 25.2067 15.2272 25.3342 15.3634ZM25.3342 23.9074C25.47 24.0352 25.5783 24.1897 25.6523 24.3611C25.7263 24.5325 25.7645 24.7174 25.7645 24.9042C25.7645 25.091 25.7263 25.2759 25.6523 25.4473C25.5783 25.6187 25.47 25.7732 25.3342 25.901L22.4942 28.749C22.3667 28.8852 22.2127 28.9938 22.0418 29.068C21.8708 29.1422 21.6865 29.1805 21.5002 29.1805C21.3139 29.1805 21.1296 29.1422 20.9586 29.068C20.7877 28.9938 20.6337 28.8852 20.5062 28.749C20.3704 28.6212 20.2621 28.4667 20.1881 28.2953C20.1141 28.1239 20.0759 27.939 20.0759 27.7522C20.0759 27.5654 20.1141 27.3805 20.1881 27.2091C20.2621 27.0377 20.3704 26.8832 20.5062 26.7554L23.3462 23.9074C23.4737 23.7712 23.6277 23.6626 23.7986 23.5884C23.9696 23.5142 24.1539 23.4759 24.3402 23.4759C24.5265 23.4759 24.7108 23.5142 24.8818 23.5884C25.0527 23.6626 25.2067 23.7712 25.3342 23.9074Z" fill="white"/>
</svg>
