<svg width="54" height="64" viewBox="0 0 54 64" fill="none" xmlns="http://www.w3.org/2000/svg">
<path d="M53.575 23.9746C53.275 22.7098 50.65 11.5498 49.45 10.3594C47.275 7.97862 43.525 6.11862 40.3 4.92822L26.95 13.9306C26.875 13.9306 26.875 14.005 26.8 14.005H26.725C26.65 14.005 26.575 14.005 26.5 14.005C26.425 14.005 26.35 14.005 26.275 14.005H26.2C26.125 14.005 26.125 13.9306 26.05 13.9306L13.15 5.22582C10.075 6.41622 6.85 8.12742 4.825 10.3594C3.7 11.6242 1 22.7098 0.7 23.9746L0.625 24.3466L1 24.421C1.225 24.4954 6.85 25.8346 9.775 25.9834H10L11.35 23.0818C11.65 28.0666 12.625 45.4018 11.125 62.2162V62.4394L11.35 62.5882C11.5 62.6626 13.15 63.4066 26.8 63.4066C27.025 63.4066 27.25 63.4066 27.475 63.4066C41.125 63.4066 42.775 62.6626 42.925 62.5882L43.15 62.4394V62.2162C41.65 45.4018 42.625 28.0666 42.925 23.0818L44.275 25.9834H44.5C47.425 25.909 53.05 24.4954 53.275 24.421L53.65 24.3466L53.575 23.9746Z" fill="white"/>
<path d="M26.4996 12.2193L38.3496 4.18406C36.1746 3.44006 34.4496 3.06806 33.7746 2.91926C33.6246 1.80326 32.6496 0.984863 31.5246 0.984863H22.8246C21.6996 0.984863 20.7246 1.80326 20.5746 2.91926C19.8246 3.06806 17.6496 3.58886 15.0996 4.48166L26.4996 12.2193Z" fill="white"/>
</svg>
