<svg width="72" height="51" viewBox="0 0 72 51" fill="none" xmlns="http://www.w3.org/2000/svg">
<path d="M48.0096 50.1521H0.56154V43.4108C0.559718 42.7075 0.71176 42.0126 1.00677 41.3757C1.30178 40.7389 1.73246 40.1759 2.26794 39.7271C6.09273 36.6067 10.2062 33.8665 14.5511 31.5444C14.8319 32.2069 17.5535 38.5332 19.2887 41.205C19.3005 41.2296 19.3189 41.2503 19.3419 41.2649C19.3648 41.2794 19.3913 41.2871 19.4183 41.2871C19.4454 41.2871 19.4719 41.2794 19.4948 41.2649C19.5177 41.2503 19.5362 41.2296 19.5479 41.205C19.9007 40.1348 21.2615 36.422 23.3279 36.6768C23.3593 36.6863 23.393 36.6841 23.4229 36.6706C23.4528 36.657 23.477 36.6331 23.4909 36.6032C23.5048 36.5732 23.5077 36.5392 23.4989 36.5073C23.4902 36.4754 23.4704 36.4477 23.4431 36.4293C21.8807 35.1698 17.9207 31.9302 16.4087 30.1248V25.7641C15.7377 24.613 15.2814 23.3471 15.0623 22.0294C14.5439 21.9858 13.8671 21.2578 13.1327 18.6442C12.1895 15.2809 13.0751 14.6111 13.9319 14.6184C13.4783 12.6528 12.3263 5.82416 17.3519 2.72288C17.0546 2.46708 16.8156 2.14913 16.6516 1.79093C16.4875 1.43274 16.4022 1.04282 16.4015 0.648077C16.4015 0.648077 22.1615 1.30328 24.9047 0.728157C27.6479 0.153037 30.6647 2.3516 31.1327 4.47008C31.1327 4.47008 36.7559 4.47008 34.5743 14.6257C35.4527 14.5893 36.4103 15.2008 35.4383 18.6515C34.7183 21.265 33.9983 22.0003 33.5087 22.0367C33.2889 23.3542 32.8326 24.6199 32.1623 25.7714V30.0957C30.6503 31.9011 26.6975 35.148 25.1351 36.4002C25.1079 36.4186 25.0881 36.4462 25.0794 36.4781C25.0706 36.5101 25.0734 36.5441 25.0874 36.574C25.1013 36.604 25.1255 36.6279 25.1554 36.6414C25.1853 36.6549 25.219 36.6572 25.2503 36.6477C27.3167 36.3929 28.6775 40.0984 29.0303 41.1758C29.0421 41.2005 29.0605 41.2212 29.0835 41.2357C29.1064 41.2503 29.1329 41.258 29.1599 41.258C29.187 41.258 29.2135 41.2503 29.2364 41.2357C29.2593 41.2212 29.2778 41.2005 29.2895 41.1758C31.0247 38.5041 33.7463 32.1778 34.0271 31.5153C38.3733 33.8466 42.4868 36.5967 46.3103 39.7271C46.8458 40.1759 47.2765 40.7389 47.5715 41.3757C47.8665 42.0126 48.0186 42.7075 48.0168 43.4108L48.0096 50.1521ZM45.9863 31.508V34.2162C45.9851 34.5065 45.9054 34.7909 45.7559 35.0388C46.6415 35.7013 47.5344 36.4002 48.42 37.1354C49.3291 37.901 50.059 38.8609 50.557 39.9461C51.055 41.0312 51.3088 42.2145 51.3 43.4108V50.1521H71.4384V43.7821C71.3533 42.9016 71.0431 42.0586 70.5381 41.3361C70.0331 40.6137 69.3508 40.0366 68.5584 39.6616C67.2086 38.9899 65.7981 38.4512 64.3464 38.0527C64.2672 38.009 59.7888 36.8224 57.6647 35.6794L57.4847 35.5921C57.2636 35.4474 57.0819 35.249 56.9561 35.015C56.8304 34.781 56.7646 34.5189 56.7647 34.2526V32.1414V31.4134C56.7647 31.4134 62.9208 31.6026 65.8368 28.5887C65.8368 28.5887 61.5888 27.373 62.352 19.547C63.1152 11.721 61.4016 4.85592 55.152 5.43832C55.152 5.43832 52.4592 2.16232 47.0952 4.22256C45.252 4.95056 40.3127 6.7196 40.5647 17.5595C40.8167 28.3994 36.7559 28.4795 36.7559 28.4795C36.7559 28.4795 38.8799 31.5735 45.9863 31.508Z" fill="white"/>
</svg>
