<svg width="43" height="69" viewBox="0 0 43 69" fill="none" xmlns="http://www.w3.org/2000/svg">
<path d="M36.8913 41.6162C34.3908 45.4401 33.0955 50.1326 30.5455 49.6461C27.9955 49.1595 24.8553 46.9088 21.0408 46.7877C17.2263 46.9095 14.0853 49.1595 11.536 49.6461C8.98676 50.1326 7.69076 45.4401 5.19026 41.6162C3.19976 54.6544 4.40576 60.9592 13.3263 64.6079C14.3275 67.2541 18.0438 68.4401 21.0408 68.4401C24.0378 68.4401 27.754 67.2541 28.7553 64.6086C37.6758 60.9592 38.8818 54.6551 36.8913 41.6162ZM21.0408 55.8298C16.8498 57.8632 14.6928 55.6794 15.2935 53.6211C15.8155 51.8336 18.8778 52.536 21.0408 51.0109C23.2038 52.536 26.266 51.8336 26.788 53.6211C27.3888 55.6794 25.2318 57.8624 21.0408 55.8298Z" fill="white"/>
<path d="M40.7298 15.3557C40.7298 15.3557 38.5458 13.014 41.9815 10.0947C39.7293 10.6422 37.4928 10.4595 34.2168 9.97292C34.2168 9.97292 35.422 7.50936 38.584 6.32346C35.383 4.2705 30.7923 2.47397 26.1235 3.35381C26.1235 3.35381 26.356 2.016 28.054 0.921092C19.207 -0.236236 12.769 5.16914 11.287 6.44528C11.287 6.44528 10.8018 5.71584 12.136 3.4042C6.31301 4.98565 3.78776 9.30364 3.51476 14.5037C-0.48874 16.0852 -0.94324 28.8263 4.77701 35.3785C4.68476 33.9294 4.58951 32.4442 4.48076 30.874C5.53376 30.4017 8.11976 28.7285 8.05976 27.4983C7.89926 24.1977 5.75126 19.9076 7.60901 18.7623C10.4013 17.041 16.1388 15.355 21.0408 15.355C25.9428 15.355 31.6803 17.041 34.4718 18.7623C36.3295 19.9076 34.1815 24.1977 34.021 27.4983C33.961 28.7285 36.547 30.4017 37.6 30.874C37.4913 32.4442 37.3953 33.9301 37.3038 35.3792H37.3225C41.458 30.5612 44.6425 19.7346 40.7298 15.3557Z" fill="white"/>
</svg>
