<svg width="48" height="62" viewBox="0 0 48 62" fill="none" xmlns="http://www.w3.org/2000/svg">
<path d="M24.0003 0.919922C10.943 0.919922 0.320312 11.5426 0.320312 24.5999V40.5999C0.320312 43.0697 2.32991 45.0799 4.80031 45.0799C5.63615 45.0799 6.41695 44.8457 7.08767 44.445C8.89247 53.9049 17.2221 61.0799 27.2003 61.0799C38.4931 61.0799 47.6803 51.8927 47.6803 40.5999V24.5999C47.6803 11.5426 37.0576 0.919922 24.0003 0.919922ZM27.2003 58.5199C17.3194 58.5199 9.28031 50.4809 9.28031 40.5999V24.5999C9.28031 16.4828 15.8838 9.87992 24.0003 9.87992C32.1168 9.87992 38.7203 16.4828 38.7203 24.5999V40.5999C38.7203 46.9519 33.5523 52.1199 27.2003 52.1199C20.8483 52.1199 15.6803 46.9519 15.6803 40.5999V24.5999C15.6803 20.0124 19.4128 16.2799 24.0003 16.2799C28.5878 16.2799 32.3203 20.0124 32.3203 24.5999V42.1999C32.3203 43.2585 31.4589 44.1199 30.4003 44.1199C29.3418 44.1199 28.4803 43.2585 28.4803 42.1999V24.5999C28.4803 22.1302 26.4707 20.1199 24.0003 20.1199C21.5299 20.1199 19.5203 22.1302 19.5203 24.5999V42.1999C19.5203 42.9065 20.0938 43.4799 20.8003 43.4799C21.5069 43.4799 22.0803 42.9065 22.0803 42.1999V24.5999C22.0803 23.5414 22.9418 22.6799 24.0003 22.6799C25.0589 22.6799 25.9203 23.5414 25.9203 24.5999V42.1999C25.9203 44.6697 27.9299 46.6799 30.4003 46.6799C32.8707 46.6799 34.8803 44.6697 34.8803 42.1999V24.5999C34.8803 18.6006 29.9997 13.7199 24.0003 13.7199C18.001 13.7199 13.1203 18.6006 13.1203 24.5999V40.5999C13.1203 48.3638 19.4365 54.6799 27.2003 54.6799C34.9642 54.6799 41.2803 48.3638 41.2803 40.5999V24.5999C41.2803 15.0716 33.5286 7.31992 24.0003 7.31992C14.472 7.31992 6.72031 15.0716 6.72031 24.5999V40.5999C6.72031 41.6585 5.85887 42.5199 4.80031 42.5199C3.74175 42.5199 2.88031 41.6585 2.88031 40.5999V24.5999C2.88031 12.9545 12.3549 3.47992 24.0003 3.47992C35.6458 3.47992 45.1203 12.9545 45.1203 24.5999V40.5999C45.1203 50.4809 37.0813 58.5199 27.2003 58.5199Z" fill="white"/>
</svg>
