<svg width="16" height="16" viewBox="0 0 16 16" fill="none" xmlns="http://www.w3.org/2000/svg">
<path d="M7.11111 0.888889C7.11111 0.888889 7.11111 0 8 0C8.88889 0 8.88889 0.888889 8.88889 0.888889V1.77778C8.88889 1.77778 8.88889 2.66667 8 2.66667C7.11111 2.66667 7.11111 1.77778 7.11111 1.77778V0.888889ZM15.1111 7.11111C15.1111 7.11111 16 7.11111 16 8C16 8.88889 15.1111 8.88889 15.1111 8.88889H14.2222C14.2222 8.88889 13.3333 8.88889 13.3333 8C13.3333 7.11111 14.2222 7.11111 14.2222 7.11111H15.1111ZM1.77778 7.11111C1.77778 7.11111 2.66667 7.11111 2.66667 8C2.66667 8.88889 1.77778 8.88889 1.77778 8.88889H0.888889C0.888889 8.88889 0 8.88889 0 8C0 7.11111 0.888889 7.11111 0.888889 7.11111H1.77778ZM4.05378 3.24133C4.05378 3.24133 4.68222 3.86978 4.05378 4.49822C3.42533 5.12667 2.79689 4.49822 2.79689 4.49822L2.168 3.87022C2.168 3.87022 1.53956 3.24178 2.168 2.61289C2.79689 1.98444 3.42533 2.61289 3.42533 2.61289L4.05378 3.24133ZM13.3871 12.5747C13.3871 12.5747 14.0156 13.2031 13.3871 13.8316C12.7587 14.46 12.1302 13.8316 12.1302 13.8316L11.5018 13.2031C11.5018 13.2031 10.8733 12.5747 11.5018 11.9462C12.1302 11.3178 12.7587 11.9462 12.7587 11.9462L13.3871 12.5747ZM13.2036 4.49822C13.2036 4.49822 12.5751 5.12667 11.9467 4.49822C11.3182 3.86978 11.9467 3.24133 11.9467 3.24133L12.5751 2.61289C12.5751 2.61289 13.2036 1.98444 13.832 2.61289C14.4604 3.24133 13.832 3.86978 13.832 3.86978L13.2036 4.49822ZM3.87022 13.8316C3.87022 13.8316 3.24178 14.46 2.61333 13.8316C1.98489 13.2031 2.61333 12.5747 2.61333 12.5747L3.24178 11.9462C3.24178 11.9462 3.87022 11.3178 4.49867 11.9462C5.12711 12.5747 4.49867 13.2031 4.49867 13.2031L3.87022 13.8316ZM7.11111 14.2222C7.11111 14.2222 7.11111 13.3333 8 13.3333C8.88889 13.3333 8.88889 14.2222 8.88889 14.2222V15.1111C8.88889 15.1111 8.88889 16 8 16C7.11111 16 7.11111 15.1111 7.11111 15.1111V14.2222Z" fill="#FFAC33"/>
<path d="M8 12.4444C10.4546 12.4444 12.4445 10.4546 12.4445 8C12.4445 5.5454 10.4546 3.55556 8 3.55556C5.5454 3.55556 3.55556 5.5454 3.55556 8C3.55556 10.4546 5.5454 12.4444 8 12.4444Z" fill="#FFDE33"/>
</svg>
