<svg width="263" height="63" viewBox="0 0 263 63" fill="none" xmlns="http://www.w3.org/2000/svg">
<g clip-path="url(#clip0_2_463)">
<path fill-rule="evenodd" clip-rule="evenodd" d="M230.386 -0.000488281C230.386 -0.000488281 226.859 2.76088 226.859 7.82338C226.859 12.8859 230.386 35.2836 230.386 35.2836C230.386 35.2836 233.914 12.8859 233.914 7.82338C233.862 2.76088 230.386 -0.000488281 230.386 -0.000488281Z" fill="white" fill-opacity="0.66"/>
<path fill-rule="evenodd" clip-rule="evenodd" d="M230.387 62.9995C230.336 62.9995 228.087 61.4143 228.087 58.4995C228.087 55.5847 230.387 42.7495 230.387 42.7495C230.387 42.7495 232.688 55.5847 232.688 58.4995C232.688 61.4143 230.387 62.9995 230.387 62.9995Z" fill="white" fill-opacity="0.66"/>
<path fill-rule="evenodd" clip-rule="evenodd" d="M263 39.0165C262.948 38.9142 260.699 36.1528 256.61 36.1528C252.469 36.1528 234.118 39.0165 234.118 39.0165C234.118 39.0165 252.469 41.8801 256.61 41.8801C260.648 41.9312 262.897 39.1187 263 39.0165Z" fill="white" fill-opacity="0.66"/>
<path fill-rule="evenodd" clip-rule="evenodd" d="M197.978 39.0165C197.978 39.0165 200.228 36.1528 204.317 36.1528C208.458 36.1528 226.655 39.0165 226.655 39.0165C226.655 39.0165 208.406 41.8801 204.317 41.8801C200.176 41.8801 197.978 39.0165 197.978 39.0165Z" fill="white" fill-opacity="0.66"/>
<path fill-rule="evenodd" clip-rule="evenodd" d="M204.573 13.1929C204.573 13.1929 204.062 17.2838 207.385 20.6588C210.707 23.9826 227.781 36.4088 227.781 36.4088C227.781 36.4088 215.359 19.3804 212.036 16.0054C208.663 12.6815 204.573 13.1929 204.573 13.1929Z" fill="white" fill-opacity="0.66"/>
<path fill-rule="evenodd" clip-rule="evenodd" d="M249.045 57.7321C249.045 57.7321 246.131 58.1412 243.831 55.8401C241.531 53.5389 232.994 41.6753 232.994 41.6753C232.994 41.6753 244.853 50.2151 247.154 52.5162C249.454 54.8173 249.045 57.7321 249.045 57.7321Z" fill="white" fill-opacity="0.66"/>
<path fill-rule="evenodd" clip-rule="evenodd" d="M256.457 12.9373C256.457 12.9373 252.317 12.426 248.892 15.801C245.518 19.176 232.943 36.4089 232.943 36.4089C232.943 36.4089 250.17 23.8294 253.544 20.4544C256.969 17.0794 256.457 12.9373 256.457 12.9373Z" fill="white" fill-opacity="0.66"/>
<path fill-rule="evenodd" clip-rule="evenodd" d="M212.087 57.3745C212.087 57.3745 211.627 54.4597 213.928 52.2097C216.177 49.9597 227.832 41.6245 227.832 41.6245C227.832 41.6245 219.499 53.2836 217.25 55.5336C214.95 57.8347 212.087 57.3745 212.087 57.3745Z" fill="white" fill-opacity="0.66"/>
<path fill-rule="evenodd" clip-rule="evenodd" d="M215.666 3.52783C215.666 3.52783 213.519 7.36306 215.41 11.9653C217.301 16.5676 228.905 35.5903 228.905 35.5903C228.905 35.5903 223.64 13.9085 221.749 9.30624C219.857 4.70397 215.666 3.52783 215.666 3.52783Z" fill="white" fill-opacity="0.66"/>
<path fill-rule="evenodd" clip-rule="evenodd" d="M239.691 61.5679C239.691 61.5679 236.93 60.9542 235.806 58.1929C234.681 55.4315 231.768 42.4429 231.768 42.4429C231.768 42.4429 238.924 53.6929 240.049 56.4031C241.224 59.1645 239.691 61.5679 239.691 61.5679Z" fill="white" fill-opacity="0.66"/>
<path fill-rule="evenodd" clip-rule="evenodd" d="M262.54 25.6185C262.54 25.6185 259.115 23.6753 254.975 25.414C250.834 27.1015 233.761 37.5333 233.761 37.5333C233.761 37.5333 253.185 32.8287 257.326 31.1412C261.518 29.4026 262.54 25.6185 262.54 25.6185Z" fill="white" fill-opacity="0.66"/>
<path fill-rule="evenodd" clip-rule="evenodd" d="M203.499 50.1646C203.499 50.1646 204.368 47.0965 207.742 45.6646C211.116 44.284 226.962 40.4487 226.962 40.4487C226.962 40.4487 213.007 48.9885 209.633 50.3692C206.31 51.7499 203.499 50.1646 203.499 50.1646Z" fill="white" fill-opacity="0.66"/>
<path fill-rule="evenodd" clip-rule="evenodd" d="M197.774 25.5165C197.774 25.5165 198.848 29.3517 203.04 31.0903C207.231 32.829 226.963 37.5846 226.963 37.5846C226.963 37.5846 209.634 26.9994 205.442 25.2608C201.25 23.5733 197.774 25.5165 197.774 25.5165Z" fill="white" fill-opacity="0.66"/>
<path fill-rule="evenodd" clip-rule="evenodd" d="M257.479 50.2666C257.479 50.2666 254.668 51.8518 251.243 50.4711C247.818 49.0393 233.761 40.4995 233.761 40.4995C233.761 40.4995 249.761 44.3859 253.185 45.7666C256.61 47.1472 257.479 50.2666 257.479 50.2666Z" fill="white" fill-opacity="0.66"/>
<path fill-rule="evenodd" clip-rule="evenodd" d="M244.905 3.93701C244.905 3.93701 240.713 5.11315 238.822 9.66428C236.93 14.2154 231.768 35.5904 231.768 35.5904C231.768 35.5904 243.218 16.8234 245.109 12.2722C247.001 7.7211 244.905 3.93701 244.905 3.93701Z" fill="white" fill-opacity="0.66"/>
<path fill-rule="evenodd" clip-rule="evenodd" d="M221.084 61.5167C221.084 61.5167 219.55 59.1645 220.675 56.4031C221.799 53.6417 228.956 42.4429 228.956 42.4429C228.956 42.4429 226.093 55.4315 224.969 58.1417C223.793 60.9542 221.084 61.5167 221.084 61.5167Z" fill="white" fill-opacity="0.66"/>
<path fill-rule="evenodd" clip-rule="evenodd" d="M0 40.5H3.98717V32.2159H18.6068C23.7697 32.2159 26.1722 29.8125 26.1722 24.6988V21.9375C26.1722 16.7727 23.7697 14.4204 18.6068 14.4204H0V40.5ZM18.6068 28.1761H3.98717V18.3579H18.6068C20.9071 18.3579 22.1339 19.6363 22.1339 21.8863V24.6477C22.1339 26.9488 20.9071 28.1761 18.6068 28.1761Z" fill="white" fill-opacity="0.66"/>
<path fill-rule="evenodd" clip-rule="evenodd" d="M51.0665 40.4993H55.0537V21.8857C55.0537 16.7209 52.6512 14.3687 47.4883 14.3687H36.498C31.3351 14.3687 28.9326 16.7721 28.9326 21.8857V40.4993H32.9198V34.9766H51.0665V40.4993ZM51.0665 30.9368H32.9198V21.8857C32.9198 19.5846 34.1977 18.3573 36.4469 18.3573H47.5394C49.8397 18.3573 51.0665 19.6357 51.0665 21.8857V30.9368Z" fill="white" fill-opacity="0.66"/>
<path fill-rule="evenodd" clip-rule="evenodd" d="M59.3984 40.4997H79.9988V36.5111H63.4367V14.3179H59.3984V40.4997Z" fill="white" fill-opacity="0.66"/>
<path fill-rule="evenodd" clip-rule="evenodd" d="M111.999 40.4997H116.037V14.3179H111.641L100.191 32.369L88.6891 14.3179H84.293V40.4997H88.3313V21.2724L100.191 39.8349L111.999 21.2724V40.4997Z" fill="white" fill-opacity="0.66"/>
<path d="M124.318 14.3179H120.331V40.4997H124.318V14.3179Z" fill="white" fill-opacity="0.66"/>
<path fill-rule="evenodd" clip-rule="evenodd" d="M148.036 40.5H153.71L145.378 32.2159H147.218C152.381 32.2159 154.784 29.8125 154.784 24.6988V21.9375C154.784 16.7727 152.381 14.4204 147.218 14.4204H128.611V40.6022H132.598V32.2159H139.704L148.036 40.5ZM147.269 28.1761H132.65V18.3579H147.269C149.57 18.3579 150.796 19.6363 150.796 21.8863V24.6477C150.796 26.9488 149.518 28.1761 147.269 28.1761Z" fill="white" fill-opacity="0.66"/>
<path fill-rule="evenodd" clip-rule="evenodd" d="M181.263 40.4993H185.25V21.8857C185.25 16.7209 182.848 14.3687 177.685 14.3687H166.644C161.481 14.3687 159.078 16.7721 159.078 21.8857V40.4993H163.116V34.9766H181.263V40.4993ZM181.263 30.9368H163.116V21.8857C163.116 19.5846 164.394 18.3573 166.644 18.3573H177.736C180.036 18.3573 181.263 19.6357 181.263 21.8857V30.9368Z" fill="white" fill-opacity="0.66"/>
<path fill-rule="evenodd" clip-rule="evenodd" d="M84.4463 55.0734H89.098C90.8871 55.0734 91.6027 54.3575 91.6027 52.6188V50.5222C91.6027 48.7836 90.836 48.0677 89.098 48.0677H85.1619V44.9995H84.4463V55.0734ZM89.098 54.3575H85.1619V48.7325H89.098C90.2226 48.7325 90.8871 49.3972 90.8871 50.4711V52.5677C90.836 53.6927 90.1714 54.3575 89.098 54.3575Z" fill="white" fill-opacity="0.66"/>
<path fill-rule="evenodd" clip-rule="evenodd" d="M93.5449 48.0161V52.5673C93.5449 54.3059 94.3117 55.0218 96.0497 55.0218H98.1966C99.9346 55.0218 100.701 54.3059 100.701 52.6695V48.0161H99.9857V52.5673C99.9857 53.6411 99.3212 54.3059 98.1966 54.3059H96.0497C94.9251 54.3059 94.2606 53.59 94.2606 52.5673V48.0161H93.5449Z" fill="white" fill-opacity="0.66"/>
<path fill-rule="evenodd" clip-rule="evenodd" d="M103.871 55.0729H108.471C109.852 55.0729 110.414 54.5104 110.414 53.1297C110.414 51.7491 109.852 51.1866 108.471 51.1866H105.251C104.535 51.1866 104.024 50.7263 104.024 49.9593C104.075 49.1922 104.535 48.732 105.251 48.732H109.852V48.0161H105.251C103.871 48.0161 103.309 48.5786 103.309 49.9082C103.309 51.2888 103.871 51.8513 105.302 51.9025H108.523C109.289 51.9025 109.749 52.4138 109.749 53.1297C109.749 53.8457 109.238 54.357 108.523 54.357H103.922V55.0729H103.871Z" fill="white" fill-opacity="0.66"/>
<path fill-rule="evenodd" clip-rule="evenodd" d="M113.072 46.5846H113.788V45.8687H113.072V46.5846ZM113.072 55.0732H113.788V48.0164H113.072V55.0732Z" fill="white" fill-opacity="0.66"/>
<path fill-rule="evenodd" clip-rule="evenodd" d="M122.835 55.0736H123.551V50.5224C123.551 48.7838 122.784 48.0679 121.046 48.0679H116.395V55.0736H117.11V48.7326H121.046C122.171 48.7326 122.835 49.3974 122.835 50.4713V55.0736Z" fill="white" fill-opacity="0.66"/>
<path fill-rule="evenodd" clip-rule="evenodd" d="M128.714 47.8628C126.925 47.8628 126.158 48.5787 126.158 50.3173V52.6185C126.158 54.3571 126.925 55.073 128.663 55.073H133.11V54.3571H128.663C127.538 54.3571 126.874 53.6923 126.874 52.6185V51.7492H133.519V50.3173C133.519 48.5787 132.752 47.8628 130.963 47.8628H128.714ZM132.803 50.9821H126.925V50.2662C126.925 49.1923 127.589 48.5276 128.714 48.5276H131.065C132.139 48.5276 132.855 49.1923 132.855 50.2662V50.9821H132.803Z" fill="white" fill-opacity="0.66"/>
<path fill-rule="evenodd" clip-rule="evenodd" d="M135.82 55.0729H140.421C141.801 55.0729 142.414 54.5104 142.414 53.1297C142.414 51.7491 141.852 51.1866 140.421 51.1866H137.2C136.485 51.1866 135.973 50.7263 135.973 49.9593C136.025 49.1922 136.485 48.732 137.2 48.732H141.801V48.0161H137.2C135.82 48.0161 135.258 48.5786 135.258 49.9082C135.258 51.2888 135.82 51.8513 137.251 51.9025H140.472C141.239 51.9025 141.699 52.4138 141.699 53.1297C141.699 53.8457 141.187 54.357 140.472 54.357H135.871V55.0729H135.82Z" fill="white" fill-opacity="0.66"/>
<path fill-rule="evenodd" clip-rule="evenodd" d="M144.714 55.0729H149.314C150.694 55.0729 151.308 54.5104 151.308 53.1297C151.308 51.7491 150.746 51.1866 149.365 51.1866H146.094C145.378 51.1866 144.867 50.7263 144.867 49.9593C144.867 49.1922 145.378 48.732 146.094 48.732H150.746V48.0161H146.094C144.714 48.0161 144.151 48.5786 144.151 49.9082C144.151 51.2888 144.714 51.8513 146.145 51.9025H149.365C150.081 51.9025 150.592 52.4138 150.592 53.1297C150.592 53.8457 150.081 54.357 149.365 54.357H144.765V55.0729H144.714Z" fill="white" fill-opacity="0.66"/>
<path fill-rule="evenodd" clip-rule="evenodd" d="M159.181 48.0161C157.443 48.0161 156.676 48.7832 156.676 50.4707V52.5673C156.676 54.3059 157.443 55.0218 159.181 55.0218H163.832V54.3059H159.181C158.107 54.3059 157.391 53.6411 157.391 52.5673V50.4707C157.391 49.3968 158.056 48.732 159.181 48.732H163.832V48.0161H159.181Z" fill="white" fill-opacity="0.66"/>
<path d="M166.49 44.9995H165.774V55.0734H166.49V44.9995Z" fill="white" fill-opacity="0.66"/>
<path fill-rule="evenodd" clip-rule="evenodd" d="M169.148 48.0161V52.5673C169.148 54.3059 169.915 55.0218 171.653 55.0218H173.8C175.538 55.0218 176.305 54.3059 176.305 52.6695V48.0161H175.589V52.5673C175.589 53.6411 174.925 54.3059 173.851 54.3059H171.704C170.631 54.3059 169.915 53.59 169.915 52.5673V48.0161H169.148Z" fill="white" fill-opacity="0.66"/>
<path fill-rule="evenodd" clip-rule="evenodd" d="M178.043 55.0734H182.695C184.433 55.0734 185.199 54.3575 185.199 52.6188V50.5222C185.199 48.7836 184.433 48.0677 182.695 48.0677H178.759V44.9995H178.043V55.0734ZM182.695 54.3575H178.759V48.7325H182.695C183.819 48.7325 184.484 49.3972 184.484 50.4711V52.5677C184.484 53.6927 183.768 54.3575 182.695 54.3575Z" fill="white" fill-opacity="0.66"/>
<path d="M193.123 6.44287H192.254V60.5451H193.123V6.44287Z" fill="white" fill-opacity="0.66"/>
</g>
<defs>
<clipPath id="clip0_2_463">
<rect width="263" height="63" fill="white" transform="translate(0 -0.000488281)"/>
</clipPath>
</defs>
</svg>
