<svg width="218" height="103" viewBox="0 0 218 103" fill="none" xmlns="http://www.w3.org/2000/svg">
<g clip-path="url(#clip0_2_441)">
<path fill-rule="evenodd" clip-rule="evenodd" d="M178.557 62.6108C177.713 62.6108 176.989 61.9748 176.989 61.1797V61.14V37.0497V36.9304V36.8509C177.069 36.1353 177.713 35.5788 178.517 35.5788C179.321 35.5788 179.964 36.1353 180.045 36.8509V36.9304V37.0497V61.14V61.1797C180.125 61.9748 179.442 62.6108 178.557 62.6108ZM181.452 31.1265H175.662C170.757 31.1265 170.476 35.0223 170.476 37.5664V60.6629C170.476 63.1674 170.757 67.1029 175.662 67.1029H181.452C186.317 67.1029 186.639 63.2071 186.639 60.6629V37.5664C186.639 35.0223 186.357 31.1265 181.452 31.1265Z" fill="white" fill-opacity="0.66"/>
<path fill-rule="evenodd" clip-rule="evenodd" d="M72.6533 31.1265H85.9617V35.5788H79.6493V67.0632H72.6533V31.1265Z" fill="white" fill-opacity="0.66"/>
<path fill-rule="evenodd" clip-rule="evenodd" d="M87.0068 67.0632H93.842L94.4853 57.5224H97.7822L98.4255 67.0632H105.261L101.602 31.1265H90.6254L87.0068 67.0632ZM94.7265 53.5471L95.9327 35.5788H96.3348L97.541 53.5471H94.7265Z" fill="white" fill-opacity="0.66"/>
<path fill-rule="evenodd" clip-rule="evenodd" d="M115.231 54.5012V61.2592C115.231 62.1736 115.915 62.4518 116.317 62.4518C116.96 62.4518 117.403 61.8953 117.403 61.2592V52.9111C117.403 51.798 117.202 50.5657 114.588 50.5657H111.733V46.6301H114.669C116.679 46.6301 117.362 46.1531 117.362 43.9667V36.8111C117.362 36.2148 116.92 35.6186 116.277 35.6186C115.875 35.6186 115.191 35.8571 115.191 36.8111V42.6548H108.195V37.5664C108.195 35.062 108.477 31.1265 113.382 31.1265H119.172C124.077 31.1265 124.358 35.0223 124.358 37.5664V43.3306C124.358 47.2264 121.705 48.2998 119.614 48.2203V48.578C124.318 48.4588 124.358 52.1558 124.358 53.4676V60.7027C124.358 63.2071 124.077 67.1427 119.172 67.1427H113.382C108.517 67.1427 108.195 63.2469 108.195 60.7027V54.541H115.231V54.5012Z" fill="white" fill-opacity="0.66"/>
<path fill-rule="evenodd" clip-rule="evenodd" d="M129.022 31.1265H145.186V67.0632H138.672V35.5788H135.536V67.0632H129.022V31.1265Z" fill="white" fill-opacity="0.66"/>
<path fill-rule="evenodd" clip-rule="evenodd" d="M150.211 67.0632H157.207V54.859H161.187C166.093 54.859 166.856 50.9632 166.856 48.419V37.5664C166.856 35.062 166.093 31.1265 161.187 31.1265H150.211V67.0632ZM157.207 50.8837V35.5788H159.056C159.82 35.5788 160.343 36.2546 160.343 37.3677V49.0948C160.343 50.2079 159.78 50.8837 159.056 50.8837H157.207Z" fill="white" fill-opacity="0.66"/>
<path fill-rule="evenodd" clip-rule="evenodd" d="M208.913 31.1265H218V67.0632H211.004V44.5232H210.763L207.185 67.0632H201.596L198.017 44.5232H197.736V67.0632H190.78V31.1265H199.827L204.37 56.3696L208.913 31.1265Z" fill="white" fill-opacity="0.66"/>
<path fill-rule="evenodd" clip-rule="evenodd" d="M57.7767 34.7834C57.6963 38.4407 57.254 42.2569 56.6911 44.5626C56.8921 40.5873 56.4096 35.0219 55.4849 30.6491C54.5601 26.2762 51.9467 19.0014 49.8962 15.6224C47.9663 18.8424 45.5941 25.1234 44.3477 30.6093C43.1013 36.0952 43.0611 42.6942 43.0611 44.6819C42.7394 43.0122 41.8951 37.0493 42.1363 31.0466C42.3373 26.1172 43.5033 21.0288 44.1466 18.6834C46.5992 10.8918 49.3735 5.88295 49.856 5.08789C50.3787 5.88295 53.8766 12.0049 55.6859 18.4847C57.4952 24.9644 57.8571 31.1261 57.7767 34.7834ZM49.9364 62.6502C51.0622 60.5831 52.9921 56.091 52.8313 50.3268C52.59 44.4831 50.5797 40.1898 49.9766 39.1562C49.2931 40.1898 46.9611 45.1192 47.0013 50.8436C47.1621 56.8065 48.8508 60.6626 49.9364 62.6502ZM58.42 18.5642C56.2086 9.02344 50.7003 1.27161 49.9364 -0.000488281C48.7302 1.7884 44.3075 8.62591 42.0961 16.2585C39.6435 24.7259 39.2816 32.2789 40.126 39.673C40.9703 47.0671 44.1466 54.6996 44.1466 54.6996C45.8353 58.6749 48.3683 62.9682 49.9766 65.0752C52.389 61.9744 57.8973 52.7517 59.6262 40.7066C60.5911 33.9883 60.6313 28.1446 58.42 18.5642Z" fill="white" fill-opacity="0.66"/>
<path fill-rule="evenodd" clip-rule="evenodd" d="M36.3868 67.0626V78.3525L36.427 78.3127C40.4074 74.3772 46.8807 74.3772 50.9013 78.3127C54.8818 82.2483 54.8818 88.6485 50.9013 92.5443C50.8611 92.5443 50.8611 92.5841 50.8611 92.5841L50.8209 92.6238C46.8405 96.5196 41.6136 98.4675 36.427 98.4675C31.2001 98.4675 25.9733 96.4799 21.9526 92.5841C14.9165 85.667 14.0721 74.9337 19.4598 67.1024C20.1835 66.0291 21.0279 65.0352 21.9526 64.1209C25.9331 60.1854 31.1599 58.2375 36.427 58.2375V31.3247C16.3237 31.3247 0.0400391 47.3849 0.0400391 67.1421C0.0400391 86.9391 16.3237 102.96 36.427 102.96C46.9209 102.96 56.3292 98.5868 63.0035 91.63V67.0626H36.3868Z" fill="white" fill-opacity="0.66"/>
<path fill-rule="evenodd" clip-rule="evenodd" d="M211.487 94.4927C211.487 97.9115 209.919 98.5078 205.898 98.5078H202.199V82.9246H205.898V88.9273H206.501C210.12 88.9273 211.487 89.7621 211.487 92.9026V94.4927ZM180.729 85.8663H177.914V98.5475H174.416V85.8663H171.441V82.9246H180.729V85.8663ZM152.383 92.9424C152.383 96.1226 150.734 96.9574 147.116 96.9574V98.5078H143.538V96.9972C139.919 96.9972 138.27 96.1623 138.27 92.9821V88.0925C138.27 84.9123 139.839 84.1172 143.538 84.1172V82.9644H147.116V84.1172C150.815 84.1172 152.383 84.9123 152.383 88.0925V92.9424ZM119.012 85.8663H113.986V88.9273H118.489V91.9088H113.986V95.566H119.012V98.5078H110.166V82.8848H119.012V85.8663ZM88.4545 98.5078H84.7555V91.6703H82.8658V98.5078H79.1668V82.9246H82.8658V88.9273H84.7555V82.9246H88.4545V98.5078ZM218 79.0288H72.6533V102.96H218V79.0288ZM141.849 87.9732V92.9821C141.849 93.8964 142.13 94.0952 142.975 94.0952H143.578V86.8204H142.975C142.13 86.8204 141.849 87.0589 141.849 87.9732ZM147.679 86.8204H147.116V94.0952H147.679C148.483 94.0952 148.805 93.8567 148.805 92.9424V87.9335C148.805 87.0192 148.523 86.8204 147.679 86.8204ZM206.702 91.71H205.898V95.8046H206.702C207.546 95.8046 207.788 95.6058 207.788 94.6915V92.8231C207.788 91.9088 207.546 91.71 206.702 91.71Z" fill="white" fill-opacity="0.66"/>
</g>
<defs>
<clipPath id="clip0_2_441">
<rect width="218" height="103" fill="white" transform="translate(0 -0.000488281)"/>
</clipPath>
</defs>
</svg>
