<svg width="104" height="104" viewBox="0 0 104 104" fill="none" xmlns="http://www.w3.org/2000/svg">
<g filter="url(#filter0_d)">
<path d="M66.7977 31.848C65.5434 31.8487 64.3282 32.2842 63.3591 33.0804C62.39 33.8766 61.7269 34.9842 61.4829 36.2144C61.2388 37.4447 61.4288 38.7215 62.0206 39.8273C62.6124 40.9332 63.5693 41.7996 64.7283 42.2791C65.8873 42.7585 67.1766 42.8213 68.3767 42.4566C69.5768 42.092 70.6133 41.3226 71.3096 40.2794C72.006 39.2363 72.3192 37.9839 72.1957 36.7358C72.0723 35.4876 71.5199 34.3209 70.6327 33.4344C70.1295 32.9302 69.5317 32.5305 68.8735 32.2583C68.2154 31.986 67.5099 31.8466 66.7977 31.848Z" fill="#E5E5E5"/>
<path d="M96.98 10.1684C96.979 10.1624 96.979 10.1562 96.98 10.1502C96.8082 9.3972 96.4295 8.70724 95.8864 8.1581C95.3434 7.60896 94.6577 7.22251 93.9067 7.04234C87.8536 5.56562 78.3311 7.13984 67.7787 11.3648C57.1431 15.6305 47.1778 21.9273 40.4422 28.6752C38.2832 30.8226 36.2775 33.1188 34.4398 35.5469C29.9041 35.3438 25.9086 35.9897 22.5428 37.4583C10.8144 42.6197 7.46483 55.8289 6.57312 61.2523C6.44408 62.0229 6.49461 62.8129 6.72076 63.5608C6.94691 64.3087 7.34258 64.9943 7.87699 65.5643C8.4114 66.1343 9.07013 66.5733 9.80191 66.8471C10.5337 67.1209 11.3188 67.2221 12.0961 67.143H12.1225L25.1875 65.717C25.2037 65.8836 25.222 66.0359 25.2362 66.1761C25.404 67.7681 26.114 69.2541 27.2472 70.3848L33.6233 76.765C34.7524 77.8997 36.238 78.6106 37.83 78.778L38.2667 78.8247L36.8448 91.8734C36.8448 91.8734 36.8448 91.8897 36.8448 91.8998C36.7722 92.6026 36.8469 93.3128 37.0644 93.985C37.2818 94.6573 37.6372 95.2767 38.1076 95.8038C38.5781 96.3309 39.1534 96.754 39.7967 97.046C40.4401 97.3381 41.1373 97.4927 41.8437 97.5C42.1261 97.5002 42.4081 97.4771 42.6867 97.4309C48.1406 96.5534 61.3437 93.2445 66.4909 81.4531C67.9473 78.1097 68.5912 74.1305 68.4105 69.6028C70.8494 67.7691 73.154 65.7632 75.3065 63.6005C82.097 56.8445 88.4142 46.9605 92.6351 36.4792C96.8378 26.0467 98.4201 16.4531 96.98 10.1684ZM75.2334 45.6909C73.5644 47.3617 71.4373 48.4999 69.1213 48.9615C66.8053 49.4231 64.4044 49.1875 62.2224 48.2843C60.0403 47.3811 58.1752 45.851 56.8629 43.8876C55.5506 41.9242 54.8502 39.6157 54.8502 37.2541C54.8502 34.8926 55.5506 32.584 56.8629 30.6206C58.1752 28.6572 60.0403 27.1272 62.2224 26.224C64.4044 25.3208 66.8053 25.0851 69.1213 25.5468C71.4373 26.0084 73.5644 27.1466 75.2334 28.8173C76.3521 29.9192 77.2405 31.2326 77.8469 32.681C78.4532 34.1294 78.7655 35.6839 78.7655 37.2541C78.7655 38.8244 78.4532 40.3789 77.8469 41.8273C77.2405 43.2757 76.3521 44.5891 75.2334 45.6909Z" fill="#E5E5E5"/>
<path d="M32.892 78.4956C32.106 78.3981 31.3115 78.591 30.6577 79.038C29.3597 79.9256 28.0556 80.8031 26.7394 81.6583C24.0764 83.3889 20.8914 80.3502 22.4738 77.5958L24.9417 73.3302C25.2946 72.814 25.491 72.207 25.5076 71.582C25.5241 70.957 25.36 70.3405 25.035 69.8064C24.7099 69.2723 24.2377 68.8434 23.675 68.5709C23.1123 68.2984 22.4829 68.1941 21.8623 68.2703C19.1232 68.6167 16.5771 69.8644 14.625 71.8169C13.8816 72.5623 11.6208 74.8252 10.4041 83.4478C10.0577 85.9245 9.83942 88.4175 9.75 90.9167C9.73888 91.3505 9.81473 91.7821 9.97307 92.186C10.1314 92.59 10.369 92.9582 10.6719 93.2688C10.9749 93.5795 11.3369 93.8264 11.7367 93.9949C12.1366 94.1634 12.5661 94.2501 13 94.25H13.0812C15.5824 94.1614 18.0774 93.9445 20.5562 93.6C29.183 92.3812 31.4458 90.1184 32.1892 89.375C34.1508 87.4221 35.3954 84.864 35.7216 82.1153C35.826 81.2602 35.5866 80.3985 35.056 79.7198C34.5255 79.041 33.7471 78.6007 32.892 78.4956Z" fill="#E5E5E5"/>
</g>
<defs>
<filter id="filter0_d" x="-4" y="-4" width="112" height="112" filterUnits="userSpaceOnUse" color-interpolation-filters="sRGB">
<feFlood flood-opacity="0" result="BackgroundImageFix"/>
<feColorMatrix in="SourceAlpha" type="matrix" values="0 0 0 0 0 0 0 0 0 0 0 0 0 0 0 0 0 0 127 0" result="hardAlpha"/>
<feOffset/>
<feGaussianBlur stdDeviation="2"/>
<feColorMatrix type="matrix" values="0 0 0 0 1 0 0 0 0 1 0 0 0 0 1 0 0 0 0.47 0"/>
<feBlend mode="normal" in2="BackgroundImageFix" result="effect1_dropShadow"/>
<feBlend mode="normal" in="SourceGraphic" in2="effect1_dropShadow" result="shape"/>
</filter>
</defs>
</svg>
