<svg width="58" height="46" viewBox="0 0 58 46" fill="none" xmlns="http://www.w3.org/2000/svg">
<path d="M29.4562 23.8313C31.2945 22.385 32.6362 20.4017 33.2948 18.1574C33.9534 15.9131 33.8961 13.5193 33.1308 11.309C32.3656 9.09876 30.9305 7.18199 29.0251 5.82536C27.1198 4.46873 24.839 3.7397 22.5 3.7397C20.161 3.7397 17.8802 4.46873 15.9749 5.82536C14.0695 7.18199 12.6344 9.09876 11.8691 11.309C11.1039 13.5193 11.0466 15.9131 11.7052 18.1574C12.3638 20.4017 13.7055 22.385 15.5437 23.8313C12.3939 25.0932 9.64553 27.1863 7.59167 29.8873C5.5378 32.5884 4.25542 35.7962 3.88124 39.1688C3.85416 39.415 3.87584 39.6641 3.94504 39.902C4.01425 40.1398 4.12962 40.3617 4.28458 40.555C4.59753 40.9453 5.05271 41.1953 5.54999 41.25C6.04727 41.3047 6.54592 41.1596 6.93623 40.8467C7.32654 40.5337 7.57654 40.0785 7.63124 39.5813C8.04297 35.916 9.79066 32.5309 12.5404 30.0727C15.2902 27.6146 18.8492 26.2557 22.5375 26.2557C26.2258 26.2557 29.7848 27.6146 32.5346 30.0727C35.2843 32.5309 37.032 35.916 37.4437 39.5813C37.4947 40.042 37.7146 40.4675 38.0608 40.7757C38.4071 41.0838 38.8552 41.2528 39.3187 41.25H39.525C40.0165 41.1935 40.4657 40.9449 40.7748 40.5586C41.0839 40.1723 41.2277 39.6794 41.175 39.1875C40.799 35.8054 39.5098 32.5894 37.4453 29.8841C35.3809 27.1789 32.6192 25.0865 29.4562 23.8313ZM22.5 22.5C21.0166 22.5 19.5666 22.0601 18.3332 21.236C17.0998 20.4119 16.1386 19.2406 15.5709 17.8701C15.0032 16.4997 14.8547 14.9917 15.1441 13.5368C15.4335 12.082 16.1478 10.7456 17.1967 9.6967C18.2456 8.64781 19.582 7.9335 21.0368 7.64412C22.4917 7.35473 23.9997 7.50325 25.3701 8.07091C26.7406 8.63857 27.9119 9.59986 28.736 10.8332C29.5601 12.0666 30 13.5166 30 15C30 16.9891 29.2098 18.8968 27.8033 20.3033C26.3968 21.7098 24.4891 22.5 22.5 22.5Z" fill="white"/>
<line x1="57.5" x2="57.5" y2="46" stroke="#E5E5E5" stroke-opacity="0.08"/>
</svg>
