<svg width="304" height="362" viewBox="0 0 304 362" fill="none" xmlns="http://www.w3.org/2000/svg">
<path d="M303.927 181.016C303.927 200.85 300.334 219.821 293.776 237.278C293.113 237.065 292.427 236.904 291.723 236.798C288.611 230.071 281.942 225.421 274.211 225.421C265.137 225.421 257.52 231.834 255.41 240.492C252.943 238.104 249.621 236.642 245.97 236.642C240.469 236.642 235.723 239.954 233.515 244.744C231.697 243.353 229.445 242.53 227.004 242.53C220.976 242.53 216.091 247.554 216.091 253.751C216.091 259.949 220.976 264.973 227.004 264.973H280.148C253.165 308.442 205.839 337.268 151.967 337.268C68.04 337.268 0.00610352 267.311 0.00610352 181.016C0.00610352 177.294 0.132693 173.599 0.383047 169.944H42.3307C51.0151 169.944 58.0551 162.704 58.0551 153.775C58.0551 144.844 51.0151 137.603 42.3307 137.603C40.4498 137.603 38.6458 137.944 36.9731 138.567C36.5368 126.928 27.2232 117.63 15.7978 117.63C14.8314 117.63 13.8796 117.696 12.9471 117.827C36.5477 63.0094 89.9135 24.7662 151.967 24.7662C235.892 24.7662 303.927 94.7225 303.927 181.016Z" fill="#1E3862"/>
<path d="M298.608 351.737H38.2463C37.8815 350.469 37.6859 349.131 37.6859 347.746C37.6859 339.488 44.5704 332.795 53.0646 332.795C57.2854 332.795 61.1066 334.45 63.8879 337.12C64.8803 335.719 66.5925 334.111 69.5535 332.874C67.4404 329.607 66.2226 325.785 66.2226 321.692C66.2226 309.724 76.6394 300.018 89.4881 300.018C95.0361 300.018 100.126 301.826 104.122 304.844C105.885 302.91 110.697 298.749 120.44 297.416H160.256C164.047 290.232 171.982 285.289 181.151 285.289C191.962 285.289 201.045 292.15 203.657 301.455C206.275 301.709 209.931 302.635 213.458 305.478C217.232 301.513 222.492 299.056 228.311 299.056C239.791 299.056 249.099 308.624 249.099 320.425C249.099 321.259 249.053 322.084 248.961 322.899C252.159 320.832 255.937 319.636 259.994 319.636C270.659 319.636 279.445 327.889 280.636 338.52C281.357 338.405 282.088 338.347 282.832 338.347C290.062 338.347 296.233 343.918 298.608 351.737Z" fill="#C4CAD2"/>
<path d="M38.9683 345.498C40.0795 338.983 45.9422 333.999 52.9862 333.999C56.7628 333.999 60.3219 335.42 63.0102 338C63.2276 338.208 63.5111 338.323 63.8054 338.323C63.8446 338.323 63.8824 338.322 63.9202 338.318C64.2537 338.286 64.5575 338.107 64.756 337.829C65.8551 336.275 67.5415 335.007 69.7693 334.051C66.915 336.132 63.4125 340.05 61.8301 343.127C61.1887 340.4 58.861 338.115 55.931 337.171C55.8797 338.376 54.0097 339.346 51.7103 339.346C49.7201 339.346 48.0539 338.62 47.6056 337.646C43.7629 339.041 40.6493 341.887 38.9683 345.498ZM70.3958 333.618C70.462 333.531 70.5173 333.435 70.5592 333.331C70.7739 333.295 70.9886 333.227 71.1763 333.152C70.9265 333.286 70.6645 333.443 70.3958 333.618Z" fill="#F0F0F0"/>
<path d="M71.1764 333.151C71.3776 333.044 71.5706 332.951 71.757 332.874C71.757 332.874 71.5099 333.021 71.1764 333.151Z" fill="#F0F0F0"/>
<path d="M67.7331 317.709C69.7394 308.321 78.6969 301.221 89.4093 301.221C94.478 301.221 99.4292 302.851 103.349 305.814C103.557 305.971 103.8 306.047 104.042 306.047C104.356 306.047 104.667 305.918 104.896 305.667C106.432 303.981 111.019 299.926 120.44 298.62H124.218V301.325H120.361C110.618 302.658 104.206 305.713 102.443 307.646C99.5939 305.493 97.0015 304.52 93.7354 304.138C93.772 304.245 93.7921 304.355 93.7921 304.467C93.7921 305.696 91.5253 306.693 88.7302 306.693C86.0297 306.693 83.8236 305.763 83.6779 304.591C76.3717 306.315 70.4416 311.262 67.7331 317.709ZM247.368 315.971C246.215 313.186 244.502 310.705 242.377 308.674C242.047 309.31 241.243 309.63 240.207 309.63C239.225 309.63 238.037 309.342 236.853 308.759C234.387 307.544 232.875 305.514 233.476 304.226C233.559 304.042 233.685 303.885 233.84 303.752C232.057 303.239 230.176 302.964 228.232 302.964C222.412 302.964 219.789 304.695 216.016 308.661C212.487 305.815 200.586 301.717 197.97 301.464C197.528 298.867 196.051 295.864 193.385 293.479C193.365 293.565 193.336 293.648 193.298 293.729C192.986 294.399 192.166 294.736 191.105 294.736C190.121 294.736 188.933 294.448 187.749 293.863C185.341 292.678 183.843 290.716 184.332 289.423C183.46 289.298 182.541 289.222 181.577 289.201V286.497C191.426 286.702 199.968 292.933 202.454 301.789C202.586 302.264 202.99 302.607 203.467 302.654C205.806 302.88 209.299 303.719 212.657 306.426C212.87 306.597 213.126 306.682 213.379 306.682C213.684 306.682 213.987 306.56 214.215 306.321C217.935 302.411 222.914 300.259 228.232 300.259C237.561 300.259 245.39 306.987 247.368 315.971ZM159.601 301.325H151.449C149.758 300.856 148.001 300.505 146.191 300.285V298.62H159.601V301.325Z" fill="#F0F0F0"/>
<path d="M296.871 350.533H296.242C293.251 345.703 287.414 340.578 282.249 339.56C282.417 339.553 282.585 339.55 282.753 339.55C288.778 339.55 294.29 343.9 296.871 350.533ZM279.754 339.495C279.746 339.453 279.736 339.411 279.729 339.37C279.764 339.409 279.805 339.445 279.848 339.478C279.82 339.484 279.787 339.489 279.754 339.495ZM279.263 337.689C277.443 332.341 272.066 325.484 265.02 323.165C264.648 324.039 262.975 324.658 260.931 324.658C260.786 324.658 260.636 324.655 260.488 324.648C258.085 324.545 256.156 323.628 256.049 322.57C253.467 322.767 251.848 323.05 249.931 323.649C252.945 321.809 256.387 320.84 259.915 320.84C269.561 320.84 277.717 328.016 279.263 337.689Z" fill="#F0F0F0"/>
<path d="M284.32 350.534H204.44C204.478 349.979 204.492 349.418 204.492 348.851C204.492 348.803 204.492 348.756 204.492 348.709C204.426 335.573 195.131 324.95 183.669 324.95C182.963 324.95 182.264 324.99 181.576 325.069V311.149C186.007 313.681 189.248 317.427 190.52 321.768C196.467 322.432 201.485 325.357 203.984 329.539C204.927 329.412 205.899 329.347 206.887 329.347C209.272 329.347 211.768 329.723 214.261 330.516C221.539 332.83 226.868 338.081 228.545 343.811C231.737 341.861 235.751 340.701 240.113 340.701C246.208 340.701 251.624 342.967 255.066 346.48L284.32 350.534Z" fill="#1E3862"/>
<path d="M36.9513 351.737H35.6443C35.9035 351.236 36.2397 350.753 36.6448 350.293C36.7244 350.779 36.8271 351.263 36.9513 351.737Z" fill="#B3B3D4"/>
<path d="M88.1888 350.533H39.0744C38.9264 349.852 38.8343 349.156 38.7966 348.455C41.9543 346.367 46.8055 345.067 52.2792 345.067C52.7706 345.067 53.2648 345.077 53.766 345.099C57.7153 345.267 61.3449 346.085 64.2975 347.341C66.2993 342.563 74.2831 338.892 84.1306 338.396C83.7927 337.295 83.614 336.145 83.614 334.963C83.614 326.826 92.0445 320.231 102.443 320.231C104.928 320.231 107.302 320.608 109.474 321.292C107.885 321.507 106.341 321.881 104.864 322.397C104.861 322.399 104.86 322.399 104.857 322.4C104.85 322.403 104.843 322.406 104.835 322.408C104.831 322.408 104.829 322.41 104.825 322.411C104.818 322.414 104.811 322.417 104.803 322.418C104.8 322.419 104.796 322.421 104.791 322.424C104.785 322.425 104.779 322.428 104.772 322.429C104.766 322.432 104.762 322.433 104.759 322.435C104.752 322.438 104.745 322.439 104.738 322.442C104.734 322.443 104.73 322.444 104.724 322.446C104.719 322.449 104.713 322.451 104.706 322.453C104.702 322.454 104.697 322.457 104.692 322.458C104.685 322.46 104.68 322.463 104.676 322.464C104.667 322.467 104.66 322.469 104.653 322.472C104.649 322.474 104.646 322.475 104.642 322.476C104.635 322.479 104.627 322.482 104.618 322.485C104.616 322.486 104.613 322.486 104.609 322.487C104.597 322.492 104.588 322.496 104.577 322.5C104.575 322.5 104.575 322.5 104.575 322.5C104.564 322.504 104.554 322.508 104.543 322.512C104.54 322.512 104.539 322.514 104.536 322.515C104.528 322.518 104.518 322.521 104.51 322.525C104.507 322.525 104.505 322.526 104.503 322.526C104.494 322.531 104.486 322.533 104.476 322.536C104.473 322.538 104.47 322.539 104.468 322.54C104.459 322.543 104.452 322.546 104.444 322.549C104.44 322.55 104.437 322.551 104.433 322.553C104.426 322.556 104.419 322.558 104.41 322.561C104.408 322.562 104.403 322.564 104.401 322.565C104.391 322.568 104.384 322.571 104.375 322.574C104.374 322.575 104.371 322.576 104.368 322.576C104.359 322.581 104.35 322.583 104.343 322.586C104.341 322.588 104.336 322.589 104.335 322.589C104.325 322.593 104.315 322.597 104.307 322.6C104.306 322.6 104.304 322.601 104.303 322.601C98.751 324.699 94.1511 328.828 91.3563 334.111L91.3549 334.112C91.3493 334.122 91.3451 334.13 91.3409 334.141C91.3395 334.143 91.3382 334.144 91.3382 334.147C91.3326 334.155 91.3284 334.163 91.3242 334.172C91.3228 334.174 91.3214 334.176 91.32 334.179C91.3158 334.187 91.3116 334.194 91.3074 334.202C91.306 334.205 91.3047 334.209 91.3033 334.212C91.3005 334.219 91.2963 334.226 91.2921 334.233C91.2907 334.237 91.2879 334.241 91.2865 334.245C91.2837 334.249 91.2795 334.256 91.2767 334.261C91.2739 334.266 91.2712 334.272 91.2684 334.277C91.267 334.28 91.2642 334.284 91.2628 334.288C89.8933 336.93 88.9705 339.857 88.602 342.958C88.394 342.872 88.1943 342.786 88.0031 342.702C87.8621 343.785 87.7909 344.89 87.7909 346.011C87.7909 347.557 87.9277 349.068 88.1888 350.533Z" fill="#1E3862"/>
<path d="M248.88 333.943C248.9 333.77 248.918 333.595 248.934 333.42C248.947 333.575 248.959 333.731 248.97 333.886C248.938 333.906 248.911 333.924 248.88 333.943Z" fill="#F0F0F0"/>
<path d="M39.0742 350.533H296.872C294.291 343.9 288.782 339.55 282.756 339.55C282.076 339.55 281.4 339.603 280.743 339.71C280.426 339.759 280.105 339.676 279.851 339.479C279.598 339.281 279.433 338.984 279.398 338.659C278.257 328.5 269.882 320.839 259.916 320.839C256.219 320.839 252.62 321.904 249.506 323.917C249.124 324.163 248.639 324.163 248.257 323.916C247.878 323.669 247.668 323.218 247.719 322.758C247.806 321.995 247.85 321.209 247.85 320.424C247.85 309.304 239.05 300.259 228.235 300.259C222.916 300.259 217.937 302.411 214.215 306.32C213.798 306.759 213.128 306.803 212.657 306.426C209.299 303.719 205.807 302.88 203.47 302.654C202.993 302.607 202.588 302.264 202.454 301.789C199.927 292.781 191.134 286.492 181.076 286.492C172.56 286.492 164.949 290.897 161.207 297.989C161.004 298.378 160.61 298.619 160.179 298.619H120.441C111.02 299.926 106.434 303.981 104.897 305.666C104.492 306.111 103.828 306.175 103.35 305.813C99.43 302.851 94.4788 301.221 89.4102 301.221C77.2271 301.221 67.3152 310.405 67.3152 321.692C67.3152 325.4 68.3996 329.036 70.4505 332.207C70.6448 332.508 70.6976 332.883 70.5948 333.229C70.491 333.575 70.2426 333.854 69.9171 333.99C67.6164 334.951 65.88 336.242 64.7567 337.829C64.558 338.106 64.2543 338.285 63.9208 338.317C63.5873 338.352 63.2566 338.234 63.0108 337.999C60.3225 335.42 56.7632 333.998 52.9868 333.998C45.1528 333.998 38.7784 340.165 38.7784 347.745C38.7784 348.687 38.8784 349.621 39.0742 350.533ZM298.531 352.94H38.1681C37.6497 352.94 37.1932 352.591 37.0461 352.078C36.6423 350.675 36.4373 349.217 36.4373 347.745C36.4373 338.838 43.8619 331.591 52.9868 331.591C56.9335 331.591 60.6804 332.936 63.6696 335.403C64.7457 334.205 66.1202 333.179 67.7769 332.339C65.9379 329.065 64.9741 325.414 64.9741 321.692C64.9741 309.078 75.9365 298.814 89.4102 298.814C94.6247 298.814 99.7338 300.392 103.91 303.277C106.365 300.896 111.335 297.436 120.208 296.223C120.26 296.216 120.311 296.212 120.363 296.212H159.497C161.489 292.708 164.426 289.745 168.023 287.614C171.924 285.305 176.436 284.085 181.076 284.085C191.886 284.085 201.386 290.732 204.472 300.349C206.876 300.682 210.093 301.59 213.277 303.899C217.35 299.991 222.623 297.852 228.235 297.852C240.342 297.852 250.193 307.977 250.193 320.424C250.193 320.538 250.19 320.653 250.19 320.767C253.2 319.235 256.522 318.432 259.916 318.432C270.679 318.432 279.785 326.415 281.559 337.19C281.956 337.158 282.353 337.143 282.756 337.143C286.537 337.143 290.154 338.541 293.214 341.188C296.175 343.746 298.4 347.269 299.648 351.378C299.759 351.744 299.695 352.142 299.474 352.45C299.251 352.759 298.902 352.94 298.531 352.94Z" fill="#1E3862"/>
<path d="M204.445 361.5C204.267 358.456 203.593 355.568 202.512 352.941H203.598C204.18 355.142 204.493 357.477 204.493 359.895C204.493 360.435 204.477 360.97 204.445 361.5Z" fill="white"/>
<path d="M203.599 352.94H202.512C202.344 352.534 202.169 352.133 201.981 351.737H203.25C203.374 352.134 203.491 352.535 203.599 352.94Z" fill="#8181B7"/>
<path d="M145.022 273.704V324.918H125.389V273.704H145.022Z" fill="#C4CAD2"/>
<path d="M126.559 323.714H143.853V274.909H126.559V323.714ZM145.024 326.121H125.388C124.743 326.121 124.218 325.582 124.218 324.917V273.705C124.218 273.04 124.743 272.502 125.388 272.502H145.024C145.669 272.502 146.193 273.04 146.193 273.705V324.917C146.193 325.582 145.669 326.121 145.024 326.121Z" fill="#1E3862"/>
<path d="M180.405 273.704V348.747H160.771V273.704H180.405Z" fill="#C4CAD2"/>
<path d="M126.559 303.352V280.135H130.713V291.518C130.713 293.876 132.585 295.706 134.803 295.706C135.009 295.706 135.217 295.691 135.426 295.658C137.493 295.338 139.601 295.174 141.726 295.174C142.437 295.174 143.148 295.192 143.853 295.228V300.078C143.149 300.038 142.439 300.017 141.726 300.017C136.199 300.017 131.02 301.23 126.559 303.352Z" fill="#1E3862"/>
<path d="M125.389 303.936V280.134H126.56V303.351C126.164 303.538 125.774 303.734 125.389 303.936ZM145.022 300.162C144.633 300.127 144.245 300.1 143.853 300.077V295.228C144.242 295.249 144.633 295.274 145.022 295.304V300.162Z" fill="#1E3862"/>
<path d="M171.583 329.385C171.869 328.077 172.031 326.73 172.059 325.36C172.059 325.357 172.059 325.353 172.059 325.35C172.059 325.336 172.059 325.321 172.059 325.307C172.059 325.306 172.059 325.304 172.059 325.304C172.06 325.289 172.06 325.274 172.06 325.26C172.06 325.254 172.06 325.25 172.06 325.246C172.06 325.235 172.06 325.222 172.06 325.211C172.06 325.207 172.06 325.203 172.06 325.2C172.06 325.185 172.06 325.171 172.06 325.157C172.06 325.152 172.06 325.147 172.06 325.143C172.06 325.132 172.06 325.121 172.06 325.11C172.06 325.106 172.06 325.102 172.06 325.098C172.06 325.082 172.06 325.067 172.06 325.053C172.06 325.05 172.06 325.046 172.06 325.043C172.06 325.031 172.06 325.02 172.062 325.007C172.062 325.003 172.062 324.999 172.062 324.993C172.062 324.98 172.062 324.964 172.062 324.949C172.062 317.563 168.152 310.927 161.945 306.361V280.134H166.101L166.114 298.961C166.114 301.807 167.163 304.546 169.04 306.638C170.798 308.6 172.879 311.109 173.841 312.979C175.203 315.626 176.095 318.395 176.507 321.246C177.403 320.952 178.313 320.715 179.236 320.534V325.492C176.433 326.19 173.842 327.536 171.583 329.385Z" fill="#1E3862"/>
<path d="M161.942 347.544H179.233V274.909H161.942V347.544ZM180.404 349.951H160.771C160.126 349.951 159.602 349.412 159.602 348.747V273.706C159.602 273.041 160.126 272.502 160.771 272.502H180.404C181.052 272.502 181.576 273.041 181.576 273.706V348.747C181.576 349.412 181.052 349.951 180.404 349.951Z" fill="#1E3862"/>
<path d="M204.493 348.851C204.493 349.83 204.441 350.791 204.339 351.737H89.0647C88.6432 349.903 88.4216 347.985 88.4216 346.012C88.4216 344.89 88.4948 343.785 88.6333 342.702C90.169 330.8 99.8638 321.551 111.749 321.096C114.005 309.153 126.564 300.017 141.725 300.017C158.476 300.017 172.062 311.179 172.062 324.95C172.062 326.463 171.896 327.948 171.581 329.385C174.991 326.593 179.162 324.95 183.67 324.95C195.13 324.95 204.426 335.573 204.493 348.708C204.493 348.755 204.493 348.802 204.493 348.851Z" fill="#C4CAD2"/>
<path d="M88.6023 342.959C88.9709 339.857 89.8931 336.931 91.2636 334.289C89.9309 336.857 89.0222 339.695 88.6347 342.702C88.6226 342.787 88.6131 342.873 88.6023 342.959ZM91.269 334.278C91.2717 334.272 91.2744 334.267 91.2771 334.261C91.2744 334.267 91.2717 334.272 91.269 334.278ZM91.2865 334.246C91.2879 334.242 91.2906 334.237 91.2919 334.233C91.2906 334.237 91.2879 334.24 91.2865 334.246ZM91.3027 334.212C91.3054 334.21 91.3068 334.206 91.3081 334.203C91.3068 334.206 91.3041 334.21 91.3027 334.212ZM91.3203 334.179C91.3216 334.176 91.323 334.175 91.3243 334.172C91.323 334.175 91.3216 334.178 91.3203 334.179ZM91.3378 334.147C91.3378 334.144 91.3392 334.143 91.3405 334.142C91.3392 334.143 91.3378 334.146 91.3378 334.147ZM91.3554 334.112L91.3567 334.111C91.3567 334.111 91.3567 334.111 91.3554 334.112Z" fill="#CECEDF"/>
<path d="M172.058 325.36C172.058 325.358 172.058 325.354 172.058 325.351C172.058 325.354 172.058 325.358 172.058 325.36ZM172.058 325.308C172.058 325.306 172.058 325.305 172.058 325.305C172.058 325.305 172.058 325.306 172.058 325.308ZM172.058 325.26C172.058 325.255 172.058 325.251 172.058 325.247C172.058 325.251 172.058 325.255 172.058 325.26ZM172.058 325.212C172.058 325.208 172.058 325.204 172.058 325.201C172.058 325.204 172.058 325.208 172.058 325.212ZM172.06 325.158C172.06 325.152 172.06 325.148 172.06 325.144C172.06 325.148 172.06 325.152 172.06 325.158ZM172.06 325.111C172.06 325.107 172.06 325.102 172.06 325.098C172.06 325.102 172.06 325.107 172.06 325.111ZM172.06 325.054C172.06 325.051 172.06 325.047 172.06 325.044C172.06 325.047 172.06 325.051 172.06 325.054ZM172.061 325.008C172.061 325.004 172.061 325 172.061 324.994C172.061 325 172.061 325.004 172.061 325.008Z" fill="#CECEDF"/>
<path d="M104.301 322.603C104.303 322.603 104.304 322.601 104.305 322.601C104.304 322.601 104.303 322.603 104.301 322.603ZM104.334 322.59C104.335 322.59 104.339 322.589 104.342 322.587C104.339 322.589 104.337 322.59 104.334 322.59ZM104.368 322.577C104.371 322.577 104.374 322.576 104.375 322.575C104.374 322.576 104.371 322.577 104.368 322.577ZM104.4 322.567C104.402 322.565 104.406 322.564 104.409 322.562C104.406 322.564 104.402 322.565 104.4 322.567ZM104.432 322.554C104.437 322.552 104.439 322.551 104.443 322.55C104.439 322.551 104.437 322.552 104.432 322.554ZM104.467 322.541C104.469 322.54 104.473 322.539 104.476 322.537C104.473 322.539 104.469 322.54 104.467 322.541ZM104.501 322.528C104.504 322.528 104.505 322.526 104.508 322.526C104.506 322.526 104.504 322.528 104.501 322.528ZM104.535 322.516C104.538 322.515 104.539 322.514 104.542 322.514C104.539 322.514 104.538 322.515 104.535 322.516ZM104.575 322.501C104.575 322.501 104.575 322.501 104.576 322.501H104.575ZM104.608 322.489C104.612 322.487 104.614 322.487 104.617 322.486C104.614 322.487 104.61 322.489 104.608 322.489ZM104.642 322.478C104.646 322.476 104.649 322.475 104.653 322.473C104.65 322.475 104.646 322.476 104.642 322.478ZM104.675 322.465C104.68 322.464 104.685 322.461 104.692 322.459C104.685 322.461 104.68 322.464 104.675 322.465ZM104.705 322.454C104.711 322.453 104.717 322.45 104.724 322.447C104.717 322.45 104.711 322.451 104.705 322.454ZM104.737 322.443C104.744 322.44 104.751 322.439 104.758 322.436C104.751 322.437 104.744 322.44 104.737 322.443ZM104.772 322.43C104.778 322.429 104.784 322.426 104.791 322.425C104.784 322.426 104.777 322.429 104.772 322.43ZM104.803 322.419C104.81 322.418 104.817 322.415 104.824 322.412C104.817 322.415 104.809 322.418 104.803 322.419ZM104.833 322.41C104.841 322.407 104.85 322.404 104.856 322.401C104.85 322.404 104.841 322.407 104.833 322.41Z" fill="#CECEDF"/>
<path d="M109.473 321.293C110.119 321.206 110.773 321.144 111.435 321.111C110.773 321.144 110.119 321.206 109.473 321.293Z" fill="#F0F0F0"/>
<path d="M104.864 322.397C106.341 321.881 107.885 321.508 109.474 321.292C107.885 321.508 106.342 321.881 104.864 322.397Z" fill="#CECEDF"/>
<path d="M111.439 321.11C111.448 321.109 111.459 321.109 111.469 321.108C111.459 321.109 111.448 321.109 111.439 321.11ZM111.474 321.108C111.483 321.108 111.493 321.108 111.503 321.106C111.493 321.108 111.483 321.108 111.474 321.108ZM111.511 321.106C111.52 321.106 111.528 321.105 111.537 321.105C111.528 321.105 111.52 321.106 111.511 321.106ZM111.548 321.105C111.557 321.103 111.564 321.103 111.572 321.103C111.565 321.103 111.555 321.103 111.548 321.105ZM111.585 321.102C111.593 321.102 111.6 321.102 111.607 321.102C111.6 321.102 111.593 321.102 111.585 321.102ZM111.622 321.101C111.629 321.101 111.634 321.101 111.643 321.101C111.634 321.101 111.629 321.101 111.622 321.101ZM111.658 321.099C111.665 321.099 111.672 321.099 111.68 321.099C111.671 321.099 111.665 321.099 111.658 321.099ZM111.698 321.098C111.704 321.098 111.709 321.098 111.715 321.097C111.709 321.098 111.704 321.098 111.698 321.098Z" fill="#F0F0F0"/>
<path d="M89.146 343.176C88.9591 343.103 88.7776 343.031 88.6014 342.959C88.6121 342.873 88.6227 342.787 88.6352 342.702C89.0214 339.695 89.931 336.857 91.2625 334.289C91.2642 334.285 91.2678 334.282 91.2696 334.278C91.2713 334.272 91.2749 334.267 91.2767 334.261C91.2802 334.256 91.2838 334.252 91.2856 334.246C91.2874 334.241 91.2909 334.238 91.2909 334.234C91.2963 334.227 91.2998 334.22 91.3016 334.213C91.3034 334.21 91.3069 334.206 91.3087 334.203C91.3123 334.196 91.3159 334.188 91.3194 334.179C91.3212 334.178 91.323 334.175 91.3248 334.172C91.3283 334.166 91.3337 334.156 91.3372 334.147C91.3372 334.146 91.339 334.143 91.3408 334.142C91.3461 334.131 91.3497 334.123 91.355 334.113C91.3568 334.111 91.3568 334.111 91.3568 334.111C94.1514 328.827 98.7508 324.7 104.303 322.602C104.304 322.602 104.304 322.601 104.306 322.601C104.315 322.598 104.324 322.594 104.335 322.59C104.338 322.59 104.34 322.588 104.344 322.587C104.352 322.584 104.36 322.581 104.368 322.577C104.37 322.577 104.374 322.576 104.376 322.574C104.384 322.572 104.392 322.569 104.4 322.566C104.404 322.565 104.408 322.563 104.411 322.562C104.418 322.559 104.425 322.556 104.433 322.554C104.438 322.552 104.44 322.551 104.443 322.549C104.452 322.547 104.459 322.544 104.466 322.541C104.47 322.54 104.473 322.538 104.477 322.537C104.486 322.534 104.495 322.531 104.502 322.527C104.506 322.527 104.507 322.526 104.509 322.526C104.518 322.522 104.529 322.519 104.536 322.516C104.539 322.515 104.539 322.513 104.543 322.513C104.554 322.509 104.564 322.505 104.575 322.501H104.577C104.587 322.497 104.598 322.492 104.609 322.488C104.612 322.488 104.616 322.487 104.618 322.486C104.627 322.483 104.634 322.48 104.643 322.477C104.646 322.476 104.651 322.474 104.653 322.473C104.66 322.47 104.667 322.467 104.675 322.465C104.68 322.463 104.685 322.46 104.692 322.459C104.696 322.458 104.701 322.455 104.707 322.454C104.712 322.451 104.717 322.449 104.724 322.447C104.73 322.445 104.735 322.444 104.739 322.443C104.746 322.44 104.751 322.437 104.758 322.436C104.762 322.434 104.767 322.431 104.773 322.43C104.778 322.429 104.785 322.426 104.79 322.424C104.796 322.423 104.799 322.42 104.803 322.419C104.81 322.417 104.819 322.415 104.824 322.412C104.828 322.41 104.831 322.409 104.835 322.409C104.842 322.406 104.851 322.404 104.858 322.401C104.86 322.4 104.862 322.4 104.863 322.398C106.342 321.882 107.884 321.508 109.473 321.293C110.12 321.205 110.775 321.144 111.435 321.111C111.437 321.111 111.437 321.111 111.439 321.111C111.447 321.11 111.458 321.11 111.467 321.108C111.471 321.108 111.472 321.108 111.472 321.108C111.483 321.108 111.492 321.108 111.501 321.107C111.504 321.107 111.506 321.107 111.512 321.107C111.519 321.107 111.528 321.106 111.535 321.106C111.54 321.106 111.544 321.106 111.547 321.106C111.554 321.104 111.563 321.104 111.572 321.104C111.574 321.104 111.579 321.104 111.585 321.103C111.592 321.103 111.599 321.103 111.608 321.103C111.611 321.103 111.617 321.101 111.62 321.101C111.627 321.101 111.634 321.101 111.641 321.101C111.647 321.1 111.652 321.1 111.657 321.1C111.665 321.1 111.67 321.1 111.679 321.1C111.684 321.099 111.691 321.099 111.697 321.099C111.702 321.099 111.707 321.099 111.714 321.097C111.725 321.097 111.738 321.097 111.75 321.096C114.007 309.153 126.563 300.017 141.725 300.017C158.476 300.017 172.061 311.179 172.061 324.95C172.061 324.965 172.061 324.98 172.061 324.994C172.061 325 172.061 325.004 172.061 325.008C172.059 325.021 172.059 325.032 172.059 325.044C172.059 325.047 172.059 325.051 172.059 325.054C172.059 325.068 172.059 325.083 172.059 325.098C172.059 325.103 172.059 325.107 172.059 325.111C172.059 325.122 172.059 325.133 172.059 325.144C172.059 325.148 172.059 325.153 172.059 325.158C172.059 325.172 172.059 325.186 172.058 325.201C172.058 325.204 172.058 325.208 172.058 325.212C172.058 325.223 172.058 325.236 172.058 325.247C172.058 325.251 172.058 325.255 172.058 325.261C172.058 325.275 172.058 325.29 172.058 325.305C172.058 325.305 172.058 325.307 172.058 325.308C172.058 325.322 172.058 325.337 172.058 325.351C172.058 325.354 172.058 325.358 172.058 325.361C172.049 325.763 172.029 326.165 171.997 326.563C171.429 319.29 167.065 312.866 160.516 308.613C160.516 308.799 160.482 308.978 160.415 309.145C160.093 309.929 159.073 310.322 157.691 310.322C156.339 310.322 154.639 309.948 152.903 309.195C149.464 307.704 147.157 305.286 147.659 303.729C145.741 303.417 143.756 303.252 141.725 303.252C126.563 303.252 114.007 312.39 111.75 324.332C100.801 324.751 91.711 332.633 89.146 343.176Z" fill="#F0F0F0"/>
<path d="M88.8196 350.533H88.189C87.9271 349.069 87.7907 347.557 87.7907 346.011C87.7907 344.89 87.8623 343.785 88.0027 342.702C88.1944 342.786 88.3943 342.872 88.6022 342.959C88.5806 343.142 88.5604 343.324 88.5428 343.507C88.4753 344.202 88.4361 344.905 88.4253 345.616C88.4253 345.619 88.4253 345.619 88.4253 345.621C88.4253 345.632 88.424 345.645 88.424 345.657C88.424 345.657 88.424 345.66 88.424 345.662C88.424 345.681 88.424 345.702 88.424 345.721C88.424 345.727 88.424 345.734 88.424 345.739C88.424 345.748 88.4226 345.756 88.4226 345.764C88.4226 345.773 88.4226 345.78 88.4226 345.788C88.4226 345.795 88.4226 345.802 88.4226 345.809C88.4226 345.821 88.4226 345.834 88.4226 345.846C88.4226 345.852 88.4226 345.856 88.4226 345.86C88.4226 345.874 88.4226 345.886 88.4226 345.9C88.4226 345.906 88.4226 345.911 88.4226 345.916C88.4226 345.928 88.4226 345.939 88.4226 345.95C88.4226 345.956 88.4226 345.96 88.4226 345.964C88.4226 345.98 88.4226 345.996 88.4226 346.011C88.4226 346.028 88.4226 346.045 88.4226 346.061C88.4226 346.066 88.4226 346.07 88.4226 346.074C88.4226 346.086 88.4226 346.098 88.4226 346.11C88.4226 346.114 88.4226 346.118 88.4226 346.124C88.4226 346.136 88.4226 346.149 88.4226 346.161C88.4226 346.164 88.4226 346.167 88.4226 346.171C88.4226 346.185 88.4226 346.199 88.4226 346.214C88.4226 346.214 88.4226 346.216 88.4226 346.217C88.4348 347.69 88.5698 349.134 88.8196 350.533Z" fill="#6E6EA6"/>
<path d="M201.982 351.737H88.4339C88.3436 351.34 88.2611 350.939 88.1885 350.534H88.8188C88.8914 350.939 88.9739 351.34 89.0642 351.737H201.982Z" fill="#1E3862"/>
<path d="M203.709 351.736H203.251H201.983H89.0655C88.9746 351.339 88.8936 350.938 88.8206 350.533C88.5697 349.133 88.4354 347.689 88.4236 346.217C88.4275 346.688 88.4433 347.158 88.473 347.624C88.5678 346.1 88.7969 344.613 89.1465 343.175C91.9985 344.274 96.1738 345.29 101.858 345.29C105.492 345.29 109.743 344.875 114.663 343.802C125.929 341.342 137.07 340.238 146.264 340.238C154.775 340.238 161.616 341.184 165.349 342.876C171.205 345.531 187.891 348.789 200.557 348.789C201.695 348.789 202.799 348.763 203.862 348.707C203.864 348.754 203.864 348.802 203.864 348.85C203.864 349.829 203.812 350.79 203.709 351.736ZM88.4236 346.214C88.4236 346.198 88.4236 346.185 88.4236 346.171C88.4236 346.185 88.4236 346.198 88.4236 346.214ZM88.4236 346.161C88.4236 346.148 88.4236 346.136 88.4236 346.123C88.4236 346.136 88.4236 346.148 88.4236 346.161ZM88.4236 346.109C88.4236 346.097 88.4236 346.086 88.4236 346.074C88.4236 346.086 88.4236 346.097 88.4236 346.109ZM88.4236 346.061C88.4236 346.044 88.4236 346.028 88.4236 346.011C88.4236 346.028 88.4236 346.044 88.4236 346.061ZM88.4236 345.964C88.4236 345.96 88.4236 345.956 88.4236 345.95C88.4236 345.956 88.4236 345.96 88.4236 345.964ZM88.4236 345.915C88.4236 345.911 88.4236 345.905 88.4236 345.9C88.4236 345.905 88.4236 345.911 88.4236 345.915ZM88.4236 345.86C88.4236 345.855 88.4236 345.851 88.4236 345.846C88.4236 345.85 88.4236 345.855 88.4236 345.86ZM88.4236 345.808C88.4236 345.801 88.4236 345.794 88.4236 345.788C88.4236 345.796 88.4236 345.801 88.4236 345.808ZM88.4236 345.764C88.4236 345.756 88.4236 345.747 88.4236 345.739C88.4236 345.747 88.4236 345.756 88.4236 345.764ZM88.4236 345.721C88.4236 345.701 88.4236 345.681 88.4236 345.661C88.4236 345.681 88.4236 345.7 88.4236 345.721ZM88.4236 345.657C88.4236 345.644 88.4256 345.632 88.4256 345.621C88.4256 345.633 88.4236 345.644 88.4236 345.657ZM88.4256 345.615C88.4374 344.905 88.4749 344.202 88.5441 343.507C88.4749 344.202 88.4374 344.906 88.4256 345.615Z" fill="#1E3862"/>
<path d="M88.4226 346.218C88.4226 346.216 88.4226 346.215 88.4226 346.215C88.4226 346.215 88.4226 346.216 88.4226 346.218ZM88.4226 346.172C88.4226 346.168 88.4226 346.165 88.4226 346.162C88.4226 346.165 88.4226 346.168 88.4226 346.172ZM88.4226 346.125C88.4226 346.119 88.4226 346.115 88.4226 346.111C88.4226 346.115 88.4226 346.119 88.4226 346.125ZM88.4226 346.075C88.4226 346.071 88.4226 346.066 88.4226 346.062C88.4226 346.066 88.4226 346.071 88.4226 346.075ZM88.4226 346.012C88.4226 345.997 88.4226 345.98 88.4226 345.965C88.4226 345.982 88.4226 345.997 88.4226 346.012ZM88.4226 345.951C88.4226 345.94 88.4226 345.929 88.4226 345.916C88.4226 345.929 88.4226 345.94 88.4226 345.951ZM88.4226 345.901C88.4226 345.887 88.4226 345.875 88.4226 345.861C88.4226 345.875 88.4226 345.889 88.4226 345.901ZM88.4226 345.847C88.4226 345.835 88.4226 345.822 88.4226 345.81C88.4226 345.822 88.4226 345.835 88.4226 345.847ZM88.4226 345.789C88.4226 345.78 88.4226 345.774 88.4226 345.765C88.4226 345.774 88.4226 345.78 88.4226 345.789ZM88.424 345.74C88.424 345.735 88.424 345.728 88.424 345.722C88.424 345.729 88.424 345.735 88.424 345.74ZM88.424 345.662C88.424 345.661 88.424 345.658 88.424 345.658C88.424 345.66 88.424 345.661 88.424 345.662ZM88.4253 345.622C88.4253 345.619 88.4253 345.619 88.4253 345.617C88.4253 345.618 88.4253 345.621 88.4253 345.622ZM88.5428 343.508C88.5603 343.324 88.5806 343.143 88.6022 342.959C88.5806 343.141 88.5603 343.324 88.5428 343.508Z" fill="#9190BD"/>
<path d="M88.4726 347.625C88.4429 347.159 88.4267 346.689 88.4226 346.217C88.4226 346.216 88.4226 346.214 88.4226 346.214C88.4226 346.199 88.4226 346.185 88.4226 346.171C88.4226 346.167 88.4226 346.164 88.4226 346.162C88.4226 346.149 88.4226 346.137 88.4226 346.124C88.4226 346.119 88.4226 346.114 88.4226 346.11C88.4226 346.098 88.4226 346.087 88.4226 346.074C88.4226 346.07 88.4226 346.066 88.4226 346.062C88.4226 346.045 88.4226 346.028 88.4226 346.012C88.4226 345.996 88.4226 345.981 88.4226 345.965C88.4226 345.96 88.4226 345.956 88.4226 345.951C88.4226 345.94 88.4226 345.928 88.4226 345.916C88.4226 345.912 88.4226 345.906 88.4226 345.901C88.4226 345.888 88.4226 345.874 88.4226 345.86C88.4226 345.856 88.4226 345.851 88.4226 345.847C88.4226 345.834 88.4226 345.822 88.4226 345.809C88.4226 345.802 88.4226 345.797 88.4226 345.788C88.4226 345.78 88.4226 345.773 88.4226 345.765C88.4226 345.756 88.424 345.748 88.424 345.74C88.424 345.734 88.424 345.729 88.424 345.722C88.424 345.701 88.424 345.681 88.424 345.662C88.424 345.66 88.424 345.659 88.424 345.658C88.424 345.645 88.4253 345.634 88.4253 345.622C88.4253 345.62 88.4253 345.617 88.4253 345.616C88.4361 344.907 88.4753 344.203 88.5428 343.507C88.5603 343.324 88.5806 343.141 88.6022 342.959C88.7777 343.031 88.9586 343.103 89.1463 343.175C88.7966 344.614 88.5671 346.101 88.4726 347.625Z" fill="#A8A8C9"/>
<path d="M90.0112 350.535H203.269C203.304 349.977 203.322 349.414 203.322 348.851C203.322 348.812 203.324 348.775 203.322 348.738V348.715C203.259 336.274 194.444 326.154 183.669 326.154C179.574 326.154 175.645 327.597 172.311 330.327C171.923 330.645 171.381 330.677 170.96 330.406C170.541 330.135 170.332 329.62 170.44 329.122C170.74 327.753 170.891 326.349 170.891 324.95C170.891 311.866 157.808 301.221 141.724 301.221C127.458 301.221 115.064 309.864 112.899 321.326C112.794 321.875 112.337 322.279 111.793 322.3C100.528 322.73 91.2744 331.378 89.7948 342.861C89.6597 343.894 89.5922 344.954 89.5922 346.012C89.5922 347.539 89.7332 349.057 90.0112 350.535ZM204.339 352.941H89.0659C88.5217 352.941 88.0489 352.558 87.9258 352.015C87.4789 350.066 87.2525 348.046 87.2525 346.012C87.2525 344.849 87.326 343.681 87.473 342.543C88.2555 336.484 91.1116 330.863 95.5208 326.719C99.7314 322.759 105.124 320.374 110.796 319.946C112.145 314.179 115.821 308.933 121.233 305.089C126.928 301.042 134.205 298.813 141.724 298.813C150.092 298.813 157.969 301.501 163.905 306.38C169.919 311.322 173.232 317.917 173.232 324.95C173.232 325.565 173.204 326.18 173.153 326.793C176.366 324.793 179.953 323.746 183.669 323.746C189.548 323.746 195.072 326.358 199.225 331.099C203.34 335.798 205.628 342.046 205.662 348.693C205.664 348.744 205.664 348.797 205.664 348.851C205.664 349.865 205.61 350.881 205.503 351.871C205.437 352.48 204.937 352.941 204.339 352.941Z" fill="#1E3862"/>
<path d="M215.229 258.058C215.229 260.639 213.194 262.731 210.683 262.731C208.174 262.731 206.139 260.639 206.139 258.058C206.139 255.476 208.174 253.384 210.683 253.384C213.194 253.384 215.229 255.476 215.229 258.058Z" fill="#C4CAD2"/>
<path d="M210.685 254.588C208.824 254.588 207.309 256.144 207.309 258.059C207.309 259.972 208.824 261.528 210.685 261.528C212.544 261.528 214.058 259.972 214.058 258.059C214.058 256.144 212.544 254.588 210.685 254.588ZM210.685 263.936C207.533 263.936 204.968 261.299 204.968 258.059C204.968 254.817 207.533 252.18 210.685 252.18C213.834 252.18 216.399 254.817 216.399 258.059C216.399 261.299 213.834 263.936 210.685 263.936Z" fill="#1E3862"/>
<path d="M259.386 272.903C259.386 275.483 257.351 277.577 254.841 277.577C252.33 277.577 250.295 275.483 250.295 272.903C250.295 270.322 252.33 268.229 254.841 268.229C257.351 268.229 259.386 270.322 259.386 272.903Z" fill="#C4CAD2"/>
<path d="M254.841 269.433C252.98 269.433 251.465 270.989 251.465 272.902C251.465 274.815 252.98 276.373 254.841 276.373C256.704 276.373 258.216 274.815 258.216 272.902C258.216 270.989 256.704 269.433 254.841 269.433ZM254.841 278.78C251.688 278.78 249.124 276.144 249.124 272.902C249.124 269.662 251.688 267.025 254.841 267.025C257.993 267.025 260.557 269.662 260.557 272.902C260.557 276.144 257.993 278.78 254.841 278.78Z" fill="#1E3862"/>
<path d="M233.04 289.217C233.04 291.387 231.33 293.146 229.219 293.146C227.108 293.146 225.397 291.387 225.397 289.217C225.397 287.048 227.108 285.288 229.219 285.288C231.33 285.288 233.04 287.048 233.04 289.217Z" fill="#C4CAD2"/>
<path d="M229.218 286.492C227.757 286.492 226.569 287.715 226.569 289.217C226.569 290.721 227.757 291.942 229.218 291.942C230.679 291.942 231.87 290.721 231.87 289.217C231.87 287.715 230.679 286.492 229.218 286.492ZM229.218 294.35C226.467 294.35 224.228 292.048 224.228 289.217C224.228 286.388 226.467 284.084 229.218 284.084C231.972 284.084 234.211 286.388 234.211 289.217C234.211 292.048 231.972 294.35 229.218 294.35Z" fill="#1E3862"/>
<path d="M209.96 280.135C209.96 282.305 208.249 284.063 206.138 284.063C204.029 284.063 202.316 282.305 202.316 280.135C202.316 277.965 204.029 276.206 206.138 276.206C208.249 276.206 209.96 277.965 209.96 280.135Z" fill="#C4CAD2"/>
<path d="M210.685 261.528C208.823 261.528 207.308 259.972 207.308 258.059C207.308 257.109 207.682 256.248 208.283 255.621C208.274 255.738 208.27 255.856 208.27 255.974C208.27 258.555 210.305 260.647 212.815 260.647C212.856 260.647 212.892 260.645 212.931 260.645C212.334 261.194 211.546 261.528 210.685 261.528Z" fill="#1E3862"/>
<path d="M210.683 262.732C208.172 262.732 206.137 260.64 206.137 258.059C206.137 256.173 207.223 254.548 208.787 253.811C208.507 254.359 208.329 254.973 208.282 255.621C207.68 256.249 207.309 257.11 207.309 258.059C207.309 259.972 208.823 261.529 210.683 261.529C211.545 261.529 212.333 261.194 212.929 260.646C213.566 260.629 214.169 260.479 214.714 260.221C213.954 261.713 212.435 262.732 210.683 262.732Z" fill="#1E3862"/>
<path d="M102.805 289.216C102.805 291.798 100.77 293.89 98.2601 293.89C95.7505 293.89 93.7151 291.798 93.7151 289.216C93.7151 286.636 95.7505 284.543 98.2601 284.543C100.77 284.543 102.805 286.636 102.805 289.216Z" fill="#C4CAD2"/>
<path d="M98.2612 285.748C96.4004 285.748 94.8855 287.304 94.8855 289.216C94.8855 291.13 96.4004 292.686 98.2612 292.686C100.121 292.686 101.634 291.13 101.634 289.216C101.634 287.304 100.121 285.748 98.2612 285.748ZM98.2612 295.094C95.1089 295.094 92.5451 292.458 92.5451 289.216C92.5451 285.976 95.1089 283.34 98.2612 283.34C101.412 283.34 103.976 285.976 103.976 289.216C103.976 292.458 101.412 295.094 98.2612 295.094Z" fill="#1E3862"/>
<path d="M98.2603 292.686C96.3997 292.686 94.8848 291.129 94.8848 289.216C94.8848 288.268 95.2574 287.407 95.8596 286.78C95.8515 286.896 95.8475 287.013 95.8475 287.132C95.8475 289.712 97.8822 291.804 100.392 291.804C100.431 291.804 100.469 291.804 100.507 291.803C99.9103 292.352 99.1217 292.686 98.2603 292.686Z" fill="#1E3862"/>
<path d="M98.2601 293.892C95.7482 293.892 93.7135 291.799 93.7135 289.217C93.7135 287.332 94.7991 285.708 96.3633 284.97C96.0834 285.519 95.9063 286.131 95.859 286.781C95.2574 287.408 94.8843 288.269 94.8843 289.217C94.8843 291.131 96.3998 292.686 98.2601 292.686C99.1213 292.686 99.9094 292.353 100.507 291.804C101.142 291.788 101.745 291.638 102.29 291.378C101.532 292.873 100.012 293.892 98.2601 293.892Z" fill="#1E3862"/>
<path d="M67.1731 257.615C67.1731 259.725 65.5096 261.436 63.4573 261.436C61.405 261.436 59.7415 259.725 59.7415 257.615C59.7415 255.505 61.405 253.794 63.4573 253.794C65.5096 253.794 67.1731 255.505 67.1731 257.615Z" fill="#C4CAD2"/>
<path d="M63.4572 254.998C62.0543 254.998 60.9121 256.173 60.9121 257.615C60.9121 259.059 62.0543 260.232 63.4572 260.232C64.8614 260.232 66.0024 259.059 66.0024 257.615C66.0024 256.173 64.8614 254.998 63.4572 254.998ZM63.4572 262.64C60.7635 262.64 58.5708 260.386 58.5708 257.615C58.5708 254.846 60.7635 252.591 63.4572 252.591C66.1522 252.591 68.3436 254.846 68.3436 257.615C68.3436 260.386 66.1522 262.64 63.4572 262.64Z" fill="#1E3862"/>
<path d="M63.4572 260.232C62.0543 260.232 60.912 259.059 60.912 257.615C60.912 256.989 61.1267 256.415 61.4845 255.963C61.5101 257.967 63.0386 259.599 64.964 259.724C64.5414 260.044 64.0202 260.232 63.4572 260.232Z" fill="#1E3862"/>
<path d="M63.4573 261.436C61.405 261.436 59.7415 259.725 59.7415 257.615C59.7415 256.074 60.6286 254.745 61.9073 254.143C61.6372 254.672 61.4846 255.274 61.4846 255.911C61.4846 255.928 61.4846 255.946 61.4846 255.963C61.1268 256.414 60.9122 256.989 60.9122 257.615C60.9122 259.059 62.0544 260.232 63.4573 260.232C64.0203 260.232 64.5415 260.043 64.9641 259.724C65.0425 259.728 65.1208 259.731 65.2004 259.731C65.7554 259.731 66.2806 259.607 66.7518 259.382C66.1321 260.603 64.8899 261.436 63.4573 261.436Z" fill="#1E3862"/>
<path d="M86.0152 258.364C86.0152 260.474 84.3518 262.185 82.2995 262.185C80.2471 262.185 78.5837 260.474 78.5837 258.364C78.5837 256.254 80.2471 254.543 82.2995 254.543C84.3518 254.543 86.0152 256.254 86.0152 258.364Z" fill="#C4CAD2"/>
<path d="M82.2995 255.746C80.8966 255.746 79.7543 256.921 79.7543 258.363C79.7543 259.806 80.8966 260.98 82.2995 260.98C83.7037 260.98 84.8446 259.806 84.8446 258.363C84.8446 256.921 83.7037 255.746 82.2995 255.746ZM82.2995 263.388C79.6058 263.388 77.4131 261.133 77.4131 258.363C77.4131 255.592 79.6058 253.339 82.2995 253.339C84.9945 253.339 87.1859 255.592 87.1859 258.363C87.1859 261.133 84.9945 263.388 82.2995 263.388Z" fill="#1E3862"/>
<path d="M82.2994 260.98C80.8966 260.98 79.7543 259.806 79.7543 258.363C79.7543 257.737 79.969 257.163 80.3268 256.711C80.3524 258.715 81.8809 260.347 83.8063 260.471C83.3837 260.792 82.8625 260.98 82.2994 260.98Z" fill="#1E3862"/>
<path d="M82.2995 262.185C80.2471 262.185 78.5837 260.474 78.5837 258.364C78.5837 256.823 79.4708 255.494 80.7494 254.892C80.4794 255.421 80.3268 256.022 80.3268 256.66C80.3268 256.677 80.3268 256.695 80.3268 256.712C79.969 257.163 79.7543 257.738 79.7543 258.364C79.7543 259.806 80.8966 260.981 82.2995 260.981C82.8625 260.981 83.3837 260.792 83.8063 260.471C83.8846 260.477 83.9629 260.48 84.0426 260.48C84.5975 260.48 85.1228 260.356 85.5953 260.131C84.9742 261.352 83.732 262.185 82.2995 262.185Z" fill="#1E3862"/>
<path d="M254.84 276.373C252.98 276.373 251.466 274.815 251.466 272.902C251.466 271.954 251.839 271.093 252.442 270.466C252.432 270.581 252.428 270.699 252.428 270.817C252.428 273.398 254.463 275.49 256.974 275.49C257.013 275.49 257.05 275.49 257.089 275.489C256.49 276.038 255.703 276.373 254.84 276.373Z" fill="#1E3862"/>
<path d="M254.841 277.577C252.329 277.577 250.294 275.485 250.294 272.903C250.294 271.019 251.381 269.394 252.942 268.656C252.662 269.203 252.486 269.816 252.44 270.466C251.839 271.094 251.467 271.954 251.467 272.903C251.467 274.816 252.979 276.373 254.841 276.373C255.703 276.373 256.489 276.039 257.088 275.489C257.722 275.474 258.326 275.324 258.871 275.063C258.113 276.558 256.591 277.577 254.841 277.577Z" fill="#1E3862"/>
<path d="M229.22 291.941C227.758 291.941 226.569 290.72 226.569 289.216C226.569 288.372 226.944 287.617 227.531 287.117C227.531 287.121 227.531 287.127 227.531 287.132C227.531 289.241 229.145 290.96 231.174 291.056C230.69 291.6 229.993 291.941 229.22 291.941Z" fill="#1E3862"/>
<path d="M229.222 293.146C227.11 293.146 225.399 291.386 225.399 289.216C225.399 287.54 226.42 286.109 227.857 285.546C227.651 286.024 227.534 286.558 227.532 287.117C226.945 287.617 226.57 288.372 226.57 289.216C226.57 290.72 227.758 291.942 229.222 291.942C229.994 291.942 230.689 291.6 231.176 291.056C231.234 291.058 231.294 291.06 231.352 291.06C231.834 291.06 232.293 290.97 232.717 290.802C232.125 292.183 230.782 293.146 229.222 293.146Z" fill="#1E3862"/>
<path d="M206.137 284.063C204.983 284.063 203.947 283.537 203.246 282.703C203.947 283.536 204.983 284.063 206.139 284.063C206.994 284.063 207.785 283.773 208.422 283.283C207.785 283.773 206.994 284.063 206.137 284.063ZM208.424 283.282C208.426 283.281 208.43 283.278 208.432 283.276C208.43 283.278 208.426 283.281 208.424 283.282Z" fill="#2CA0D3"/>
<path d="M206.138 284.063C204.982 284.063 203.946 283.536 203.247 282.703C202.668 282.014 202.318 281.116 202.318 280.134C202.318 278.459 203.337 277.026 204.775 276.462C204.566 276.947 204.449 277.483 204.449 278.048C204.449 280.221 206.16 281.978 208.271 281.978C208.75 281.978 209.21 281.888 209.634 281.719C209.369 282.338 208.953 282.874 208.432 283.276C208.43 283.278 208.428 283.28 208.424 283.282V283.283C207.786 283.773 206.994 284.063 206.138 284.063Z" fill="#1E3862"/>
<path d="M206.14 277.409C204.678 277.409 203.488 278.631 203.488 280.134C203.488 281.636 204.678 282.859 206.14 282.859C207.6 282.859 208.79 281.636 208.79 280.134C208.79 278.631 207.6 277.409 206.14 277.409ZM206.14 285.267C203.387 285.267 201.149 282.964 201.149 280.134C201.149 277.303 203.387 275.001 206.14 275.001C208.893 275.001 211.131 277.303 211.131 280.134C211.131 282.964 208.893 285.267 206.14 285.267Z" fill="#1E3862"/>
<path d="M69.1564 331.716C70.373 331.516 71.6152 331.44 72.8439 331.391C73.4623 331.366 74.0806 331.354 74.7004 331.355C74.8894 331.355 75.1311 331.314 75.3093 331.395C75.5348 331.5 75.632 331.787 75.5173 332.012C75.4187 332.206 75.231 332.242 75.0447 332.291C74.7679 332.364 74.4925 332.438 74.217 332.514C73.5757 332.693 72.9384 332.886 72.3051 333.096C71.6935 333.297 71.0845 333.511 70.4837 333.747C70.0314 333.925 69.5669 334.219 69.0673 334.105C68.5232 333.98 68.1276 333.464 68.1411 332.889C68.1559 332.302 68.5921 331.801 69.1564 331.716Z" fill="#1E3862"/>
<path d="M64.8277 337.712C64.073 338.762 63.4505 339.938 62.959 341.138C62.7106 341.747 62.4905 342.362 62.3055 342.992C62.2475 343.189 62.2043 343.397 61.999 343.485C61.756 343.589 61.4765 343.435 61.4239 343.171C61.382 342.971 61.4306 342.73 61.4427 342.527C61.463 342.195 61.4941 341.863 61.5359 341.533C61.625 340.819 61.7452 340.11 61.9059 339.409C62.0585 338.741 62.2421 338.08 62.4568 337.432C62.6093 336.974 62.7471 336.382 63.1224 336.057C63.5666 335.673 64.2363 335.682 64.6698 336.079C65.1234 336.495 65.1882 337.212 64.8277 337.712Z" fill="#1E3862"/>
<path d="M105.001 305.535C104.24 306.386 103.631 307.389 103.158 308.437C102.872 309.068 102.628 309.735 102.482 310.418C102.442 310.604 102.433 310.889 102.311 311.045C102.146 311.259 101.808 311.211 101.703 310.959C101.669 310.879 101.673 310.787 101.669 310.701C101.662 310.53 101.651 310.358 101.649 310.188C101.644 309.851 101.661 309.517 101.684 309.183C101.738 308.447 101.862 307.712 102.042 306.999C102.212 306.323 102.426 305.661 102.688 305.017C102.863 304.585 103.047 304.028 103.426 303.735C103.9 303.367 104.591 303.426 105 303.873C105.422 304.336 105.419 305.07 105.001 305.535Z" fill="#1E3862"/>
<path d="M203.528 302.658C202.898 302.56 202.25 302.529 201.612 302.513C200.798 302.493 199.981 302.521 199.171 302.631C198.442 302.729 197.695 302.894 197.031 303.229C196.823 303.333 196.589 303.547 196.351 303.555C196.06 303.566 195.816 303.307 195.84 303.007C195.86 302.707 196.163 302.51 196.375 302.343C196.663 302.117 196.974 301.923 197.295 301.75C197.996 301.378 198.747 301.112 199.51 300.904C200.273 300.694 201.051 300.541 201.834 300.429C202.432 300.344 203.041 300.265 203.647 300.252C204.321 300.237 204.891 300.798 204.869 301.502C204.848 302.214 204.212 302.753 203.528 302.658Z" fill="#1E3862"/>
<path d="M214.199 304.62C215.053 305.704 215.76 306.917 216.309 308.19C216.599 308.866 216.84 309.583 216.973 310.309C217.031 310.623 217.07 310.932 217.101 311.25C217.124 311.468 217.078 311.69 216.846 311.768C216.607 311.849 216.42 311.686 216.342 311.466C216.243 311.184 216.149 310.905 216.029 310.63C215.748 309.974 215.359 309.363 214.931 308.798C214.481 308.2 213.983 307.642 213.449 307.124C213.225 306.907 212.996 306.696 212.758 306.498C212.573 306.342 212.386 306.208 212.262 305.99C211.956 305.448 212.11 304.733 212.614 304.378C213.111 304.029 213.827 304.125 214.199 304.62Z" fill="#1E3862"/>
<path d="M250.086 323.23C249.571 324.6 249.003 325.953 248.366 327.27C248.02 327.979 247.654 328.683 247.233 329.349C247.048 329.644 246.847 329.924 246.632 330.199C246.481 330.396 246.268 330.521 246.018 330.434C245.715 330.327 245.595 329.973 245.728 329.685C245.834 329.459 245.957 329.244 246.058 329.015C246.37 328.307 246.61 327.567 246.827 326.822C247.24 325.419 247.539 323.992 247.837 322.56C247.979 321.883 248.644 321.441 249.302 321.627C249.968 321.815 250.33 322.57 250.086 323.23Z" fill="#1E3862"/>
<path d="M280.773 339.704C279.17 339.894 277.528 340.391 276.089 341.145C275.299 341.558 274.533 342.084 273.956 342.782C273.75 343.029 273.6 343.308 273.411 343.565C273.2 343.853 272.78 343.887 272.532 343.631C272.269 343.36 272.377 343.042 272.512 342.743C272.679 342.37 272.89 342.019 273.129 341.69C273.664 340.95 274.339 340.322 275.068 339.79C276.462 338.777 278.058 338.048 279.683 337.53C280.015 337.423 280.385 337.272 280.741 337.304C281.11 337.337 281.448 337.554 281.64 337.877C282.079 338.62 281.605 339.597 280.773 339.704Z" fill="#1E3862"/>
<path d="M172.714 329.696C172.23 330.96 171.621 332.177 170.914 333.323C170.539 333.929 170.123 334.518 169.654 335.05C169.459 335.27 169.259 335.483 169.047 335.687C168.877 335.849 168.64 335.902 168.454 335.727C168.266 335.548 168.316 335.313 168.44 335.118C168.6 334.858 168.756 334.598 168.898 334.326C169.229 333.699 169.473 333.023 169.697 332.348C169.925 331.65 170.102 330.932 170.252 330.211C170.314 329.913 170.371 329.613 170.418 329.313C170.455 329.07 170.482 328.837 170.609 328.622C170.916 328.098 171.578 327.892 172.118 328.15C172.671 328.416 172.946 329.109 172.714 329.696Z" fill="#1E3862"/>
<path d="M112.911 321.252C112.586 322.765 112.368 324.306 112.245 325.85C112.177 326.712 112.138 327.575 112.134 328.44C112.133 328.784 112.145 329.127 112.152 329.471C112.157 329.721 112.028 329.96 111.757 329.967C111.477 329.974 111.368 329.745 111.32 329.506C111.241 329.125 111.167 328.745 111.097 328.363C110.944 327.505 110.835 326.639 110.751 325.773C110.6 324.181 110.52 322.564 110.588 320.965C110.618 320.28 111.164 319.722 111.846 319.771C112.557 319.822 113.074 320.538 112.911 321.252Z" fill="#1E3862"/>
<path d="M180.416 278.855H160.761C158.022 278.855 155.927 276.341 156.349 273.558L157.838 263.705L159.027 255.822L159.271 254.22H181.905L182.15 255.822L183.338 263.705L184.828 273.558C185.249 276.341 183.155 278.855 180.416 278.855Z" fill="#006AF2"/>
<path d="M145.044 278.856H125.39C122.649 278.856 120.555 276.341 120.977 273.557L122.467 263.705L123.654 255.823L123.899 254.222H146.533L146.778 255.823L147.967 263.705L149.458 273.557C149.877 276.341 147.784 278.856 145.044 278.856Z" fill="#006AF2"/>
<path d="M180.418 277.576H160.763C159.82 277.576 158.93 277.153 158.315 276.417C157.702 275.682 157.433 274.711 157.58 273.754L157.737 272.71C158.528 273.46 159.585 273.922 160.763 273.922H180.418C181.594 273.922 182.651 273.458 183.444 272.709L183.601 273.754C183.746 274.711 183.477 275.682 182.864 276.418C182.251 277.153 181.359 277.576 180.418 277.576Z" fill="#B7BCB0"/>
<path d="M145.043 277.577H125.388C124.447 277.577 123.554 277.154 122.941 276.419C122.328 275.683 122.06 274.711 122.204 273.755L122.362 272.71C123.154 273.459 124.211 273.923 125.39 273.923H145.045C146.22 273.923 147.279 273.461 148.069 272.711L148.228 273.755C148.371 274.711 148.103 275.683 147.49 276.419C146.877 277.154 145.985 277.577 145.043 277.577Z" fill="#B7BCB0"/>
<path d="M160.338 255.499L157.578 273.755C157.432 274.711 157.701 275.683 158.314 276.417C158.928 277.153 159.821 277.577 160.762 277.577H180.417C181.358 277.577 182.25 277.153 182.863 276.419C183.475 275.683 183.744 274.711 183.601 273.755L180.841 255.499H160.338ZM180.417 280.134H160.762C159.093 280.134 157.511 279.386 156.426 278.082C155.341 276.778 154.863 275.058 155.121 273.361L158.043 254.024C158.138 253.402 158.659 252.941 159.272 252.941H181.905C182.519 252.941 183.04 253.402 183.134 254.024L186.058 273.361C186.314 275.058 185.84 276.778 184.751 278.082C183.666 279.386 182.086 280.134 180.417 280.134Z" fill="#1E3862"/>
<path d="M124.964 255.5L122.205 273.755C122.061 274.71 122.33 275.683 122.943 276.419C123.555 277.154 124.448 277.576 125.389 277.576H145.045C145.987 277.576 146.879 277.154 147.491 276.419C148.103 275.683 148.372 274.71 148.229 273.755L145.468 255.5H124.964ZM145.045 280.134H125.389C123.72 280.134 122.139 279.385 121.053 278.082C119.967 276.779 119.492 275.058 119.747 273.361L122.672 254.025C122.766 253.401 123.288 252.943 123.9 252.943H146.534C147.146 252.943 147.669 253.401 147.762 254.025L150.686 273.361C150.942 275.058 150.467 276.779 149.379 278.082C148.295 279.385 146.715 280.134 145.045 280.134Z" fill="#1E3862"/>
<path d="M59.2428 241.257H126.267V90.1683L112.927 155.578C110.467 167.649 104.906 178.842 96.7084 187.845C96.6461 187.913 96.5841 187.981 96.5219 188.046C88.8474 196.422 80.6665 202.301 73.3713 206.424C63.7726 211.848 56.4492 220.708 52.7347 231.305C52.701 231.397 52.6685 231.492 52.6349 231.585C50.9862 236.292 54.3767 241.257 59.2428 241.257Z" fill="white"/>
<path d="M81.348 239.979H61.3168C61.0535 238.72 61.1168 237.36 61.5853 236.021C61.6191 235.926 61.6515 235.834 61.6813 235.739C65.3998 225.141 72.7199 216.283 82.3169 210.859C89.6163 206.735 97.7946 200.858 105.471 192.481C105.532 192.414 105.596 192.344 105.658 192.279C113.855 183.278 119.415 172.081 121.878 160.014L125.022 144.591V213.155C121.943 215.046 119.914 218.435 119.914 222.305V234.888H87.418C84.4289 234.888 81.9271 237.077 81.348 239.979Z" fill="#B2AEC1"/>
<path d="M125.023 102.498L114.146 155.841C111.613 168.259 105.898 179.627 97.6166 188.717L97.4288 188.923C90.6629 196.307 82.7696 202.571 73.9702 207.543C64.6551 212.807 57.5287 221.4 53.9048 231.738L53.8061 232.018C53.1595 233.865 53.4173 235.845 54.5138 237.451C55.6114 239.056 57.3356 239.978 59.2435 239.978H125.023V102.498ZM126.268 242.535H59.2435C56.5133 242.535 54.048 241.218 52.479 238.921C50.91 236.624 50.5401 233.793 51.4663 231.152L51.5636 230.873C55.3941 219.945 62.9268 210.865 72.7726 205.301C81.3439 200.457 89.0306 194.358 95.6182 187.169L95.7991 186.97C103.77 178.222 109.272 167.277 111.712 155.316L125.052 89.9045C125.18 89.2623 125.761 88.8289 126.396 88.8948C127.032 88.9628 127.513 89.5119 127.513 90.1677V241.256C127.513 241.963 126.954 242.535 126.268 242.535Z" fill="#1E3862"/>
<path d="M52.7596 231.314C53.4832 231.581 54.2933 231.217 54.5755 230.476C58.3129 220.777 65.1937 212.731 74.0632 207.72C74.159 207.665 74.2548 207.611 74.3453 207.557C75.1689 208.095 76.2478 208.158 77.1485 207.616C85.1404 202.803 92.3518 196.911 98.614 190.072L98.8058 189.866C106.669 181.233 112.275 170.596 115.123 158.965C115.375 157.919 115.006 156.87 114.263 156.215C114.288 156.107 114.312 155.994 114.336 155.881L127.676 90.4723C127.478 90.4271 127.278 90.4067 127.08 90.4067C125.749 90.4067 124.551 91.3625 124.268 92.7565L111.519 155.273C111.499 155.368 111.479 155.467 111.455 155.56C110.537 155.806 109.779 156.554 109.528 157.564C106.924 168.212 101.796 177.937 94.6094 185.824L94.4311 186.016C88.5482 192.442 81.7675 197.98 74.2495 202.512C73.3732 203.038 72.894 204.001 72.9318 204.979C72.8507 205.029 72.7643 205.079 72.6778 205.128C63.2251 210.469 55.8974 219.037 51.9116 229.369C51.6091 230.146 51.9925 231.03 52.7596 231.314Z" fill="#006AF2"/>
<path d="M246.561 241.257H179.538V90.1689L192.878 155.579C195.339 167.648 200.898 178.843 209.098 187.843C209.159 187.911 209.221 187.979 209.283 188.047C216.958 196.422 225.139 202.3 232.434 206.423C242.034 211.848 249.357 220.709 253.072 231.304C253.104 231.397 253.136 231.491 253.17 231.586C254.82 236.292 251.427 241.257 246.561 241.257Z" fill="white"/>
<path d="M180.783 239.978H246.563C248.473 239.978 250.195 239.056 251.292 237.451C252.39 235.845 252.648 233.865 252 232.02L251.902 231.737C248.278 221.402 241.15 212.808 231.835 207.542C223.038 202.57 215.145 196.306 208.379 188.922L208.191 188.715C199.911 179.627 194.194 168.259 191.661 155.84L180.783 102.497V239.978ZM246.563 242.535H179.537C178.853 242.535 178.294 241.963 178.294 241.257V90.1682C178.294 89.5111 178.777 88.9624 179.409 88.8964C180.044 88.8281 180.625 89.2638 180.756 89.9044L194.095 155.315C196.535 167.274 202.036 178.221 210.005 186.968L210.19 187.17C216.775 194.358 224.462 200.458 233.033 205.302C242.882 210.865 250.413 219.946 254.243 230.869L254.341 231.152C255.266 233.793 254.898 236.624 253.326 238.921C251.757 241.218 249.293 242.535 246.563 242.535Z" fill="#1E3862"/>
<path d="M253.046 231.313C252.324 231.58 251.513 231.215 251.23 230.476C247.494 220.776 240.612 212.73 231.744 207.719C231.648 207.665 231.552 207.611 231.461 207.557C230.636 208.095 229.558 208.158 228.658 207.615C220.665 202.804 213.455 196.912 207.192 190.071L207 189.864C199.137 181.232 193.53 170.596 190.687 158.962C190.431 157.92 190.801 156.87 191.543 156.215C191.518 156.107 191.495 155.992 191.47 155.879L178.132 90.4725C178.326 90.4278 178.527 90.4067 178.726 90.4067C180.057 90.4067 181.256 91.3625 181.537 92.7574L194.288 155.273C194.307 155.367 194.327 155.466 194.35 155.559C195.27 155.804 196.026 156.555 196.278 157.565C198.883 168.21 204.011 177.937 211.198 185.825L211.374 186.015C217.26 192.44 224.038 197.98 231.557 202.51C232.434 203.039 232.913 203.999 232.874 204.981C232.957 205.03 233.041 205.077 233.128 205.129C242.583 210.469 249.908 219.036 253.895 229.368C254.197 230.146 253.813 231.029 253.046 231.313Z" fill="#006AF2"/>
<path d="M244.488 239.979H185.89V222.306C185.89 218.435 183.86 215.046 180.782 213.155V144.597L183.927 160.014C186.389 172.079 191.947 183.277 200.145 192.279C200.208 192.343 200.27 192.412 200.332 192.481C208.01 200.857 216.188 206.735 223.484 210.859C233.082 216.282 240.404 225.141 244.123 235.739C244.152 235.833 244.185 235.926 244.219 236.02C244.686 237.36 244.751 238.719 244.488 239.979Z" fill="#B2AEC1"/>
<path d="M244.095 241.257H185.891V239.978H244.489C244.395 240.418 244.264 240.846 244.095 241.257Z" fill="#1E3862"/>
<path d="M231.458 206.277C231.674 206.277 231.889 206.336 232.081 206.449C232.164 206.498 232.253 206.548 232.34 206.6C241.43 211.732 248.55 220.047 252.387 230.006C252.421 230.097 252.529 230.145 252.625 230.111C252.689 230.086 252.719 230.039 252.735 230.003C252.751 229.967 252.765 229.909 252.737 229.842C248.864 219.8 241.687 211.424 232.528 206.249C232.43 206.192 232.336 206.138 232.246 206.086C231.85 205.848 231.612 205.401 231.63 204.93C231.651 204.393 231.383 203.889 230.927 203.618C223.303 199.02 216.422 193.395 210.468 186.894L210.294 186.708C202.986 178.685 197.724 168.719 195.069 157.877C194.939 157.347 194.542 156.933 194.036 156.796C193.601 156.681 193.26 156.332 193.145 155.885C193.12 155.779 193.097 155.67 193.076 155.564L180.319 93.0199C180.239 92.6195 180.019 92.2756 179.719 92.0377L192.753 155.934C192.856 156.396 192.701 156.876 192.35 157.185C191.935 157.552 191.759 158.115 191.89 158.655C194.68 170.062 200.219 180.553 207.907 188.99L208.09 189.188C214.271 195.937 221.4 201.764 229.284 206.513C229.752 206.793 230.329 206.779 230.794 206.477C230.998 206.345 231.229 206.277 231.458 206.277ZM253.044 231.314H253.051H253.044ZM252.55 232.683C251.48 232.683 250.486 232.025 250.071 230.945C246.488 221.642 239.872 213.862 231.424 209C230.32 209.44 229.074 209.351 228.029 208.72C219.936 203.846 212.621 197.868 206.285 190.948L206.097 190.748C198.116 181.985 192.373 171.105 189.477 159.276C189.18 158.054 189.452 156.794 190.188 155.828L176.913 90.7352C176.773 90.0474 177.197 89.3737 177.863 89.223C178.138 89.1594 178.429 89.1287 178.725 89.1287C180.663 89.1287 182.358 90.5467 182.754 92.497L195.424 154.615C196.435 155.136 197.195 156.089 197.481 157.251C200.033 167.674 205.089 177.253 212.104 184.951L212.275 185.135C218.069 191.464 224.767 196.938 232.185 201.408C233.195 202.016 233.873 203.043 234.063 204.202C243.565 209.674 251.012 218.429 255.051 228.897C255.321 229.596 255.305 230.361 255.003 231.051C254.705 231.739 254.16 232.259 253.468 232.518L253.464 232.519C253.161 232.63 252.852 232.683 252.55 232.683Z" fill="#1E3862"/>
<path d="M179.537 236.165H218.387C221.123 236.165 223.339 238.445 223.339 241.256H179.537V236.165Z" fill="#006AF2"/>
<path d="M126.268 236.166H87.419C84.6847 236.166 82.4677 238.445 82.4677 241.257H126.268V236.166Z" fill="#006AF2"/>
<path d="M180.783 239.978H221.881C221.368 238.501 219.995 237.444 218.387 237.444H180.783V239.978ZM223.338 242.535H179.538C178.851 242.535 178.294 241.964 178.294 241.257V236.165C178.294 235.458 178.851 234.887 179.538 234.887H218.387C221.803 234.887 224.582 237.745 224.582 241.257C224.582 241.964 224.025 242.535 223.338 242.535Z" fill="#1E3862"/>
<path d="M83.9252 239.978H125.024V237.443H87.4192C85.8101 237.443 84.439 238.502 83.9252 239.978ZM126.269 242.534H82.4668C81.7797 242.534 81.2238 241.963 81.2238 241.256C81.2238 237.744 84.0021 234.886 87.4192 234.886H126.269C126.956 234.886 127.512 235.459 127.512 236.165V241.256C127.512 241.963 126.956 242.534 126.269 242.534Z" fill="#1E3862"/>
<path d="M53.1807 230.112C53.274 230.144 53.3833 230.099 53.4184 230.008C57.2557 220.046 64.3753 211.734 73.4637 206.599C73.5541 206.549 73.6419 206.499 73.7241 206.449C74.1252 206.214 74.6209 206.225 75.0109 206.477C75.4755 206.78 76.0534 206.794 76.5204 206.513C84.4058 201.763 91.5349 195.936 97.7095 189.194L97.9053 188.983C105.584 180.553 111.123 170.063 113.917 158.652C114.045 158.115 113.871 157.553 113.454 157.185C113.103 156.877 112.949 156.394 113.05 155.931L113.119 155.61L126.086 92.037C125.786 92.2751 125.568 92.6174 125.486 93.0187L112.735 155.537C112.706 155.682 112.684 155.786 112.66 155.888C112.543 156.333 112.204 156.682 111.769 156.798C111.262 156.934 110.865 157.349 110.735 157.879C108.083 168.719 102.819 178.687 95.5167 186.7L95.333 186.899C89.384 193.395 82.5005 199.02 74.8786 203.615C74.4222 203.89 74.1537 204.393 74.1753 204.93C74.1929 205.402 73.9565 205.846 73.5594 206.084C73.4703 206.139 73.3746 206.193 73.2787 206.248C64.1189 211.424 56.9411 219.801 53.0674 229.84C53.0403 229.908 53.0539 229.967 53.07 230.003C53.085 230.04 53.1172 230.087 53.1807 230.112ZM53.2563 232.683C52.9538 232.683 52.6447 232.63 52.3408 232.519L52.3355 232.518C51.6456 232.259 51.1014 231.738 50.8004 231.051C50.4993 230.362 50.4845 229.595 50.7559 228.895C54.7943 218.429 62.238 209.673 71.7408 204.2C71.9313 203.044 72.6091 202.017 73.6216 201.407C81.0371 196.938 87.734 191.463 93.5265 185.14L93.7075 184.943C100.716 177.252 105.772 167.673 108.323 157.251C108.612 156.092 109.37 155.136 110.38 154.617L123.052 92.495C123.447 90.5452 125.142 89.1282 127.08 89.1282C127.378 89.1282 127.667 89.1599 127.943 89.2234C128.609 89.373 129.034 90.0464 128.893 90.7334L115.617 155.827C116.353 156.793 116.625 158.054 116.327 159.276C113.432 171.106 107.688 181.986 99.7145 190.74L99.5147 190.953C93.1836 197.868 85.8682 203.847 77.7775 208.721C76.7326 209.349 75.4863 209.44 74.3805 209C65.9335 213.859 59.3176 221.642 55.7314 230.947C55.3195 232.026 54.3244 232.683 53.2563 232.683Z" fill="#1E3862"/>
<path d="M154.146 254.545H183.401V222.306C183.401 217.894 179.907 214.303 175.446 214.128L154.146 213.302V254.545ZM184.645 257.103H152.902C152.214 257.103 151.659 256.529 151.659 255.824V211.975C151.659 211.628 151.795 211.294 152.039 211.053C152.283 210.813 152.608 210.687 152.949 210.696L175.539 211.572C181.343 211.799 185.889 216.512 185.889 222.306V255.824C185.889 256.529 185.333 257.103 184.645 257.103Z" fill="#1E3862"/>
<path d="M179.538 62.2102V230.703H126.266V62.2102C126.319 53.4119 127.695 35.4651 139.007 17.9106C143.526 10.895 148.548 5.63681 152.903 1.81369C157.259 5.63681 162.28 10.895 166.797 17.9106C178.112 35.4651 179.486 53.4119 179.538 62.2102Z" fill="white"/>
<path d="M179.538 62.2102V230.703H126.266V62.2102C126.319 53.4119 127.695 35.4651 139.007 17.9106C143.526 10.895 148.548 5.63681 152.903 1.81369C157.259 5.63681 162.28 10.895 166.797 17.9106C178.112 35.4651 179.486 53.4119 179.538 62.2102Z" fill="white"/>
<path d="M162.846 53.7176V58.7811C162.846 59.1768 162.51 59.4723 162.147 59.4222C162.127 59.4272 162.108 59.4222 162.088 59.4172L159.84 58.9439L158.591 58.6784L157.149 58.3729L155.203 57.9647C154.911 57.8996 154.699 57.6342 154.699 57.3287V51.2534C154.699 50.8102 155.133 50.4946 155.537 50.6424L155.927 50.7801L157.407 51.3135L158.693 51.7693L161.053 52.6182L162.42 53.1065C162.673 53.1942 162.846 53.4396 162.846 53.7176Z" fill="#1E3862"/>
<path d="M169.471 59.2817V63.0303C169.471 63.3301 169.151 63.5134 168.903 63.3499L167.664 62.5323L166.103 61.4967L164.614 60.513C164.508 60.4437 164.44 60.3248 164.44 60.1984V55.3374C164.44 55.0079 164.818 54.8369 165.059 55.0525L165.071 55.0673L166.712 56.5712L169.353 58.9943C169.428 59.0686 169.471 59.1702 169.471 59.2817Z" fill="#1E3862"/>
<path d="M177.455 43.6182C172.404 37.065 163.3 32.6953 152.903 32.6953C142.505 32.6953 133.401 37.065 128.351 43.6182C130.105 35.7729 133.282 26.7925 139.007 17.9101C143.526 10.8945 148.548 5.63633 152.903 1.8132C157.259 5.63633 162.28 10.8945 166.797 17.9101C172.524 26.7925 175.703 35.7729 177.455 43.6182Z" fill="#006AF2"/>
<path d="M172.29 66.2531L170.677 64.5952C170.623 64.5366 170.592 64.4634 170.592 64.3828V61.1061C170.592 60.8131 170.958 60.6935 171.124 60.9327L172.736 63.3011C172.769 63.35 172.788 63.411 172.788 63.472V66.0407C172.788 66.3068 172.473 66.4411 172.29 66.2531Z" fill="#1E3862"/>
<path d="M127.51 212.035V201.702C131.422 197.299 136.499 196.71 140.556 196.71H164.24C168.15 201.581 172.788 206.018 178.296 209.579V212.035C177.421 211.769 176.498 211.609 175.542 211.572L160.409 210.984C160.059 208.723 159.405 206.519 158.459 204.466C157.297 201.932 155.72 199.642 153.778 197.659C153.537 197.411 153.22 197.289 152.903 197.289C152.586 197.289 152.269 197.411 152.028 197.659C150.083 199.643 148.509 201.932 147.347 204.466C146.401 206.522 145.747 208.728 145.395 210.984L130.266 211.572C129.308 211.609 128.385 211.769 127.51 212.035ZM127.51 199.545V62.219C127.545 56.5038 128.15 49.3467 130.119 41.5821C133.713 37.8849 138.705 35.0898 144.469 33.6897C144.086 37.6424 143.972 41.0554 143.957 43.7149V52.9004L143.384 53.1038C143.13 53.1977 142.96 53.4428 142.96 53.7191V58.7826C142.96 59.1476 143.252 59.4318 143.592 59.4318C143.63 59.4318 143.67 59.4292 143.711 59.4214H143.708C143.716 59.424 143.721 59.424 143.726 59.424C143.739 59.424 143.754 59.4214 143.767 59.4187L143.957 59.377V133.649C143.957 148.096 146.64 162.439 152.135 175.734C154.833 182.26 158.385 189.021 163.046 195.174H140.556C136.854 195.174 131.704 195.675 127.51 199.545ZM140.993 54.9576C140.906 54.9576 140.82 54.9863 140.747 55.0541L136.456 58.9938C136.378 59.0668 136.332 59.1685 136.332 59.278V63.0299C136.332 63.2541 136.509 63.4132 136.702 63.4132C136.771 63.4132 136.839 63.3923 136.903 63.3506L138.193 62.4954L138.188 62.5319L139.75 61.4968L139.758 61.4629L141.193 60.5138C141.299 60.4434 141.363 60.3235 141.363 60.1931V55.3383C141.363 55.1115 141.183 54.9576 140.993 54.9576Z" fill="#B2AEC1"/>
<path d="M130.118 41.582C131.981 34.2336 135.066 26.3392 140.044 18.6147C143.325 13.5226 147.234 8.82605 151.685 4.62814C147.167 15.3472 145.254 25.6372 144.47 33.6904C138.704 35.0888 133.713 37.8855 130.118 41.582Z" fill="#1E3862"/>
<path d="M127.51 229.424H178.296V62.2118C178.228 51.0929 176 34.5003 165.76 18.6162C162.184 13.0609 157.861 7.98363 152.903 3.50516C147.943 7.98363 143.62 13.0609 140.044 18.6162C129.805 34.5031 127.577 51.0957 127.51 62.2202V229.424ZM179.538 231.982H126.266C125.579 231.982 125.023 231.409 125.023 230.702V62.2118C125.092 50.733 127.394 33.6147 137.971 17.2021C141.868 11.152 146.62 5.64742 152.096 0.839996C152.56 0.432358 153.245 0.432358 153.711 0.839996C159.185 5.64742 163.939 11.152 167.836 17.2021C178.414 33.6147 180.716 50.733 180.782 62.2033V62.2118V230.702C180.782 231.409 180.227 231.982 179.538 231.982Z" fill="#1E3862"/>
<path d="M122.402 254.543H151.66V213.302L130.358 214.128C125.897 214.302 122.402 217.894 122.402 222.306V254.543ZM152.902 257.102H121.157C120.473 257.102 119.915 256.528 119.915 255.822V222.306C119.915 216.512 124.461 211.798 130.266 211.573L152.855 210.695C153.191 210.685 153.522 210.81 153.766 211.053C154.009 211.295 154.146 211.626 154.146 211.973V255.822C154.146 256.528 153.59 257.102 152.902 257.102Z" fill="#1E3862"/>
<path d="M184.646 222.305V255.822H152.903V211.974L159.414 212.226L165.953 212.482L175.493 212.85C180.606 213.049 184.646 217.221 184.646 222.305Z" fill="white"/>
<path d="M121.159 255.822H152.903V211.973L130.312 212.85C125.2 213.048 121.159 217.223 121.159 222.305V255.822Z" fill="white"/>
<path d="M152.903 211.973V255.822H121.159V222.305C121.159 217.221 125.198 213.047 130.31 212.85L152.903 211.973Z" fill="white"/>
<path d="M145.108 254.544H122.401V222.306C122.401 218.83 124.571 215.863 127.674 214.676V224.582C127.674 232.883 131.383 240.811 137.91 245.698C139.967 247.239 142.363 248.544 145.108 249.343V254.544Z" fill="#B2AEC1"/>
<path d="M183.402 254.545H160.695V215.625C160.716 214.933 160.71 214.244 160.673 213.556L165.955 213.761L165.978 224.583C165.978 232.884 169.686 240.81 176.213 245.7C178.27 247.238 180.661 248.539 183.402 249.342V254.545Z" fill="#B2AEC1"/>
<path d="M154.146 254.545H183.401V222.306C183.401 217.894 179.907 214.303 175.446 214.128L154.146 213.302V254.545ZM184.645 257.103H152.902C152.214 257.103 151.659 256.529 151.659 255.824V211.975C151.659 211.628 151.795 211.294 152.039 211.053C152.283 210.813 152.608 210.687 152.949 210.696L175.539 211.572C181.343 211.799 185.889 216.512 185.889 222.306V255.824C185.889 256.529 185.333 257.103 184.645 257.103Z" fill="#1E3862"/>
<path d="M122.402 254.543H151.66V213.302L130.358 214.128C125.897 214.302 122.402 217.894 122.402 222.306V254.543ZM152.902 257.102H121.157C120.473 257.102 119.915 256.528 119.915 255.822V222.306C119.915 216.512 124.461 211.798 130.266 211.573L152.855 210.695C153.191 210.685 153.522 210.81 153.766 211.053C154.009 211.295 154.146 211.626 154.146 211.973V255.822C154.146 256.528 153.59 257.102 152.902 257.102Z" fill="#1E3862"/>
<path d="M143.719 59.4191L150.601 57.9642C150.896 57.9016 151.105 57.6361 151.105 57.3281V51.2554C151.105 50.8097 150.677 50.4966 150.265 50.6419L143.385 53.106C143.129 53.1962 142.961 53.4416 142.961 53.7196V58.7831C142.961 59.1938 143.326 59.5018 143.719 59.4191Z" fill="#1E3862"/>
<path d="M136.901 63.3529L141.193 60.5136C141.299 60.4442 141.364 60.3253 141.364 60.194V55.338C141.364 55.0109 140.985 54.8375 140.747 55.0555L136.455 58.9949C136.376 59.0667 136.333 59.1708 136.333 59.2798V63.0308C136.333 63.3331 136.655 63.514 136.901 63.3529Z" fill="#1E3862"/>
<path d="M133.515 66.2531L135.129 64.5952C135.184 64.5366 135.215 64.4634 135.215 64.3828V61.1061C135.215 60.8131 134.847 60.6935 134.683 60.9327L133.071 63.3011C133.037 63.35 133.018 63.411 133.018 63.472V66.0407C133.018 66.3068 133.332 66.4411 133.515 66.2531Z" fill="#1E3862"/>
<path d="M179.539 82.0615C179.319 82.0615 179.101 81.9625 178.954 81.7716C174.97 76.6422 169.536 75.9845 165.249 75.9845H140.554C136.267 75.9845 130.834 76.6422 126.849 81.7716C126.593 82.1039 126.123 82.1558 125.799 81.8918C125.479 81.6278 125.426 81.1469 125.683 80.8145C130.114 75.11 136.295 74.4499 140.554 74.4499H165.249C169.509 74.4499 175.69 75.11 180.121 80.8145C180.378 81.1469 180.325 81.6278 180.002 81.8918C179.867 82.0049 179.702 82.0615 179.539 82.0615Z" fill="#1E3862"/>
<path d="M179.54 122.301C179.319 122.301 179.103 122.204 178.955 122.014C174.97 116.883 169.537 116.225 165.251 116.225H140.556C136.269 116.225 130.836 116.883 126.85 122.014C126.594 122.345 126.124 122.398 125.801 122.134C125.479 121.87 125.428 121.387 125.684 121.056C130.116 115.349 136.295 114.691 140.556 114.691H165.251C169.512 114.691 175.69 115.349 180.121 121.056C180.38 121.387 180.327 121.87 180.004 122.134C179.867 122.248 179.703 122.301 179.54 122.301Z" fill="#1E3862"/>
<path d="M179.538 162.544C179.318 162.544 179.102 162.446 178.956 162.256C174.969 157.126 169.537 156.468 165.249 156.468H140.556C136.267 156.468 130.835 157.126 126.849 162.256C126.592 162.587 126.124 162.64 125.8 162.376C125.479 162.113 125.426 161.629 125.682 161.298C130.115 155.595 136.293 154.934 140.556 154.934H165.249C169.511 154.934 175.689 155.595 180.12 161.298C180.378 161.629 180.325 162.113 180.003 162.376C179.867 162.489 179.703 162.544 179.538 162.544Z" fill="#1E3862"/>
<path d="M179.538 202.787C179.318 202.787 179.102 202.689 178.956 202.499C174.969 197.369 169.537 196.71 165.249 196.71H140.556C136.267 196.71 130.835 197.369 126.849 202.499C126.592 202.828 126.124 202.885 125.8 202.619C125.479 202.356 125.426 201.872 125.682 201.542C130.115 195.836 136.293 195.177 140.556 195.177H165.249C169.511 195.177 175.689 195.836 180.12 201.542C180.378 201.872 180.325 202.356 180.003 202.619C179.867 202.732 179.703 202.787 179.538 202.787Z" fill="#1E3862"/>
<path d="M128.35 44.8965C128.08 44.8965 127.807 44.8048 127.579 44.6186C127.04 44.1809 126.95 43.3762 127.377 42.8231C132.881 35.6801 142.425 31.4153 152.903 31.4153C163.383 31.4153 172.925 35.6801 178.429 42.8231C178.857 43.3762 178.765 44.1809 178.227 44.6186C177.689 45.059 176.907 44.9646 176.481 44.4115C171.444 37.8741 162.628 33.9736 152.903 33.9736C143.177 33.9736 134.364 37.8741 129.326 44.4115C129.081 44.7313 128.717 44.8965 128.35 44.8965Z" fill="#1E3862"/>
<path d="M159.453 215.604V262.616H146.353V215.604C146.286 213.431 146.453 209.405 148.471 205.011C149.846 202.015 151.6 199.896 152.903 198.567C154.206 199.896 155.96 202.015 157.334 205.011C159.352 209.405 159.521 213.431 159.453 215.604Z" fill="#006AF2"/>
<path d="M159.453 215.604V262.616H146.353V215.604C146.286 213.432 146.453 209.407 148.471 205.011C149.846 202.015 151.6 199.896 152.903 198.567C154.206 199.896 155.96 202.015 157.334 205.011C159.352 209.407 159.521 213.432 159.453 215.604Z" fill="#006AF2"/>
<path d="M159.453 215.604V262.616H146.353V215.604C146.286 213.432 146.453 209.407 148.471 205.011C149.846 202.015 151.6 199.896 152.903 198.567C154.206 199.896 155.96 202.015 157.334 205.011C159.352 209.407 159.521 213.432 159.453 215.604Z" fill="#006AF2"/>
<path d="M158.21 255.56C157.722 255.113 157.254 254.62 156.81 254.095V214.594C156.876 212.376 156.708 208.263 154.69 203.773C154.127 202.523 153.501 201.421 152.871 200.462C152.881 200.448 152.893 200.436 152.904 200.424C154.242 201.965 155.353 203.686 156.211 205.557C157.625 208.639 158.317 212.099 158.21 215.563C158.21 215.577 158.21 215.591 158.21 215.603V255.56Z" fill="#B7BCB0"/>
<path d="M156.807 261.337H147.61L147.596 261.245L147.594 215.564C147.52 213.149 147.807 209.454 149.594 205.557C150.434 203.73 151.514 202.041 152.816 200.525C152.669 200.829 152.525 201.141 152.384 201.465C150.367 206.131 150.2 210.407 150.267 212.714V235.042C150.267 241.028 151.898 246.931 155.165 251.887C155.674 252.662 156.222 253.407 156.807 254.096V261.337Z" fill="#1E3862"/>
<path d="M158.194 261.336H156.807V254.096C157.253 254.621 157.721 255.114 158.209 255.56V261.244L158.194 261.336Z" fill="#81849C"/>
<path d="M147.597 261.337H158.21V215.604C158.21 215.592 158.21 215.578 158.21 215.564C158.316 212.1 157.625 208.639 156.21 205.557C155.353 203.687 154.241 201.966 152.903 200.425C151.563 201.966 150.454 203.689 149.596 205.557C147.808 209.454 147.522 213.15 147.595 215.564L147.597 261.337ZM159.452 263.895H146.353C145.665 263.895 145.108 263.323 145.108 262.617V215.604C144.99 211.78 145.763 207.914 147.346 204.466C148.509 201.933 150.083 199.644 152.027 197.66C152.511 197.165 153.293 197.165 153.779 197.66C155.721 199.642 157.297 201.933 158.46 204.466C160.039 207.907 160.813 211.765 160.696 215.625V262.617C160.696 263.323 160.14 263.895 159.452 263.895Z" fill="#1E3862"/>
<path d="M145.702 263.704H123.726L124.724 257.1H145.11V262.616C145.11 263.075 145.347 263.479 145.702 263.704Z" fill="#1E3862"/>
<path d="M123.725 263.705H122.467L123.462 257.101H124.723L123.725 263.705Z" fill="#1E3862"/>
<path d="M145.108 257.101H124.723H123.46L123.654 255.822H145.108V257.101Z" fill="#1E3862"/>
<path d="M147.61 261.337H147.597V261.244L147.61 261.337Z" fill="#1E3862"/>
<path d="M147.966 263.705H145.701C145.345 263.48 145.109 263.076 145.109 262.616V257.101V255.822H146.778L147.596 261.245V261.337H147.611L147.966 263.705Z" fill="#1E3862"/>
<path d="M182.082 263.704H160.106C160.461 263.481 160.697 263.075 160.697 262.617V257.1H181.082L182.082 263.704Z" fill="#1E3862"/>
<path d="M183.338 263.705H182.081L181.082 257.1H182.344L183.338 263.705Z" fill="#1E3862"/>
<path d="M182.344 257.1H181.083H160.697V255.822H182.15L182.344 257.1Z" fill="#1E3862"/>
<path d="M158.21 261.336H158.194L158.21 261.242V261.336Z" fill="#5B5D8E"/>
<path d="M160.104 263.705H157.838L158.194 261.336H158.209V261.243L159.025 255.823H160.696V257.102V262.617C160.696 263.077 160.46 263.48 160.104 263.705Z" fill="#1E3862"/>
<path d="M158.591 58.6797L157.148 58.3744L155.926 50.7819L157.408 51.3125L158.591 58.6797Z" fill="#006AF2"/>
<path d="M162.13 59.4248C162.115 59.4248 162.103 59.4198 162.089 59.4173L159.841 58.9455L158.692 51.7709L161.055 52.6197L162.145 59.4223C162.14 59.4223 162.135 59.4248 162.13 59.4248Z" fill="#006AF2"/>
<path d="M167.665 62.5332L166.102 61.4957L165.071 55.0676L166.711 56.5706L167.665 62.5332Z" fill="#006AF2"/>
<path d="M147.264 58.6797L147.266 58.6699L148.709 58.3653L148.706 58.3752L147.264 58.6797Z" fill="white"/>
<path d="M147.267 58.6689L148.447 51.3117L149.929 50.7812L148.707 58.3636L147.267 58.6689Z" fill="#006AF2"/>
<path d="M143.958 59.377V59.3696L146.017 58.9331L146.014 58.9454L143.958 59.377Z" fill="white"/>
<path d="M143.727 59.4258C143.72 59.4258 143.715 59.4233 143.708 59.4233H143.71C143.712 59.4209 143.717 59.4209 143.72 59.4184L143.956 59.3693V59.3767L143.767 59.4184C143.753 59.4209 143.739 59.4258 143.727 59.4258Z" fill="#C1BECD"/>
<path d="M143.71 59.4219L144.802 52.6192L147.165 51.7704L146.016 58.9326L143.958 59.3695L143.72 59.4194C143.717 59.4194 143.712 59.4194 143.71 59.4219Z" fill="#006AF2"/>
<path d="M138.188 62.5332L138.195 62.4966L139.757 61.4634L139.75 61.4975L138.188 62.5332Z" fill="#C1BECD"/>
<path d="M138.193 62.4961L139.142 56.5706L140.78 55.0676L139.756 61.4635L138.193 62.4961Z" fill="#006AF2"/>
</svg>
