<?xml version="1.0" encoding="UTF-8"?>
<!DOCTYPE svg PUBLIC "-//W3C//DTD SVG 1.0//EN" "http://www.w3.org/TR/2001/REC-SVG-20010904/DTD/svg10.dtd">
<!-- Creator: CorelDRAW X7 -->
<svg xmlns="http://www.w3.org/2000/svg" xml:space="preserve" width="1446px" height="297px" version="1.0" style="shape-rendering:geometricPrecision; text-rendering:geometricPrecision; image-rendering:optimizeQuality; fill-rule:evenodd; clip-rule:evenodd"
viewBox="0 0 44200100 9061680"
 xmlns:xlink="http://www.w3.org/1999/xlink">
 <defs>
  <style type="text/css">
   <![CDATA[
    .fil0 {fill:#182263}
    .fil1 {fill:#182263;fill-rule:nonzero}
   ]]>
  </style>
 </defs>
 <g id="Слой_x0020_1">
  <metadata id="CorelCorpID_0Corel-Layer"/>
  <path class="fil0" d="M9061680 9061680l-9061680 0 0 -9061680 9061680 0 0 9061680zm-4732546 -6990765l-534297 534297c453008,329126 1097796,351073 1527666,55697l-516465 -516466 0 -36c79701,-79700 117566,-185354 113703,-289781l1560911 1560948 30249 -30249 103885 103921 -30249 30249 109336 109263 69160 300141 -44903 44867 125398 125399 35230 76596 -76596 -35230 -125399 -125362 -45553 -45590 -139079 -139079 -109300 -109299 -103921 -103885 -15269 -15305 -752138 -752102c-552092,397059 -1322386,394929 -1898663,-62663l-1353322 1353285 -76596 35230 35230 -76596 125398 -125399 -44903 -44867 69160 -300141 1036829 -1036793c-63637,-70099 -123629,-147092 -179182,-231125 -44290,-59631 -34435,-141858 25737,-186545 58404,-43424 140992,-31187 184452,27325 42919,76957 92804,147309 148320,211019l745171 -745172c111393,-111393 292019,-111393 403412,0 111429,111429 111429,292019 36,403448 -111429,111429 -292019,111429 -403448,0zm-593098 593098l-49668 49705c320896,266607 721564,392763 1211535,293426 193873,-39309 377423,-118035 539098,-231738l-39814 -39850c-311150,221450 -717630,281045 -1087762,205171 -246501,-50535 -418030,-142400 -573389,-276714zm-253576 -149872l52556 -52556c-29202,-32920 -58692,-67355 -89013,-103380 -37613,-37504 -72373,20972 -56527,42341 30032,39309 61039,77174 92984,113595zm2500641 4519290l0 216 -164563 -109552 164563 109336zm-764230 -1136564l224591 -81686 0 859669 117529 78076 0 -971098 -72 -9385 257619 -93669 0 1245321 164563 109336 0 -1369818c0,-14872 -289,-29707 -722,-44470l429943 -156369 72 13716 0 1842173 239355 159040 0 -2001213c0,-541516 -202970,-1035710 -537005,-1410498l65371 -58187c-65696,-73745 -137491,-143952 -214665,-209972 -76380,-65298 -156838,-125362 -240690,-179362l-47214 73528c-330642,-212932 -724271,-336454 -1146742,-336454 -422471,0 -816101,123558 -1146743,336454l-47213 -73528c-83888,54000 -164347,114064 -240690,179362 -77210,66020 -149006,136227 -214701,209972l65406 58223c-333962,374824 -537004,868946 -537004,1410462l0 1973925 0 13680 239355 -156802 0 -1830803 108 -13716 429906 156369c-433,14763 -685,29598 -685,44470l0 1362526 85042 -55696 79521 -52051 0 -1239655 257583 93670 -37 9421 0 967850 117494 -76957 0 -857576 224591 81722 0 628761 79809 0 0 -648144c0,-155395 58151,-297109 153950,-404604l20359 18157c17867,-20070 36746,-38587 56418,-55444 19817,-16929 40969,-32667 63277,-47070l-14728 -22885c94789,-61038 207735,-96449 328982,-96449 121175,0 234120,35447 328909,96486l-14655 22848c22308,14403 43460,30141 63277,47070 19672,16857 38551,35374 56418,55444l20322 -18120c95764,107458 154023,249244 154023,404567l0 648144 79773 0 0 -628761zm-2565470 -546533c28516,-430845 202103,-822093 472211,-1125193l65407 58151c55083,-61797 113342,-119082 174164,-171097 61147,-52303 126409,-100961 195317,-145251l-47142 -73492c279205,-179795 609125,-287796 963518,-297794l8591 616380c-272058,8338 -525309,91576 -739865,229752 -10685,-16712 -21441,-33425 -32162,-50101 -57393,36962 -112440,78076 -164780,122799 -52808,45229 -101935,93273 -146947,143736 14871,13247 29707,26422 44542,39670 -199504,223869 -330786,510004 -361035,825521l-431819 -173081zm1932486 -1754640c353996,10215 683483,118107 962362,297758l-47177 73492c68871,44290 134169,92948 195353,145251 60786,52015 119081,109300 174164,171097l65407 -58187c270180,303172 443695,694384 472211,1125229l-431820 173081c-30248,-315517 -161458,-601688 -360998,-825594 14799,-13175 29635,-26422 44470,-39597 -44940,-50463 -94103,-98507 -146912,-143736 -52303,-44723 -107386,-85837 -164815,-122799 -10721,16676 -21405,33389 -32090,50065 -214231,-137923 -467122,-221089 -738746,-229644l8591 -616416zm-1340616 1991900c17435,-298949 136805,-570501 323856,-780401 14763,13211 29671,26459 44507,39634 37684,-42305 77607,-81542 119226,-117097 41835,-35879 86522,-69124 133736,-99481 -10756,-16676 -21477,-33353 -32161,-50029 189505,-122042 413085,-195678 653342,-203583l5234 375690c-190769,6858 -368435,65731 -519136,162794 -7545,-11731 -15089,-23463 -22561,-35158 -40752,26206 -79808,55300 -116915,87028 -37432,32018 -72301,66093 -104174,101936 10395,9277 20863,18590 31295,27866 -143482,160990 -237188,367352 -256933,594723l-259316 -103922zm1329751 -1210957c239787,8121 462971,81758 652115,203583 -10721,16640 -21441,33353 -32126,50029 47178,30357 91901,63602 133701,99481 41691,35555 81578,74792 119298,117097 14800,-13175 29635,-26423 44507,-39634 187051,209900 306385,481452 323819,780401l-259279 103922c-19745,-227479 -113451,-433841 -256861,-594795 10396,-9313 20791,-18553 31187,-27794 -31873,-35843 -66742,-69918 -104174,-101936 -37107,-31728 -76163,-60822 -116879,-87028 -7508,11659 -15017,23391 -22561,35122 -150377,-96883 -327645,-155647 -518017,-162722l5270 -375726zm-955793 1360865c10287,-215639 95438,-411678 229969,-562668 10432,9276 20828,18517 31259,27794 26748,-29996 55047,-57790 84574,-83022 29707,-25375 61364,-49018 94789,-70568 -7544,-11695 -15088,-23390 -22560,-35122 132762,-85476 289275,-137526 457412,-144096l4439 320282c-124929,5667 -241267,44724 -340243,108506l-14763 -22921c-27181,17470 -53206,36926 -77968,58115 -24979,21369 -48225,44073 -69522,68005l20431 18192c-98110,110022 -161387,251772 -172540,407816l-225277 -90313zm948862 -867610c167740,6750 323748,58765 456221,144060 -7508,11732 -15016,23391 -22524,35086 33425,21550 65118,45193 94789,70568 29527,25232 57826,53026 84537,83022 10432,-9241 20828,-18482 31296,-27794 134531,150990 219682,347029 230005,562668l-225277 90313c-11153,-156152 -74358,-297939 -172468,-407960l20323 -18048c-21261,-23932 -44507,-46636 -69522,-68005 -24726,-21189 -50823,-40645 -77968,-58115l-14691 22848c-98687,-63529 -214592,-102513 -339160,-108361l4439 -320282z"/>
  <path class="fil1" d="M14249292 5836009c-377676,0 -689620,-125507 -935832,-376484 -246213,-251014 -369337,-560575 -369337,-928685 0,-370528 123124,-680667 369337,-930490 246212,-249786 558156,-374679 935832,-374679 227081,0 436837,53170 629266,159546 192429,106375 342445,250399 450012,432072l-426694 247404c-62158,-112332 -150594,-200190 -265344,-263539 -114750,-63349 -243830,-95006 -387240,-95006 -243831,0 -440447,76488 -589850,229464 -149402,152976 -224085,351398 -224085,595228 0,241412 74683,438642 224085,591618 149403,152976 346019,229464 589850,229464 143410,0 273104,-31657 389045,-95006 115941,-63348 203764,-149980 263539,-259965l426694 247404c-107567,181673 -256969,325697 -448207,432072 -191238,106376 -401607,159582 -631071,159582z"/>
  <polygon id="1" class="fil1" points="17508640,3275845 17508640,5785799 17013833,5785799 17013833,3749175 16128175,3749175 16128175,5785799 15633367,5785799 15633367,3275845 "/>
  <path id="2" class="fil1" d="M19165207 5836009c-377676,0 -689620,-125507 -935832,-376484 -246213,-251014 -369337,-560575 -369337,-928685 0,-370528 123124,-680667 369337,-930490 246212,-249786 558156,-374679 935832,-374679 227081,0 436837,53170 629266,159546 192429,106375 342445,250399 450012,432072l-426694 247404c-62158,-112332 -150594,-200190 -265344,-263539 -114750,-63349 -243830,-95006 -387240,-95006 -243831,0 -440447,76488 -589850,229464 -149402,152976 -224085,351398 -224085,595228 0,241412 74683,438642 224085,591618 149403,152976 346019,229464 589850,229464 143410,0 273104,-31657 389045,-95006 115941,-63348 203764,-149980 263539,-259965l426694 247404c-107567,181673 -256969,325697 -448207,432072 -191238,106376 -401607,159582 -631071,159582z"/>
  <polygon id="3" class="fil1" points="20506255,4925264 20506255,4480630 21850841,4480630 21850841,4925264 "/>
  <path id="4" class="fil1" d="M23188280 3225671c377676,0 689620,124893 935832,374679 246213,249823 369337,559962 369337,930490 0,368110 -123124,677671 -369337,928685 -246212,250977 -558156,376484 -935832,376484 -227081,0 -436259,-53206 -627497,-159582 -191238,-106375 -340641,-250399 -448208,-432072l426694 -247404c59776,109985 147634,196617 263539,259965 115942,63349 244444,95006 385472,95006 203186,0 374102,-53170 512748,-159546 138646,-106375 229464,-250399 272491,-432072l-1118696 0 0 -462538 1118696 0c-43027,-181672 -133845,-325696 -272491,-432072 -138646,-106376 -309562,-159546 -512748,-159546 -141028,0 -268917,31657 -383667,95006 -114750,63349 -203186,151207 -265344,263539l-426694 -247404c107567,-181673 257583,-325697 450013,-432072 192429,-106376 400993,-159546 625692,-159546z"/>
  <polygon id="5" class="fil1" points="26802600,5785799 26232495,5785799 25336081,4609710 25336081,5785799 24841273,5785799 24841273,3275845 25336081,3275845 25336081,4383820 26196616,3275845 26766756,3275845 25838072,4494960 "/>
  <path id="6" class="fil1" d="M28021715 5836009c-377675,0 -689619,-125507 -935831,-376484 -246213,-251014 -369338,-560575 -369338,-928685 0,-370528 123125,-680667 369338,-930490 246212,-249786 558156,-374679 935831,-374679 227082,0 436837,53170 629267,159546 192429,106375 342445,250399 450012,432072l-426694 247404c-62158,-112332 -150594,-200190 -265344,-263539 -114750,-63349 -243830,-95006 -387241,-95006 -243830,0 -440446,76488 -589849,229464 -149402,152976 -224085,351398 -224085,595228 0,241412 74683,438642 224085,591618 149403,152976 346019,229464 589849,229464 143411,0 273105,-31657 389046,-95006 115941,-63348 203763,-149980 263539,-259965l426694 247404c-107567,181673 -256969,325697 -448207,432072 -191239,106376 -401608,159582 -631072,159582z"/>
  <polygon id="7" class="fil1" points="31281064,3275845 31281064,5785799 30786257,5785799 30786257,3749175 29900599,3749175 29900599,5785799 29405791,5785799 29405791,3275845 "/>
  <polygon id="8" class="fil1" points="32242019,5312505 33299784,5312505 33299784,5785799 31747212,5785799 31747212,3275845 33281844,3275845 33281844,3749175 32242019,3749175 32242019,4283436 33192217,4283436 33192217,4749547 32242019,4749547 "/>
  <path id="9" class="fil1" d="M34583440 3275845c241448,0 444634,81289 609558,243830 164960,162542 247403,362154 247403,598801 0,236647 -82443,436260 -247403,598801 -164924,162542 -368110,243831 -609558,243831l-441024 0 0 824691 -494808 0 0 -2509954 935832 0zm0 1222725c105184,0 192429,-36457 261770,-109372 69305,-72914 103957,-163155 103957,-270722 0,-109949 -34652,-200803 -103957,-272491 -69341,-71723 -156586,-107566 -261770,-107566l-441024 0 0 760151 441024 0z"/>
  <polygon id="10" class="fil1" points="37376642,3275845 37376642,3749175 36698970,3749175 36698970,5785799 36204126,5785799 36204126,3749175 35530029,3749175 35530029,3275845 "/>
  <polygon id="11" class="fil1" points="39104895,5785799 39104895,4254740 38029226,5785799 37652742,5785799 37652742,3275845 38147550,3275845 38147550,4810514 39223255,3275845 39599739,3275845 39599739,5785799 "/>
  <path id="12" class="fil1" d="M41367445 4487813c239030,126698 358581,325083 358581,595192 0,224699 -84863,406371 -254587,545017 -169725,138646 -388469,207987 -656195,207987 -466111,0 -778055,-197230 -935831,-591654l426694 -240221c76488,243831 246212,365728 509137,365728 136264,0 240257,-28697 311981,-86054 71687,-57357 107566,-135072 107566,-233073 0,-98002 -35266,-175681 -105798,-233038 -70496,-57393 -171493,-86053 -302992,-86053l-311944 0 0 -441061 236647 0c124316,0 221126,-26892 290467,-80675 69305,-53783 103957,-127275 103957,-220512 0,-93237 -29887,-166729 -89627,-220512 -59775,-53784 -148211,-80675 -265343,-80675 -215134,0 -365728,105184 -451781,315553l-419511 -243830c169724,-356198 460155,-534261 871292,-534261 248595,0 451780,66923 609557,200804 157777,133845 236647,310752 236647,530651 0,224699 -89627,401607 -268917,530687z"/>
  <path id="13" class="fil1" d="M43662266 5785799l-150630 -451781 -1000372 0 -150594 451781 -534261 0 878475 -2509954 613131 0 882085 2509954 -537834 0zm-993225 -914318l688428 0 -344214 -1025496 -344214 1025496z"/>
 </g>
</svg>
