<svg width="21" height="21" viewBox="0 0 21 21" fill="none" xmlns="http://www.w3.org/2000/svg">
<path d="M7.43566 3.36255C7.75354 3.36255 8.04641 3.53493 8.20071 3.81285L9.27101 5.74083C9.41114 5.99327 9.41775 6.2986 9.2886 6.55685L8.2575 8.6191C8.2575 8.6191 8.55631 10.1553 9.80686 11.4059C11.0574 12.6564 12.5885 12.9501 12.5885 12.9501L14.6504 11.9192C14.9089 11.7899 15.2144 11.7966 15.4669 11.937L17.4004 13.0119C17.678 13.1663 17.8502 13.459 17.8502 13.7767V15.9964C17.8502 17.1267 16.8003 17.9431 15.7292 17.5817C13.5295 16.8395 10.115 15.4263 7.95073 13.262C5.78646 11.0978 4.37325 7.68324 3.63101 5.48354C3.26963 4.41249 4.08604 3.36255 5.21639 3.36255H7.43566Z" stroke="white" stroke-width="1.3125" stroke-linejoin="round"/>
</svg>
