<svg width="48" height="47" viewBox="0 0 48 47" fill="none" xmlns="http://www.w3.org/2000/svg">
<path d="M24.1666 0C11.2088 0 0.666626 10.5422 0.666626 23.5C0.666626 36.4569 11.2088 47 24.1666 47C37.1235 47 47.6666 36.4569 47.6666 23.5C47.6666 10.5422 37.1254 0 24.1666 0ZM30.0109 24.3273H26.1876V37.9544H20.5223C20.5223 37.9544 20.5223 30.5085 20.5223 24.3273H17.8292V19.5111H20.5223V16.3959C20.5223 14.1647 21.5824 10.6785 26.2397 10.6785L30.4378 10.6946V15.3698C30.4378 15.3698 27.8867 15.3698 27.3907 15.3698C26.8947 15.3698 26.1895 15.6178 26.1895 16.6817V19.512H30.5059L30.0109 24.3273Z" fill="white" fill-opacity="0.34"/>
</svg>
