<svg xmlns="http://www.w3.org/2000/svg" width="112" height="38" viewBox="0 0 112 38" fill="none">
    <g clip-path="url(#clip0)">
        <path d="M21.9159 31.457C20.6152 31.4484 19.2973 31.3627 18.0137 31.2169C16.5589 31.0283 15.3095 30.7797 14.1457 30.4624C12.862 30.0938 11.6725 29.6394 10.5857 29.1164C9.43044 28.5162 8.43776 27.8646 7.59057 27.1444L9.82409 25.4039C10.7654 25.9355 11.6383 26.3385 12.494 26.63C13.4268 26.9472 14.4195 27.1959 15.4207 27.3673C16.4904 27.5302 17.5173 27.6331 18.5186 27.6674C18.7496 27.676 19.0149 27.676 19.2716 27.676C20.0675 27.676 20.8633 27.6417 21.6506 27.5817C22.8145 27.4788 23.8499 27.3502 24.7827 27.1873C25.8182 26.9901 26.8707 26.7586 27.8805 26.4928C30.1739 25.8926 32.1251 25.2582 33.8537 24.5551C37.7987 22.9347 41.0848 20.937 43.6093 18.5964L44.5506 17.679C44.6619 17.559 44.7731 17.4389 44.8844 17.3189C45.0641 17.1217 45.2523 16.9331 45.4064 16.7445C45.8685 16.2043 46.2279 15.6127 46.4932 14.9954C47.0323 13.7522 47.1179 12.4662 46.7414 11.3516C46.5531 10.7772 46.2536 10.2627 45.8428 9.80832C45.4149 9.31962 44.8501 8.84806 44.2083 8.4451C42.9333 7.62202 41.2988 7.02186 39.4674 6.68748C38.9797 6.60175 38.5775 6.54173 38.1496 6.50744L36.5921 6.3874L34.8806 6.35311C34.6153 6.35311 34.3586 6.36168 34.0933 6.37026C33.8794 6.37883 33.6654 6.3874 33.4515 6.3874C31.449 6.48171 29.361 6.75607 27.3157 7.19333C25.3903 7.5963 23.4135 8.21361 21.4281 9.01096C19.5369 9.76545 17.7569 10.6657 16.1139 11.7117C12.9476 13.6579 10.3119 16.2472 8.2495 19.4366L5.17734 18.6307C6.4353 15.0126 8.95122 11.6602 12.4427 8.92523C16.1053 6.10447 20.5381 3.96104 25.2705 2.7007C27.7778 2.0148 30.3622 1.56039 32.9209 1.3632C33.1776 1.34605 33.383 1.33748 33.5884 1.32033C34.0334 1.28603 34.4784 1.26031 34.9319 1.25174L36.9259 1.24316L38.8855 1.34605C39.5188 1.38034 40.2034 1.45751 41.0506 1.57754C44.0029 2.04052 46.7243 3.00078 48.9492 4.35543C50.1387 5.0842 51.1656 5.933 52.0043 6.86753C52.8771 7.83636 53.5189 8.91665 53.904 10.0655C54.6058 12.2004 54.4517 14.4724 53.459 16.6502C52.9798 17.6876 52.3294 18.6736 51.5336 19.5824C51.2769 19.8653 51.0287 20.1311 50.772 20.3883C50.6522 20.5083 50.5324 20.6284 50.4126 20.757C50.113 21.0485 49.8392 21.2971 49.5654 21.5458L49.1803 21.8887C45.8514 24.7695 41.5812 27.1358 36.806 28.7648C34.3671 29.5965 31.9454 30.231 29.6091 30.6596C28.3683 30.8911 27.1446 31.0712 25.8695 31.2169C24.5174 31.3541 23.2081 31.4227 21.9501 31.4313H21.933H21.9159V31.457Z" fill="white"/>
        <path d="M8.82292 26.3645C9.76425 26.8961 10.7484 27.3676 11.7924 27.7277C12.845 28.0878 13.9318 28.3622 15.0443 28.5508C16.1653 28.7223 17.2949 28.8423 18.4331 28.8852C19.5712 28.9109 20.7094 28.8852 21.8304 28.7994C22.96 28.7051 24.0725 28.5679 25.1764 28.3793C26.2632 28.1736 27.3672 27.9335 28.4454 27.6506C30.5934 27.0933 32.69 26.4331 34.6667 25.6272C38.6118 24.0067 42.1461 21.9147 44.9016 19.3683L45.8943 18.3909C46.1938 18.0566 46.5361 17.7136 46.8099 17.3964C47.3405 16.7705 47.7598 16.0846 48.0679 15.3815C48.684 13.9669 48.8124 12.4493 48.3417 11.0861C48.1107 10.4002 47.7427 9.75718 47.2293 9.17417C46.7158 8.58258 46.0397 8.02529 45.2867 7.55373C43.7806 6.5849 41.8808 5.90758 39.8783 5.54748C39.3734 5.46174 38.8771 5.38458 38.3379 5.34171L36.712 5.2131L35.069 5.17881C34.5213 5.17024 33.9736 5.20453 33.4173 5.2131C31.2181 5.31599 29.0102 5.6075 26.8623 6.07048C24.7057 6.52489 22.6263 7.18506 20.6409 7.98242C18.6556 8.7712 16.7729 9.73146 15.0443 10.8203C11.5357 12.9723 8.79725 15.8102 6.7691 18.9396C7.93293 15.5787 10.3034 12.3722 13.6408 9.76576C16.9954 7.18506 21.1629 5.09307 25.8353 3.84988C28.163 3.21543 30.6019 2.76959 33.1007 2.58097C33.7254 2.54667 34.3501 2.48666 34.9834 2.46951L36.8746 2.46094L38.7744 2.55525C39.4162 2.58954 40.0837 2.67528 40.7255 2.76959C43.3184 3.17256 45.8087 4.02136 47.8967 5.29884C48.9408 5.94187 49.865 6.68779 50.6266 7.54516C51.4053 8.41111 51.9701 9.37994 52.3039 10.3659C52.9543 12.3636 52.7403 14.4213 51.8931 16.2904C51.4652 17.2249 50.8748 18.1166 50.1388 18.9482C49.7794 19.3512 49.4114 19.7027 49.052 20.0885C48.6755 20.4572 48.2733 20.8087 47.8796 21.1602C44.6449 23.9639 40.5544 26.1759 36.0959 27.6934C33.8623 28.4565 31.5604 29.0824 29.1899 29.5111C28.009 29.734 26.8195 29.9054 25.5957 30.0512C24.372 30.1798 23.1483 30.2484 21.916 30.2484C20.6837 30.2398 19.46 30.1627 18.2448 30.0255C17.0382 29.8712 15.8401 29.6482 14.702 29.331C13.5638 29.0052 12.477 28.5937 11.4672 28.105C10.5002 27.6077 9.60166 27.0247 8.82292 26.3645Z" fill="#0052FF"/>
        <path d="M29.1558 25.2587C28.8648 25.2502 28.4541 25.233 28.1545 25.1473L28.0176 25.1044L27.8893 25.0358C27.5726 24.8644 27.333 24.5986 27.1704 24.2385L27.102 24.0927L27.0763 23.9298C27.0421 23.724 27.0249 23.2696 27.0164 22.9181V22.8752L27.0677 18.2969L30.3025 18.3054C31.3208 18.314 32.0996 18.4255 32.6815 18.6484L32.7072 18.657C33.349 18.9142 33.8624 19.3086 34.2219 19.8316L34.2304 19.8487C34.5898 20.3803 34.761 21.0147 34.7524 21.7264C34.7439 22.5237 34.5043 23.2439 34.0421 23.8527L34.025 23.8784L34.0079 23.8955C33.5201 24.4871 32.9297 24.8729 32.2536 25.0444C31.7402 25.1902 31.1069 25.2587 30.311 25.2587H30.3025H29.1558Z" fill="white"/>
        <path d="M33.4858 21.7174C33.4772 22.2576 33.3317 22.712 33.0322 23.0978C32.7156 23.4751 32.3562 23.7237 31.9197 23.8352C31.509 23.9552 30.9613 24.0066 30.3024 24.0066L29.1813 23.9981C28.8133 23.9895 28.5908 23.9552 28.4967 23.9295C28.4111 23.8866 28.3598 23.818 28.3084 23.7151C28.2999 23.6465 28.2742 23.355 28.2657 22.8921L28.2999 19.5654L30.2852 19.574C31.1581 19.5826 31.7999 19.6683 32.2192 19.8312C32.6471 20.0027 32.9466 20.2428 33.1606 20.5514C33.3916 20.8858 33.4943 21.263 33.4858 21.7174Z" fill="black"/>
        <path d="M27.0421 18.5623L27.102 12.2949L30.0629 12.3035C31.2267 12.3206 31.9712 12.4064 32.4761 12.5779C33.118 12.8008 33.6229 13.1609 33.9652 13.6581C34.316 14.1468 34.4957 14.7384 34.4957 15.4243V15.4415C34.4872 16.0759 34.2989 16.659 33.948 17.1734L33.9224 17.2077L33.8967 17.242C33.5202 17.7221 32.9982 18.0736 32.3563 18.2965L32.3221 18.3051C31.7744 18.4766 31.0385 18.5623 30.0886 18.5623H27.0421Z" fill="white"/>
        <path d="M33.2462 15.4242C33.2377 15.8186 33.1264 16.1616 32.921 16.4617C32.6985 16.7446 32.3819 16.9675 31.954 17.1133C31.5261 17.2505 30.8843 17.319 30.0114 17.3105L28.317 17.3019L28.3513 13.5552L30.0457 13.5637C31.0298 13.5809 31.7144 13.6495 32.0824 13.7695C32.4675 13.9067 32.7584 14.1039 32.9553 14.3868C33.1606 14.6783 33.2462 15.0213 33.2462 15.4242Z" fill="black"/>
        <path d="M29.1558 25.2587C28.8648 25.2502 28.4541 25.233 28.1545 25.1473L28.0176 25.1044L27.8893 25.0358C27.5726 24.8644 27.333 24.5986 27.1704 24.2385L27.102 24.0927L27.0763 23.9298C27.0421 23.724 27.0249 23.2696 27.0164 22.9181V22.8752L27.0677 18.2969L30.3025 18.3054C31.3208 18.314 32.0996 18.4255 32.6815 18.6484L32.7072 18.657C33.349 18.9142 33.8624 19.3086 34.2219 19.8316L34.2304 19.8487C34.5898 20.3803 34.761 21.0147 34.7524 21.7264C34.7439 22.5237 34.5043 23.2439 34.0421 23.8527L34.025 23.8784L34.0079 23.8955C33.5201 24.4871 32.9297 24.8729 32.2536 25.0444C31.7402 25.1902 31.1069 25.2587 30.311 25.2587H30.3025H29.1558Z" fill="white"/>
        <path d="M33.1777 20.56C33.4002 20.8858 33.4943 21.263 33.4858 21.7174C33.4772 22.2576 33.3317 22.712 33.0322 23.0978C32.7156 23.4751 32.3562 23.7237 31.9197 23.8352C31.509 23.9552 30.9613 24.0066 30.3024 24.0066L29.1813 23.9981C28.8133 23.9895 28.5908 23.9552 28.4967 23.9295C28.4111 23.8866 28.3598 23.818 28.3084 23.7151C28.2999 23.6465 28.2742 23.355 28.2657 22.8921L28.2999 19.5654L30.2852 19.574C31.1581 19.5826 31.7999 19.6683 32.2193 19.8312C32.6557 20.0113 32.9638 20.2428 33.1777 20.56Z" fill="black"/>
        <path d="M27.0421 18.5623L27.102 12.2949L30.0629 12.3035C31.2267 12.3206 31.9712 12.4064 32.4761 12.5779C33.118 12.8008 33.6229 13.1609 33.9652 13.6581C34.316 14.1468 34.4957 14.7384 34.4957 15.4243V15.4415C34.4872 16.0759 34.2989 16.659 33.948 17.1734L33.9224 17.2077L33.8967 17.242C33.5202 17.7221 32.9982 18.0736 32.3563 18.2965L32.3221 18.3051C31.7744 18.4766 31.0385 18.5623 30.0886 18.5623H27.0421Z" fill="white"/>
        <path d="M32.9467 14.3954C33.1606 14.6783 33.2462 15.0299 33.2462 15.4242C33.2377 15.8186 33.1264 16.1616 32.921 16.4617C32.6985 16.7446 32.3819 16.9675 31.954 17.1133C31.5261 17.2505 30.8843 17.319 30.0114 17.3105L28.317 17.3019L28.3513 13.5552L30.0457 13.5637C31.0298 13.5809 31.7144 13.6495 32.0824 13.7695C32.4675 13.9067 32.7499 14.1039 32.9467 14.3954Z" fill="black"/>
        <path d="M30.0799 37.5532C20.9918 37.5532 13.2472 31.0457 11.6555 22.069C9.84986 11.8748 16.6531 2.10935 26.8281 0.300296C27.9149 0.1031 29.0274 0.00878906 30.1227 0.00878906C39.2023 0.00878906 46.9554 6.52482 48.5472 15.5101C50.3528 25.6957 43.5495 35.4526 33.3832 37.2616C32.2878 37.4503 31.1839 37.5532 30.0799 37.5532Z" fill="white"/>
        <path d="M18.4245 29.9823C21.1287 29.6736 23.85 29.485 26.5542 29.1506C26.9649 29.0992 27.3842 29.0392 27.8121 28.9706L26.5798 28.962L26.5969 26.4327L22.6433 26.3899L22.6605 24.2722L23.2595 24.2636C23.6703 24.2807 23.9441 24.2464 24.0896 24.1779C24.2351 24.1093 24.3377 24.0064 24.3805 23.8778C24.449 23.7577 24.4832 23.4662 24.4832 23.029L24.5688 14.4552C24.5774 14.0008 24.5346 13.7179 24.4832 13.5807C24.4319 13.4607 24.3292 13.3578 24.1837 13.2806C24.0382 13.2035 23.7644 13.1606 23.3622 13.1692L22.7632 13.152L22.7803 11.0343L26.7424 11.0772L26.7767 8.54795L29.3696 8.56509L29.3354 11.0943L31.0126 11.1029L31.0298 8.57367L33.6313 8.60796L33.597 11.3173C33.9907 11.3944 34.3415 11.4802 34.6239 11.6173C35.377 11.9346 35.9675 12.3804 36.3782 12.972C36.7719 13.5636 36.9773 14.2066 36.9687 14.9011C36.9601 15.4155 36.8489 15.8871 36.6264 16.35C36.4039 16.7959 36.0958 17.1988 35.6765 17.5589C35.2658 17.8933 34.7181 18.1848 34.0591 18.4077C34.7694 18.6049 35.3257 18.7936 35.7022 19.0336C36.2413 19.3423 36.6777 19.7795 36.9944 20.3368C37.311 20.8941 37.465 21.5114 37.4565 22.1973C37.4565 23.0118 37.1998 23.7577 36.7034 24.4351C36.2156 25.121 35.5054 25.644 34.6154 25.9955C34.2731 26.1155 33.8965 26.227 33.4601 26.3041L33.4515 27.7531C35.5396 27.2301 37.6191 26.7071 39.6643 26.0041C41.7781 25.2753 43.6179 24.4436 45.6375 23.5434C46.1253 23.3291 46.6045 23.1147 47.0923 22.8918C47.64 20.6198 47.7341 18.202 47.2977 15.7585C45.6204 6.19874 36.5494 -0.145816 27.0505 1.54321C17.543 3.23223 11.2104 12.3204 12.8963 21.8458C13.4868 25.181 14.9929 28.1303 17.098 30.4795C17.4831 30.2052 17.9538 30.0337 18.4245 29.9823Z" fill="#0052FF"/>
        <path d="M39.9468 30.42C37.7133 31.1488 35.437 31.6632 33.1607 32.2462C29.2926 33.2237 25.3647 33.5837 21.4197 33.9781C24.8513 35.9415 28.9589 36.7646 33.1607 36.0187C37.9529 35.1699 41.9322 32.4349 44.4909 28.7139C43.0018 29.3397 41.4872 29.9228 39.9468 30.42Z" fill="black"/>
        <path d="M29.1899 26.4502L29.1728 28.7137C29.7291 28.6022 30.2853 28.4822 30.8415 28.3536L30.8501 26.4588C30.7902 26.4588 30.7303 26.4673 30.6618 26.4588L29.1899 26.4502Z" fill="#0892D0"/>
        <path d="M29.1558 25.2587C28.8648 25.2502 28.4541 25.233 28.1545 25.1473L28.0176 25.1044L27.8893 25.0358C27.5726 24.8644 27.333 24.5986 27.1704 24.2385L27.102 24.0927L27.0763 23.9298C27.0421 23.724 27.0249 23.2696 27.0164 22.9181V22.8752L27.0677 18.2969L30.3025 18.3054C31.3208 18.314 32.0996 18.4255 32.6815 18.6484L32.7072 18.657C33.349 18.9142 33.8624 19.3086 34.2219 19.8316L34.2304 19.8487C34.5898 20.3803 34.761 21.0147 34.7524 21.7264C34.7439 22.5237 34.5043 23.2439 34.0421 23.8527L34.025 23.8784L34.0079 23.8955C33.5201 24.4871 32.9297 24.8729 32.2536 25.0444C31.7402 25.1902 31.1069 25.2587 30.311 25.2587H30.3025H29.1558Z" fill="white"/>
        <path d="M33.1777 20.56C33.4002 20.8858 33.4943 21.263 33.4858 21.7174C33.4772 22.2576 33.3317 22.712 33.0322 23.0978C32.7156 23.4751 32.3562 23.7237 31.9197 23.8352C31.509 23.9552 30.9613 24.0066 30.3024 24.0066L29.1813 23.9981C28.8133 23.9895 28.5908 23.9552 28.4967 23.9295C28.4111 23.8866 28.3598 23.818 28.3084 23.7151C28.2999 23.6465 28.2742 23.355 28.2657 22.8921L28.2999 19.5654L30.2852 19.574C31.1581 19.5826 31.7999 19.6683 32.2193 19.8312C32.6557 20.0113 32.9638 20.2428 33.1777 20.56Z" fill="#0892D0"/>
        <path d="M27.0421 18.5623L27.102 12.2949L30.0629 12.3035C31.2267 12.3206 31.9712 12.4064 32.4761 12.5779C33.118 12.8008 33.6229 13.1609 33.9652 13.6581C34.316 14.1468 34.4957 14.7384 34.4957 15.4243V15.4415C34.4872 16.0759 34.2989 16.659 33.948 17.1734L33.9224 17.2077L33.8967 17.242C33.5202 17.7221 32.9982 18.0736 32.3563 18.2965L32.3221 18.3051C31.7744 18.4766 31.0385 18.5623 30.0886 18.5623H27.0421Z" fill="white"/>
        <path d="M33.2462 15.4242C33.2377 15.8186 33.1264 16.1616 32.921 16.4617C32.6985 16.7446 32.3819 16.9675 31.954 17.1133C31.5261 17.2505 30.8843 17.319 30.0114 17.3105L28.317 17.3019L28.3513 13.5552L30.0457 13.5637C31.0298 13.5809 31.7144 13.6495 32.0824 13.7695C32.4675 13.9067 32.7584 14.1039 32.9553 14.3868C33.1606 14.6783 33.2462 15.0213 33.2462 15.4242Z" fill="#0892D0"/>
        <path d="M20.0673 34.3637C17.3118 34.2351 14.7274 33.8579 12.357 33.2492C9.93518 32.649 7.59041 31.7402 5.40823 30.5484C3.20894 29.2967 1.42041 27.882 0.0597534 26.3387L2.56712 24.8469C4.28719 26.0729 6.0586 27.0761 7.83002 27.822C9.71268 28.6108 11.7237 29.2109 13.8203 29.6225C15.7886 29.9997 17.8852 30.2226 20.0673 30.2655C22.2153 30.3084 24.4574 30.1969 26.7422 29.914C28.8217 29.6825 30.9526 29.2795 33.1005 28.7222C35.0088 28.2421 36.96 27.5905 39.0994 26.716C42.7449 25.207 46.1593 23.0893 49.2486 20.4229L51.9528 21.7775C49.5995 25.0355 46.108 27.8649 41.8634 29.9483C39.938 30.9257 37.7301 31.7745 35.1372 32.5461C32.8352 33.2063 30.3621 33.7121 27.7606 34.0379C25.3987 34.3037 23.0625 34.4152 20.7862 34.3637C20.538 34.3723 20.3069 34.3723 20.0673 34.3637Z" fill="white"/>
        <path d="M50.4897 21.3486C48.2733 24.418 44.953 27.1187 40.931 29.0907C38.937 30.1024 36.7549 30.9083 34.4957 31.5771C32.2279 32.2287 29.8575 32.6917 27.4528 33.0003C25.031 33.2747 22.5835 33.3861 20.119 33.2918C17.6629 33.1804 15.2069 32.846 12.8707 32.2458C10.5259 31.6628 8.3352 30.7883 6.3584 29.7166C4.42439 28.6106 2.72143 27.3074 1.42068 25.8241C3.14075 27.0502 4.99775 28.1304 7.01733 28.9792C9.03692 29.828 11.1934 30.4711 13.4013 30.8998C17.8426 31.7571 22.498 31.7657 27.0078 31.217C29.267 30.9598 31.492 30.5311 33.6399 29.9738C35.805 29.4337 37.8759 28.7049 39.8869 27.8904C43.9004 26.2528 47.4261 23.9979 50.4897 21.3486Z" fill="black"/>
        <path d="M25.7841 26.7332L26.5286 27.0504L32.0824 25.7215L37.3197 23.6466L39.3564 21.5718L39.3991 20.9031C39.3991 20.9031 40.1265 8.02531 37.6021 6.60207C35.0776 5.17883 30.9785 4.56152 30.9785 4.56152L21.4368 9.57716L20.0077 14.9872L19.5969 18.3052V21.3489C19.5969 21.3489 19.3402 22.4206 19.5969 22.6607C19.8537 22.8922 20.1617 24.5383 20.1617 24.5383L20.4784 26.1073L20.872 26.4503L25.7841 26.7332Z" fill="#0052FF"/>
        <path d="M53.9128 10.0829C53.5277 8.93397 52.8859 7.86226 52.013 6.88485C51.6194 6.44759 51.1829 6.02748 50.7037 5.62451C50.6609 5.71025 50.6181 5.80456 50.5753 5.8903C50.2929 6.77339 49.7966 7.53645 49.1034 8.17948C48.2648 9.01971 47.1609 9.64559 45.9885 9.98854C46.3222 10.4087 46.579 10.8716 46.7501 11.3775C47.1352 12.4921 47.0496 13.7867 46.5019 15.0213C46.2367 15.6386 45.8687 16.2216 45.4151 16.7704C45.2611 16.959 45.0728 17.1476 44.8931 17.3448C44.7819 17.4648 44.6706 17.5849 44.5594 17.7049L43.618 18.6223C41.0936 20.9543 37.8075 22.9606 33.8624 24.581C32.1338 25.2927 30.1741 25.9271 27.8892 26.5187C26.8795 26.7845 25.8269 27.016 24.7914 27.2132C23.8501 27.3761 22.8232 27.5047 21.6593 27.6076C20.8721 27.6676 20.0676 27.7019 19.2803 27.7019C19.0151 27.7019 18.7583 27.7019 18.5273 27.6933C17.526 27.6504 16.4991 27.5561 15.4294 27.3932C14.4196 27.2217 13.4355 26.9731 12.5028 26.6559C11.6384 26.3558 10.7656 25.9528 9.8328 25.4298L7.59927 27.1703C8.44647 27.8819 9.43915 28.5421 10.5944 29.1423C11.6812 29.6653 12.8707 30.1197 14.1544 30.4883C15.3182 30.8141 16.5762 31.0542 18.0224 31.2428C19.306 31.3886 20.6239 31.4743 21.9246 31.4829H21.9503C23.2083 31.4743 24.5176 31.4057 25.8697 31.2685C27.1447 31.1228 28.3685 30.9427 29.6093 30.7113C31.9455 30.2826 34.3673 29.6481 36.8062 28.8165C41.5813 27.1874 45.8516 24.8211 49.1805 21.9403L49.5656 21.5974C49.8394 21.3487 50.1218 21.1001 50.4128 20.8086C50.5326 20.68 50.6524 20.56 50.7722 20.4399C51.0289 20.1827 51.2856 19.9169 51.5338 19.634C52.3382 18.7252 52.9886 17.7392 53.4592 16.7018C54.4605 14.4898 54.6145 12.2177 53.9128 10.0829Z" fill="white"/>
        <path d="M52.321 10.3661C51.9872 9.37155 51.4224 8.41129 50.6437 7.54535C49.9077 6.72227 49.0263 6.00207 48.0336 5.38477C47.4859 6.38789 46.8698 7.331 46.2023 8.2141C46.5874 8.52275 46.9382 8.83998 47.2292 9.18293C47.7427 9.75737 48.1106 10.409 48.3417 11.0949C48.8124 12.4581 48.684 13.9842 48.0678 15.3903C47.7683 16.0934 47.3405 16.7793 46.8099 17.4051C46.536 17.7309 46.1937 18.0739 45.8942 18.3997L44.9015 19.3771C42.146 21.9235 38.6032 24.0241 34.6667 25.6359C32.6899 26.4418 30.5933 27.102 28.4454 27.6593C27.3671 27.9423 26.2632 28.1823 25.1764 28.3881C24.081 28.5853 22.96 28.7139 21.8304 28.8082C20.7008 28.8939 19.5712 28.9282 18.433 28.8939C17.2949 28.8511 16.1738 28.731 15.0442 28.5596C13.9317 28.3709 12.8449 28.088 11.7923 27.7365C10.7398 27.3764 9.76421 26.9048 8.82288 26.3733C9.60161 27.0249 10.5002 27.6164 11.4843 28.1223C12.4941 28.611 13.5809 29.014 14.719 29.3483C15.8657 29.6656 17.0552 29.8799 18.2619 30.0428C19.477 30.18 20.7008 30.2572 21.9331 30.2657C23.1653 30.2572 24.3891 30.1886 25.6128 30.0685C26.8365 29.9314 28.026 29.7513 29.207 29.5284C31.5774 29.0997 33.8794 28.4653 36.1129 27.7108C40.5714 26.1932 44.6619 23.9726 47.8967 21.1776C48.2903 20.8175 48.6925 20.466 49.0691 20.1059C49.4285 19.7286 49.7965 19.3771 50.1559 18.9656C50.8918 18.1339 51.4738 17.2422 51.9102 16.3077C52.7659 14.4215 52.9713 12.3638 52.321 10.3661Z" fill="#0052FF"/>
        <path d="M22.4723 28.1391C23.2852 28.1563 24.0897 28.1305 24.8941 28.0534C25.1594 28.0105 25.4161 27.9591 25.6814 27.9076V18.3394H22.2327V28.1305C22.3182 28.1391 22.3953 28.1305 22.4723 28.1391Z" fill="white"/>
        <path d="M30.6619 26.4931C30.8502 26.4073 31.0299 26.3302 31.2096 26.2444V13.0752H27.7609V27.4276C28.7536 27.1618 29.7206 26.8532 30.6619 26.4931Z" fill="white"/>
        <path d="M33.6913 25.1812C34.1535 25.0011 34.6327 24.8468 35.1119 24.6924C35.2659 24.6067 35.4285 24.5124 35.574 24.4095C35.9334 24.1695 36.3185 23.9808 36.7293 23.8351V8.6167H33.2806V25.3441C33.4175 25.2926 33.5544 25.2326 33.6913 25.1812Z" fill="white"/>
        <path fill-rule="evenodd" clip-rule="evenodd" d="M75.642 13.5937C75.9546 14.5152 76.1064 15.5262 76.1064 16.6357C76.1064 17.7361 75.9546 18.7561 75.642 19.6776C75.3294 20.5992 74.874 21.4134 74.2668 22.1112C73.6595 22.8091 72.8647 23.3549 71.8824 23.7485C70.9001 24.1422 69.7838 24.339 68.5247 24.339H60.7376V21.9055H62.4522V11.3569H60.7376V8.92334H68.5247C69.7838 8.92334 70.9001 9.12017 71.8824 9.51384C72.8647 9.90751 73.6595 10.4533 74.2668 11.1601C74.874 11.8669 75.3294 12.6721 75.642 13.5937ZM65.3545 21.9233H68.5247C69.3284 21.9233 70.0339 21.7802 70.6501 21.4939C71.2662 21.2076 71.7485 20.8139 72.1146 20.3129C72.4718 19.8119 72.7397 19.2571 72.9183 18.6398C73.0969 18.0224 73.1862 17.3604 73.1862 16.6357C73.1862 15.9199 73.0969 15.2489 72.9183 14.6315C72.7397 14.0142 72.4718 13.4595 72.1146 12.9584C71.7574 12.4574 71.2662 12.0637 70.6501 11.7774C70.0339 11.4911 69.3284 11.348 68.5247 11.348H65.3545V21.9233Z" fill="#0052FF"/>
        <path fill-rule="evenodd" clip-rule="evenodd" d="M83.1968 22.3172C84.5721 22.3082 85.7062 21.9235 86.6081 21.163L88.2424 22.7914C87.0547 23.9724 85.3758 24.5629 83.1968 24.5629C81.3661 24.5629 79.9373 24.035 78.9282 22.9703C77.9102 21.9056 77.4012 20.5367 77.4012 18.8547C77.4012 17.7542 77.6155 16.7879 78.0531 15.938C78.4817 15.088 79.1425 14.408 80.0355 13.907C80.9196 13.397 81.9823 13.1465 83.2058 13.1465C85.1168 13.1465 86.5903 13.737 87.6173 14.909C88.6442 16.0811 89.1086 17.7542 89.0014 19.9194H80.3124C80.3124 20.0894 80.3392 20.2772 80.4017 20.4741C80.4553 20.6709 80.5624 20.8767 80.7053 21.1004C80.8482 21.324 81.0268 21.5209 81.2411 21.6998C81.4554 21.8788 81.7323 22.0309 82.0716 22.1472C82.402 22.2545 82.7771 22.3172 83.1968 22.3172ZM80.3124 17.79H86.0902C86.0902 17.5663 86.0366 17.3337 85.9384 17.0742C85.8401 16.8237 85.6883 16.5642 85.4829 16.2958C85.2776 16.0364 84.9739 15.8216 84.581 15.6427C84.1881 15.4727 83.7237 15.3832 83.2058 15.3832C82.6789 15.3832 82.2234 15.4727 81.8305 15.6427C81.4376 15.8127 81.134 16.0274 80.9286 16.2958C80.7232 16.5553 80.5714 16.8148 80.4731 17.0742C80.357 17.3247 80.3124 17.5663 80.3124 17.79Z" fill="#0052FF"/>
        <path d="M95.3506 11.3569V15.2757H100.905V17.7093H95.3506V21.9233H97.0652V24.3569H90.7337V21.9233H92.4483V11.3569H90.7337V8.92334H103.799V13.0211H100.896V11.3569H95.3506Z" fill="#0052FF"/>
        <path d="M106.799 15.607H105.085V13.3613H109.496V22.1025H111.211V24.3482H105.085V22.1025H106.799V15.607ZM107.023 11.1961C106.719 10.8919 106.558 10.5162 106.558 10.0778C106.558 9.63936 106.71 9.26358 107.023 8.95938C107.326 8.65519 107.701 8.49414 108.139 8.49414C108.576 8.49414 108.951 8.64624 109.255 8.95938C109.559 9.26358 109.719 9.63936 109.719 10.0778C109.719 10.5162 109.568 10.8919 109.255 11.1961C108.951 11.5003 108.576 11.6614 108.139 11.6614C107.701 11.6524 107.326 11.5003 107.023 11.1961Z" fill="#0052FF"/>
        <path d="M67.06 30.8169C67.06 31.5953 66.9171 32.1143 66.6314 32.3737C66.3456 32.6332 65.7741 32.7674 64.9347 32.7674L63.613 32.8032L62.5414 32.7674C61.3983 32.7674 60.666 32.6153 60.3356 32.32C60.0052 32.0248 59.8445 31.5595 59.8445 30.9243L59.7909 29.7344C59.7909 28.8039 59.9248 28.1239 60.2017 27.6855C60.4785 27.2471 61.0322 27.0324 61.8716 27.0324L63.488 26.9966C63.6487 26.9966 63.863 26.9966 64.1309 26.9966C64.3899 26.9966 64.5685 26.9966 64.6578 26.9966C64.9614 26.9966 65.3276 27.0234 65.7652 27.0682C66.2027 27.1129 66.5153 27.3097 66.7028 27.6497C66.8904 27.9986 66.9886 28.4639 66.9886 29.0544H65.3097C65.3097 28.7949 65.2472 28.616 65.1222 28.5176C64.9972 28.4281 64.7918 28.3744 64.5149 28.3744H64.0327H63.5594H62.6843C62.1663 28.3744 61.8448 28.4728 61.7198 28.6697C61.6037 28.8665 61.5501 29.2691 61.5501 29.8865C61.5501 30.5038 61.6216 30.9154 61.7555 31.1122C61.8895 31.309 62.2556 31.4074 62.845 31.4074H63.5148H64.3988C64.7471 31.4074 64.9972 31.3627 65.1401 31.2643C65.2919 31.1659 65.3633 30.9422 65.3633 30.5843H67.06V30.8169Z" fill="white"/>
        <path fill-rule="evenodd" clip-rule="evenodd" d="M75.4901 26.979L76.8742 27.0058C77.8833 27.0058 78.5799 27.1758 78.946 27.5069C79.3211 27.8379 79.5086 28.5089 79.5086 29.52V29.7884C79.5086 30.9694 79.3568 31.7567 79.0621 32.1593C78.7674 32.5619 78.0173 32.7588 76.8207 32.7588L75.5169 32.7946H74.9721L73.7933 32.7588C73.1414 32.7588 72.6324 32.6067 72.2752 32.3114C71.918 32.0162 71.7305 31.533 71.7305 30.862L71.7126 29.8063C71.7126 28.6521 71.8555 27.8916 72.1502 27.5337C72.4449 27.1758 73.1504 26.9969 74.2577 26.9969L75.4901 26.979ZM74.5524 31.4078H76.3652C76.8474 31.4078 77.1957 31.3541 77.41 31.2557C77.6244 31.1483 77.7315 30.8888 77.7315 30.4683L77.7494 29.6989C77.7494 29.4394 77.7315 29.2158 77.7047 29.0279C77.669 28.84 77.6065 28.7058 77.5172 28.6163C77.4279 28.5268 77.285 28.4732 77.0975 28.4463C76.91 28.4195 76.776 28.4016 76.6867 28.4016C76.5974 28.4016 76.526 28.4016 76.4813 28.4016H74.7578C74.3559 28.4016 74.0523 28.4463 73.8648 28.5268C73.6594 28.5984 73.5433 28.7774 73.5076 29.0458L73.4629 29.6899V30.0747C73.4629 30.6025 73.5254 30.9515 73.6415 31.1394C73.7576 31.3094 74.0612 31.4078 74.5524 31.4078Z" fill="white"/>
        <path d="M84.2774 32.7407V27.0415H86.0097V32.7407H84.2774Z" fill="white"/>
        <path d="M95.949 32.7407L92.5198 28.4641V32.7407H90.8945V27.0415H93.645L97.0742 31.3092V27.0415H98.6996V32.7407H95.949Z" fill="white"/>
        <path d="M105.227 31.0231C105.227 31.2467 105.308 31.3988 105.46 31.4704C105.629 31.5241 105.853 31.5599 106.12 31.5599H106.942L108.103 31.5241C108.424 31.5241 108.63 31.4883 108.728 31.4078C108.826 31.3272 108.871 31.202 108.871 31.032C108.871 30.8799 108.817 30.7546 108.701 30.6652C108.594 30.5757 108.38 30.531 108.067 30.531H107.781L104.933 30.4594C104.406 30.4594 104.022 30.3252 103.799 30.0568C103.584 29.7794 103.477 29.3589 103.477 28.8131C103.477 28.3479 103.549 27.9811 103.683 27.7216C103.816 27.4621 104.075 27.2832 104.442 27.1758C104.638 27.1222 104.861 27.0864 105.102 27.0506C105.344 27.0237 105.602 27.0058 105.879 27.0058L107.085 26.979H108.299C108.549 26.979 108.764 26.9879 108.951 27.0058C109.139 27.0237 109.309 27.0506 109.469 27.1043C109.755 27.1758 109.969 27.31 110.085 27.5158C110.21 27.7216 110.291 27.9095 110.327 28.0795C110.362 28.2495 110.38 28.4821 110.38 28.7774H108.683C108.683 28.5805 108.621 28.4463 108.505 28.3658C108.389 28.2853 108.228 28.2405 108.014 28.2405L107.174 28.2316L105.853 28.2763C105.692 28.2763 105.54 28.3121 105.415 28.3747C105.29 28.4463 105.227 28.5537 105.227 28.7147C105.227 28.9295 105.299 29.0726 105.442 29.1442C105.513 29.171 105.594 29.1979 105.692 29.2158C105.79 29.2336 105.906 29.2426 106.04 29.2426H106.219H107.38H108.523C109.264 29.2426 109.791 29.3589 110.121 29.5915C110.46 29.8152 110.621 30.2715 110.621 30.9783C110.621 31.6493 110.469 32.1146 110.175 32.3651C109.88 32.6156 109.38 32.7409 108.692 32.7409L106.478 32.8035L105.317 32.7767C104.701 32.7767 104.245 32.6782 103.959 32.4814C103.674 32.2846 103.531 31.882 103.531 31.2825V30.9425H105.227V31.0231Z" fill="white"/>
        </g>
    <defs>
        <clipPath id="clip0">
            <rect width="111.318" height="37.553" fill="white"/>
        </clipPath>
    </defs>
</svg>