<svg width="34" height="21" viewBox="0 0 34 21" fill="none" xmlns="http://www.w3.org/2000/svg">
<path d="M14.5 7.5H14.2397L14.0904 7.71327L11 12.1281L7.90962 7.71327L7.76033 7.5H7.5H4C2.067 7.5 0.5 5.933 0.5 4C0.5 2.067 2.067 0.5 4 0.5H18C19.933 0.5 21.5 2.067 21.5 4C21.5 5.933 19.933 7.5 18 7.5H14.5ZM19.5 13.5H19.7603L19.9096 13.2867L23 8.8719L26.0904 13.2867L26.2397 13.5H26.5L30 13.5C31.933 13.5 33.5 15.067 33.5 17C33.5 18.933 31.933 20.5 30 20.5L16 20.5C14.067 20.5 12.5 18.933 12.5 17C12.5 15.067 14.067 13.5 16 13.5L19.5 13.5Z" stroke="#6531A2"/>
</svg>
