<svg width="26" height="21" viewBox="0 0 26 21" fill="none" xmlns="http://www.w3.org/2000/svg">
<path fill-rule="evenodd" clip-rule="evenodd" d="M13 21L26 19V0L13 2L0 0V19L13 21ZM13.5 19.9113L25 18.1421V1.16561L13.5 2.93484V19.9113ZM12.5 2.93484V19.9113L1 18.1421V1.16561L12.5 2.93484ZM10.9178 5.9932L1.9178 4.4932L2.0822 3.5068L11.0822 5.0068L10.9178 5.9932ZM10.9178 8.9932L1.9178 7.4932L2.0822 6.5068L11.0822 8.0068L10.9178 8.9932ZM10.9178 11.9932L1.9178 10.4932L2.0822 9.5068L11.0822 11.0068L10.9178 11.9932ZM10.9178 14.9932L1.9178 13.4932L2.0822 12.5068L11.0822 14.0068L10.9178 14.9932ZM14.9178 5.0068L23.9178 3.5068L24.0822 4.4932L15.0822 5.9932L14.9178 5.0068ZM14.9178 8.0068L23.9178 6.5068L24.0822 7.4932L15.0822 8.9932L14.9178 8.0068ZM14.9178 11.0068L23.9178 9.5068L24.0822 10.4932L15.0822 11.9932L14.9178 11.0068Z" fill="#6531A2"/>
</svg>
