<svg width="24" height="22" viewBox="0 0 24 22" fill="none" xmlns="http://www.w3.org/2000/svg">
<path fill-rule="evenodd" clip-rule="evenodd" d="M20.4668 10.4868L18.2191 14.1251L20.543 15.9439L19.9266 16.7314L17.6902 14.9811L15.7193 18.1714L14.8685 17.6458L19.1793 10.6682L13.7225 5.711L14.3949 4.97082L16.9275 7.27153L19.4727 4.77196L20.1734 5.48544L17.6689 7.94502L20.4668 10.4868ZM3.53323 10.4868L6.33118 7.94502L3.82665 5.48544L4.52733 4.77196L7.07256 7.27153L9.60519 4.97082L10.2776 5.711L4.82074 10.6682L9.13153 17.6458L8.28079 18.1714L6.30982 14.9811L4.07341 16.7314L3.45708 15.9439L5.781 14.1251L3.53323 10.4868ZM12.6113 19.7355L12.6124 19.7364L12.6369 19.7544C12.6609 19.7718 12.6997 19.7994 12.7521 19.835C12.8572 19.9062 13.0157 20.0082 13.2181 20.1228C13.6262 20.3538 14.1951 20.6259 14.8506 20.8053C16.1423 21.1587 17.7012 21.1464 19.1389 19.7976L19.354 19.5958L19.6443 19.543C20.8118 19.3309 21.5298 18.7705 22.0001 18.0602C22.4924 17.3167 22.7471 16.3529 22.8418 15.3291C22.9357 14.3139 22.8658 13.3123 22.7685 12.5539C22.7202 12.1776 22.666 11.8677 22.6244 11.6544C22.6037 11.5479 22.5861 11.4658 22.5742 11.4121C22.5707 11.3962 22.5677 11.3828 22.5652 11.372C22.5634 11.3645 22.562 11.3582 22.5608 11.3532L22.5578 11.3406L22.5575 11.3392L22.4923 11.0738L22.5716 10.8116C23.5084 7.71392 22.7428 5.82829 21.8677 4.71528C21.4119 4.13555 20.8983 3.73163 20.4972 3.47307C20.2978 3.34452 20.1298 3.25429 20.0166 3.19814C19.9601 3.17014 19.9176 3.15082 19.8922 3.13963C19.8795 3.13404 19.871 3.13051 19.8673 3.12894C19.8669 3.12879 19.8675 3.12906 19.8673 3.12894C19.8661 3.12848 19.8648 3.12792 19.8652 3.12808L19.6169 3.03097L19.4487 2.81702C18.5255 1.64291 17.6876 1.18905 17.0117 1.05151C16.3298 0.91277 15.662 1.06522 15.0268 1.38837C14.3856 1.71458 13.8284 2.19068 13.4208 2.60538C13.2202 2.80947 13.0634 2.99092 12.9585 3.11899C12.9062 3.18284 12.8673 3.23288 12.8427 3.26517C12.8304 3.2813 12.8217 3.29295 12.8168 3.29963L12.813 3.30481L12.8124 3.30573L12.4999 3.74279V9.77922L15.5622 11.7265L15.0256 12.5703L12.4999 10.9643V19.6495L12.6089 19.7337L12.6101 19.7346L12.6113 19.7355ZM11.4999 19.6495V10.9643L8.97447 12.5703L8.43785 11.7265L11.4999 9.77923V3.7428L11.1878 3.30615L11.1872 3.30532L11.1831 3.29961C11.1781 3.29294 11.1695 3.28129 11.1572 3.26516C11.1326 3.23286 11.0936 3.18282 11.0413 3.11898C10.9365 2.99091 10.7797 2.80945 10.5791 2.60537C10.1715 2.19067 9.61438 1.71457 8.97319 1.38837C8.33801 1.06522 7.67016 0.912771 6.98835 1.05151C6.31243 1.18905 5.47454 1.6429 4.55134 2.81702L4.38311 3.03097L4.13373 3.12856C4.13346 3.12867 4.13315 3.1288 4.13279 3.12894C4.12902 3.13051 4.12059 3.13404 4.10788 3.13963C4.08241 3.15082 4.03995 3.17014 3.98346 3.19814C3.87021 3.25429 3.70229 3.34452 3.50286 3.47307C3.10177 3.73163 2.58819 4.13555 2.13235 4.71528C1.25722 5.82829 0.491683 7.71392 1.42849 10.8116L1.50776 11.0738L1.44241 11.3397L1.43923 11.3532C1.43637 11.3654 1.43181 11.3852 1.42585 11.4121C1.41391 11.4658 1.39639 11.5479 1.37564 11.6544C1.33408 11.8677 1.27987 12.1776 1.23155 12.5539C1.1342 13.3123 1.06433 14.3139 1.15824 15.3291C1.25295 16.3529 1.50764 17.3167 1.99991 18.0602C2.47024 18.7705 3.18821 19.3309 4.35576 19.543L4.64604 19.5958L4.8612 19.7976C6.2989 21.1465 7.85769 21.1587 9.14935 20.8053C9.80484 20.6259 10.3737 20.3538 10.7818 20.1228C10.9842 20.0082 11.1427 19.9062 11.2478 19.835C11.3002 19.7995 11.339 19.7718 11.3629 19.7544L11.3874 19.7364L11.3892 19.7351L11.3905 19.734L11.4999 19.6495ZM0.471298 11.1011C-1.58742 4.29356 3.76524 2.19891 3.76524 2.19891C6.88567 -1.76962 10.006 0.577801 11.3342 1.94732C11.7585 2.38489 11.9999 2.72264 11.9999 2.72264C11.9999 2.72264 12.2414 2.3849 12.6657 1.94733C13.9939 0.577814 17.1144 -1.76963 20.2348 2.19891C20.2348 2.19891 25.5875 4.29356 23.5287 11.1011C23.5287 11.1011 25.5875 19.4795 19.8231 20.5269C16.2902 23.8414 11.9999 20.5269 11.9999 20.5269C11.9999 20.5269 7.70983 23.8414 4.17699 20.5269C-1.58742 19.4795 0.471298 11.1011 0.471298 11.1011Z" fill="#6531A2"/>
</svg>
