<svg width="34" height="34" viewBox="0 0 34 34" fill="none" xmlns="http://www.w3.org/2000/svg">
<path d="M0 17C0 7.61116 7.61116 0 17 0C26.3888 0 34 7.61116 34 17C34 26.3888 26.3888 34 17 34C7.61116 34 0 26.3888 0 17Z" fill="url(#paint0_linear)"/>
<path d="M14.6198 22.104C13.9005 22.104 13.2592 21.922 12.6958 21.558C12.1412 21.1853 11.7035 20.648 11.3828 19.946C11.0622 19.244 10.9018 18.412 10.9018 17.45C10.9018 16.488 11.0622 15.656 11.3828 14.954C11.7035 14.252 12.1412 13.719 12.6958 13.355C13.2592 12.9823 13.9005 12.796 14.6198 12.796C15.3305 12.796 15.9632 12.9823 16.5178 13.355C17.0812 13.719 17.5232 14.252 17.8438 14.954C18.1645 15.656 18.3248 16.488 18.3248 17.45C18.3248 18.412 18.1645 19.244 17.8438 19.946C17.5232 20.648 17.0812 21.1853 16.5178 21.558C15.9632 21.922 15.3305 22.104 14.6198 22.104ZM14.6198 20.947C15.3478 20.947 15.9285 20.648 16.3618 20.05C16.8038 19.452 17.0248 18.5853 17.0248 17.45C17.0248 16.3147 16.8038 15.448 16.3618 14.85C15.9285 14.252 15.3478 13.953 14.6198 13.953C13.8832 13.953 13.2938 14.252 12.8518 14.85C12.4185 15.448 12.2018 16.3147 12.2018 17.45C12.2018 18.5853 12.4185 19.452 12.8518 20.05C13.2938 20.648 13.8832 20.947 14.6198 20.947ZM22.3556 12.9V22H21.0686V14.031H19.0146V12.9H22.3556Z" fill="white"/>
<defs>
<linearGradient id="paint0_linear" x1="17" y1="0" x2="17" y2="34" gradientUnits="userSpaceOnUse">
<stop stop-color="#A160ED"/>
<stop offset="1" stop-color="#6531A2"/>
</linearGradient>
</defs>
</svg>
