<svg width="32" height="32" viewBox="0 0 32 32" fill="none" xmlns="http://www.w3.org/2000/svg">

<path d="M22.465 0H9.535C7.00697 0.00264715 4.58325 1.00807 2.79566 2.79566C1.00807 4.58325 0.00264715 7.00697 0 9.535L0 22.465C0.00264715 24.993 1.00807 27.4168 2.79566 29.2043C4.58325 30.9919 7.00697 31.9974 9.535 32H22.465C24.993 31.9974 27.4168 30.9919 29.2043 29.2043C30.9919 27.4168 31.9974 24.993 32 22.465V9.535C31.9974 7.00697 30.9919 4.58325 29.2043 2.79566C27.4168 1.00807 24.993 0.00264715 22.465 0ZM28.78 22.465C28.78 24.1398 28.1147 25.7461 26.9304 26.9304C25.7461 28.1147 24.1398 28.78 22.465 28.78H18.045V21.09H20.045C20.1728 21.0903 20.2977 21.0524 20.4038 20.9811C20.5098 20.9098 20.5921 20.8085 20.64 20.69L21.94 17.445C21.9596 17.3966 21.967 17.344 21.9617 17.2921C21.9563 17.2401 21.9382 17.1902 21.9091 17.1468C21.88 17.1034 21.8407 17.0678 21.7947 17.0431C21.7487 17.0183 21.6973 17.0053 21.645 17.005H18.045V13.73C18.045 13.5138 18.1309 13.3066 18.2837 13.1537C18.4366 13.0009 18.6438 12.915 18.86 12.915H21C21.0849 12.915 21.1663 12.8813 21.2263 12.8213C21.2863 12.7613 21.32 12.6799 21.32 12.595V8.5C21.32 8.41513 21.2863 8.33374 21.2263 8.27373C21.1663 8.21371 21.0849 8.18 21 8.18H18.05C16.7491 8.18 15.5015 8.69678 14.5816 9.61664C13.6618 10.5365 13.145 11.7841 13.145 13.085V17H10.195C10.1101 17 10.0287 17.0337 9.96873 17.0937C9.90871 17.1537 9.875 17.2351 9.875 17.32V20.765C9.875 20.8499 9.90871 20.9313 9.96873 20.9913C10.0287 21.0513 10.1101 21.085 10.195 21.085H13.145V28.78H9.535C7.86016 28.78 6.25391 28.1147 5.06962 26.9304C3.88533 25.7461 3.22 24.1398 3.22 22.465V9.535C3.22 7.86016 3.88533 6.25391 5.06962 5.06962C6.25391 3.88533 7.86016 3.22 9.535 3.22H22.465C24.1398 3.22 25.7461 3.88533 26.9304 5.06962C28.1147 6.25391 28.78 7.86016 28.78 9.535V22.465Z" fill="#59D4DC"/>

</svg>
