<svg width="61" height="73" viewBox="0 0 61 73" fill="none" xmlns="http://www.w3.org/2000/svg">
<path fill-rule="evenodd" clip-rule="evenodd" d="M12.5 26.3197H7.5C6.11929 26.3197 5 27.4314 5 28.8027V58.4814L0.0527864 68.3085C0.0180725 68.3775 0 68.4535 0 68.5306V70.517C0 71.8883 1.11929 73 2.5 73H58.5C59.8807 73 61 71.8883 61 70.517V68.5306C61 68.4535 60.9819 68.3775 60.9472 68.3085L56 58.4814V28.8027C56 27.4314 54.8807 26.3197 53.5 26.3197H48.5V27.3129H53.5C54.3284 27.3129 55 27.9799 55 28.8027V58.102H6V28.8027C6 27.9799 6.67157 27.3129 7.5 27.3129H12.5V26.3197ZM1.30902 68.034L5.80902 59.0952H55.191L59.691 68.034H39.8154L38.5855 65.4747C38.1705 64.6111 37.2928 64.0612 36.3293 64.0612H24.6707C23.7072 64.0612 22.8295 64.6111 22.4145 65.4747L21.1846 68.034H1.30902ZM1 70.517V69.0272H60V70.517C60 71.3398 59.3284 72.0068 58.5 72.0068H2.5C1.67157 72.0068 1 71.3398 1 70.517ZM37.6831 65.9025L38.7073 68.034H22.2927L23.3169 65.9025C23.5659 65.3844 24.0926 65.0544 24.6707 65.0544H36.3293C36.9074 65.0544 37.4341 65.3844 37.6831 65.9025Z" fill="#6531A2"/>
<path d="M12.5 29.2993H8.5C8.22386 29.2993 8 29.5217 8 29.7959V55.619C8 55.8933 8.22386 56.1156 8.5 56.1156H52.5C52.7761 56.1156 53 55.8933 53 55.619V29.7959C53 29.5217 52.7761 29.2993 52.5 29.2993H48.5V30.2925H52V55.1224H9V30.2925H12.5V29.2993Z" fill="#6531A2"/>
<path d="M12.5 45.1905V46.1837H48.5V45.1905H12.5Z" fill="#6531A2"/>
<path d="M12.5 51.1497H27.5V50.1565H12.5V51.1497Z" fill="#6531A2"/>
<path fill-rule="evenodd" clip-rule="evenodd" d="M34.8753 35.9727C35.0526 35.8319 35.2729 35.7551 35.5 35.7551H46.5C47.0523 35.7551 47.5 35.3104 47.5 34.7619V1.98639C47.5 1.43787 47.0523 0.993197 46.5 0.993197H14.5C13.9477 0.993197 13.5 1.43787 13.5 1.9864V34.7619C13.5 35.3104 13.9477 35.7551 14.5 35.7551H25.5C25.7271 35.7551 25.9474 35.8319 26.1247 35.9727L30.5 39.4492L34.8753 35.9727ZM30.5 40.7211L25.5 36.7483H14.5C13.3954 36.7483 12.5 35.859 12.5 34.7619V1.9864C12.5 0.88934 13.3954 0 14.5 0H46.5C47.6046 0 48.5 0.889339 48.5 1.98639V34.7619C48.5 35.859 47.6046 36.7483 46.5 36.7483H35.5L30.5 40.7211Z" fill="#6531A2"/>
<path fill-rule="evenodd" clip-rule="evenodd" d="M20.3499 8.89684C22.2647 5.78951 25.5094 3.47619 30.4999 3.47619C35.4904 3.47619 38.7351 5.78951 40.6499 8.89684C42.5366 11.9584 43.1233 15.7686 42.8998 18.8638C43.1275 20.4266 42.9516 21.6692 42.5279 22.6519C42.0991 23.6464 41.431 24.3413 40.7388 24.8218C40.0501 25.2999 39.336 25.5674 38.799 25.7158C38.619 25.7655 38.4574 25.8023 38.3213 25.8293V30.0639C38.3213 30.4614 38.1239 30.7855 37.8707 31.0319C37.621 31.2748 37.2876 31.4735 36.9254 31.6394C36.1991 31.9723 35.2413 32.2252 34.27 32.4149C32.9434 32.6739 31.5353 32.8252 30.5319 32.8891C30.5107 32.8905 30.4893 32.8905 30.468 32.8891C29.4646 32.8252 28.0566 32.6739 26.73 32.4149C25.7586 32.2252 24.8009 31.9723 24.0745 31.6394C23.7124 31.4735 23.3789 31.2748 23.1293 31.0319C22.8761 30.7855 22.6787 30.4614 22.6787 30.0639V25.8293C22.5426 25.8023 22.381 25.7655 22.201 25.7158C21.664 25.5674 20.9498 25.2999 20.2611 24.8218C19.569 24.3413 18.9009 23.6464 18.4721 22.6519C18.0484 21.6692 17.8724 20.4266 18.1002 18.8638C17.8767 15.7686 18.4633 11.9584 20.3499 8.89684ZM23.2217 24.9101C23.4802 24.9322 23.6787 25.1471 23.6787 25.4048V30.0639C23.6787 30.1106 23.6978 30.1946 23.8291 30.3225C23.964 30.4538 24.1832 30.5954 24.4935 30.7376C24.9791 30.9601 25.6173 31.1527 26.3264 31.3145V28.6662C26.3264 28.3919 26.5503 28.1696 26.8264 28.1696C27.1025 28.1696 27.3264 28.3919 27.3264 28.6662V31.5153C28.2585 31.6801 29.2106 31.7923 30 31.8585V29.1321C30 28.8579 30.2238 28.6355 30.5 28.6355C30.7761 28.6355 31 28.8579 31 29.1321V31.8585C31.7894 31.7923 32.7414 31.6801 33.6735 31.5153V28.6662C33.6735 28.3919 33.8974 28.1696 34.1735 28.1696C34.4497 28.1696 34.6735 28.3919 34.6735 28.6662V31.3145C35.3826 31.1527 36.0209 30.9601 36.5065 30.7376C36.8167 30.5954 37.0359 30.4538 37.1708 30.3225C37.3022 30.1946 37.3213 30.1106 37.3213 30.0639V25.4048C37.3213 25.1472 37.5195 24.9325 37.7778 24.9101C37.7779 24.9101 37.7776 24.9101 37.7778 24.9101L37.7854 24.9093C37.7895 24.9089 37.7949 24.9083 37.8019 24.9076C37.8075 24.9069 37.8141 24.9061 37.8216 24.9052C37.855 24.9011 37.9065 24.8942 37.9732 24.8831C38.1067 24.861 38.3001 24.8227 38.5309 24.7589C38.9949 24.6307 39.5963 24.4032 40.1659 24.0077C40.7322 23.6146 41.2652 23.0573 41.6086 22.261C41.952 21.4645 42.1201 20.3953 41.9026 18.9557C41.8971 18.919 41.8957 18.8819 41.8985 18.8449C42.1215 15.893 41.5598 12.2759 39.797 9.41532C38.0512 6.58224 35.1185 4.46939 30.4999 4.46939C25.8812 4.46939 22.9486 6.58224 21.2028 9.41531C19.4401 12.2759 18.8785 15.893 19.1015 18.8449C19.1043 18.8819 19.1029 18.919 19.0973 18.9557C18.8798 20.3953 19.0479 21.4645 19.3914 22.261C19.7347 23.0573 20.2678 23.6146 20.834 24.0077C21.4037 24.4032 22.0051 24.6307 22.4691 24.7589C22.6998 24.8227 22.8932 24.861 23.0268 24.8831C23.0935 24.8942 23.1449 24.9011 23.1784 24.9052C23.1951 24.9073 23.2072 24.9086 23.2145 24.9093L23.2217 24.9101ZM25.4666 15.6513C23.9854 15.6513 22.7636 16.8774 22.7636 18.4161C22.7636 19.9548 23.9854 21.1809 25.4666 21.1809C26.9478 21.1809 28.1697 19.9548 28.1697 18.4161C28.1697 16.8774 26.9478 15.6513 25.4666 15.6513ZM21.7636 18.4161C21.7636 16.3523 23.4098 14.6581 25.4666 14.6581C27.5234 14.6581 29.1697 16.3523 29.1697 18.4161C29.1697 20.4799 27.5234 22.1741 25.4666 22.1741C23.4098 22.1741 21.7636 20.4799 21.7636 18.4161ZM31.8303 18.4161C31.8303 16.3523 33.4765 14.6581 35.5333 14.6581C37.5901 14.6581 39.2364 16.3523 39.2364 18.4161C39.2364 20.4799 37.5901 22.1741 35.5333 22.1741C33.4765 22.1741 31.8303 20.4799 31.8303 18.4161ZM35.5333 15.6513C34.0521 15.6513 32.8303 16.8774 32.8303 18.4161C32.8303 19.9548 34.0521 21.1809 35.5333 21.1809C37.0145 21.1809 38.2364 19.9548 38.2364 18.4161C38.2364 16.8774 37.0145 15.6513 35.5333 15.6513ZM30.5 22.1127C30.6692 22.1127 30.8269 22.1977 30.9191 22.3386L32.7495 25.1341C32.8494 25.2868 32.8572 25.4815 32.7698 25.6416C32.6823 25.8017 32.5137 25.9014 32.3303 25.9014H28.6697C28.4863 25.9014 28.3176 25.8017 28.2302 25.6416C28.1427 25.4815 28.1505 25.2868 28.2505 25.1341L30.0808 22.3386C30.1731 22.1977 30.3308 22.1127 30.5 22.1127ZM29.5912 24.9082H31.4087L30.5 23.5203L29.5912 24.9082Z" fill="#6531A2"/>
</svg>
