<svg width="62" height="74" viewBox="0 0 62 74" fill="none" xmlns="http://www.w3.org/2000/svg">
<path fill-rule="evenodd" clip-rule="evenodd" d="M30.5722 1.67345C28.0231 2.08695 26.018 3.19817 25.1877 4.70203C25.0997 4.86141 24.9321 4.96037 24.75 4.96037C21.7742 4.96037 18.6801 6.43168 17.1422 9.25355C15.7575 11.7941 15.5727 15.5494 18.0688 20.5293C18.4717 15.2756 20.5981 11.8134 23.1842 9.70626C23.2876 9.62194 23.4205 9.58251 23.5533 9.59672C23.6857 9.61091 23.807 9.67738 23.8903 9.78135L23.8913 9.78258L23.8981 9.79091C23.9023 9.79594 23.9081 9.80291 23.9155 9.81171C23.92 9.81701 23.9251 9.82296 23.9308 9.82956C23.9609 9.86473 24.0079 9.9182 24.0717 9.987C24.1994 10.1247 24.394 10.3235 24.6557 10.5601C25.1792 11.0335 25.9689 11.6563 27.0242 12.2428C29.1297 13.4131 32.302 14.4448 36.5551 13.8445C36.5783 13.8413 36.6016 13.8396 36.625 13.8396C37.526 13.8396 38.3711 14.2405 39.124 14.8219C39.879 15.4051 40.579 16.1984 41.2016 17.0564C42.124 18.3277 42.905 19.7808 43.464 21.0041C45.2069 15.9418 45.2503 12.0438 44.3131 9.12863C43.3069 5.99919 41.1501 3.93722 38.6017 2.75243C36.0438 1.56318 33.0992 1.26353 30.5722 1.67345ZM44.1456 22.0704C46.1898 16.5174 46.335 12.1503 45.2651 8.82255C44.1618 5.39118 41.7874 3.13076 39.0233 1.84564C36.2687 0.564964 33.1195 0.247173 30.4121 0.686351C27.8491 1.10211 25.5735 2.21826 24.4631 3.96449C21.275 4.05595 17.9565 5.66969 16.2641 8.775C14.5613 11.8992 14.5754 16.3949 17.7752 22.1082C16.7651 22.6053 15.5 23.8142 15.5 26.072C15.5 27.5023 16.2329 28.5119 17.1044 29.172C17.8203 29.7142 18.6466 30.0368 19.2997 30.1947C19.6712 32.7657 21.0825 36.7627 24.3124 39.227L22.4687 44.848L15.8929 47.801H13.5C6.32603 47.801 0.5 53.5483 0.5 60.6505V69C0.5 71.4853 2.51472 73.5 5 73.5H57C59.4853 73.5 61.5 71.4853 61.5 69V60.6505C61.5 53.5483 55.674 47.801 48.5 47.801H46.1071L39.5313 44.848L37.6876 39.227C40.9175 36.7627 42.3288 32.7657 42.7003 30.1947C43.3534 30.0368 44.1797 29.7142 44.8956 29.172C45.7671 28.5119 46.5 27.5023 46.5 26.072C46.5 23.7548 45.1674 22.5424 44.1456 22.0704ZM36.8288 39.8174C35.2599 40.7841 33.3339 41.3913 31 41.3913C28.6661 41.3913 26.7401 40.7841 25.1712 39.8174L23.3877 45.255L24.5663 52.7408H37.4337L38.6123 45.255L36.8288 39.8174ZM39.5171 45.9379L35.6082 70.7644L45.3585 55.7798L43.1486 53.5965C42.9941 53.4439 42.9558 53.2089 43.0539 53.0151L45.3174 48.5426L39.5171 45.9379ZM46.3073 48.801L44.1107 53.1413L46.3514 55.355C46.5203 55.5219 46.5486 55.7845 46.4191 55.9834L35.6719 72.5H57C58.933 72.5 60.5 70.933 60.5 69V60.6505C60.5 54.8149 56.2252 49.9573 50.5905 48.9801C51.0251 49.4329 51.443 50.0123 51.8164 50.7142C52.7403 52.4505 53.4396 55.0104 53.4963 58.5349C55.1942 58.7759 56.5 60.2355 56.5 62C56.5 63.933 54.933 65.5 53 65.5C51.067 65.5 49.5 63.933 49.5 62C49.5 60.2381 50.8019 58.7802 52.4962 58.536C52.4397 55.1391 51.7655 52.7474 50.9336 51.1839C50.0631 49.5479 49.0666 48.8911 48.4663 48.801H46.3073ZM34.3226 72.5H27.6774L24.7238 53.7408H37.2762L34.3226 72.5ZM26.3918 70.7644L22.4829 45.9379L16.6826 48.5426L18.9461 53.0151C19.0442 53.2089 19.0059 53.4439 18.8514 53.5965L16.6415 55.7798L26.3918 70.7644ZM15.6927 48.801H13.5328C12.2279 48.985 9.00712 50.9666 8.81736 57.6718C10.5049 57.3826 11.9042 57.9037 13.0135 58.9683C14.2296 60.1355 15.0755 61.9311 15.6529 63.9332C15.6898 64.0612 15.6741 64.1986 15.6094 64.3149C15.5446 64.4313 15.4362 64.517 15.308 64.5531L12.9037 65.2299L12.6327 64.2673L14.5462 63.7287C14.0006 62.0117 13.2646 60.5954 12.3211 59.6898C11.3221 58.731 10.072 58.3225 8.44408 58.7808C6.8167 59.2389 5.97511 60.2355 5.63862 61.5667C5.31996 62.8274 5.45053 64.4157 5.90428 66.1615L7.8241 65.621L8.09508 66.5836L5.69079 67.2605C5.42618 67.335 5.15106 67.1819 5.07488 66.9177C4.49755 64.916 4.25787 62.9487 4.66911 61.3217C5.06498 59.7555 6.05859 58.5366 7.8115 57.9312C7.88592 53.2439 9.37946 50.4949 10.961 49.0667C5.54957 50.2174 1.5 54.9708 1.5 60.6505V69C1.5 70.933 3.067 72.5 5 72.5H26.3281L15.5809 55.9834C15.4514 55.7845 15.4797 55.5219 15.6486 55.355L17.8893 53.1413L15.6927 48.801ZM23.454 10.7891C20.9972 12.9664 19 16.6184 19 22.3674C19 22.5974 18.8431 22.7977 18.6198 22.8528C17.9609 23.0155 16.5 23.8789 16.5 26.072C16.5 27.1115 17.0171 27.8514 17.7081 28.3748C18.4115 28.9076 19.2684 29.1908 19.8312 29.2834C20.0521 29.3198 20.2219 29.4985 20.2469 29.7209C20.5238 32.1835 21.9064 36.3034 25.1895 38.631C26.6846 39.691 28.5883 40.3913 31 40.3913C33.4117 40.3913 35.3154 39.691 36.8105 38.631C40.0936 36.3034 41.4762 32.1835 41.7531 29.7209C41.7781 29.4985 41.9479 29.3198 42.1688 29.2834C42.7316 29.1908 43.5885 28.9076 44.2919 28.3748C44.9829 27.8514 45.5 27.1115 45.5 26.072C45.5 23.8789 44.0391 23.0155 43.3802 22.8528C43.2222 22.8138 43.0931 22.7004 43.0341 22.5488C42.5241 21.2388 41.5741 19.2725 40.3922 17.6437C39.8012 16.8292 39.1653 16.1173 38.5127 15.6134C37.87 15.117 37.2472 14.8495 36.6579 14.8399C32.1794 15.4634 28.8015 14.3748 26.5383 13.1169C25.4061 12.4876 24.5552 11.8174 23.985 11.3018C23.7674 11.1051 23.5904 10.9306 23.454 10.7891ZM53 59.5C51.6193 59.5 50.5 60.6193 50.5 62C50.5 63.3807 51.6193 64.5 53 64.5C54.3807 64.5 55.5 63.3807 55.5 62C55.5 60.6193 54.3807 59.5 53 59.5Z" fill="white"/>
</svg>
