<svg width="62" height="74" viewBox="0 0 62 74" fill="none" xmlns="http://www.w3.org/2000/svg">
<path d="M43.5 22.7928C44.3333 22.9985 46 24.0274 46 26.4973C46 28.9672 43.5 29.9963 42.25 30.2022C41.9644 32.742 40.5429 37.0231 37.0997 39.4643M43.5 22.7928C43.5 22.7928 47.25 4.4253 41 4.4253C24.9003 -6.57476 20.5 12.9253 15.5 7.4253C12 16.9253 18.5 22.7928 18.5 22.7928M43.5 22.7928C43.5 16.6297 41.248 13.7583 38.5 11.5192C38.5 11.5192 34.125 15.9999 25.375 14.765C22.375 14.765 19.5417 20.1168 18.5 22.7928M37.0997 39.4643C35.5203 40.584 33.5156 41.3167 31 41.3167C28.4844 41.3167 26.4797 40.584 24.9003 39.4643M37.0997 39.4643L39.125 45.639M39.125 45.639C39.125 45.639 61 55.2554 61 62.0759M39.125 45.639C38.25 46.5678 35.4 48.4253 31 48.4253C26.6 48.4253 23.75 46.5678 22.875 45.639M61 62.0759V69.4254C61 71.6345 59.2091 73.4254 57 73.4254H31H5C2.79086 73.4254 1 71.6345 1 69.4254V62.0759M61 62.0759H48.5L46 56.4253L43 68.4253L39 52.4253L36 62.0759H26L23.875 55.4253L20.5 68.4253L17.5 57.4253L16 62.0759H1M18.5 22.7928C17.6667 22.9985 16 24.0274 16 26.4973C16 28.9672 18.5 29.9963 19.75 30.2022C20.0356 32.742 21.4571 37.0231 24.9003 39.4643M24.9003 39.4643L22.875 45.639M22.875 45.639C22.875 45.639 1 55.2554 1 62.0759" stroke="#6531A2" stroke-linejoin="round"/>
</svg>
