<svg width="72" height="56" viewBox="0 0 72 56" fill="none" xmlns="http://www.w3.org/2000/svg">
<path fill-rule="evenodd" clip-rule="evenodd" d="M58 5H14C9.02944 5 5 9.02944 5 14V17H67V14C67 9.02944 62.9706 5 58 5ZM68 14C68 8.47715 63.5228 4 58 4H14C8.47715 4 4 8.47715 4 14V18H68V14ZM14 51H58C62.9706 51 67 46.9706 67 42V25H5V42C5 46.9706 9.02944 51 14 51ZM58 52H14C8.47715 52 4 47.5228 4 42V24H68V42C68 47.5228 63.5228 52 58 52Z" fill="#6531A2"/>
<path fill-rule="evenodd" clip-rule="evenodd" d="M14.5 46C16.9853 46 19 43.9853 19 41.5C19 39.0147 16.9853 37 14.5 37C12.0147 37 10 39.0147 10 41.5C10 43.9853 12.0147 46 14.5 46ZM14.5 47C17.5376 47 20 44.5376 20 41.5C20 38.4624 17.5376 36 14.5 36C11.4624 36 9 38.4624 9 41.5C9 44.5376 11.4624 47 14.5 47Z" fill="#6531A2"/>
<path fill-rule="evenodd" clip-rule="evenodd" d="M24.5 46C26.9853 46 29 43.9853 29 41.5C29 39.0147 26.9853 37 24.5 37C22.0147 37 20 39.0147 20 41.5C20 43.9853 22.0147 46 24.5 46ZM24.5 47C27.5376 47 30 44.5376 30 41.5C30 38.4624 27.5376 36 24.5 36C21.4624 36 19 38.4624 19 41.5C19 44.5376 21.4624 47 24.5 47Z" fill="#6531A2"/>
<path fill-rule="evenodd" clip-rule="evenodd" d="M71.3054 54.6041L1.30542 0.604126L0.694611 1.39591L70.6946 55.3959L71.3054 54.6041Z" fill="#6531A2"/>
</svg>
