<svg width="27" height="27" viewBox="0 0 27 27" fill="none" xmlns="http://www.w3.org/2000/svg">
<path d="M24 17C26.1327 17 27 15 26 13" stroke="#6531A2" stroke-linecap="round" stroke-linejoin="round"/>
<path d="M9.88268 9.69702L10.0684 9.84342L10.2994 9.7927C11.1614 9.60343 12.0665 9.5 13 9.5C15.946 9.5 18.5904 10.3493 20.4855 11.7179C22.3793 13.0855 23.5 14.9477 23.5 17C23.5 19.0883 22.5754 20.5966 21.6359 21.5948C21.1654 22.0947 20.6943 22.4628 20.3417 22.7052C20.1658 22.8261 20.0205 22.915 19.9209 22.9728C19.8712 23.0017 19.8329 23.0227 19.8082 23.036L19.7814 23.0502L19.7764 23.0528L19.7761 23.0529L19.776 23.053L19.7758 23.0531L19.7755 23.0532L19.5 23.191V23.5V26.5H16.5V24V23.5H16H10H9.5V24V26.5H6.5V23V22.729L6.27299 22.5811C5.06027 21.7908 4.08029 20.7734 3.42266 19.7329L3.27548 19.5H3H0.5V14.5H3H3.27548L3.42266 14.2671C4.04414 13.2838 5.13807 12.1885 6.28059 11.4138L6.5 11.2651V11V7.03075L9.88268 9.69702ZM17.5 3.5C17.5 5.15685 16.1569 6.5 14.5 6.5C12.8431 6.5 11.5 5.15685 11.5 3.5C11.5 1.84315 12.8431 0.5 14.5 0.5C16.1569 0.5 17.5 1.84315 17.5 3.5Z" stroke="#6531A2" stroke-linecap="round"/>
<circle cx="7" cy="16" r="1" fill="#6531A2"/>
<rect x="11" y="13" width="7" height="1" rx="0.5" fill="#6531A2"/>
</svg>
