<svg width="32" height="32" viewBox="0 0 32 32" fill="none" xmlns="http://www.w3.org/2000/svg">
<g opacity="0.12">
<path d="M22.465 0H9.535C7.00697 0.00264715 4.58325 1.00807 2.79566 2.79566C1.00807 4.58325 0.00264715 7.00697 0 9.535L0 22.465C0.00264715 24.993 1.00807 27.4168 2.79566 29.2043C4.58325 30.9919 7.00697 31.9974 9.535 32H22.465C24.993 31.9974 27.4168 30.9919 29.2043 29.2043C30.9919 27.4168 31.9974 24.993 32 22.465V9.535C31.9974 7.00697 30.9919 4.58325 29.2043 2.79566C27.4168 1.00807 24.993 0.00264715 22.465 0ZM28.78 22.465C28.78 24.1398 28.1147 25.7461 26.9304 26.9304C25.7461 28.1147 24.1398 28.78 22.465 28.78H9.535C7.86016 28.78 6.25391 28.1147 5.06962 26.9304C3.88533 25.7461 3.22 24.1398 3.22 22.465V9.535C3.22 7.86016 3.88533 6.25391 5.06962 5.06962C6.25391 3.88533 7.86016 3.22 9.535 3.22H22.465C24.1398 3.22 25.7461 3.88533 26.9304 5.06962C28.1147 6.25391 28.78 7.86016 28.78 9.535V22.465Z" fill="#6531A2"/>
<path d="M22.5651 8.67497L7.75508 13.945C7.65694 13.9773 7.56891 14.0346 7.49965 14.1113C7.43039 14.188 7.38229 14.2814 7.36009 14.3823C7.33789 14.4832 7.34235 14.5881 7.37303 14.6868C7.40372 14.7855 7.45956 14.8745 7.53508 14.945L11.4101 18.82L17.4101 14.595L13.1851 20.595L17.0601 24.47C17.1306 24.5455 17.2196 24.6013 17.3182 24.632C17.4169 24.6627 17.5219 24.6672 17.6228 24.645C17.7237 24.6228 17.8171 24.5747 17.8938 24.5054C17.9704 24.4362 18.0278 24.3481 18.0601 24.25L23.3251 9.43498C23.3628 9.32896 23.3697 9.21443 23.3449 9.10466C23.3202 8.9949 23.2648 8.8944 23.1852 8.81484C23.1057 8.73527 23.0052 8.6799 22.8954 8.65514C22.7856 8.63039 22.6711 8.63726 22.5651 8.67497Z" fill="#6531A2"/>
</g>
</svg>
