<svg width="32" height="32" viewBox="0 0 32 32" fill="none" xmlns="http://www.w3.org/2000/svg">
<g opacity="0.12">
<path d="M22.465 0H9.535C7.00697 0.00264715 4.58325 1.00807 2.79566 2.79566C1.00807 4.58325 0.00264715 7.00697 0 9.535L0 22.465C0.00264715 24.993 1.00807 27.4168 2.79566 29.2043C4.58325 30.9919 7.00697 31.9974 9.535 32H22.465C24.993 31.9974 27.4168 30.9919 29.2043 29.2043C30.9919 27.4168 31.9974 24.993 32 22.465V9.535C31.9974 7.00697 30.9919 4.58325 29.2043 2.79566C27.4168 1.00807 24.993 0.00264715 22.465 0ZM28.78 22.465C28.78 24.1398 28.1147 25.7461 26.9304 26.9304C25.7461 28.1147 24.1398 28.78 22.465 28.78H9.535C7.86016 28.78 6.25391 28.1147 5.06962 26.9304C3.88533 25.7461 3.22 24.1398 3.22 22.465V9.535C3.22 7.86016 3.88533 6.25391 5.06962 5.06962C6.25391 3.88533 7.86016 3.22 9.535 3.22H22.465C24.1398 3.22 25.7461 3.88533 26.9304 5.06962C28.1147 6.25391 28.78 7.86016 28.78 9.535V22.465Z" fill="#6531A2"/>
<path d="M25.2249 9.27501C24.4811 9.71554 23.6678 10.0266 22.8199 10.195C22.2498 9.58399 21.4937 9.17854 20.6693 9.04173C19.8448 8.90493 18.9983 9.04444 18.2614 9.43857C17.5245 9.83269 16.9385 10.4593 16.5946 11.221C16.2507 11.9826 16.1682 12.8366 16.3599 13.65C14.854 13.5739 13.381 13.1821 12.0364 12.4998C10.6917 11.8176 9.50559 10.8603 8.55489 9.69001C8.07023 10.5242 7.92144 11.5116 8.13878 12.4515C8.35611 13.3914 8.92325 14.2133 9.72489 14.75C9.12155 14.7224 8.53355 14.551 8.00989 14.25V14.295C8.0099 15.17 8.31266 16.018 8.86677 16.6951C9.42088 17.3723 10.1922 17.8369 11.0499 18.01C10.724 18.0989 10.3877 18.1443 10.0499 18.145C9.80983 18.1453 9.57033 18.1219 9.33489 18.075C9.57681 18.8279 10.0482 19.4863 10.683 19.9579C11.3178 20.4295 12.0842 20.6908 12.8749 20.705C11.5328 21.7577 9.87558 22.3283 8.16989 22.325C7.86753 22.3253 7.56538 22.3087 7.26489 22.275C8.99508 23.3974 11.0125 23.9964 13.0749 24C20.0399 24 23.8499 18.23 23.8499 13.22V12.72C24.5946 12.1883 25.2367 11.5259 25.7449 10.765C25.0537 11.0709 24.3205 11.2715 23.5699 11.36C24.3546 10.887 24.9423 10.1466 25.2249 9.27501Z" fill="#6531A2"/>
</g>
</svg>
