<svg width="62" height="74" viewBox="0 0 62 74" fill="none" xmlns="http://www.w3.org/2000/svg">
<path d="M53 59C51.3431 59 50 60.3431 50 62C50 63.6569 51.3431 65 53 65C54.6569 65 56 63.6569 56 62C56 60.3431 54.6569 59 53 59ZM53 59C53 51.5903 50.1667 48.5069 48.5 48.3011M18.5 22.3674C17.6667 22.5731 16 23.6021 16 26.072C16 28.5419 18.5 29.571 19.75 29.7768C20.0356 32.3167 21.4571 36.5977 24.9003 39.0389M18.5 22.3674C11.625 10.6351 18.5 4.46039 24.75 4.46039C28.5 -2.33205 52.25 -0.479746 43.5 22.3674M18.5 22.3674C18.5 16.2043 20.752 12.3329 23.5 10.0939C23.5 10.0939 27.875 15.5746 36.625 14.3396C39.625 14.3396 42.4583 19.6915 43.5 22.3674M24.9003 39.0389C26.4797 40.1587 28.4844 40.8914 31 40.8914C33.5156 40.8914 35.5203 40.1587 37.0997 39.0389M24.9003 39.0389L22.875 45.2137M22.875 45.2137L16 48.3011M22.875 45.2137L24.1389 53.2409M27.25 73H5C2.79086 73 1 71.2092 1 69V60.6505C1 53.8301 6.59644 48.3011 13.5 48.3011M27.25 73L16 55.7107L18.5 53.2409L16 48.3011M27.25 73L24.1389 53.2409M27.25 73H34.75M13.5 48.3011H16M13.5 48.3011C11.8333 48.5069 8.30859 50.8898 8.30859 58.2995M24.1389 53.2409H37.8611M8.30859 58.2995C4.70215 59.3148 4.42019 62.8436 5.5553 66.7792L7.95959 66.1024M8.30859 58.2995C11.915 57.2842 14.0374 60.1362 15.1725 64.0718L12.7682 64.7487M43.5 22.3674C44.3333 22.5731 46 23.6021 46 26.072C46 28.5419 43.5 29.571 42.25 29.7768C41.9644 32.3167 40.5429 36.5977 37.0997 39.0389M37.0997 39.0389L39.125 45.2137M39.125 45.2137L46 48.3011M39.125 45.2137L37.8611 53.2409M34.75 73H57C59.2091 73 61 71.2092 61 69V60.6505C61 53.8301 55.4036 48.3011 48.5 48.3011M34.75 73L46 55.7107L43.5 53.2409L46 48.3011M34.75 73L37.8611 53.2409M48.5 48.3011H46" stroke="white" stroke-linejoin="round"/>
</svg>
