<svg width="32" height="32" viewBox="0 0 32 32" fill="none" xmlns="http://www.w3.org/2000/svg">
<path d="M22.465 0H9.535C7.00697 0.00264715 4.58325 1.00807 2.79566 2.79566C1.00807 4.58325 0.00264715 7.00697 0 9.535V22.465C0.00264715 24.993 1.00807 27.4168 2.79566 29.2043C4.58325 30.9919 7.00697 31.9974 9.535 32H22.465C24.993 31.9974 27.4168 30.9919 29.2043 29.2043C30.9919 27.4168 31.9974 24.993 32 22.465V9.535C31.9974 7.00697 30.9919 4.58325 29.2043 2.79566C27.4168 1.00807 24.993 0.00264715 22.465 0ZM28.78 22.465C28.78 24.1398 28.1147 25.7461 26.9304 26.9304C25.7461 28.1147 24.1398 28.78 22.465 28.78H9.535C7.86016 28.78 6.25391 28.1147 5.06962 26.9304C3.88533 25.7461 3.22 24.1398 3.22 22.465V9.535C3.22 7.86016 3.88533 6.25391 5.06962 5.06962C6.25391 3.88533 7.86016 3.22 9.535 3.22H22.465C24.1398 3.22 25.7461 3.88533 26.9304 5.06962C28.1147 6.25391 28.78 7.86016 28.78 9.535V22.465Z" fill="#59D4DC"/>
<path d="M25.735 11.04H22.94C22.7951 11.0401 22.6546 11.0898 22.5418 11.1807C22.4291 11.2717 22.3508 11.3984 22.32 11.54C21.955 12.96 20.71 17.085 18.42 17.505C18.3738 17.513 18.3264 17.5108 18.2811 17.4987C18.2358 17.4866 18.1936 17.4648 18.1575 17.4349C18.1214 17.405 18.0922 17.3676 18.0719 17.3253C18.0517 17.2831 18.0408 17.2369 18.04 17.19V11.385C18.04 11.2153 17.9726 11.0525 17.8525 10.9325C17.7325 10.8124 17.5697 10.745 17.4 10.745H13.465C13.4029 10.7433 13.3416 10.7598 13.2887 10.7923C13.2357 10.8249 13.1934 10.8722 13.1669 10.9284C13.1404 10.9846 13.1308 11.0473 13.1394 11.1088C13.1479 11.1704 13.1742 11.2281 13.215 11.275C13.7233 11.9024 13.9862 12.6932 13.955 13.5V17.15C13.9545 17.1979 13.9434 17.2451 13.9225 17.2882C13.9016 17.3313 13.8715 17.3693 13.8342 17.3994C13.7969 17.4295 13.7535 17.451 13.7069 17.4623C13.6604 17.4737 13.6119 17.4746 13.565 17.465C11.28 17.035 10.04 12.92 9.67499 11.5C9.64419 11.3584 9.5659 11.2317 9.45313 11.1407C9.34035 11.0498 9.19987 11.0001 9.05499 11H6.26499C6.16901 10.9999 6.07424 11.0214 5.9877 11.063C5.90116 11.1045 5.82506 11.1649 5.76504 11.2398C5.70503 11.3147 5.66263 11.4022 5.64098 11.4957C5.61933 11.5892 5.61899 11.6864 5.63999 11.78C6.24499 14.43 8.74499 22.905 16 22.905H17.4C17.484 22.905 17.5673 22.8885 17.6449 22.8563C17.7226 22.8241 17.7931 22.777 17.8525 22.7176C17.912 22.6581 17.9591 22.5876 17.9913 22.5099C18.0234 22.4323 18.04 22.3491 18.04 22.265V21.44C18.0389 21.3108 18.0768 21.1843 18.149 21.0771C18.2211 20.9699 18.324 20.887 18.4441 20.8394C18.5642 20.7918 18.696 20.7817 18.8219 20.8103C18.9479 20.839 19.0623 20.9051 19.15 21L20.38 22.325C20.5593 22.5186 20.7767 22.6731 21.0184 22.7789C21.2601 22.8847 21.5211 22.9396 21.785 22.94H25.785C25.8451 22.936 25.9028 22.9151 25.9516 22.8797C26.0003 22.8443 26.0381 22.7959 26.0605 22.74C26.083 22.6842 26.0892 22.6231 26.0785 22.5638C26.0678 22.5045 26.0406 22.4495 26 22.405L23.05 19.225C25.075 16.605 26.005 13.295 26.34 11.815C26.3598 11.7233 26.3593 11.6284 26.3383 11.537C26.3174 11.4455 26.2767 11.3598 26.2189 11.2859C26.1612 11.2119 26.0879 11.1516 26.0043 11.1091C25.9207 11.0666 25.8287 11.043 25.735 11.04Z" fill="#59D4DC"/>
</svg>
