<svg width="166" height="51" viewBox="0 0 166 51" fill="none" xmlns="http://www.w3.org/2000/svg">
<path d="M66.305 31V20.5H73.715L73.7 22.48H68.15L68.705 21.925L68.72 31H66.305ZM75.1966 31V20.5H77.6116V27.34L82.6216 20.5H84.9016V31H82.5016V24.175L77.4916 31H75.1966ZM87.5159 31V20.5H97.0859V31H94.6709V21.925L95.2259 22.48H89.3759L89.9309 21.925V31H87.5159ZM99.6888 31V20.5H109.259V31H106.844V21.925L107.399 22.48H101.549L102.104 21.925V31H99.6888ZM116.887 31.18C116.057 31.18 115.287 31.045 114.577 30.775C113.877 30.505 113.267 30.125 112.747 29.635C112.237 29.145 111.837 28.57 111.547 27.91C111.267 27.25 111.127 26.53 111.127 25.75C111.127 24.97 111.267 24.25 111.547 23.59C111.837 22.93 112.242 22.355 112.762 21.865C113.282 21.375 113.892 20.995 114.592 20.725C115.292 20.455 116.052 20.32 116.872 20.32C117.702 20.32 118.462 20.455 119.152 20.725C119.852 20.995 120.457 21.375 120.967 21.865C121.487 22.355 121.892 22.93 122.182 23.59C122.472 24.24 122.617 24.96 122.617 25.75C122.617 26.53 122.472 27.255 122.182 27.925C121.892 28.585 121.487 29.16 120.967 29.65C120.457 30.13 119.852 30.505 119.152 30.775C118.462 31.045 117.707 31.18 116.887 31.18ZM116.872 29.11C117.342 29.11 117.772 29.03 118.162 28.87C118.562 28.71 118.912 28.48 119.212 28.18C119.512 27.88 119.742 27.525 119.902 27.115C120.072 26.705 120.157 26.25 120.157 25.75C120.157 25.25 120.072 24.795 119.902 24.385C119.742 23.975 119.512 23.62 119.212 23.32C118.922 23.02 118.577 22.79 118.177 22.63C117.777 22.47 117.342 22.39 116.872 22.39C116.402 22.39 115.967 22.47 115.567 22.63C115.177 22.79 114.832 23.02 114.532 23.32C114.232 23.62 113.997 23.975 113.827 24.385C113.667 24.795 113.587 25.25 113.587 25.75C113.587 26.24 113.667 26.695 113.827 27.115C113.997 27.525 114.227 27.88 114.517 28.18C114.817 28.48 115.167 28.71 115.567 28.87C115.967 29.03 116.402 29.11 116.872 29.11ZM131.284 31L128.014 25.945L129.979 24.76L134.044 31H131.284ZM124.459 31V20.5H126.874V31H124.459ZM126.169 26.77V24.745H129.829V26.77H126.169ZM130.204 26.02L127.969 25.75L131.374 20.5H133.939L130.204 26.02ZM135.182 31V20.5H139.727C140.667 20.5 141.477 20.655 142.157 20.965C142.837 21.265 143.362 21.7 143.732 22.27C144.102 22.84 144.287 23.52 144.287 24.31C144.287 25.09 144.102 25.765 143.732 26.335C143.362 26.905 142.837 27.345 142.157 27.655C141.477 27.955 140.667 28.105 139.727 28.105H136.532L137.612 27.01V31H135.182ZM137.612 27.28L136.532 26.125H139.592C140.342 26.125 140.902 25.965 141.272 25.645C141.642 25.325 141.827 24.88 141.827 24.31C141.827 23.73 141.642 23.28 141.272 22.96C140.902 22.64 140.342 22.48 139.592 22.48H136.532L137.612 21.325V27.28ZM144.178 31L148.858 20.5H151.258L155.953 31H153.403L149.563 21.73H150.523L146.668 31H144.178ZM146.518 28.75L147.163 26.905H152.563L153.223 28.75H146.518ZM159.083 31V21.925L159.638 22.48H155.738V20.5H164.843V22.48H160.943L161.483 21.925V31H159.083Z" fill="white"/>
<path d="M31.375 3L25.125 2.625H22.125C22.025 2.625 18 4.375 16 5.25L12.5 8.875L10.125 14.375L9.625 20.125L7.5 21.875V25.375L9.625 28.75L12.75 30.75V36.75L14.75 39.125L15.75 41.25L18.375 43.875L21.125 44.875L22.625 46.75L24.25 47.625L25.75 48.75L29.5 49.5L33 48L35.125 46.625L36 44.75L37 44L38.5 40.125L39.875 36.375L39.75 33.5L40.5 30L39.75 27L40.5 24.875L41.375 19.125L39.75 11.5L37.875 6.75L31.375 3Z" fill="white"/>
<path d="M40.7048 40.9548C30.2196 51.4399 15.1211 52.8117 6.94889 44.6395C-1.22335 36.4672 0.148494 21.3687 10.6336 10.8836C21.1187 0.398501 36.2172 -0.973343 44.3895 7.1989C52.5617 15.3711 51.1899 30.4696 40.7048 40.9548Z" stroke="white" stroke-width="2"/>
<path d="M9.72231 20.2651C8.5109 20.3439 7.24328 21.4642 7.37923 24.0582C7.63017 28.8464 12.996 30.6363 12.996 30.6363C11.2501 37.4912 15.5001 39.7412 15.5001 39.7412C15.5001 44.4912 21.5001 44.7412 21.5001 44.7412C21.5001 47.8792 25.291 47.8792 25.291 47.8792C28.3183 51.0344 31.1972 49.2015 32.2582 47.8906C32.2582 47.8906 36.0001 48.1162 36.0001 44.4912C36.0001 44.4912 38.5 42.875 38.5 39.7412C38.5 39.7412 40.875 37.25 39.5001 33.4912C41.3751 30.1162 39.8656 26.6052 39.8656 26.6052C39.8656 26.6052 41.0808 24.0582 41.0808 20.9312M9.72231 20.2651C10.7469 20.1983 11.9227 21.0614 11.9835 22.2229M9.72231 20.2651C9.54614 16.9035 10.176 12.3849 12.8264 8.70982C15.2844 5.30135 19.471 2.25658 26.3833 2.25658C43.2501 2.25658 41.0808 20.9312 41.0808 20.9312M41.0808 20.9312C41.0808 20.9312 37.0207 20.2177 31.8688 21.342L33.7305 31.146C33.948 32.2913 33.1656 33.4709 32.0001 33.4912L28.7501 33.4912C26.7501 33.4912 27.0001 31.396 27.0001 31.396M28.2028 21.406C23.2934 20.2693 18.9912 21.3168 18.9912 21.3168M26.25 38L33.25 38" stroke="#6531A2" stroke-width="1.5" stroke-linecap="round" stroke-linejoin="round"/>
<path d="M12.8264 8.7186C16.3705 10.604 15.0437 14.6276 13.7503 16.2958C15.071 17.5446 17.228 20.8584 15.2903 24.1231C16.4381 25.0672 18.4598 27.478 17.3644 29.5689C21.125 30.625 20.0352 35.431 20.0352 35.431C22.625 33.5 24.375 35.5 24.375 35.5C24.375 35.5 26.25 33.75 30.0625 33.75C33.875 33.75 35.25 35.5 35.25 35.5C35.25 35.5 36.5 33.125 39.5 33.5M21.0036 15.997C24.0084 14.0508 28.0053 16.6656 30.3524 16.5426C32.6996 16.4196 35.0422 14.414 38.3179 15.8427M23.3369 11.9917C25.4918 10.6715 28.3547 12.4397 30.0371 12.3547C31.7194 12.2698 33.3998 10.9099 35.7466 11.8753M9.75 23.25C9.75 25.15 10.625 27.5 12.25 27.5C14 27.5 14 25.25 12.25 25.25M23.25 41.25C23.25 41.25 21.75 42.25 21.75 44.75M15.75 39.75C15.75 37.875 17 36.375 17 36.375M35.75 44.75C35.75 42.95 34.9167 41.6667 34.5 41.25" stroke="#6531A2" stroke-linecap="round" stroke-linejoin="round"/>
<path d="M23.0841 23.3847C22.9008 23.7022 22.7957 24.0947 22.8031 24.5179C22.8213 25.5562 23.5093 26.3862 24.34 26.3717C25.1706 26.3572 25.8293 25.5037 25.8111 24.4654C25.8037 24.0422 25.6851 23.6536 25.4908 23.3427L23.0841 23.3847Z" fill="#6531A2"/>
<path d="M34.7401 23.1812C34.5568 23.4987 34.4517 23.8912 34.4591 24.3145C34.4773 25.3528 35.1653 26.1827 35.9959 26.1682C36.8266 26.1537 37.4853 25.3003 37.4671 24.262C37.4597 23.8387 37.341 23.4501 37.1468 23.1392L34.7401 23.1812Z" fill="#6531A2"/>
</svg>
