<svg width="16" height="16" viewBox="0 0 16 16" fill="none" xmlns="http://www.w3.org/2000/svg">
<path d="M15.842 10.104L14.1071 8.78C14.14 8.52399 14.1647 8.264 14.1647 8C14.1647 7.736 14.14 7.47601 14.1071 7.22L15.8461 5.89598C16.0024 5.77598 16.0476 5.55998 15.9448 5.384L14.3003 2.61199C14.1975 2.43998 13.9838 2.36798 13.7988 2.43998L11.7514 3.24398C11.328 2.92797 10.8634 2.65999 10.3619 2.45599L10.0535 0.336001C10.0165 0.148013 9.84796 0 9.64241 0H6.3535C6.14796 0 5.97938 0.148013 5.9465 0.336001L5.63816 2.45599C5.13662 2.65999 4.67203 2.92399 4.24861 3.24398L2.20125 2.43998C2.01625 2.37199 1.80246 2.43998 1.6997 2.61199L0.0551926 5.384C-0.0475991 5.55601 -0.0023507 5.77201 0.15386 5.89598L1.88875 7.22C1.85588 7.47601 1.83121 7.736 1.83121 8C1.83121 8.264 1.85588 8.52399 1.88875 8.78L0.15386 10.104C-0.0023507 10.224 -0.0475991 10.44 0.0551926 10.616L1.69967 13.388C1.80246 13.56 2.01621 13.632 2.20121 13.56L4.24857 12.756C4.67203 13.072 5.13658 13.34 5.63812 13.544L5.94646 15.664C5.97934 15.852 6.14792 16 6.35347 16H9.64237C9.84792 16 10.0165 15.852 10.0494 15.664L10.3577 13.544C10.8593 13.34 11.3238 13.076 11.7473 12.756L13.7946 13.56C13.9796 13.628 14.1934 13.56 14.2962 13.388L15.9406 10.616C16.0435 10.444 15.9982 10.228 15.842 10.104ZM7.99794 10.8C6.40692 10.8 5.12012 9.548 5.12012 8C5.12012 6.452 6.40692 5.20002 7.99794 5.20002C9.58895 5.20002 10.8758 6.45204 10.8758 8.00004C10.8758 9.54804 9.58895 10.8 7.99794 10.8Z" fill="white"/>
</svg>
