<svg width="31" height="31" viewBox="0 0 31 31" fill="none" xmlns="http://www.w3.org/2000/svg">
<path d="M27.0701 15.8055C27.5009 16.2175 27.7708 16.7959 27.7708 17.4375C27.7708 18.5929 26.8986 19.5474 25.7784 19.6805C26.2092 20.0922 26.4792 20.6709 26.4792 21.3125C26.4792 22.4679 25.607 23.4224 24.4868 23.5555C24.9175 23.9672 25.1875 24.5459 25.1875 25.1875C25.1875 26.4336 24.1732 27.4479 22.9271 27.4479H20.9896H15.9837C14.1324 27.4479 12.3041 26.9626 10.6969 26.0439L10.3333 25.8362V12.3335C11.4403 11.1519 12.3173 9.76468 12.9021 8.24471L14.5571 3.9412C14.7954 3.32217 15.4012 2.90625 16.0641 2.90625H16.2001C17.1323 2.90625 17.9842 3.33637 18.538 4.08586C19.0915 4.83568 19.252 5.77633 18.9778 6.66694L17.68 10.8839C17.6493 10.983 17.6674 11.0873 17.7288 11.1707C17.7908 11.2543 17.8857 11.3021 17.989 11.3021H26.8021C28.0482 11.3021 29.0625 12.316 29.0625 13.5625C29.0625 14.7179 28.1903 15.6724 27.0701 15.8055ZM9.04167 12.2708V26.4792C9.04167 27.3694 8.31737 28.0938 7.42708 28.0938H3.55208C2.6618 28.0938 1.9375 27.3694 1.9375 26.4792V12.2708C1.9375 11.3806 2.6618 10.6562 3.55208 10.6562H7.42708C8.31737 10.6562 9.04167 11.3806 9.04167 12.2708ZM6.78125 24.5417C6.78125 23.8293 6.20194 23.25 5.48958 23.25C4.77723 23.25 4.19792 23.8293 4.19792 24.5417C4.19792 25.254 4.77723 25.8333 5.48958 25.8333C6.20194 25.8333 6.78125 25.254 6.78125 24.5417Z" fill="#FF9100"/>
</svg>
