<svg width="25" height="25" viewBox="0 0 25 25" fill="none" xmlns="http://www.w3.org/2000/svg">
<path d="M12.4999 24.9998C19.4033 24.9998 24.9997 19.4035 24.9997 12.5C24.9997 5.5965 19.4033 0.00012207 12.4999 0.00012207C5.59637 0.00012207 0 5.5965 0 12.5C0 19.4035 5.59637 24.9998 12.4999 24.9998Z" fill="#41B4E6"/>
<path d="M24.9994 12.5001C24.9994 12.1956 24.9879 11.8938 24.9666 11.5946L19.7859 6.41406L5.21289 12.1464L10.7886 17.7222L10.8618 17.9855L10.9564 17.89L10.9568 17.8904L10.8618 17.9855L17.0296 24.1533C21.6937 22.3389 24.9994 17.8058 24.9994 12.5001Z" fill="#0091C8"/>
<path d="M11.2855 14.3213L16.9345 18.5863L19.786 6.41406L5.21289 12.1464L9.64731 13.6152L17.7402 8.18672L11.2855 14.3213Z" fill="white"/>
<path d="M9.64844 13.6153L10.8629 17.9856L11.2866 14.3213L17.7414 8.18674L9.64844 13.6153Z" fill="#D2D2D7"/>
<path d="M13.1229 15.7074L10.8633 17.9855L11.287 14.3213L13.1229 15.7074Z" fill="#B9B9BE"/>
</svg>
