<svg width="31" height="31" viewBox="0 0 31 31" fill="none" xmlns="http://www.w3.org/2000/svg">
<path d="M15.4998 30.9996C24.0601 30.9996 30.9996 24.0601 30.9996 15.4998C30.9996 6.9395 24.0601 0 15.4998 0C6.9395 0 0 6.9395 0 15.4998C0 24.0601 6.9395 30.9996 15.4998 30.9996Z" fill="#FF9100"/>
<path d="M30.9992 15.4997C30.9992 15.1221 30.9849 14.7478 30.9584 14.3768L24.5344 7.953L6.46387 15.0611L13.3778 21.9751L13.4685 22.3016L13.5859 22.1832L13.5864 22.1837L13.4685 22.3016L21.1166 29.9497C26.9 27.6998 30.9992 22.0788 30.9992 15.4997Z" fill="#FF9100"/>
<path d="M13.53 17.805L20.5348 23.0936L24.0706 8L6 15.1081L11.4987 16.9295L21.5339 10.1981L13.53 17.805Z" fill="white"/>
<path d="M11.9629 16.8827L13.4689 22.3019L13.9942 17.7582L21.9981 10.1514L11.9629 16.8827Z" fill="#D2D2D7"/>
<path d="M16.2717 19.4769L13.4697 22.3017L13.9951 17.7581L16.2717 19.4769Z" fill="#B9B9BE"/>
</svg>
