<svg width="31" height="31" viewBox="0 0 31 31" fill="none" xmlns="http://www.w3.org/2000/svg">
<path d="M15.5039 0H15.4961C6.94981 0 0 6.95175 0 15.5C0 18.8906 1.09275 22.0333 2.95081 24.5849L1.01913 30.3432L6.97694 28.4386C9.42788 30.0623 12.3516 31 15.5039 31C24.0502 31 31 24.0463 31 15.5C31 6.95369 24.0502 0 15.5039 0Z" fill="#FF9100"/>
<path d="M24.5245 21.888C24.1506 22.9439 22.6665 23.8197 21.4827 24.0754C20.6728 24.2479 19.6149 24.3854 16.0538 22.909C11.4987 21.0219 8.56534 16.3932 8.33672 16.0929C8.11778 15.7926 6.49609 13.642 6.49609 11.4177C6.49609 9.19348 7.62566 8.11042 8.08097 7.64542C8.45491 7.26373 9.07297 7.08936 9.66584 7.08936C9.85766 7.08936 10.0301 7.09904 10.1851 7.10679C10.6404 7.12617 10.869 7.15329 11.1693 7.87211C11.5433 8.77304 12.4539 10.9973 12.5624 11.2259C12.6728 11.4545 12.7833 11.7645 12.6283 12.0649C12.483 12.3749 12.3551 12.5124 12.1265 12.7759C11.8978 13.0394 11.6808 13.2409 11.4522 13.5238C11.243 13.7699 11.0066 14.0334 11.2701 14.4887C11.5336 14.9343 12.4442 16.4204 13.785 17.6139C15.5152 19.1542 16.9179 19.6463 17.4197 19.8555C17.7937 20.0105 18.2393 19.9737 18.5125 19.6831C18.8593 19.3092 19.2875 18.6892 19.7234 18.0789C20.0334 17.641 20.4248 17.5867 20.8355 17.7417C21.254 17.887 23.4686 18.9817 23.9239 19.2084C24.3792 19.437 24.6795 19.5455 24.79 19.7374C24.8985 19.9292 24.8985 20.8301 24.5245 21.888Z" fill="#FAFAFA"/>
</svg>
