<svg width="40" height="40" viewBox="0 0 40 40" fill="none" xmlns="http://www.w3.org/2000/svg">
<path d="M11.6666 12.5C16.269 12.5 19.9999 10.6345 19.9999 8.33335C19.9999 6.03217 16.269 4.16669 11.6666 4.16669C7.06421 4.16669 3.33325 6.03217 3.33325 8.33335C3.33325 10.6345 7.06421 12.5 11.6666 12.5Z" stroke="black" stroke-width="2.5" stroke-linejoin="round"/>
<path d="M3.33325 8.33331C3.33325 8.33331 3.33325 11.8655 3.33325 14.1666C3.33325 16.4678 7.06421 18.3333 11.6666 18.3333C16.2689 18.3333 19.9999 16.4678 19.9999 14.1666C19.9999 12.8036 19.9999 8.33331 19.9999 8.33331" stroke="black" stroke-width="2.5" stroke-linejoin="round"/>
<path d="M3.33325 14.1667C3.33325 14.1667 3.33325 17.6989 3.33325 20C3.33325 22.3012 7.06421 24.1667 11.6666 24.1667C16.2689 24.1667 19.9999 22.3012 19.9999 20C19.9999 18.637 19.9999 14.1667 19.9999 14.1667" stroke="black" stroke-width="2.5" stroke-linejoin="round"/>
<path d="M3.33325 20C3.33325 20 3.33325 23.5322 3.33325 25.8333C3.33325 28.1345 7.06421 30 11.6666 30C16.2689 30 19.9999 28.1345 19.9999 25.8333C19.9999 24.4703 19.9999 20 19.9999 20" stroke="black" stroke-width="2.5" stroke-linejoin="round"/>
<path d="M3.33325 25.8333C3.33325 25.8333 3.33325 29.3655 3.33325 31.6666C3.33325 33.9678 7.06421 35.8333 11.6666 35.8333C16.2689 35.8333 19.9999 33.9678 19.9999 31.6666C19.9999 30.3036 19.9999 25.8333 19.9999 25.8333" stroke="black" stroke-width="2.5" stroke-linejoin="round"/>
<path d="M28.3333 24.1666C32.9357 24.1666 36.6667 22.3012 36.6667 20C36.6667 17.6988 32.9357 15.8333 28.3333 15.8333C23.731 15.8333 20 17.6988 20 20C20 22.3012 23.731 24.1666 28.3333 24.1666Z" stroke="black" stroke-width="2.5" stroke-linejoin="round"/>
<path d="M20 20C20 20 20 23.5322 20 25.8333C20 28.1345 23.731 30 28.3333 30C32.9357 30 36.6667 28.1345 36.6667 25.8333C36.6667 24.4703 36.6667 20 36.6667 20" stroke="black" stroke-width="2.5" stroke-linejoin="round"/>
<path d="M20 25.8333C20 25.8333 20 29.3655 20 31.6666C20 33.9678 23.731 35.8333 28.3333 35.8333C32.9357 35.8333 36.6667 33.9678 36.6667 31.6666C36.6667 30.3036 36.6667 25.8333 36.6667 25.8333" stroke="black" stroke-width="2.5" stroke-linejoin="round"/>
</svg>
