<svg width="40" height="40" viewBox="0 0 40 40" fill="none" xmlns="http://www.w3.org/2000/svg">
<path d="M25.3682 4.16669C27.0051 4.16669 28.5542 4.53982 29.934 5.20508L27.2644 7.85559C25.7256 9.38344 25.7256 11.8606 27.2644 13.3884C28.8032 14.9163 31.2982 14.9163 32.8371 13.3884L35.2143 11.0281C35.615 12.1299 35.8334 13.3182 35.8334 14.5571C35.8334 20.2956 31.148 24.9475 25.3682 24.9475C23.9855 24.9475 22.6655 24.6814 21.4572 24.1978L10.8917 34.6878C9.35325 36.2152 6.859 36.2152 5.32057 34.6878C3.78214 33.1604 3.78214 30.6839 5.32057 29.1564L15.7937 18.7583C15.221 17.4737 14.9029 16.0523 14.9029 14.5571C14.9029 8.8186 19.5883 4.16669 25.3682 4.16669Z" stroke="black" stroke-width="2.5" stroke-linejoin="round"/>
</svg>
