<svg width="40" height="40" viewBox="0 0 40 40" fill="none" xmlns="http://www.w3.org/2000/svg">
<path fill-rule="evenodd" clip-rule="evenodd" d="M11.2501 26.6667C12.4007 26.6667 13.3334 25.7339 13.3334 24.5833C13.3334 23.4327 12.4007 22.5 11.2501 22.5C10.0995 22.5 9.16675 23.4327 9.16675 24.5833C9.16675 25.7339 10.0995 26.6667 11.2501 26.6667Z" fill="black"/>
<path fill-rule="evenodd" clip-rule="evenodd" d="M28.7501 26.6667C29.9007 26.6667 30.8334 25.7339 30.8334 24.5833C30.8334 23.4327 29.9007 22.5 28.7501 22.5C27.5995 22.5 26.6667 23.4327 26.6667 24.5833C26.6667 25.7339 27.5995 26.6667 28.7501 26.6667Z" fill="black"/>
<path d="M5.83325 30.8333C4.45254 30.8333 3.33325 29.7141 3.33325 28.3333V20.5914C3.33325 18.6969 4.40397 16.9651 6.09875 16.1185L6.66703 15.8346L8.592 7.57662C8.94375 6.06764 10.2888 5 11.8383 5H28.2452C29.8062 5 31.1582 6.08332 31.4983 7.6068L33.3358 15.8346L33.9028 16.118C35.5966 16.965 36.6666 18.6962 36.6666 20.5901V28.3333C36.6666 29.7141 35.5473 30.8333 34.1666 30.8333H32.5025V31.6667C32.5025 33.5076 31.0088 35 29.1679 35C27.3269 35 25.8333 33.5076 25.8333 31.6667V30.8333H14.1666V31.6669C14.1666 33.5078 12.6743 35 10.8335 35C8.99267 35 7.50036 33.5078 7.50036 31.6669V30.8333H5.83325Z" stroke="black" stroke-width="2" stroke-linejoin="round"/>
<path d="M11.6667 18.3333H28.3334L26.9567 12.1384C26.7873 11.3759 26.111 10.8333 25.3298 10.8333H14.6703C13.8892 10.8333 13.2128 11.3759 13.0434 12.1384L11.6667 18.3333Z" stroke="black" stroke-width="2" stroke-linejoin="round"/>
</svg>
