<svg width="55" height="55" viewBox="0 0 55 55" fill="none" xmlns="http://www.w3.org/2000/svg">
<path d="M33.375 5L27.125 4.625H24.125C24.025 4.625 20 6.375 18 7.25L14.5 10.875L12.125 16.375L11.625 22.125L9.5 23.875V27.375L11.625 30.75L14.75 32.75V38.75L16.75 41.125L17.75 43.25L20.375 45.875L23.125 46.875L24.625 48.75L26.25 49.625L27.75 50.75L31.5 51.5L35 50L37.125 48.625L38 46.75L39 46L40.5 42.125L41.875 38.375L41.75 35.5L42.5 32L41.75 29L42.5 26.875L43.375 21.125L41.75 13.5L39.875 8.75L33.375 5Z" fill="white"/>
<path d="M42.7047 42.9548C32.2195 53.4399 17.121 54.8118 8.94881 46.6395C0.776564 38.4673 2.14841 23.3688 12.6335 12.8837C23.1186 2.39853 38.2171 1.02669 46.3894 9.19893C54.5616 17.3712 53.1898 32.4697 42.7047 42.9548Z" stroke="white" stroke-width="2"/>
<path d="M11.7223 22.2651C10.5109 22.344 9.24328 23.4642 9.37923 26.0583C9.63017 30.8464 14.996 32.6364 14.996 32.6364C13.2501 39.4913 17.5001 41.7413 17.5001 41.7413C17.5001 46.4913 23.5001 46.7413 23.5001 46.7413C23.5001 49.8793 27.291 49.8793 27.291 49.8793C30.3183 53.0344 33.1972 51.2015 34.2582 49.8907C34.2582 49.8907 38.0001 50.1163 38.0001 46.4913C38.0001 46.4913 40.5 44.875 40.5 41.7413C40.5 41.7413 42.875 39.25 41.5001 35.4913C43.3751 32.1163 41.8656 28.6053 41.8656 28.6053C41.8656 28.6053 43.0808 26.0583 43.0808 22.9313M11.7223 22.2651C12.7469 22.1984 13.9227 23.0614 13.9835 24.223M11.7223 22.2651C11.5461 18.9035 12.176 14.385 14.8264 10.7099C17.2844 7.30141 21.471 4.25665 28.3833 4.25664C45.2501 4.25664 43.0808 22.9313 43.0808 22.9313M43.0808 22.9313C43.0808 22.9313 39.0207 22.2178 33.8688 23.342L35.7305 33.1461C35.948 34.2914 35.1656 35.4709 34.0001 35.4913L30.7501 35.4913C28.7501 35.4913 29.0001 33.3961 29.0001 33.3961M30.2028 23.406C25.2934 22.2694 20.9912 23.3168 20.9912 23.3168M28.25 40L35.25 40" stroke="#6531A2" stroke-width="1.5" stroke-linecap="round" stroke-linejoin="round"/>
<path d="M14.8264 10.7186C18.3705 12.604 17.0437 16.6276 15.7503 18.2958C17.071 19.5446 19.228 22.8584 17.2903 26.1231C18.4381 27.0672 20.4598 29.478 19.3644 31.5689C23.125 32.625 22.0352 37.431 22.0352 37.431C24.625 35.5 26.375 37.5 26.375 37.5C26.375 37.5 28.25 35.75 32.0625 35.75C35.875 35.75 37.25 37.5 37.25 37.5C37.25 37.5 38.5 35.125 41.5 35.5M23.0036 17.997C26.0084 16.0508 30.0053 18.6657 32.3524 18.5427C34.6996 18.4196 37.0422 16.414 40.3179 17.8428M25.3369 13.9917C27.4918 12.6716 30.3547 14.4397 32.0371 14.3548C33.7194 14.2699 35.3998 12.9099 37.7466 13.8753M11.75 25.25C11.75 27.15 12.625 29.5 14.25 29.5C16 29.5 16 27.25 14.25 27.25M25.25 43.25C25.25 43.25 23.75 44.25 23.75 46.75M17.75 41.75C17.75 39.875 19 38.375 19 38.375M37.75 46.75C37.75 44.95 36.9167 43.6667 36.5 43.25" stroke="#6531A2" stroke-linecap="round" stroke-linejoin="round"/>
<path d="M25.0841 25.3846C24.9008 25.7021 24.7957 26.0947 24.8031 26.5179C24.8213 27.5562 25.5093 28.3861 26.34 28.3716C27.1706 28.3571 27.8293 27.5037 27.8111 26.4654C27.8037 26.0422 27.6851 25.6535 27.4908 25.3426L25.0841 25.3846Z" fill="#6531A2"/>
<path d="M36.7401 25.1812C36.5568 25.4987 36.4517 25.8912 36.4591 26.3144C36.4773 27.3527 37.1653 28.1827 37.996 28.1682C38.8266 28.1537 39.4853 27.3002 39.4671 26.2619C39.4597 25.8387 39.341 25.4501 39.1468 25.1392L36.7401 25.1812Z" fill="#6531A2"/>
</svg>
