<svg width="72" height="74" viewBox="0 0 72 74" fill="none" xmlns="http://www.w3.org/2000/svg">
<path d="M13.0835 28.3976C11.2664 28.5159 9.36493 30.1963 9.56885 34.0874C9.94525 41.2696 17.994 43.9545 17.994 43.9545C15.3751 54.2369 21.7501 57.6119 21.7501 57.6119C21.7501 64.7369 30.7501 65.1119 30.7501 65.1119C30.7501 69.8188 36.4365 69.8188 36.4365 69.8188C40.9775 74.5516 45.2958 71.8022 46.8873 69.836C46.8873 69.836 52.5001 70.1744 52.5001 64.7369C52.5001 64.7369 56.25 62.3125 56.25 57.6119C56.25 57.6119 59.8125 53.875 57.7501 48.2369C60.5626 43.1744 58.2984 37.9079 58.2984 37.9079C58.2984 37.9079 60.1211 34.0874 60.1211 29.3968M13.0835 28.3976C14.6204 28.2975 16.384 29.5921 16.4753 31.3344M13.0835 28.3976C12.8192 23.3552 13.764 16.5774 17.7395 11.0648C21.4267 5.95205 27.7065 1.38491 38.075 1.38491C63.3751 1.3849 60.1211 29.3968 60.1211 29.3968M60.1211 29.3968C60.1211 29.3968 54.0311 28.3266 46.3031 30.013L49.0958 44.7191C49.4221 46.437 48.2485 48.2064 46.5001 48.2369L41.6251 48.2369C38.6251 48.2369 39.0001 45.0941 39.0001 45.0941M40.8041 30.109C33.4402 28.404 26.9868 29.9752 26.9868 29.9752M37.875 55L48.375 55" stroke="white" stroke-width="1.5" stroke-linecap="round" stroke-linejoin="round"/>
<path d="M17.7396 11.0779C23.0557 13.906 21.0655 19.9413 19.1255 22.4437C21.1065 24.3168 24.342 29.2875 21.4354 34.1847C23.1571 35.6007 26.1898 39.2169 24.5466 42.3533C30.1875 43.9375 28.5528 51.1465 28.5528 51.1465C32.4375 48.25 35.0625 51.25 35.0625 51.25C35.0625 51.25 37.875 48.625 43.5938 48.625C49.3125 48.625 51.375 51.25 51.375 51.25C51.375 51.25 53.25 47.6875 57.75 48.25M30.0055 21.9955C34.5126 19.0762 40.5079 22.9984 44.0286 22.8139C47.5493 22.6294 51.0633 19.621 55.9769 21.7641M33.5053 15.9875C36.7377 14.0073 41.0321 16.6595 43.5556 16.5321C46.0791 16.4047 48.5997 14.3648 52.12 15.8129M13.125 32.875C13.125 35.725 14.4375 39.25 16.875 39.25C19.5 39.25 19.5 35.875 16.875 35.875M33.375 59.875C33.375 59.875 31.125 61.375 31.125 65.125M22.125 57.625C22.125 54.8125 24 52.5625 24 52.5625M52.125 65.125C52.125 62.425 50.875 60.5 50.25 59.875" stroke="white" stroke-linecap="round" stroke-linejoin="round"/>
<path d="M33.1262 33.077C32.8512 33.5532 32.6936 34.142 32.7047 34.7768C32.7319 36.3343 33.764 37.5792 35.0099 37.5575C36.2559 37.5357 37.2439 36.2555 37.2167 34.6981C37.2056 34.0632 37.0276 33.4803 36.7361 33.014L33.1262 33.077Z" fill="white"/>
<path d="M50.6102 32.7718C50.3352 33.248 50.1776 33.8368 50.1887 34.4717C50.2159 36.0291 51.248 37.274 52.4939 37.2523C53.7399 37.2305 54.7279 35.9503 54.7007 34.3929C54.6896 33.7581 54.5116 33.1751 54.2201 32.7088L50.6102 32.7718Z" fill="white"/>
</svg>
