<svg width="31" height="31" viewBox="0 0 31 31" fill="none" xmlns="http://www.w3.org/2000/svg">
<path d="M4.6451 5.4188C4.6451 5.21326 4.72676 5.01613 4.8721 4.87079C5.01744 4.72545 5.21456 4.6438 5.4201 4.6438H6.099C7.22585 4.6438 7.87375 5.37695 8.24886 6.10855C8.50461 6.6092 8.68905 7.2199 8.8425 7.75H24.7998C25.0393 7.75007 25.2755 7.80564 25.4899 7.91235C25.7043 8.01906 25.8911 8.17401 26.0356 8.36503C26.18 8.55605 26.2783 8.77796 26.3226 9.01333C26.3669 9.2487 26.356 9.49113 26.2909 9.7216L23.9721 17.8979C23.7876 18.5465 23.3966 19.1174 22.8585 19.5238C22.3203 19.9302 21.6643 20.1501 20.9899 20.15H13.1174C12.4374 20.1502 11.7761 19.9269 11.2356 19.5143C10.695 19.1017 10.3051 18.5228 10.1259 17.8669L9.13081 14.2166C9.1251 14.2002 9.11993 14.1837 9.11531 14.167L7.51725 8.74665L7.36225 8.2243C7.20725 7.688 7.07085 7.2137 6.86625 6.81535C6.6198 6.33485 6.3935 6.19535 6.09745 6.19535H5.41855C5.21301 6.19535 5.01589 6.1137 4.87055 5.96836C4.72521 5.82302 4.64355 5.62589 4.64355 5.42035L4.6451 5.4188ZM10.6095 13.7485L11.6217 17.4623C11.7114 17.7902 11.9064 18.0794 12.1767 18.2855C12.447 18.4917 12.7775 18.6033 13.1174 18.6031H20.9914C21.3284 18.6028 21.6562 18.4926 21.925 18.2892C22.1938 18.0859 22.3889 17.8005 22.481 17.4762L24.7998 9.3H9.29976L10.6095 13.747V13.7485Z" fill="black"/>
<path d="M15.4996 24.025C15.4996 24.6416 15.2547 25.233 14.8186 25.669C14.3826 26.105 13.7912 26.35 13.1746 26.35C12.558 26.35 11.9666 26.105 11.5306 25.669C11.0946 25.233 10.8496 24.6416 10.8496 24.025C10.8496 23.4084 11.0946 22.817 11.5306 22.381C11.9666 21.945 12.558 21.7 13.1746 21.7C13.7912 21.7 14.3826 21.945 14.8186 22.381C15.2547 22.817 15.4996 23.4084 15.4996 24.025ZM13.9496 24.025C13.9496 23.8195 13.868 23.6223 13.7226 23.477C13.5773 23.3317 13.3802 23.25 13.1746 23.25C12.9691 23.25 12.7719 23.3317 12.6266 23.477C12.4813 23.6223 12.3996 23.8195 12.3996 24.025C12.3996 24.2305 12.4813 24.4277 12.6266 24.573C12.7719 24.7183 12.9691 24.8 13.1746 24.8C13.3802 24.8 13.5773 24.7183 13.7226 24.573C13.868 24.4277 13.9496 24.2305 13.9496 24.025Z" fill="black"/>
<path d="M23.2496 24.025C23.2496 24.6416 23.0047 25.233 22.5686 25.669C22.1326 26.105 21.5412 26.35 20.9246 26.35C20.308 26.35 19.7166 26.105 19.2806 25.669C18.8446 25.233 18.5996 24.6416 18.5996 24.025C18.5996 23.4084 18.8446 22.817 19.2806 22.381C19.7166 21.945 20.308 21.7 20.9246 21.7C21.5412 21.7 22.1326 21.945 22.5686 22.381C23.0047 22.817 23.2496 23.4084 23.2496 24.025ZM21.6996 24.025C21.6996 23.8195 21.618 23.6223 21.4726 23.477C21.3273 23.3317 21.1302 23.25 20.9246 23.25C20.7191 23.25 20.5219 23.3317 20.3766 23.477C20.2313 23.6223 20.1496 23.8195 20.1496 24.025C20.1496 24.2305 20.2313 24.4277 20.3766 24.573C20.5219 24.7183 20.7191 24.8 20.9246 24.8C21.1302 24.8 21.3273 24.7183 21.4726 24.573C21.618 24.4277 21.6996 24.2305 21.6996 24.025Z" fill="black"/>
</svg>
