<svg width="25" height="25" viewBox="0 0 25 25" fill="none" xmlns="http://www.w3.org/2000/svg">
<path d="M12.4999 22.5208C12.3465 22.5204 12.1976 22.4691 12.0763 22.375C8.21523 19.375 5.5555 16.7917 3.69439 14.2431C1.31939 10.9861 0.777726 7.97917 2.08328 5.30556C3.01384 3.39583 5.68745 1.83333 8.81245 2.74306C10.3024 3.17343 11.6024 4.09638 12.4999 5.36111C13.3975 4.09638 14.6975 3.17343 16.1874 2.74306C19.3055 1.84722 21.9861 3.39583 22.9166 5.30556C24.2222 7.97917 23.6805 10.9861 21.3055 14.2431C19.4444 16.7917 16.7847 19.375 12.9236 22.375C12.8023 22.4691 12.6534 22.5204 12.4999 22.5208ZM7.03467 3.875C6.2911 3.84606 5.55368 4.02017 4.90158 4.37865C4.24947 4.73712 3.70731 5.26642 3.33328 5.90972C2.25689 8.11806 2.743 10.5764 4.81939 13.4167C7.02604 16.2629 9.60996 18.7954 12.4999 20.9444C15.3895 18.7976 17.9734 16.2674 20.1805 13.4236C22.2638 10.5764 22.743 8.11806 21.6666 5.91667C20.9722 4.52778 18.8888 3.42361 16.5694 4.07639C15.8257 4.29618 15.1362 4.66925 14.5454 5.17158C13.9545 5.67391 13.4754 6.29438 13.1388 6.99306C13.0865 7.12043 12.9975 7.22936 12.8831 7.30603C12.7688 7.3827 12.6342 7.42364 12.4965 7.42364C12.3588 7.42364 12.2242 7.3827 12.1098 7.30603C11.9954 7.22936 11.9064 7.12043 11.8541 6.99306C11.5201 6.29263 11.0418 5.67072 10.4506 5.16807C9.85936 4.66543 9.1686 4.2934 8.42356 4.07639C7.97215 3.94528 7.50472 3.8775 7.03467 3.875Z" fill="black"/>
</svg>
