<svg width="19" height="19" viewBox="0 0 19 19" fill="none" xmlns="http://www.w3.org/2000/svg">
<path d="M7.62506 0.75C8.93172 0.749777 10.2114 1.12193 11.3142 1.82286C12.4169 2.52379 13.2971 3.52446 13.8516 4.70765C14.406 5.89084 14.6118 7.20754 14.4449 8.5035C14.2779 9.79945 13.7451 11.021 12.9088 12.025L18.0676 17.1825C18.1783 17.2927 18.2437 17.4405 18.2509 17.5965C18.2582 17.7526 18.2067 17.9057 18.1066 18.0257C18.0065 18.1457 17.8651 18.2239 17.7103 18.2448C17.5554 18.2657 17.3984 18.2279 17.2701 18.1387L17.1826 18.0675L12.0251 12.9088C11.1766 13.6151 10.1704 14.1067 9.09175 14.342C8.01308 14.5773 6.8936 14.5494 5.82801 14.2606C4.76241 13.9718 3.78205 13.4306 2.96983 12.6828C2.15761 11.935 1.53743 11.0026 1.16175 9.96445C0.78606 8.9263 0.66592 7.81294 0.811486 6.71854C0.957053 5.62414 1.36404 4.58089 1.99804 3.67704C2.63203 2.77318 3.47437 2.03531 4.45382 1.52582C5.43327 1.01634 6.52102 0.750226 7.62506 0.75ZM7.62506 2C6.13321 2 4.70247 2.59263 3.64758 3.64752C2.59269 4.70242 2.00006 6.13316 2.00006 7.625C2.00006 9.11684 2.59269 10.5476 3.64758 11.6025C4.70247 12.6574 6.13321 13.25 7.62506 13.25C9.1169 13.25 10.5476 12.6574 11.6025 11.6025C12.6574 10.5476 13.2501 9.11684 13.2501 7.625C13.2501 6.13316 12.6574 4.70242 11.6025 3.64752C10.5476 2.59263 9.1169 2 7.62506 2Z" fill="black"/>
</svg>
