<svg width="40" height="40" viewBox="0 0 40 40" fill="none" xmlns="http://www.w3.org/2000/svg">
<path d="M20 35.5554C28.5911 35.5554 35.5556 28.591 35.5556 19.9999C35.5556 11.4088 28.5911 4.44434 20 4.44434C11.4089 4.44434 4.44446 11.4088 4.44446 19.9999C4.44446 28.591 11.4089 35.5554 20 35.5554Z" stroke="#636363" stroke-miterlimit="10" stroke-linecap="round" stroke-linejoin="round"/>
<path d="M20 4.44434V35.5554C15.2442 35.5554 11.3889 28.591 11.3889 19.9999C11.3889 11.4088 15.2442 4.44434 20 4.44434ZM20 4.44434C24.7558 4.44434 28.6111 11.4088 28.6111 19.9999C28.6111 28.591 24.7558 35.5554 20 35.5554" stroke="#636363" stroke-miterlimit="10" stroke-linecap="round" stroke-linejoin="round"/>
<path d="M35.5556 20H4.44446" stroke="#636363" stroke-miterlimit="10" stroke-linecap="round" stroke-linejoin="round"/>
<path d="M33.3333 12.2222H6.66663" stroke="#636363" stroke-miterlimit="10" stroke-linecap="round" stroke-linejoin="round"/>
<path d="M33.3333 27.7776H6.66663" stroke="#636363" stroke-miterlimit="10" stroke-linecap="round" stroke-linejoin="round"/>
</svg>
