<svg width="35" height="35" viewBox="0 0 35 35" fill="none" xmlns="http://www.w3.org/2000/svg">
<path d="M17.5 21.875C19.9208 21.875 21.8604 19.9208 21.8604 17.5L21.875 8.75C21.875 6.32917 19.9208 4.375 17.5 4.375C15.0791 4.375 13.125 6.32917 13.125 8.75V17.5C13.125 19.9208 15.0791 21.875 17.5 21.875ZM25.2291 17.5C25.2291 21.875 21.525 24.9375 17.5 24.9375C13.475 24.9375 9.77079 21.875 9.77079 17.5H7.29163C7.29163 22.4875 11.2583 26.5854 16.0416 27.3V32.0833H18.9583V27.3C23.7416 26.6 27.7083 22.4875 27.7083 17.5H25.2291Z" fill="#636363"/>
</svg>
